<svg id="Ebene_1" data-name="Ebene 1" xmlns="http://www.w3.org/2000/svg" viewBox="0 0 100 100"><defs><style>.cls-1{fill:#149cd6;}</style></defs><title>ex-2-6</title><path class="cls-1" d="M42.94,10.83a2.21,2.21,0,0,1,0,2.87L29.28,28a1.84,1.84,0,0,1-1.29.62h0A1.84,1.84,0,0,1,26.69,28l-4.47-4.74a2.21,2.21,0,0,1,0-2.87,1.91,1.91,0,0,1,2.71,0l3.18,3.37,5.53-5.86a7.89,7.89,0,0,0-5.77-2.62,8.26,8.26,0,0,0-8,8.48,8.26,8.26,0,0,0,8,8.48,8.05,8.05,0,0,0,7.65-6,2,2,0,0,1,2.35-1.37,2.15,2.15,0,0,1,1.29,2.5,11.72,11.72,0,0,1-11.3,8.86c-6.47,0-11.77-5.61-11.77-12.48s5.3-12.48,11.77-12.48a11.7,11.7,0,0,1,8.47,3.74l4.12-4.37A1.75,1.75,0,0,1,42.94,10.83ZM39.52,50.51c0,6.86-5.3,12.48-11.77,12.48S16,57.37,16,50.51,21.28,38,27.75,38,39.52,43.64,39.52,50.51Zm-3.77,0a8.26,8.26,0,0,0-8-8.48,8.5,8.5,0,0,0,0,17C32.11,59.12,35.76,55.25,35.76,50.51Zm3.77,26.7c0,6.86-5.3,12.48-11.77,12.48S16,84.07,16,77.21s5.3-12.48,11.77-12.48S39.52,70.34,39.52,77.21Zm-3.77,0a8.26,8.26,0,0,0-8-8.48,8.5,8.5,0,0,0,0,17C32.11,85.82,35.76,81.95,35.76,77.21Zm46.38-28.7H45.53a2,2,0,0,0,0,4H82.13a2,2,0,0,0,0-4Zm0-26.58H45.53a2,2,0,0,0,0,4H82.13a2,2,0,0,0,0-4Zm0,53.28H45.53a2,2,0,0,0,0,4H82.13a2,2,0,0,0,0-4Z"/></svg>