<svg id="Ebene_1" data-name="Ebene 1" xmlns="http://www.w3.org/2000/svg" viewBox="0 0 100 100"><defs><style>.cls-1{fill:#149cd6;}</style></defs><title>ex-1-4</title><path class="cls-1" d="M15.45,19.06A5.43,5.43,0,0,0,10,24.47V78.53a1.87,1.87,0,0,0,1.8,1.8H87.53a1.87,1.87,0,0,0,1.8-1.8V24.47a5.43,5.43,0,0,0-5.41-5.41Zm0,3.6H83.93a1.76,1.76,0,0,1,1.8,1.8v7.21H13.64V24.47A1.76,1.76,0,0,1,15.45,22.66Zm3.44,2.7A1.8,1.8,0,1,0,19,29H35.27a1.8,1.8,0,1,0,0-3.6Zm-5.24,9.91H85.73V76.73H13.64ZM33.3,41.59a1.87,1.87,0,0,0-1.63,1.8V65a1.87,1.87,0,0,0,1.8,1.8H45.18a3.37,3.37,0,0,1,1.77.73,2.75,2.75,0,0,1,1,1.32,1.8,1.8,0,0,0,3.55,0,2.75,2.75,0,0,1,1-1.32,3.37,3.37,0,0,1,1.77-.73H65.91a1.87,1.87,0,0,0,1.8-1.8V43.39a1.87,1.87,0,0,0-1.8-1.8H54.19A6.89,6.89,0,0,0,50.05,43c-.14.11-.23.28-.37.39-.13-.12-.23-.29-.37-.39a6.89,6.89,0,0,0-4.14-1.38Zm2,3.6h9.91a3.62,3.62,0,0,1,2,.68A1.51,1.51,0,0,1,47.88,47v17a5.91,5.91,0,0,0-2.7-.73H35.27Zm18.92,0H64.1v18H54.19a5.91,5.91,0,0,0-2.7.73V47a1.51,1.51,0,0,1,.73-1.13A3.62,3.62,0,0,1,54.19,45.19Z"/></svg>