<svg id="Ebene_1" data-name="Ebene 1" xmlns="http://www.w3.org/2000/svg" viewBox="0 0 100 100"><defs><style>.cls-1{fill:#149cd6;}</style></defs><title>ex-2-3</title><path class="cls-1" d="M70.12,31.7H45.75V46.88H70.12V31.7ZM66.5,43.26H49.37V35.33H66.5Z"/><rect class="cls-1" x="50.85" y="37.56" width="14.16" height="3.62"/><path class="cls-1" d="M77.15,17.76V12.5H39.55a5.1,5.1,0,0,0-5.09,5.1v8.92H23.38a5.1,5.1,0,0,0-5.09,5.1V85.27h0a5.1,5.1,0,0,0,5.09,4.9H67v-14H83.15V17.76ZM38.08,17.6a1.47,1.47,0,0,1,1.47-1.47h34V66H38.08Zm-16.16,14a1.47,1.47,0,0,1,1.47-1.47H34.45V71.26h0a5.1,5.1,0,0,0,5.09,4.9H57.36V80H21.91ZM63.36,86.54h-40a1.47,1.47,0,1,1,0-2.93H61V76.15h2.38V86.54Zm16.16-14-39.42.1-.56-.1a1.47,1.47,0,1,1,0-2.93h37.6V21.39h2.38Z"/></svg>