<svg id="Ebene_1" data-name="Ebene 1" xmlns="http://www.w3.org/2000/svg" viewBox="0 0 100 100"><defs><style>.cls-1{fill:#149cd6;}</style></defs><title>ex-2-2</title><path class="cls-1" d="M88.07,43l-6.63-7.08a7.6,7.6,0,0,0-.24-.81L74.28,15.85a7.56,7.56,0,0,0-9.68-4.56L49.08,16.87a7.57,7.57,0,0,0-4.56,9.67l.26.73-1.84.66-3.72,1.34.9,2.49-.88.31-.69,1.48,0,.07-.07,0L37,32.91l-1.54.55-2,.73-1.54.55-.7,1.48,0,.07-.07,0-1.48-.7L28,36.11l-1.83.66-1.54.56L24,38.81l0,.07-.07,0-1.47-.7-1.53.55-2.84,1-1.51.54-.71,1.43-2.67,5.41-1.81,3.67L15,52.44l5.5,2.47,1.45.65,1.5-.54,21.36-7.67a8.37,8.37,0,0,0,1.84,3.11l.59.63L45.7,52.58l-3.21,3,2,2.16-.76.71-.06,1.83v.08H43.6l-1.83-.05-1.33,1.25-1.76,1.65-1.34,1.25-.06,1.82v.09H37.2l-1.83-.06L34,67.56,32.45,69,31.11,70.3l-.05,1.83v.09H31l-1.82-.06L27.81,73.4l-2.46,2.29L24,76.9,24,78.68l-.34,6.72L23.39,90,28,90l6.73.1,1.78,0,1.3-1.22,21.78-20.4,1.18-1.1,1-.94.59.63a8.45,8.45,0,0,0,11.93.39L87.68,54.94A8.44,8.44,0,0,0,88.07,43Zm-65.9,7.81-4.89-2.2,2.37-4.81,2.49-.89L26,44.7l1.82-3.85,1.48-.53,3.95,1.83,1.78-3.88,1.68-.6,3.91,1.77,1.81-3.83,3.3-1.18-.9-2.5,1.41-.51,4.15-1.49-1.49-4.15-.26-.73a3.16,3.16,0,0,1,1.9-4L66.1,15.43a3.16,3.16,0,0,1,4,1.9l3.8,10.57-1.47-1.57a8.44,8.44,0,0,0-11.93-.39L47.09,38.52a8.39,8.39,0,0,0-2.44,4.22Zm62.49.91L71.23,64.3a4,4,0,0,1-5.71-.19l-3.6-3.85-4.22,4-1.18,1.1L34.75,85.73,28,85.62l.34-6.72,2.46-2.29,4.5.15.14-4.5L37,70.78l4.5.16.15-4.5,1.76-1.65,4.5.15.14-4.5L50.74,58l-2-2.16,4.8-4.5-3.6-3.85a4,4,0,0,1-.9-1.6,4.07,4.07,0,0,1-.17-1s0,0,0-.07a4.31,4.31,0,0,1,0-.44c0-.08,0-.17,0-.25s0-.25.07-.37a4,4,0,0,1,.19-.58c0-.07.07-.14.1-.2a4,4,0,0,1,.25-.44l.12-.18a4,4,0,0,1,.48-.55L63.54,29.16a4,4,0,0,1,5.71.19l8,8.53h0l3.38,3.61h0L84.86,46A4,4,0,0,1,84.67,51.72Z"/><path class="cls-1" d="M66.35,39.73a2.17,2.17,0,0,0-3.17,3l8,8.49a2.17,2.17,0,1,0,3.17-3Z"/></svg>