<svg id="Ebene_1" data-name="Ebene 1" xmlns="http://www.w3.org/2000/svg" xmlns:xlink="http://www.w3.org/1999/xlink" viewBox="0 0 100 100"><defs><style>.cls-1{fill:none;}.cls-2{fill:#149cd6;}.cls-3{clip-path:url(#clip-path);}.cls-4{opacity:0.15;}.cls-5{fill:#fff;}</style><clipPath id="clip-path"><rect class="cls-1" width="100" height="100"/></clipPath></defs><title>home6</title><path class="cls-2" d="M72.37,65.81V20.64A6.66,6.66,0,0,0,65.72,14H20.55a6.66,6.66,0,0,0-6.66,6.66V65.81a6.66,6.66,0,0,0,6.66,6.66H65.72A6.66,6.66,0,0,0,72.37,65.81Zm-55.15,0V20.64a3.33,3.33,0,0,1,3.33-3.33H65.72A3.33,3.33,0,0,1,69,20.64V65.81a3.33,3.33,0,0,1-3.33,3.33H20.55A3.33,3.33,0,0,1,17.22,65.81Z"/><path class="cls-2" d="M79.75,72.73V24.38a1.66,1.66,0,1,0-3.33,0V72.73A3.44,3.44,0,0,1,73,76.17H24.64a1.66,1.66,0,1,0,0,3.33H73A6.77,6.77,0,0,0,79.75,72.73Z"/><path class="cls-2" d="M84.79,29.2a1.66,1.66,0,0,0-1.66,1.66V79.21a3.44,3.44,0,0,1-3.44,3.44H31.33a1.66,1.66,0,1,0,0,3.33H79.68a6.77,6.77,0,0,0,6.77-6.77V30.86A1.66,1.66,0,0,0,84.79,29.2Z"/><g class="cls-3"><g class="cls-4"><rect class="cls-2" x="99.56" y="99.66" width="58.48" height="58.48" rx="6.66" ry="6.66"/><rect class="cls-2" x="98.85" y="98.95" width="58.48" height="58.48" rx="6.66" ry="6.66"/><rect class="cls-2" x="98.15" y="98.24" width="58.48" height="58.48" rx="6.66" ry="6.66"/><rect class="cls-2" x="97.44" y="97.53" width="58.48" height="58.48" rx="6.66" ry="6.66"/><rect class="cls-2" x="96.73" y="96.83" width="58.48" height="58.48" rx="6.66" ry="6.66"/><rect class="cls-2" x="96.02" y="96.12" width="58.48" height="58.48" rx="6.66" ry="6.66"/><rect class="cls-2" x="95.31" y="95.41" width="58.48" height="58.48" rx="6.66" ry="6.66"/><rect class="cls-2" x="94.61" y="94.7" width="58.48" height="58.48" rx="6.66" ry="6.66"/><rect class="cls-2" x="93.9" y="93.99" width="58.48" height="58.48" rx="6.66" ry="6.66"/><rect class="cls-2" x="93.19" y="93.29" width="58.48" height="58.48" rx="6.66" ry="6.66"/><rect class="cls-2" x="92.48" y="92.58" width="58.48" height="58.48" rx="6.66" ry="6.66"/><rect class="cls-2" x="91.77" y="91.87" width="58.48" height="58.48" rx="6.66" ry="6.66"/><rect class="cls-2" x="91.07" y="91.16" width="58.48" height="58.48" rx="6.66" ry="6.66"/><rect class="cls-2" x="90.36" y="90.45" width="58.48" height="58.48" rx="6.66" ry="6.66"/><path class="cls-2" d="M156.22,149.19V100.84a1.66,1.66,0,0,0-3.33,0v48.35a3.44,3.44,0,0,1-3.44,3.44H101.1a1.66,1.66,0,0,0,0,3.33h48.35A6.77,6.77,0,0,0,156.22,149.19Z"/><rect class="cls-2" x="89.65" y="89.75" width="58.48" height="58.48" rx="6.66" ry="6.66"/><path class="cls-2" d="M155.51,148.49V100.14a1.66,1.66,0,0,0-3.33,0v48.35a3.44,3.44,0,0,1-3.44,3.44H100.39a1.66,1.66,0,0,0,0,3.33h48.35A6.77,6.77,0,0,0,155.51,148.49Z"/><rect class="cls-2" x="88.94" y="89.04" width="58.48" height="58.48" rx="6.66" ry="6.66"/><path class="cls-2" d="M154.8,147.78V99.43a1.66,1.66,0,1,0-3.33,0v48.35a3.44,3.44,0,0,1-3.44,3.44H99.69a1.66,1.66,0,1,0,0,3.33H148A6.77,6.77,0,0,0,154.8,147.78Z"/><rect class="cls-2" x="88.23" y="88.33" width="58.48" height="58.48" rx="6.66" ry="6.66"/><path class="cls-2" d="M154.09,147.07V98.72a1.66,1.66,0,1,0-3.33,0v48.35a3.44,3.44,0,0,1-3.44,3.44H99a1.66,1.66,0,1,0,0,3.33h48.35A6.77,6.77,0,0,0,154.09,147.07Z"/><rect class="cls-2" x="87.53" y="87.62" width="58.48" height="58.48" rx="6.66" ry="6.66"/><path class="cls-2" d="M153.38,146.36V98a1.66,1.66,0,1,0-3.33,0v48.35a3.44,3.44,0,0,1-3.44,3.44H98.27a1.66,1.66,0,1,0,0,3.33h48.35A6.77,6.77,0,0,0,153.38,146.36Z"/><rect class="cls-2" x="86.82" y="86.91" width="58.48" height="58.48" rx="6.66" ry="6.66"/><path class="cls-2" d="M152.68,145.65V97.3a1.66,1.66,0,1,0-3.33,0v48.35a3.44,3.44,0,0,1-3.44,3.44H97.56a1.66,1.66,0,1,0,0,3.33h48.35A6.77,6.77,0,0,0,152.68,145.65Z"/><rect class="cls-2" x="86.11" y="86.21" width="58.48" height="58.48" rx="6.66" ry="6.66"/><path class="cls-2" d="M152,144.95V96.6a1.66,1.66,0,1,0-3.33,0v48.35a3.44,3.44,0,0,1-3.44,3.44H96.85a1.66,1.66,0,1,0,0,3.33H145.2A6.77,6.77,0,0,0,152,144.95Z"/><rect class="cls-2" x="85.4" y="85.5" width="58.48" height="58.48" rx="6.66" ry="6.66"/><path class="cls-2" d="M151.26,144.24V95.89a1.66,1.66,0,1,0-3.33,0v48.35a3.44,3.44,0,0,1-3.44,3.44H96.15a1.66,1.66,0,1,0,0,3.33H144.5A6.77,6.77,0,0,0,151.26,144.24Z"/><rect class="cls-2" x="84.69" y="84.79" width="58.48" height="58.48" rx="6.66" ry="6.66"/><path class="cls-2" d="M150.55,143.53V95.18a1.66,1.66,0,1,0-3.33,0v48.35a3.44,3.44,0,0,1-3.44,3.44H95.44a1.66,1.66,0,1,0,0,3.33h48.35A6.77,6.77,0,0,0,150.55,143.53Z"/><rect class="cls-2" x="83.99" y="84.08" width="58.48" height="58.48" rx="6.66" ry="6.66"/><path class="cls-2" d="M149.84,142.82V94.47a1.66,1.66,0,1,0-3.33,0v48.35a3.44,3.44,0,0,1-3.44,3.44H94.73a1.66,1.66,0,1,0,0,3.33h48.35A6.77,6.77,0,0,0,149.84,142.82Z"/><path class="cls-2" d="M154.88,99.29a1.66,1.66,0,0,0-1.66,1.66v48.35a3.44,3.44,0,0,1-3.44,3.44H101.43a1.66,1.66,0,1,0,0,3.33h48.35a6.77,6.77,0,0,0,6.77-6.77V101A1.66,1.66,0,0,0,154.88,99.29Z"/><rect class="cls-2" x="83.28" y="83.37" width="58.48" height="58.48" rx="6.66" ry="6.66"/><path class="cls-2" d="M149.14,142.11V93.76a1.66,1.66,0,1,0-3.33,0v48.35a3.44,3.44,0,0,1-3.44,3.44H94a1.66,1.66,0,1,0,0,3.33h48.35A6.77,6.77,0,0,0,149.14,142.11Z"/><path class="cls-2" d="M154.17,98.58a1.66,1.66,0,0,0-1.66,1.66V148.6a3.44,3.44,0,0,1-3.44,3.44H100.72a1.66,1.66,0,1,0,0,3.33h48.35a6.77,6.77,0,0,0,6.77-6.77V100.25A1.66,1.66,0,0,0,154.17,98.58Z"/><rect class="cls-2" x="82.57" y="82.67" width="58.48" height="58.48" rx="6.66" ry="6.66"/><path class="cls-2" d="M148.43,141.41V93.06a1.66,1.66,0,1,0-3.33,0v48.35a3.44,3.44,0,0,1-3.44,3.44H93.31a1.66,1.66,0,1,0,0,3.33h48.35A6.77,6.77,0,0,0,148.43,141.41Z"/><path class="cls-2" d="M153.46,97.88a1.66,1.66,0,0,0-1.66,1.66v48.35a3.44,3.44,0,0,1-3.44,3.44H100a1.66,1.66,0,1,0,0,3.33h48.35a6.77,6.77,0,0,0,6.77-6.77V99.54A1.66,1.66,0,0,0,153.46,97.88Z"/><rect class="cls-2" x="81.86" y="81.96" width="58.48" height="58.48" rx="6.66" ry="6.66"/><path class="cls-2" d="M147.72,140.7V92.35a1.66,1.66,0,1,0-3.33,0V140.7a3.44,3.44,0,0,1-3.44,3.44H92.61a1.66,1.66,0,1,0,0,3.33H141A6.77,6.77,0,0,0,147.72,140.7Z"/><path class="cls-2" d="M152.75,97.17a1.66,1.66,0,0,0-1.66,1.66v48.35a3.44,3.44,0,0,1-3.44,3.44H99.3a1.66,1.66,0,1,0,0,3.33h48.35a6.77,6.77,0,0,0,6.77-6.77V98.83A1.66,1.66,0,0,0,152.75,97.17Z"/><rect class="cls-2" x="81.15" y="81.25" width="58.48" height="58.48" rx="6.66" ry="6.66"/><path class="cls-2" d="M147,140V91.64a1.66,1.66,0,1,0-3.33,0V140a3.44,3.44,0,0,1-3.44,3.44H91.9a1.66,1.66,0,1,0,0,3.33h48.35A6.77,6.77,0,0,0,147,140Z"/><path class="cls-2" d="M152,96.46a1.66,1.66,0,0,0-1.66,1.66v48.35a3.44,3.44,0,0,1-3.44,3.44H98.59a1.66,1.66,0,1,0,0,3.33h48.35a6.77,6.77,0,0,0,6.77-6.77V98.12A1.66,1.66,0,0,0,152,96.46Z"/><rect class="cls-2" x="80.45" y="80.54" width="58.48" height="58.48" rx="6.66" ry="6.66"/><path class="cls-2" d="M146.3,139.28V90.93a1.66,1.66,0,1,0-3.33,0v48.35a3.44,3.44,0,0,1-3.44,3.44H91.19a1.66,1.66,0,1,0,0,3.33h48.35A6.77,6.77,0,0,0,146.3,139.28Z"/><path class="cls-2" d="M151.34,95.75a1.66,1.66,0,0,0-1.66,1.66v48.35a3.44,3.44,0,0,1-3.44,3.44H97.89a1.66,1.66,0,1,0,0,3.33h48.35a6.77,6.77,0,0,0,6.77-6.77V97.42A1.66,1.66,0,0,0,151.34,95.75Z"/><rect class="cls-2" x="79.74" y="79.83" width="58.48" height="58.48" rx="6.66" ry="6.66"/><path class="cls-2" d="M145.6,138.57V90.22a1.66,1.66,0,1,0-3.33,0v48.35a3.44,3.44,0,0,1-3.44,3.44H90.48a1.66,1.66,0,1,0,0,3.33h48.35A6.77,6.77,0,0,0,145.6,138.57Z"/><path class="cls-2" d="M150.63,95A1.66,1.66,0,0,0,149,96.71v48.35a3.44,3.44,0,0,1-3.44,3.44H97.18a1.66,1.66,0,1,0,0,3.33h48.35a6.77,6.77,0,0,0,6.77-6.77V96.71A1.66,1.66,0,0,0,150.63,95Z"/><rect class="cls-2" x="79.03" y="79.13" width="58.48" height="58.48" rx="6.66" ry="6.66"/><path class="cls-2" d="M144.89,137.87V89.52a1.66,1.66,0,1,0-3.33,0v48.35a3.44,3.44,0,0,1-3.44,3.44H89.77a1.66,1.66,0,1,0,0,3.33h48.35A6.77,6.77,0,0,0,144.89,137.87Z"/><path class="cls-2" d="M149.92,94.34A1.66,1.66,0,0,0,148.26,96v48.35a3.44,3.44,0,0,1-3.44,3.44H96.47a1.66,1.66,0,1,0,0,3.33h48.35a6.77,6.77,0,0,0,6.77-6.77V96A1.66,1.66,0,0,0,149.92,94.34Z"/><rect class="cls-2" x="78.32" y="78.42" width="58.48" height="58.48" rx="6.66" ry="6.66"/><path class="cls-2" d="M144.18,137.16V88.81a1.66,1.66,0,1,0-3.33,0v48.35a3.44,3.44,0,0,1-3.44,3.44H89.07a1.66,1.66,0,1,0,0,3.33h48.35A6.77,6.77,0,0,0,144.18,137.16Z"/><path class="cls-2" d="M149.21,93.63a1.66,1.66,0,0,0-1.66,1.66v48.35a3.44,3.44,0,0,1-3.44,3.44H95.76a1.66,1.66,0,1,0,0,3.33h48.35a6.77,6.77,0,0,0,6.77-6.77V95.29A1.66,1.66,0,0,0,149.21,93.63Z"/><rect class="cls-2" x="77.61" y="77.71" width="58.48" height="58.48" rx="6.66" ry="6.66"/><path class="cls-2" d="M143.47,136.45V88.1a1.66,1.66,0,1,0-3.33,0v48.35a3.44,3.44,0,0,1-3.44,3.44H88.36a1.66,1.66,0,1,0,0,3.33h48.35A6.77,6.77,0,0,0,143.47,136.45Z"/><path class="cls-2" d="M148.51,92.92a1.66,1.66,0,0,0-1.66,1.66v48.35a3.44,3.44,0,0,1-3.44,3.44H95.05a1.66,1.66,0,1,0,0,3.33H143.4a6.77,6.77,0,0,0,6.77-6.77V94.58A1.66,1.66,0,0,0,148.51,92.92Z"/><rect class="cls-2" x="76.91" y="77" width="58.48" height="58.48" rx="6.66" ry="6.66"/><path class="cls-2" d="M142.76,135.74V87.39a1.66,1.66,0,1,0-3.33,0v48.35a3.44,3.44,0,0,1-3.44,3.44H87.65a1.66,1.66,0,1,0,0,3.33H136A6.77,6.77,0,0,0,142.76,135.74Z"/><path class="cls-2" d="M147.8,92.21a1.66,1.66,0,0,0-1.66,1.66v48.35a3.44,3.44,0,0,1-3.44,3.44H94.35a1.66,1.66,0,1,0,0,3.33H142.7a6.77,6.77,0,0,0,6.77-6.77V93.88A1.66,1.66,0,0,0,147.8,92.21Z"/><rect class="cls-2" x="76.2" y="76.29" width="58.48" height="58.48" rx="6.66" ry="6.66"/><path class="cls-2" d="M142.06,135V86.68a1.66,1.66,0,1,0-3.33,0V135a3.44,3.44,0,0,1-3.44,3.44H86.94a1.66,1.66,0,1,0,0,3.33h48.35A6.77,6.77,0,0,0,142.06,135Z"/><path class="cls-2" d="M147.09,91.5a1.66,1.66,0,0,0-1.66,1.66v48.35A3.44,3.44,0,0,1,142,145H93.64a1.66,1.66,0,1,0,0,3.33H142a6.77,6.77,0,0,0,6.77-6.77V93.17A1.66,1.66,0,0,0,147.09,91.5Z"/><rect class="cls-2" x="75.49" y="75.59" width="58.48" height="58.48" rx="6.66" ry="6.66"/><path class="cls-2" d="M141.35,134.33V86A1.66,1.66,0,1,0,138,86v48.35a3.44,3.44,0,0,1-3.44,3.44H86.23a1.66,1.66,0,1,0,0,3.33h48.35A6.77,6.77,0,0,0,141.35,134.33Z"/><path class="cls-2" d="M146.38,90.8a1.66,1.66,0,0,0-1.66,1.66v48.35a3.44,3.44,0,0,1-3.44,3.44H92.93a1.66,1.66,0,1,0,0,3.33h48.35a6.77,6.77,0,0,0,6.77-6.77V92.46A1.66,1.66,0,0,0,146.38,90.8Z"/><rect class="cls-2" x="74.78" y="74.88" width="58.48" height="58.48" rx="6.66" ry="6.66"/><path class="cls-2" d="M140.64,133.62V85.27a1.66,1.66,0,1,0-3.33,0v48.35a3.44,3.44,0,0,1-3.44,3.44H85.53a1.66,1.66,0,1,0,0,3.33h48.35A6.77,6.77,0,0,0,140.64,133.62Z"/><path class="cls-2" d="M145.67,90.09A1.66,1.66,0,0,0,144,91.75V140.1a3.44,3.44,0,0,1-3.44,3.44H92.22a1.66,1.66,0,1,0,0,3.33h48.35a6.77,6.77,0,0,0,6.77-6.77V91.75A1.66,1.66,0,0,0,145.67,90.09Z"/><rect class="cls-2" x="74.07" y="74.17" width="58.48" height="58.48" rx="6.66" ry="6.66"/><path class="cls-2" d="M139.93,132.91V84.56a1.66,1.66,0,1,0-3.33,0v48.35a3.44,3.44,0,0,1-3.44,3.44H84.82a1.66,1.66,0,1,0,0,3.33h48.35A6.77,6.77,0,0,0,139.93,132.91Z"/><path class="cls-2" d="M145,89.38A1.66,1.66,0,0,0,143.3,91v48.35a3.44,3.44,0,0,1-3.44,3.44H91.51a1.66,1.66,0,1,0,0,3.33h48.35a6.77,6.77,0,0,0,6.77-6.77V91A1.66,1.66,0,0,0,145,89.38Z"/><rect class="cls-2" x="73.37" y="73.46" width="58.48" height="58.48" rx="6.66" ry="6.66"/><path class="cls-2" d="M139.22,132.2V83.85a1.66,1.66,0,1,0-3.33,0V132.2a3.44,3.44,0,0,1-3.44,3.44H84.11a1.66,1.66,0,1,0,0,3.33h48.35A6.77,6.77,0,0,0,139.22,132.2Z"/><path class="cls-2" d="M144.26,88.67a1.66,1.66,0,0,0-1.66,1.66v48.35a3.44,3.44,0,0,1-3.44,3.44H90.81a1.66,1.66,0,1,0,0,3.33h48.35a6.77,6.77,0,0,0,6.77-6.77V90.34A1.66,1.66,0,0,0,144.26,88.67Z"/><rect class="cls-2" x="72.66" y="72.75" width="58.48" height="58.48" rx="6.66" ry="6.66"/><path class="cls-2" d="M138.52,131.49V83.14a1.66,1.66,0,1,0-3.33,0v48.35a3.44,3.44,0,0,1-3.44,3.44H83.4a1.66,1.66,0,1,0,0,3.33h48.35A6.77,6.77,0,0,0,138.52,131.49Z"/><path class="cls-2" d="M143.55,88a1.66,1.66,0,0,0-1.66,1.66V138a3.44,3.44,0,0,1-3.44,3.44H90.1a1.66,1.66,0,1,0,0,3.33h48.35a6.77,6.77,0,0,0,6.77-6.77V89.63A1.66,1.66,0,0,0,143.55,88Z"/><rect class="cls-2" x="71.95" y="72.05" width="58.48" height="58.48" rx="6.66" ry="6.66"/><path class="cls-2" d="M137.81,130.79V82.44a1.66,1.66,0,1,0-3.33,0v48.35a3.44,3.44,0,0,1-3.44,3.44H82.69a1.66,1.66,0,1,0,0,3.33H131A6.77,6.77,0,0,0,137.81,130.79Z"/><path class="cls-2" d="M142.84,87.26a1.66,1.66,0,0,0-1.66,1.66v48.35a3.44,3.44,0,0,1-3.44,3.44H89.39a1.66,1.66,0,1,0,0,3.33h48.35a6.77,6.77,0,0,0,6.77-6.77V88.92A1.66,1.66,0,0,0,142.84,87.26Z"/><rect class="cls-2" x="71.24" y="71.34" width="58.48" height="58.48" rx="6.66" ry="6.66"/><path class="cls-2" d="M137.1,130.08V81.73a1.66,1.66,0,1,0-3.33,0v48.35a3.44,3.44,0,0,1-3.44,3.44H82a1.66,1.66,0,1,0,0,3.33h48.35A6.77,6.77,0,0,0,137.1,130.08Z"/><path class="cls-2" d="M142.13,86.55a1.66,1.66,0,0,0-1.66,1.66v48.35A3.44,3.44,0,0,1,137,140H88.68a1.66,1.66,0,1,0,0,3.33H137a6.77,6.77,0,0,0,6.77-6.77V88.21A1.66,1.66,0,0,0,142.13,86.55Z"/><rect class="cls-2" x="70.53" y="70.63" width="58.48" height="58.48" rx="6.66" ry="6.66"/><path class="cls-2" d="M136.39,129.37V81a1.66,1.66,0,1,0-3.33,0v48.35a3.44,3.44,0,0,1-3.44,3.44H81.28a1.66,1.66,0,1,0,0,3.33h48.35A6.77,6.77,0,0,0,136.39,129.37Z"/><path class="cls-2" d="M141.43,85.84a1.66,1.66,0,0,0-1.66,1.66v48.35a3.44,3.44,0,0,1-3.44,3.44H88a1.66,1.66,0,1,0,0,3.33h48.35a6.77,6.77,0,0,0,6.77-6.77V87.5A1.66,1.66,0,0,0,141.43,85.84Z"/><rect class="cls-2" x="69.83" y="69.92" width="58.48" height="58.48" rx="6.66" ry="6.66"/><path class="cls-2" d="M135.68,128.66V80.31a1.66,1.66,0,1,0-3.33,0v48.35a3.44,3.44,0,0,1-3.44,3.44H80.57a1.66,1.66,0,1,0,0,3.33h48.35A6.77,6.77,0,0,0,135.68,128.66Z"/><path class="cls-2" d="M140.72,85.13a1.66,1.66,0,0,0-1.66,1.66v48.35a3.44,3.44,0,0,1-3.44,3.44H87.27a1.66,1.66,0,1,0,0,3.33h48.35a6.77,6.77,0,0,0,6.77-6.77V86.8A1.66,1.66,0,0,0,140.72,85.13Z"/><rect class="cls-2" x="69.12" y="69.21" width="58.48" height="58.48" rx="6.66" ry="6.66"/><path class="cls-2" d="M135,128V79.6a1.66,1.66,0,1,0-3.33,0V128a3.44,3.44,0,0,1-3.44,3.44H79.86a1.66,1.66,0,1,0,0,3.33h48.35A6.77,6.77,0,0,0,135,128Z"/><path class="cls-2" d="M140,84.42a1.66,1.66,0,0,0-1.66,1.66v48.35a3.44,3.44,0,0,1-3.44,3.44H86.56a1.66,1.66,0,1,0,0,3.33h48.35a6.77,6.77,0,0,0,6.77-6.77V86.09A1.66,1.66,0,0,0,140,84.42Z"/><rect class="cls-2" x="68.41" y="68.51" width="58.48" height="58.48" rx="6.66" ry="6.66"/><path class="cls-2" d="M134.27,127.25V78.9a1.66,1.66,0,1,0-3.33,0v48.35a3.44,3.44,0,0,1-3.44,3.44H79.15a1.66,1.66,0,1,0,0,3.33H127.5A6.77,6.77,0,0,0,134.27,127.25Z"/><path class="cls-2" d="M139.3,83.72a1.66,1.66,0,0,0-1.66,1.66v48.35a3.44,3.44,0,0,1-3.44,3.44H85.85a1.66,1.66,0,1,0,0,3.33H134.2a6.77,6.77,0,0,0,6.77-6.77V85.38A1.66,1.66,0,0,0,139.3,83.72Z"/><rect class="cls-2" x="67.7" y="67.8" width="58.48" height="58.48" rx="6.66" ry="6.66"/><path class="cls-2" d="M133.56,126.54V78.19a1.66,1.66,0,1,0-3.33,0v48.35A3.44,3.44,0,0,1,126.8,130H78.45a1.66,1.66,0,1,0,0,3.33H126.8A6.77,6.77,0,0,0,133.56,126.54Z"/><path class="cls-2" d="M138.59,83a1.66,1.66,0,0,0-1.66,1.66V133a3.44,3.44,0,0,1-3.44,3.44H85.14a1.66,1.66,0,1,0,0,3.33h48.35a6.77,6.77,0,0,0,6.77-6.77V84.67A1.66,1.66,0,0,0,138.59,83Z"/><rect class="cls-2" x="66.99" y="67.09" width="58.48" height="58.48" rx="6.66" ry="6.66"/><path class="cls-2" d="M132.85,125.83V77.48a1.66,1.66,0,1,0-3.33,0v48.35a3.44,3.44,0,0,1-3.44,3.44H77.74a1.66,1.66,0,1,0,0,3.33h48.35A6.77,6.77,0,0,0,132.85,125.83Z"/><path class="cls-2" d="M137.89,82.3A1.66,1.66,0,0,0,136.22,84v48.35a3.44,3.44,0,0,1-3.44,3.44H84.43a1.66,1.66,0,1,0,0,3.33h48.35a6.77,6.77,0,0,0,6.77-6.77V84A1.66,1.66,0,0,0,137.89,82.3Z"/><rect class="cls-2" x="66.29" y="66.38" width="58.48" height="58.48" rx="6.66" ry="6.66"/><path class="cls-2" d="M132.14,125.12V76.77a1.66,1.66,0,1,0-3.33,0v48.35a3.44,3.44,0,0,1-3.44,3.44H77a1.66,1.66,0,1,0,0,3.33h48.35A6.77,6.77,0,0,0,132.14,125.12Z"/><path class="cls-2" d="M137.18,81.59a1.66,1.66,0,0,0-1.66,1.66v48.35a3.44,3.44,0,0,1-3.44,3.44H83.73a1.66,1.66,0,1,0,0,3.33h48.35a6.77,6.77,0,0,0,6.77-6.77V83.26A1.66,1.66,0,0,0,137.18,81.59Z"/><rect class="cls-2" x="65.58" y="65.67" width="58.48" height="58.48" rx="6.66" ry="6.66"/><path class="cls-2" d="M131.44,124.41V76.06a1.66,1.66,0,1,0-3.33,0v48.35a3.44,3.44,0,0,1-3.44,3.44H76.32a1.66,1.66,0,1,0,0,3.33h48.35A6.77,6.77,0,0,0,131.44,124.41Z"/><path class="cls-2" d="M136.47,80.88a1.66,1.66,0,0,0-1.66,1.66V130.9a3.44,3.44,0,0,1-3.44,3.44H83a1.66,1.66,0,1,0,0,3.33h48.35a6.77,6.77,0,0,0,6.77-6.77V82.55A1.66,1.66,0,0,0,136.47,80.88Z"/><rect class="cls-2" x="64.87" y="64.97" width="58.48" height="58.48" rx="6.66" ry="6.66"/><path class="cls-2" d="M130.73,123.71V75.36a1.66,1.66,0,1,0-3.33,0v48.35a3.44,3.44,0,0,1-3.44,3.44H75.61a1.66,1.66,0,1,0,0,3.33H124A6.77,6.77,0,0,0,130.73,123.71Z"/><path class="cls-2" d="M135.76,80.18a1.66,1.66,0,0,0-1.66,1.66v48.35a3.44,3.44,0,0,1-3.44,3.44H82.31a1.66,1.66,0,1,0,0,3.33h48.35a6.77,6.77,0,0,0,6.77-6.77V81.84A1.66,1.66,0,0,0,135.76,80.18Z"/><rect class="cls-2" x="64.16" y="64.26" width="58.48" height="58.48" rx="6.66" ry="6.66"/><path class="cls-2" d="M130,123V74.65a1.66,1.66,0,1,0-3.33,0V123a3.44,3.44,0,0,1-3.44,3.44H74.91a1.66,1.66,0,1,0,0,3.33h48.35A6.77,6.77,0,0,0,130,123Z"/><path class="cls-2" d="M135.05,79.47a1.66,1.66,0,0,0-1.66,1.66v48.35a3.44,3.44,0,0,1-3.44,3.44H81.6a1.66,1.66,0,1,0,0,3.33H130a6.77,6.77,0,0,0,6.77-6.77V81.13A1.66,1.66,0,0,0,135.05,79.47Z"/><rect class="cls-2" x="63.45" y="63.55" width="58.48" height="58.48" rx="6.66" ry="6.66"/><path class="cls-2" d="M129.31,122.29V73.94a1.66,1.66,0,1,0-3.33,0v48.35a3.44,3.44,0,0,1-3.44,3.44H74.2a1.66,1.66,0,1,0,0,3.33h48.35A6.77,6.77,0,0,0,129.31,122.29Z"/><path class="cls-2" d="M134.35,78.76a1.66,1.66,0,0,0-1.66,1.66v48.35a3.44,3.44,0,0,1-3.44,3.44H80.89a1.66,1.66,0,1,0,0,3.33h48.35a6.77,6.77,0,0,0,6.77-6.77V80.42A1.66,1.66,0,0,0,134.35,78.76Z"/><rect class="cls-2" x="62.75" y="62.84" width="58.48" height="58.48" rx="6.66" ry="6.66"/><path class="cls-2" d="M128.6,121.58V73.23a1.66,1.66,0,1,0-3.33,0v48.35a3.44,3.44,0,0,1-3.44,3.44H73.49a1.66,1.66,0,1,0,0,3.33h48.35A6.77,6.77,0,0,0,128.6,121.58Z"/><path class="cls-2" d="M133.64,78.05A1.66,1.66,0,0,0,132,79.72v48.35a3.44,3.44,0,0,1-3.44,3.44H80.19a1.66,1.66,0,1,0,0,3.33h48.35a6.77,6.77,0,0,0,6.77-6.77V79.72A1.66,1.66,0,0,0,133.64,78.05Z"/><rect class="cls-2" x="62.04" y="62.13" width="58.48" height="58.48" rx="6.66" ry="6.66"/><path class="cls-2" d="M127.9,120.87V72.52a1.66,1.66,0,1,0-3.33,0v48.35a3.44,3.44,0,0,1-3.44,3.44H72.78a1.66,1.66,0,1,0,0,3.33h48.35A6.77,6.77,0,0,0,127.9,120.87Z"/><path class="cls-2" d="M132.93,77.34A1.66,1.66,0,0,0,131.27,79v48.35a3.44,3.44,0,0,1-3.44,3.44H79.48a1.66,1.66,0,1,0,0,3.33h48.35a6.77,6.77,0,0,0,6.77-6.77V79A1.66,1.66,0,0,0,132.93,77.34Z"/><rect class="cls-2" x="61.33" y="61.43" width="58.48" height="58.48" rx="6.66" ry="6.66"/><path class="cls-2" d="M127.19,120.17V71.82a1.66,1.66,0,1,0-3.33,0v48.35a3.44,3.44,0,0,1-3.44,3.44H72.07a1.66,1.66,0,1,0,0,3.33h48.35A6.77,6.77,0,0,0,127.19,120.17Z"/><path class="cls-2" d="M132.22,76.64a1.66,1.66,0,0,0-1.66,1.66v48.35a3.44,3.44,0,0,1-3.44,3.44H78.77a1.66,1.66,0,1,0,0,3.33h48.35a6.77,6.77,0,0,0,6.77-6.77V78.3A1.66,1.66,0,0,0,132.22,76.64Z"/><rect class="cls-2" x="60.62" y="60.72" width="58.48" height="58.48" rx="6.66" ry="6.66"/><path class="cls-2" d="M126.48,119.46V71.11a1.66,1.66,0,1,0-3.33,0v48.35a3.44,3.44,0,0,1-3.44,3.44H71.37a1.66,1.66,0,1,0,0,3.33h48.35A6.77,6.77,0,0,0,126.48,119.46Z"/><path class="cls-2" d="M131.51,75.93a1.66,1.66,0,0,0-1.66,1.66v48.35a3.44,3.44,0,0,1-3.44,3.44H78.06a1.66,1.66,0,1,0,0,3.33h48.35a6.77,6.77,0,0,0,6.77-6.77V77.59A1.66,1.66,0,0,0,131.51,75.93Z"/><rect class="cls-2" x="59.91" y="60.01" width="58.48" height="58.48" rx="6.66" ry="6.66"/><path class="cls-2" d="M125.77,118.75V70.4a1.66,1.66,0,1,0-3.33,0v48.35a3.44,3.44,0,0,1-3.44,3.44H70.66a1.66,1.66,0,1,0,0,3.33H119A6.77,6.77,0,0,0,125.77,118.75Z"/><path class="cls-2" d="M130.81,75.22a1.66,1.66,0,0,0-1.66,1.66v48.35a3.44,3.44,0,0,1-3.44,3.44H77.35a1.66,1.66,0,1,0,0,3.33H125.7a6.77,6.77,0,0,0,6.77-6.77V76.88A1.66,1.66,0,0,0,130.81,75.22Z"/><rect class="cls-2" x="59.21" y="59.3" width="58.48" height="58.48" rx="6.66" ry="6.66"/><path class="cls-2" d="M125.06,118V69.69a1.66,1.66,0,1,0-3.33,0V118a3.44,3.44,0,0,1-3.44,3.44H70a1.66,1.66,0,1,0,0,3.33H118.3A6.77,6.77,0,0,0,125.06,118Z"/><path class="cls-2" d="M130.1,74.51a1.66,1.66,0,0,0-1.66,1.66v48.35A3.44,3.44,0,0,1,125,128H76.65a1.66,1.66,0,1,0,0,3.33H125a6.77,6.77,0,0,0,6.77-6.77V76.18A1.66,1.66,0,0,0,130.1,74.51Z"/><rect class="cls-2" x="58.5" y="58.59" width="58.48" height="58.48" rx="6.66" ry="6.66"/><path class="cls-2" d="M124.36,117.33V69A1.66,1.66,0,1,0,121,69v48.35a3.44,3.44,0,0,1-3.44,3.44H69.24a1.66,1.66,0,1,0,0,3.33h48.35A6.77,6.77,0,0,0,124.36,117.33Z"/><path class="cls-2" d="M129.39,73.8a1.66,1.66,0,0,0-1.66,1.66v48.35a3.44,3.44,0,0,1-3.44,3.44H75.94a1.66,1.66,0,1,0,0,3.33h48.35a6.77,6.77,0,0,0,6.77-6.77V75.47A1.66,1.66,0,0,0,129.39,73.8Z"/><rect class="cls-2" x="57.79" y="57.89" width="58.48" height="58.48" rx="6.66" ry="6.66"/><path class="cls-2" d="M123.65,116.63V68.28a1.66,1.66,0,1,0-3.33,0v48.35a3.44,3.44,0,0,1-3.44,3.44H68.53a1.66,1.66,0,1,0,0,3.33h48.35A6.77,6.77,0,0,0,123.65,116.63Z"/><path class="cls-2" d="M128.68,73.1A1.66,1.66,0,0,0,127,74.76v48.35a3.44,3.44,0,0,1-3.44,3.44H75.23a1.66,1.66,0,1,0,0,3.33h48.35a6.77,6.77,0,0,0,6.77-6.77V74.76A1.66,1.66,0,0,0,128.68,73.1Z"/><rect class="cls-2" x="57.08" y="57.18" width="58.48" height="58.48" rx="6.66" ry="6.66"/><path class="cls-2" d="M122.94,115.92V67.57a1.66,1.66,0,1,0-3.33,0v48.35a3.44,3.44,0,0,1-3.44,3.44H67.83a1.66,1.66,0,1,0,0,3.33h48.35A6.77,6.77,0,0,0,122.94,115.92Z"/><path class="cls-2" d="M128,72.39a1.66,1.66,0,0,0-1.66,1.66V122.4a3.44,3.44,0,0,1-3.44,3.44H74.52a1.66,1.66,0,1,0,0,3.33h48.35a6.77,6.77,0,0,0,6.77-6.77V74.05A1.66,1.66,0,0,0,128,72.39Z"/><rect class="cls-2" x="56.37" y="56.47" width="58.48" height="58.48" rx="6.66" ry="6.66"/><path class="cls-2" d="M122.23,115.21V66.86a1.66,1.66,0,1,0-3.33,0v48.35a3.44,3.44,0,0,1-3.44,3.44H67.12a1.66,1.66,0,1,0,0,3.33h48.35A6.77,6.77,0,0,0,122.23,115.21Z"/><path class="cls-2" d="M127.27,71.68a1.66,1.66,0,0,0-1.66,1.66v48.35a3.44,3.44,0,0,1-3.44,3.44H73.81a1.66,1.66,0,1,0,0,3.33h48.35a6.77,6.77,0,0,0,6.77-6.77V73.34A1.66,1.66,0,0,0,127.27,71.68Z"/><rect class="cls-2" x="55.67" y="55.76" width="58.48" height="58.48" rx="6.66" ry="6.66"/><path class="cls-2" d="M121.52,114.5V66.15a1.66,1.66,0,1,0-3.33,0V114.5a3.44,3.44,0,0,1-3.44,3.44H66.41a1.66,1.66,0,1,0,0,3.33h48.35A6.77,6.77,0,0,0,121.52,114.5Z"/><path class="cls-2" d="M126.56,71a1.66,1.66,0,0,0-1.66,1.66V121a3.44,3.44,0,0,1-3.44,3.44H73.11a1.66,1.66,0,1,0,0,3.33h48.35a6.77,6.77,0,0,0,6.77-6.77V72.64A1.66,1.66,0,0,0,126.56,71Z"/><rect class="cls-2" x="54.96" y="55.05" width="58.48" height="58.48" rx="6.66" ry="6.66"/><path class="cls-2" d="M120.82,113.79V65.44a1.66,1.66,0,1,0-3.33,0v48.35a3.44,3.44,0,0,1-3.44,3.44H65.7a1.66,1.66,0,1,0,0,3.33h48.35A6.77,6.77,0,0,0,120.82,113.79Z"/><path class="cls-2" d="M125.85,70.26a1.66,1.66,0,0,0-1.66,1.66v48.35a3.44,3.44,0,0,1-3.44,3.44H72.4a1.66,1.66,0,1,0,0,3.33h48.35a6.77,6.77,0,0,0,6.77-6.77V71.93A1.66,1.66,0,0,0,125.85,70.26Z"/><rect class="cls-2" x="54.25" y="54.35" width="58.48" height="58.48" rx="6.66" ry="6.66"/><path class="cls-2" d="M120.11,113.09V64.74a1.66,1.66,0,1,0-3.33,0v48.35a3.44,3.44,0,0,1-3.44,3.44H65a1.66,1.66,0,1,0,0,3.33h48.35A6.77,6.77,0,0,0,120.11,113.09Z"/><path class="cls-2" d="M125.14,69.56a1.66,1.66,0,0,0-1.66,1.66v48.35A3.44,3.44,0,0,1,120,123H71.69a1.66,1.66,0,1,0,0,3.33H120a6.77,6.77,0,0,0,6.77-6.77V71.22A1.66,1.66,0,0,0,125.14,69.56Z"/><rect class="cls-2" x="53.54" y="53.64" width="58.48" height="58.48" rx="6.66" ry="6.66"/><path class="cls-2" d="M119.4,112.38V64a1.66,1.66,0,1,0-3.33,0v48.35a3.44,3.44,0,0,1-3.44,3.44H64.29a1.66,1.66,0,1,0,0,3.33h48.35A6.77,6.77,0,0,0,119.4,112.38Z"/><path class="cls-2" d="M124.43,68.85a1.66,1.66,0,0,0-1.66,1.66v48.35a3.44,3.44,0,0,1-3.44,3.44H71a1.66,1.66,0,1,0,0,3.33h48.35a6.77,6.77,0,0,0,6.77-6.77V70.51A1.66,1.66,0,0,0,124.43,68.85Z"/><rect class="cls-2" x="52.83" y="52.93" width="58.48" height="58.48" rx="6.66" ry="6.66"/><path class="cls-2" d="M118.69,111.67V63.32a1.66,1.66,0,1,0-3.33,0v48.35a3.44,3.44,0,0,1-3.44,3.44H63.58a1.66,1.66,0,1,0,0,3.33h48.35A6.77,6.77,0,0,0,118.69,111.67Z"/><path class="cls-2" d="M123.73,68.14a1.66,1.66,0,0,0-1.66,1.66v48.35a3.44,3.44,0,0,1-3.44,3.44H70.27a1.66,1.66,0,1,0,0,3.33h48.35a6.77,6.77,0,0,0,6.77-6.77V69.8A1.66,1.66,0,0,0,123.73,68.14Z"/><rect class="cls-2" x="52.13" y="52.22" width="58.48" height="58.48" rx="6.66" ry="6.66"/><path class="cls-2" d="M118,111V62.61a1.66,1.66,0,1,0-3.33,0V111a3.44,3.44,0,0,1-3.44,3.44H62.87a1.66,1.66,0,1,0,0,3.33h48.35A6.77,6.77,0,0,0,118,111Z"/><path class="cls-2" d="M123,67.43a1.66,1.66,0,0,0-1.66,1.66v48.35a3.44,3.44,0,0,1-3.44,3.44H69.57a1.66,1.66,0,1,0,0,3.33h48.35a6.77,6.77,0,0,0,6.77-6.77V69.1A1.66,1.66,0,0,0,123,67.43Z"/><rect class="cls-2" x="51.42" y="51.51" width="58.48" height="58.48" rx="6.66" ry="6.66"/><path class="cls-2" d="M117.28,110.25V61.9a1.66,1.66,0,1,0-3.33,0v48.35a3.44,3.44,0,0,1-3.44,3.44H62.16a1.66,1.66,0,1,0,0,3.33h48.35A6.77,6.77,0,0,0,117.28,110.25Z"/><path class="cls-2" d="M122.31,66.72a1.66,1.66,0,0,0-1.66,1.66v48.35a3.44,3.44,0,0,1-3.44,3.44H68.86a1.66,1.66,0,1,0,0,3.33h48.35a6.77,6.77,0,0,0,6.77-6.77V68.39A1.66,1.66,0,0,0,122.31,66.72Z"/><rect class="cls-2" x="50.71" y="50.81" width="58.48" height="58.48" rx="6.66" ry="6.66"/><path class="cls-2" d="M116.57,109.55V61.2a1.66,1.66,0,1,0-3.33,0v48.35A3.44,3.44,0,0,1,109.8,113H61.45a1.66,1.66,0,1,0,0,3.33H109.8A6.77,6.77,0,0,0,116.57,109.55Z"/><path class="cls-2" d="M121.6,66a1.66,1.66,0,0,0-1.66,1.66V116a3.44,3.44,0,0,1-3.44,3.44H68.15a1.66,1.66,0,1,0,0,3.33H116.5a6.77,6.77,0,0,0,6.77-6.77V67.68A1.66,1.66,0,0,0,121.6,66Z"/><rect class="cls-2" x="50" y="50.1" width="58.48" height="58.48" rx="6.66" ry="6.66"/><path class="cls-2" d="M115.86,108.84V60.49a1.66,1.66,0,1,0-3.33,0v48.35a3.44,3.44,0,0,1-3.44,3.44H60.75a1.66,1.66,0,1,0,0,3.33H109.1A6.77,6.77,0,0,0,115.86,108.84Z"/><path class="cls-2" d="M120.89,65.31A1.66,1.66,0,0,0,119.23,67v48.35a3.44,3.44,0,0,1-3.44,3.44H67.44a1.66,1.66,0,1,0,0,3.33h48.35a6.77,6.77,0,0,0,6.77-6.77V67A1.66,1.66,0,0,0,120.89,65.31Z"/><rect class="cls-2" x="49.29" y="49.39" width="58.48" height="58.48" rx="6.66" ry="6.66"/><path class="cls-2" d="M115.15,108.13V59.78a1.66,1.66,0,1,0-3.33,0v48.35a3.44,3.44,0,0,1-3.44,3.44H60a1.66,1.66,0,1,0,0,3.33h48.35A6.77,6.77,0,0,0,115.15,108.13Z"/><path class="cls-2" d="M120.19,64.6a1.66,1.66,0,0,0-1.66,1.66v48.35a3.44,3.44,0,0,1-3.44,3.44H66.73a1.66,1.66,0,1,0,0,3.33h48.35a6.77,6.77,0,0,0,6.77-6.77V66.26A1.66,1.66,0,0,0,120.19,64.6Z"/><rect class="cls-2" x="48.59" y="48.68" width="58.48" height="58.48" rx="6.66" ry="6.66"/><path class="cls-2" d="M114.44,107.42V59.07a1.66,1.66,0,1,0-3.33,0v48.35a3.44,3.44,0,0,1-3.44,3.44H59.33a1.66,1.66,0,1,0,0,3.33h48.35A6.77,6.77,0,0,0,114.44,107.42Z"/><path class="cls-2" d="M119.48,63.89a1.66,1.66,0,0,0-1.66,1.66v48.35a3.44,3.44,0,0,1-3.44,3.44H66a1.66,1.66,0,1,0,0,3.33h48.35a6.77,6.77,0,0,0,6.77-6.77V65.56A1.66,1.66,0,0,0,119.48,63.89Z"/><rect class="cls-2" x="47.88" y="47.97" width="58.48" height="58.48" rx="6.66" ry="6.66"/><path class="cls-2" d="M113.74,106.71V58.36a1.66,1.66,0,1,0-3.33,0v48.35a3.44,3.44,0,0,1-3.44,3.44H58.62a1.66,1.66,0,1,0,0,3.33H107A6.77,6.77,0,0,0,113.74,106.71Z"/><path class="cls-2" d="M118.77,63.18a1.66,1.66,0,0,0-1.66,1.66V113.2a3.44,3.44,0,0,1-3.44,3.44H65.32a1.66,1.66,0,1,0,0,3.33h48.35a6.77,6.77,0,0,0,6.77-6.77V64.85A1.66,1.66,0,0,0,118.77,63.18Z"/><rect class="cls-2" x="47.17" y="47.27" width="58.48" height="58.48" rx="6.66" ry="6.66"/><path class="cls-2" d="M113,106V57.66a1.66,1.66,0,1,0-3.33,0V106a3.44,3.44,0,0,1-3.44,3.44H57.91a1.66,1.66,0,1,0,0,3.33h48.35A6.77,6.77,0,0,0,113,106Z"/><path class="cls-2" d="M118.06,62.48a1.66,1.66,0,0,0-1.66,1.66v48.35a3.44,3.44,0,0,1-3.44,3.44H64.61a1.66,1.66,0,1,0,0,3.33H113a6.77,6.77,0,0,0,6.77-6.77V64.14A1.66,1.66,0,0,0,118.06,62.48Z"/><rect class="cls-2" x="46.46" y="46.56" width="58.48" height="58.48" rx="6.66" ry="6.66"/><path class="cls-2" d="M112.32,105.3V56.95a1.66,1.66,0,1,0-3.33,0V105.3a3.44,3.44,0,0,1-3.44,3.44H57.21a1.66,1.66,0,1,0,0,3.33h48.35A6.77,6.77,0,0,0,112.32,105.3Z"/><path class="cls-2" d="M117.35,61.77a1.66,1.66,0,0,0-1.66,1.66v48.35a3.44,3.44,0,0,1-3.44,3.44H63.9a1.66,1.66,0,1,0,0,3.33h48.35a6.77,6.77,0,0,0,6.77-6.77V63.43A1.66,1.66,0,0,0,117.35,61.77Z"/><rect class="cls-2" x="45.75" y="45.85" width="58.48" height="58.48" rx="6.66" ry="6.66"/><path class="cls-2" d="M111.61,104.59V56.24a1.66,1.66,0,1,0-3.33,0v48.35a3.44,3.44,0,0,1-3.44,3.44H56.5a1.66,1.66,0,1,0,0,3.33h48.35A6.77,6.77,0,0,0,111.61,104.59Z"/><path class="cls-2" d="M116.65,61.06A1.66,1.66,0,0,0,115,62.72v48.35a3.44,3.44,0,0,1-3.44,3.44H63.19a1.66,1.66,0,1,0,0,3.33h48.35a6.77,6.77,0,0,0,6.77-6.77V62.72A1.66,1.66,0,0,0,116.65,61.06Z"/><rect class="cls-2" x="45.05" y="45.14" width="58.48" height="58.48" rx="6.66" ry="6.66"/><path class="cls-2" d="M110.9,103.88V55.53a1.66,1.66,0,1,0-3.33,0v48.35a3.44,3.44,0,0,1-3.44,3.44H55.79a1.66,1.66,0,1,0,0,3.33h48.35A6.77,6.77,0,0,0,110.9,103.88Z"/><path class="cls-2" d="M115.94,60.35A1.66,1.66,0,0,0,114.27,62v48.35a3.44,3.44,0,0,1-3.44,3.44H62.49a1.66,1.66,0,1,0,0,3.33h48.35a6.77,6.77,0,0,0,6.77-6.77V62A1.66,1.66,0,0,0,115.94,60.35Z"/><rect class="cls-2" x="44.34" y="44.43" width="58.48" height="58.48" rx="6.66" ry="6.66"/><path class="cls-2" d="M110.2,103.17V54.82a1.66,1.66,0,1,0-3.33,0v48.35a3.44,3.44,0,0,1-3.44,3.44H55.08a1.66,1.66,0,1,0,0,3.33h48.35A6.77,6.77,0,0,0,110.2,103.17Z"/><path class="cls-2" d="M115.23,59.64a1.66,1.66,0,0,0-1.66,1.66v48.35a3.44,3.44,0,0,1-3.44,3.44H61.78a1.66,1.66,0,1,0,0,3.33h48.35a6.77,6.77,0,0,0,6.77-6.77V61.31A1.66,1.66,0,0,0,115.23,59.64Z"/><rect class="cls-2" x="43.63" y="43.73" width="58.48" height="58.48" rx="6.66" ry="6.66"/><path class="cls-2" d="M109.49,102.47V54.12a1.66,1.66,0,1,0-3.33,0v48.35a3.44,3.44,0,0,1-3.44,3.44H54.37a1.66,1.66,0,1,0,0,3.33h48.35A6.77,6.77,0,0,0,109.49,102.47Z"/><path class="cls-2" d="M114.52,58.94a1.66,1.66,0,0,0-1.66,1.66v48.35a3.44,3.44,0,0,1-3.44,3.44H61.07a1.66,1.66,0,1,0,0,3.33h48.35a6.77,6.77,0,0,0,6.77-6.77V60.6A1.66,1.66,0,0,0,114.52,58.94Z"/><rect class="cls-2" x="42.92" y="43.02" width="58.48" height="58.48" rx="6.66" ry="6.66"/><path class="cls-2" d="M108.78,101.76V53.41a1.66,1.66,0,1,0-3.33,0v48.35A3.44,3.44,0,0,1,102,105.2H53.67a1.66,1.66,0,1,0,0,3.33H102A6.77,6.77,0,0,0,108.78,101.76Z"/><path class="cls-2" d="M113.81,58.23a1.66,1.66,0,0,0-1.66,1.66v48.35a3.44,3.44,0,0,1-3.44,3.44H60.36a1.66,1.66,0,1,0,0,3.33h48.35a6.77,6.77,0,0,0,6.77-6.77V59.89A1.66,1.66,0,0,0,113.81,58.23Z"/><rect class="cls-2" x="42.21" y="42.31" width="58.48" height="58.48" rx="6.66" ry="6.66"/><path class="cls-2" d="M108.07,101V52.7a1.66,1.66,0,1,0-3.33,0V101a3.44,3.44,0,0,1-3.44,3.44H53a1.66,1.66,0,1,0,0,3.33h48.35A6.77,6.77,0,0,0,108.07,101Z"/><path class="cls-2" d="M113.11,57.52a1.66,1.66,0,0,0-1.66,1.66v48.35A3.44,3.44,0,0,1,108,111H59.65a1.66,1.66,0,1,0,0,3.33H108a6.77,6.77,0,0,0,6.77-6.77V59.18A1.66,1.66,0,0,0,113.11,57.52Z"/><rect class="cls-2" x="41.51" y="41.6" width="58.48" height="58.48" rx="6.66" ry="6.66"/><path class="cls-2" d="M107.36,100.34V52A1.66,1.66,0,1,0,104,52v48.35a3.44,3.44,0,0,1-3.44,3.44H52.25a1.66,1.66,0,1,0,0,3.33H100.6A6.77,6.77,0,0,0,107.36,100.34Z"/><path class="cls-2" d="M112.4,56.81a1.66,1.66,0,0,0-1.66,1.66v48.35a3.44,3.44,0,0,1-3.44,3.44H58.95a1.66,1.66,0,1,0,0,3.33H107.3a6.77,6.77,0,0,0,6.77-6.77V58.48A1.66,1.66,0,0,0,112.4,56.81Z"/><rect class="cls-2" x="40.8" y="40.89" width="58.48" height="58.48" rx="6.66" ry="6.66"/><path class="cls-2" d="M106.66,99.63V51.28a1.66,1.66,0,1,0-3.33,0V99.63a3.44,3.44,0,0,1-3.44,3.44H51.54a1.66,1.66,0,1,0,0,3.33H99.89A6.77,6.77,0,0,0,106.66,99.63Z"/><path class="cls-2" d="M111.69,56.1A1.66,1.66,0,0,0,110,57.77v48.35a3.44,3.44,0,0,1-3.44,3.44H58.24a1.66,1.66,0,1,0,0,3.33h48.35a6.77,6.77,0,0,0,6.77-6.77V57.77A1.66,1.66,0,0,0,111.69,56.1Z"/><rect class="cls-2" x="40.09" y="40.19" width="58.48" height="58.48" rx="6.66" ry="6.66"/><path class="cls-2" d="M105.95,98.93V50.58a1.66,1.66,0,1,0-3.33,0V98.93a3.44,3.44,0,0,1-3.44,3.44H50.83a1.66,1.66,0,1,0,0,3.33H99.18A6.77,6.77,0,0,0,105.95,98.93Z"/><path class="cls-2" d="M111,55.4a1.66,1.66,0,0,0-1.66,1.66v48.35a3.44,3.44,0,0,1-3.44,3.44H57.53a1.66,1.66,0,1,0,0,3.33h48.35a6.77,6.77,0,0,0,6.77-6.77V57.06A1.66,1.66,0,0,0,111,55.4Z"/><rect class="cls-2" x="39.38" y="39.48" width="58.48" height="58.48" rx="6.66" ry="6.66"/><path class="cls-2" d="M105.24,98.22V49.87a1.66,1.66,0,1,0-3.33,0V98.22a3.44,3.44,0,0,1-3.44,3.44H50.13a1.66,1.66,0,1,0,0,3.33H98.48A6.77,6.77,0,0,0,105.24,98.22Z"/><path class="cls-2" d="M110.27,54.69a1.66,1.66,0,0,0-1.66,1.66V104.7a3.44,3.44,0,0,1-3.44,3.44H56.82a1.66,1.66,0,1,0,0,3.33h48.35a6.77,6.77,0,0,0,6.77-6.77V56.35A1.66,1.66,0,0,0,110.27,54.69Z"/><rect class="cls-2" x="38.67" y="38.77" width="58.48" height="58.48" rx="6.66" ry="6.66"/><path class="cls-2" d="M104.53,97.51V49.16a1.66,1.66,0,1,0-3.33,0V97.51a3.44,3.44,0,0,1-3.44,3.44H49.42a1.66,1.66,0,1,0,0,3.33H97.77A6.77,6.77,0,0,0,104.53,97.51Z"/><path class="cls-2" d="M109.57,54a1.66,1.66,0,0,0-1.66,1.66V104a3.44,3.44,0,0,1-3.44,3.44H56.11a1.66,1.66,0,1,0,0,3.33h48.35a6.77,6.77,0,0,0,6.77-6.77V55.64A1.66,1.66,0,0,0,109.57,54Z"/><rect class="cls-2" x="37.97" y="38.06" width="58.48" height="58.48" rx="6.66" ry="6.66"/><path class="cls-2" d="M103.82,96.8V48.45a1.66,1.66,0,1,0-3.33,0V96.8a3.44,3.44,0,0,1-3.44,3.44H48.71a1.66,1.66,0,1,0,0,3.33H97.06A6.77,6.77,0,0,0,103.82,96.8Z"/><path class="cls-2" d="M108.86,53.27a1.66,1.66,0,0,0-1.66,1.66v48.35a3.44,3.44,0,0,1-3.44,3.44H55.41a1.66,1.66,0,1,0,0,3.33h48.35a6.77,6.77,0,0,0,6.77-6.77V54.94A1.66,1.66,0,0,0,108.86,53.27Z"/><rect class="cls-2" x="37.26" y="37.35" width="58.48" height="58.48" rx="6.66" ry="6.66"/><path class="cls-2" d="M103.12,96.09V47.74a1.66,1.66,0,1,0-3.33,0V96.09a3.44,3.44,0,0,1-3.44,3.44H48a1.66,1.66,0,1,0,0,3.33H96.35A6.77,6.77,0,0,0,103.12,96.09Z"/><path class="cls-2" d="M108.15,52.56a1.66,1.66,0,0,0-1.66,1.66v48.35A3.44,3.44,0,0,1,103,106H54.7a1.66,1.66,0,1,0,0,3.33H103a6.77,6.77,0,0,0,6.77-6.77V54.23A1.66,1.66,0,0,0,108.15,52.56Z"/><rect class="cls-2" x="36.55" y="36.65" width="58.48" height="58.48" rx="6.66" ry="6.66"/><path class="cls-2" d="M102.41,95.39V47a1.66,1.66,0,1,0-3.33,0V95.39a3.44,3.44,0,0,1-3.44,3.44H47.29a1.66,1.66,0,1,0,0,3.33H95.64A6.77,6.77,0,0,0,102.41,95.39Z"/><path class="cls-2" d="M107.44,51.86a1.66,1.66,0,0,0-1.66,1.66v48.35a3.44,3.44,0,0,1-3.44,3.44H54a1.66,1.66,0,1,0,0,3.33h48.35a6.77,6.77,0,0,0,6.77-6.77V53.52A1.66,1.66,0,0,0,107.44,51.86Z"/><rect class="cls-2" x="35.84" y="35.94" width="58.48" height="58.48" rx="6.66" ry="6.66"/><path class="cls-2" d="M101.7,94.68V46.33a1.66,1.66,0,1,0-3.33,0V94.68a3.44,3.44,0,0,1-3.44,3.44H46.59a1.66,1.66,0,1,0,0,3.33H94.94A6.77,6.77,0,0,0,101.7,94.68Z"/><path class="cls-2" d="M106.73,51.15a1.66,1.66,0,0,0-1.66,1.66v48.35a3.44,3.44,0,0,1-3.44,3.44H53.28a1.66,1.66,0,1,0,0,3.33h48.35a6.77,6.77,0,0,0,6.77-6.77V52.81A1.66,1.66,0,0,0,106.73,51.15Z"/><rect class="cls-2" x="35.13" y="35.23" width="58.48" height="58.48" rx="6.66" ry="6.66"/><path class="cls-2" d="M101,94V45.62a1.66,1.66,0,1,0-3.33,0V94a3.44,3.44,0,0,1-3.44,3.44H45.88a1.66,1.66,0,1,0,0,3.33H94.23A6.77,6.77,0,0,0,101,94Z"/><path class="cls-2" d="M106,50.44a1.66,1.66,0,0,0-1.66,1.66v48.35a3.44,3.44,0,0,1-3.44,3.44H52.57a1.66,1.66,0,1,0,0,3.33h48.35a6.77,6.77,0,0,0,6.77-6.77V52.1A1.66,1.66,0,0,0,106,50.44Z"/><rect class="cls-2" x="34.43" y="34.52" width="58.48" height="58.48" rx="6.66" ry="6.66"/><path class="cls-2" d="M100.28,93.26V44.91a1.66,1.66,0,1,0-3.33,0V93.26a3.44,3.44,0,0,1-3.44,3.44H45.17a1.66,1.66,0,1,0,0,3.33H93.52A6.77,6.77,0,0,0,100.28,93.26Z"/><path class="cls-2" d="M105.32,49.73a1.66,1.66,0,0,0-1.66,1.66V99.75a3.44,3.44,0,0,1-3.44,3.44H51.87a1.66,1.66,0,1,0,0,3.33h48.35A6.77,6.77,0,0,0,107,99.75V51.4A1.66,1.66,0,0,0,105.32,49.73Z"/><rect class="cls-2" x="33.72" y="33.81" width="58.48" height="58.48" rx="6.66" ry="6.66"/><path class="cls-2" d="M99.58,92.55V44.2a1.66,1.66,0,1,0-3.33,0V92.55A3.44,3.44,0,0,1,92.81,96H44.46a1.66,1.66,0,1,0,0,3.33H92.81A6.77,6.77,0,0,0,99.58,92.55Z"/><path class="cls-2" d="M104.61,49a1.66,1.66,0,0,0-1.66,1.66V99a3.44,3.44,0,0,1-3.44,3.44H51.16a1.66,1.66,0,1,0,0,3.33H99.51A6.77,6.77,0,0,0,106.27,99V50.69A1.66,1.66,0,0,0,104.61,49Z"/><rect class="cls-2" x="33.01" y="33.11" width="58.48" height="58.48" rx="6.66" ry="6.66"/><path class="cls-2" d="M98.87,91.85V43.5a1.66,1.66,0,1,0-3.33,0V91.85a3.44,3.44,0,0,1-3.44,3.44H43.75a1.66,1.66,0,1,0,0,3.33H92.1A6.77,6.77,0,0,0,98.87,91.85Z"/><path class="cls-2" d="M103.9,48.32A1.66,1.66,0,0,0,102.24,50V98.33a3.44,3.44,0,0,1-3.44,3.44H50.45a1.66,1.66,0,1,0,0,3.33H98.8a6.77,6.77,0,0,0,6.77-6.77V50A1.66,1.66,0,0,0,103.9,48.32Z"/><rect class="cls-2" x="32.3" y="32.4" width="58.48" height="58.48" rx="6.66" ry="6.66"/><path class="cls-2" d="M98.16,91.14V42.79a1.66,1.66,0,1,0-3.33,0V91.14a3.44,3.44,0,0,1-3.44,3.44H43a1.66,1.66,0,1,0,0,3.33H91.4A6.77,6.77,0,0,0,98.16,91.14Z"/><path class="cls-2" d="M103.19,47.61a1.66,1.66,0,0,0-1.66,1.66V97.62a3.44,3.44,0,0,1-3.44,3.44H49.74a1.66,1.66,0,1,0,0,3.33H98.09a6.77,6.77,0,0,0,6.77-6.77V49.27A1.66,1.66,0,0,0,103.19,47.61Z"/><rect class="cls-2" x="31.59" y="31.69" width="58.48" height="58.48" rx="6.66" ry="6.66"/><path class="cls-2" d="M97.45,90.43V42.08a1.66,1.66,0,1,0-3.33,0V90.43a3.44,3.44,0,0,1-3.44,3.44H42.34a1.66,1.66,0,1,0,0,3.33H90.69A6.77,6.77,0,0,0,97.45,90.43Z"/><path class="cls-2" d="M102.49,46.9a1.66,1.66,0,0,0-1.66,1.66V96.91a3.44,3.44,0,0,1-3.44,3.44H49a1.66,1.66,0,1,0,0,3.33H97.38a6.77,6.77,0,0,0,6.77-6.77V48.56A1.66,1.66,0,0,0,102.49,46.9Z"/><rect class="cls-2" x="30.89" y="30.98" width="58.48" height="58.48" rx="6.66" ry="6.66"/><path class="cls-2" d="M96.74,89.72V41.37a1.66,1.66,0,0,0-3.33,0V89.72A3.44,3.44,0,0,1,90,93.16H41.63a1.66,1.66,0,1,0,0,3.33H90A6.77,6.77,0,0,0,96.74,89.72Z"/><path class="cls-2" d="M101.78,46.19a1.66,1.66,0,0,0-1.66,1.66V96.21a3.44,3.44,0,0,1-3.44,3.44H48.33a1.66,1.66,0,1,0,0,3.33H96.68a6.77,6.77,0,0,0,6.77-6.77V47.86A1.66,1.66,0,0,0,101.78,46.19Z"/><rect class="cls-2" x="30.18" y="30.27" width="58.48" height="58.48" rx="6.66" ry="6.66"/><path class="cls-2" d="M96,89V40.66a1.66,1.66,0,1,0-3.33,0V89a3.44,3.44,0,0,1-3.44,3.44H40.92a1.66,1.66,0,0,0,0,3.33H89.27A6.77,6.77,0,0,0,96,89Z"/><path class="cls-2" d="M101.07,45.48a1.66,1.66,0,0,0-1.66,1.66V95.5A3.44,3.44,0,0,1,96,98.94H47.62a1.66,1.66,0,1,0,0,3.33H96a6.77,6.77,0,0,0,6.77-6.77V47.15A1.66,1.66,0,0,0,101.07,45.48Z"/><rect class="cls-2" x="29.47" y="29.57" width="58.48" height="58.48" rx="6.66" ry="6.66"/><path class="cls-2" d="M95.33,88.31V40A1.66,1.66,0,1,0,92,40V88.31a3.44,3.44,0,0,1-3.44,3.44H40.21a1.66,1.66,0,0,0,0,3.33H88.56A6.77,6.77,0,0,0,95.33,88.31Z"/><path class="cls-2" d="M100.36,44.78a1.66,1.66,0,0,0-1.66,1.66V94.79a3.44,3.44,0,0,1-3.44,3.44H46.91a1.66,1.66,0,1,0,0,3.33H95.26A6.77,6.77,0,0,0,102,94.79V46.44A1.66,1.66,0,0,0,100.36,44.78Z"/><rect class="cls-2" x="28.76" y="28.86" width="58.48" height="58.48" rx="6.66" ry="6.66"/><path class="cls-2" d="M94.62,87.6V39.25a1.66,1.66,0,0,0-3.33,0V87.6A3.44,3.44,0,0,1,87.86,91H39.51a1.66,1.66,0,0,0,0,3.33H87.86A6.77,6.77,0,0,0,94.62,87.6Z"/><path class="cls-2" d="M99.65,44.07A1.66,1.66,0,0,0,98,45.73V94.08a3.44,3.44,0,0,1-3.44,3.44H46.2a1.66,1.66,0,1,0,0,3.33H94.55a6.77,6.77,0,0,0,6.77-6.77V45.73A1.66,1.66,0,0,0,99.65,44.07Z"/><rect class="cls-2" x="28.05" y="28.15" width="58.48" height="58.48" rx="6.66" ry="6.66"/><path class="cls-2" d="M93.91,86.89V38.54a1.66,1.66,0,0,0-3.33,0V86.89a3.44,3.44,0,0,1-3.44,3.44H38.8a1.66,1.66,0,0,0,0,3.33H87.15A6.77,6.77,0,0,0,93.91,86.89Z"/><path class="cls-2" d="M98.95,43.36A1.66,1.66,0,0,0,97.28,45V93.37a3.44,3.44,0,0,1-3.44,3.44H45.49a1.66,1.66,0,1,0,0,3.33H93.84a6.77,6.77,0,0,0,6.77-6.77V45A1.66,1.66,0,0,0,98.95,43.36Z"/><rect class="cls-2" x="27.35" y="27.44" width="58.48" height="58.48" rx="6.66" ry="6.66"/><path class="cls-2" d="M93.2,86.18V37.83a1.66,1.66,0,0,0-3.33,0V86.18a3.44,3.44,0,0,1-3.44,3.44H38.09a1.66,1.66,0,0,0,0,3.33H86.44A6.77,6.77,0,0,0,93.2,86.18Z"/><path class="cls-2" d="M98.24,42.65a1.66,1.66,0,0,0-1.66,1.66V92.67a3.44,3.44,0,0,1-3.44,3.44H44.79a1.66,1.66,0,1,0,0,3.33H93.14a6.77,6.77,0,0,0,6.77-6.77V44.32A1.66,1.66,0,0,0,98.24,42.65Z"/><rect class="cls-2" x="26.64" y="26.73" width="58.48" height="58.48" rx="6.66" ry="6.66"/><path class="cls-2" d="M92.5,85.47V37.12a1.66,1.66,0,0,0-3.33,0V85.47a3.44,3.44,0,0,1-3.44,3.44H37.38a1.66,1.66,0,0,0,0,3.33H85.73A6.77,6.77,0,0,0,92.5,85.47Z"/><path class="cls-2" d="M97.53,41.94a1.66,1.66,0,0,0-1.66,1.66V92a3.44,3.44,0,0,1-3.44,3.44H44.08a1.66,1.66,0,1,0,0,3.33H92.43A6.77,6.77,0,0,0,99.19,92V43.61A1.66,1.66,0,0,0,97.53,41.94Z"/><rect class="cls-2" x="25.93" y="26.03" width="58.48" height="58.48" rx="6.66" ry="6.66"/><path class="cls-2" d="M91.79,84.77V36.42a1.66,1.66,0,0,0-3.33,0V84.77A3.44,3.44,0,0,1,85,88.2H36.67a1.66,1.66,0,0,0,0,3.33H85A6.77,6.77,0,0,0,91.79,84.77Z"/><path class="cls-2" d="M96.82,41.24a1.66,1.66,0,0,0-1.66,1.66V91.25a3.44,3.44,0,0,1-3.44,3.44H43.37a1.66,1.66,0,1,0,0,3.33H91.72a6.77,6.77,0,0,0,6.77-6.77V42.9A1.66,1.66,0,0,0,96.82,41.24Z"/><rect class="cls-2" x="25.22" y="25.32" width="58.48" height="58.48" rx="6.66" ry="6.66"/><path class="cls-2" d="M91.08,84.06V35.71a1.66,1.66,0,0,0-3.33,0V84.06a3.44,3.44,0,0,1-3.44,3.44H36a1.66,1.66,0,0,0,0,3.33H84.32A6.77,6.77,0,0,0,91.08,84.06Z"/><path class="cls-2" d="M96.11,40.53a1.66,1.66,0,0,0-1.66,1.66V90.54A3.44,3.44,0,0,1,91,94H42.66a1.66,1.66,0,1,0,0,3.33H91a6.77,6.77,0,0,0,6.77-6.77V42.19A1.66,1.66,0,0,0,96.11,40.53Z"/><rect class="cls-2" x="24.51" y="24.61" width="58.48" height="58.48" rx="6.66" ry="6.66"/><path class="cls-2" d="M90.37,83.35V35A1.66,1.66,0,0,0,87,35V83.35a3.44,3.44,0,0,1-3.44,3.44H35.26a1.66,1.66,0,0,0,0,3.33H83.61A6.77,6.77,0,0,0,90.37,83.35Z"/><path class="cls-2" d="M95.41,39.82a1.66,1.66,0,0,0-1.66,1.66V89.83a3.44,3.44,0,0,1-3.44,3.44H42a1.66,1.66,0,1,0,0,3.33H90.3a6.77,6.77,0,0,0,6.77-6.77V41.48A1.66,1.66,0,0,0,95.41,39.82Z"/><rect class="cls-2" x="23.81" y="23.9" width="58.48" height="58.48" rx="6.66" ry="6.66"/><path class="cls-2" d="M89.66,82.64V34.29a1.66,1.66,0,1,0-3.33,0V82.64a3.44,3.44,0,0,1-3.44,3.44H34.55a1.66,1.66,0,1,0,0,3.33H82.9A6.77,6.77,0,0,0,89.66,82.64Z"/><path class="cls-2" d="M94.7,39.11A1.66,1.66,0,0,0,93,40.78V89.13a3.44,3.44,0,0,1-3.44,3.44H41.25a1.66,1.66,0,1,0,0,3.33H89.6a6.77,6.77,0,0,0,6.77-6.77V40.78A1.66,1.66,0,0,0,94.7,39.11Z"/><rect class="cls-2" x="23.1" y="23.19" width="58.48" height="58.48" rx="6.66" ry="6.66"/><path class="cls-2" d="M89,81.93V33.58a1.66,1.66,0,1,0-3.33,0V81.93a3.44,3.44,0,0,1-3.44,3.44H33.84a1.66,1.66,0,1,0,0,3.33H82.19A6.77,6.77,0,0,0,89,81.93Z"/><path class="cls-2" d="M94,38.4a1.66,1.66,0,0,0-1.66,1.66V88.42a3.44,3.44,0,0,1-3.44,3.44H40.54a1.66,1.66,0,1,0,0,3.33H88.89a6.77,6.77,0,0,0,6.77-6.77V40.07A1.66,1.66,0,0,0,94,38.4Z"/><rect class="cls-2" x="22.39" y="22.49" width="58.48" height="58.48" rx="6.66" ry="6.66"/><path class="cls-2" d="M88.25,81.23V32.88a1.66,1.66,0,1,0-3.33,0V81.23a3.44,3.44,0,0,1-3.44,3.44H33.13a1.66,1.66,0,1,0,0,3.33H81.48A6.77,6.77,0,0,0,88.25,81.23Z"/><path class="cls-2" d="M93.28,37.7a1.66,1.66,0,0,0-1.66,1.66V87.71a3.44,3.44,0,0,1-3.44,3.44H39.83a1.66,1.66,0,1,0,0,3.33H88.18a6.77,6.77,0,0,0,6.77-6.77V39.36A1.66,1.66,0,0,0,93.28,37.7Z"/><rect class="cls-2" x="21.68" y="21.78" width="58.48" height="58.48" rx="6.66" ry="6.66"/><path class="cls-2" d="M87.54,80.52V32.17a1.66,1.66,0,1,0-3.33,0V80.52A3.44,3.44,0,0,1,80.78,84H32.43a1.66,1.66,0,1,0,0,3.33H80.78A6.77,6.77,0,0,0,87.54,80.52Z"/><path class="cls-2" d="M92.57,37a1.66,1.66,0,0,0-1.66,1.66V87a3.44,3.44,0,0,1-3.44,3.44H39.12a1.66,1.66,0,1,0,0,3.33H87.47A6.77,6.77,0,0,0,94.24,87V38.65A1.66,1.66,0,0,0,92.57,37Z"/><rect class="cls-2" x="20.97" y="21.07" width="58.48" height="58.48" rx="6.66" ry="6.66"/><path class="cls-2" d="M86.83,79.81V31.46a1.66,1.66,0,1,0-3.33,0V79.81a3.44,3.44,0,0,1-3.44,3.44H31.72a1.66,1.66,0,1,0,0,3.33H80.07A6.77,6.77,0,0,0,86.83,79.81Z"/><path class="cls-2" d="M91.87,36.28a1.66,1.66,0,0,0-1.66,1.66V86.29a3.44,3.44,0,0,1-3.44,3.44H38.41a1.66,1.66,0,1,0,0,3.33H86.76a6.77,6.77,0,0,0,6.77-6.77V37.94A1.66,1.66,0,0,0,91.87,36.28Z"/><rect class="cls-2" x="20.27" y="20.36" width="58.48" height="58.48" rx="6.66" ry="6.66"/><path class="cls-2" d="M86.12,79.1V30.75a1.66,1.66,0,1,0-3.33,0V79.1a3.44,3.44,0,0,1-3.44,3.44H31a1.66,1.66,0,1,0,0,3.33H79.36A6.77,6.77,0,0,0,86.12,79.1Z"/><path class="cls-2" d="M91.16,35.57a1.66,1.66,0,0,0-1.66,1.66V85.59A3.44,3.44,0,0,1,86.06,89H37.71a1.66,1.66,0,1,0,0,3.33H86.06a6.77,6.77,0,0,0,6.77-6.77V37.24A1.66,1.66,0,0,0,91.16,35.57Z"/><rect class="cls-2" x="19.56" y="19.65" width="58.48" height="58.48" rx="6.66" ry="6.66"/><path class="cls-2" d="M85.42,78.39V30a1.66,1.66,0,1,0-3.33,0V78.39a3.44,3.44,0,0,1-3.44,3.44H30.3a1.66,1.66,0,1,0,0,3.33H78.65A6.77,6.77,0,0,0,85.42,78.39Z"/><path class="cls-2" d="M90.45,34.86a1.66,1.66,0,0,0-1.66,1.66V84.88a3.44,3.44,0,0,1-3.44,3.44H37a1.66,1.66,0,1,0,0,3.33H85.35a6.77,6.77,0,0,0,6.77-6.77V36.53A1.66,1.66,0,0,0,90.45,34.86Z"/><rect class="cls-2" x="18.85" y="18.95" width="58.48" height="58.48" rx="6.66" ry="6.66"/><path class="cls-2" d="M84.71,77.69V29.34a1.66,1.66,0,1,0-3.33,0V77.69a3.44,3.44,0,0,1-3.44,3.44H29.59a1.66,1.66,0,1,0,0,3.33H77.94A6.77,6.77,0,0,0,84.71,77.69Z"/><path class="cls-2" d="M89.74,34.16a1.66,1.66,0,0,0-1.66,1.66V84.17a3.44,3.44,0,0,1-3.44,3.44H36.29a1.66,1.66,0,1,0,0,3.33H84.64a6.77,6.77,0,0,0,6.77-6.77V35.82A1.66,1.66,0,0,0,89.74,34.16Z"/><rect class="cls-2" x="18.14" y="18.24" width="58.48" height="58.48" rx="6.66" ry="6.66"/><path class="cls-2" d="M84,77V28.63a1.66,1.66,0,0,0-3.33,0V77a3.44,3.44,0,0,1-3.44,3.44H28.89a1.66,1.66,0,1,0,0,3.33H77.24A6.77,6.77,0,0,0,84,77Z"/><path class="cls-2" d="M89,33.45a1.66,1.66,0,0,0-1.66,1.66V83.46a3.44,3.44,0,0,1-3.44,3.44H35.58a1.66,1.66,0,1,0,0,3.33H83.93a6.77,6.77,0,0,0,6.77-6.77V35.11A1.66,1.66,0,0,0,89,33.45Z"/><rect class="cls-2" x="17.43" y="17.53" width="58.48" height="58.48" rx="6.66" ry="6.66"/><path class="cls-2" d="M83.29,76.27V27.92a1.66,1.66,0,0,0-3.33,0V76.27a3.44,3.44,0,0,1-3.44,3.44H28.18a1.66,1.66,0,0,0,0,3.33H76.53A6.77,6.77,0,0,0,83.29,76.27Z"/><path class="cls-2" d="M88.33,32.74a1.66,1.66,0,0,0-1.66,1.66V82.75a3.44,3.44,0,0,1-3.44,3.44H34.87a1.66,1.66,0,1,0,0,3.33H83.22A6.77,6.77,0,0,0,90,82.75V34.4A1.66,1.66,0,0,0,88.33,32.74Z"/><rect class="cls-2" x="16.73" y="16.82" width="58.48" height="58.48" rx="6.66" ry="6.66"/><path class="cls-2" d="M82.58,75.56V27.21a1.66,1.66,0,0,0-3.33,0V75.56A3.44,3.44,0,0,1,75.82,79H27.47a1.66,1.66,0,1,0,0,3.33H75.82A6.77,6.77,0,0,0,82.58,75.56Z"/><path class="cls-2" d="M87.62,32A1.66,1.66,0,0,0,86,33.7V82a3.44,3.44,0,0,1-3.44,3.44H34.17a1.66,1.66,0,1,0,0,3.33H82.52A6.77,6.77,0,0,0,89.28,82V33.7A1.66,1.66,0,0,0,87.62,32Z"/><rect class="cls-2" x="16.02" y="16.11" width="58.48" height="58.48" rx="6.66" ry="6.66"/><path class="cls-2" d="M81.88,74.85V26.5a1.66,1.66,0,0,0-3.33,0V74.85a3.44,3.44,0,0,1-3.44,3.44H26.76a1.66,1.66,0,0,0,0,3.33H75.11A6.77,6.77,0,0,0,81.88,74.85Z"/><path class="cls-2" d="M86.91,31.32A1.66,1.66,0,0,0,85.25,33V81.34a3.44,3.44,0,0,1-3.44,3.44H33.46a1.66,1.66,0,1,0,0,3.33H81.81a6.77,6.77,0,0,0,6.77-6.77V33A1.66,1.66,0,0,0,86.91,31.32Z"/><rect class="cls-2" x="15.31" y="15.41" width="58.48" height="58.48" rx="6.66" ry="6.66"/><path class="cls-2" d="M81.17,74.15V25.8a1.66,1.66,0,0,0-3.33,0V74.15a3.44,3.44,0,0,1-3.44,3.44H26.05a1.66,1.66,0,0,0,0,3.33H74.4A6.77,6.77,0,0,0,81.17,74.15Z"/><path class="cls-2" d="M86.2,30.62a1.66,1.66,0,0,0-1.66,1.66V80.63a3.44,3.44,0,0,1-3.44,3.44H32.75a1.66,1.66,0,1,0,0,3.33H81.1a6.77,6.77,0,0,0,6.77-6.77V32.28A1.66,1.66,0,0,0,86.2,30.62Z"/><rect class="cls-2" x="14.6" y="14.7" width="58.48" height="58.48" rx="6.66" ry="6.66"/><path class="cls-2" d="M80.46,73.44V25.09a1.66,1.66,0,0,0-3.33,0V73.44a3.44,3.44,0,0,1-3.44,3.44H25.35a1.66,1.66,0,0,0,0,3.33H73.7A6.77,6.77,0,0,0,80.46,73.44Z"/><path class="cls-2" d="M85.49,29.91a1.66,1.66,0,0,0-1.66,1.66V79.92a3.44,3.44,0,0,1-3.44,3.44H32a1.66,1.66,0,1,0,0,3.33H80.39a6.77,6.77,0,0,0,6.77-6.77V31.57A1.66,1.66,0,0,0,85.49,29.91Z"/><rect class="cls-2" x="13.89" y="13.99" width="58.48" height="58.48" rx="6.66" ry="6.66"/><path class="cls-2" d="M79.75,72.73V24.38a1.66,1.66,0,1,0-3.33,0V72.73A3.44,3.44,0,0,1,73,76.17H24.64a1.66,1.66,0,1,0,0,3.33H73A6.77,6.77,0,0,0,79.75,72.73Z"/><path class="cls-2" d="M84.79,29.2a1.66,1.66,0,0,0-1.66,1.66V79.21a3.44,3.44,0,0,1-3.44,3.44H31.33a1.66,1.66,0,1,0,0,3.33H79.68a6.77,6.77,0,0,0,6.77-6.77V30.86A1.66,1.66,0,0,0,84.79,29.2Z"/></g></g><rect class="cls-5" x="17.22" y="17.32" width="51.82" height="51.82" rx="3.78" ry="3.78"/></svg>