<svg id="Ebene_1" data-name="Ebene 1" xmlns="http://www.w3.org/2000/svg" xmlns:xlink="http://www.w3.org/1999/xlink" viewBox="0 0 100 100"><defs><style>.cls-1{fill:none;}.cls-2{clip-path:url(#clip-path);}.cls-3{opacity:0.15;}.cls-4{fill:#149cd6;}.cls-5{fill:#fff;}</style><clipPath id="clip-path"><rect class="cls-1" width="100" height="100"/></clipPath></defs><title>home-8</title><g class="cls-2"><g class="cls-3"><path class="cls-4" d="M162.22,122.26a31.17,31.17,0,1,0-47.8,26.42,1.18,1.18,0,0,0,1.27-2,28.8,28.8,0,0,1,29.6-49.39,28.78,28.78,0,1,0,14.57,25.08v0a31.88,31.88,0,0,1-10.19,24c-8.8,8-21.68,16.19-26.91,19.41l2.89-13.58a1.19,1.19,0,0,0-2.32-.49l-3.46,16.26a1.18,1.18,0,0,0,1.76,1.27c.18-.11,18.23-10.76,29.63-21.1A33.71,33.71,0,0,0,162.22,122.26Z"/><path class="cls-4" d="M161.52,121.56A31.17,31.17,0,1,0,113.72,148a1.18,1.18,0,0,0,1.27-2,28.8,28.8,0,0,1,29.6-49.39,28.78,28.78,0,1,0,14.57,25.08v0a31.88,31.88,0,0,1-10.19,24c-8.8,8-21.68,16.19-26.91,19.41l2.89-13.58a1.19,1.19,0,0,0-2.32-.49l-3.46,16.26a1.18,1.18,0,0,0,1.76,1.27c.18-.11,18.23-10.76,29.63-21.1A33.71,33.71,0,0,0,161.52,121.56Z"/><path class="cls-4" d="M160.81,120.85A31.17,31.17,0,1,0,113,147.27a1.18,1.18,0,0,0,1.27-2,28.8,28.8,0,0,1,29.6-49.39A28.78,28.78,0,1,0,158.44,121v0a31.88,31.88,0,0,1-10.19,24c-8.8,8-21.68,16.19-26.91,19.41l2.89-13.58a1.19,1.19,0,0,0-2.32-.49l-3.46,16.26a1.18,1.18,0,0,0,1.76,1.27c.18-.11,18.23-10.76,29.63-21.1A33.71,33.71,0,0,0,160.81,120.85Z"/><path class="cls-4" d="M160.11,120.15a31.17,31.17,0,1,0-47.8,26.42,1.18,1.18,0,0,0,1.27-2,28.8,28.8,0,0,1,29.6-49.39,28.78,28.78,0,1,0,14.57,25.08v0a31.88,31.88,0,0,1-10.19,24c-8.8,8-21.68,16.19-26.91,19.41l2.89-13.58a1.19,1.19,0,0,0-2.32-.49l-3.46,16.26a1.18,1.18,0,0,0,1.76,1.27c.18-.11,18.23-10.76,29.63-21.1A33.71,33.71,0,0,0,160.11,120.15Z"/><path class="cls-4" d="M159.4,119.44a31.17,31.17,0,1,0-47.8,26.42,1.18,1.18,0,0,0,1.27-2,28.8,28.8,0,0,1,29.6-49.39A28.78,28.78,0,1,0,157,119.54v0a31.88,31.88,0,0,1-10.19,24c-8.8,8-21.68,16.19-26.91,19.41l2.89-13.58a1.19,1.19,0,0,0-2.32-.49l-3.46,16.26a1.18,1.18,0,0,0,1.76,1.27c.18-.11,18.23-10.76,29.63-21.1A33.71,33.71,0,0,0,159.4,119.44Z"/><path class="cls-4" d="M158.7,118.74a31.17,31.17,0,1,0-47.8,26.42,1.18,1.18,0,0,0,1.27-2,28.8,28.8,0,0,1,29.6-49.39,28.78,28.78,0,1,0,14.57,25.08v0a31.88,31.88,0,0,1-10.19,24c-8.8,8-21.68,16.19-26.91,19.41l2.89-13.58a1.19,1.19,0,0,0-2.32-.49l-3.46,16.26a1.18,1.18,0,0,0,1.76,1.27c.18-.11,18.23-10.76,29.63-21.1A33.71,33.71,0,0,0,158.7,118.74Z"/><path class="cls-4" d="M158,118a31.17,31.17,0,1,0-47.8,26.42,1.18,1.18,0,0,0,1.27-2,28.8,28.8,0,0,1,29.6-49.39,28.78,28.78,0,1,0,14.57,25.08v0a31.88,31.88,0,0,1-10.19,24c-8.8,8-21.68,16.19-26.91,19.41l2.89-13.58a1.19,1.19,0,0,0-2.32-.49l-3.46,16.26A1.18,1.18,0,0,0,117.4,165c.18-.11,18.23-10.76,29.63-21.1A33.71,33.71,0,0,0,158,118Z"/><path class="cls-4" d="M157.29,117.33a31.17,31.17,0,1,0-47.8,26.42,1.18,1.18,0,0,0,1.27-2,28.8,28.8,0,0,1,29.6-49.39,28.78,28.78,0,1,0,14.57,25.08v0a31.88,31.88,0,0,1-10.19,24c-8.8,8-21.68,16.19-26.91,19.41l2.89-13.58a1.19,1.19,0,0,0-2.32-.49L114.94,163a1.18,1.18,0,0,0,1.76,1.27c.18-.11,18.23-10.76,29.63-21.1A33.71,33.71,0,0,0,157.29,117.33Z"/><path class="cls-4" d="M156.58,116.63A31.17,31.17,0,1,0,108.79,143a1.18,1.18,0,0,0,1.27-2,28.8,28.8,0,0,1,29.6-49.39,28.78,28.78,0,1,0,14.57,25.08v0a31.88,31.88,0,0,1-10.19,24c-8.8,8-21.68,16.19-26.91,19.41L120,146.53a1.19,1.19,0,0,0-2.32-.49l-3.46,16.26a1.18,1.18,0,0,0,1.76,1.27c.18-.11,18.23-10.76,29.63-21.1A33.71,33.71,0,0,0,156.58,116.63Z"/><path class="cls-4" d="M155.88,115.92a31.17,31.17,0,1,0-47.8,26.42,1.18,1.18,0,0,0,1.27-2,28.8,28.8,0,0,1,29.6-49.39A28.78,28.78,0,1,0,153.51,116v0a31.88,31.88,0,0,1-10.19,24c-8.8,8-21.68,16.19-26.91,19.41l2.89-13.58a1.19,1.19,0,0,0-2.32-.49l-3.46,16.26a1.18,1.18,0,0,0,1.76,1.27c.18-.11,18.23-10.76,29.63-21.1A33.71,33.71,0,0,0,155.88,115.92Z"/><path class="cls-4" d="M155.17,115.22a31.17,31.17,0,1,0-47.8,26.42,1.18,1.18,0,0,0,1.27-2,28.8,28.8,0,0,1,29.6-49.39,28.78,28.78,0,1,0,14.57,25.08v0a31.88,31.88,0,0,1-10.19,24c-8.8,8-21.68,16.19-26.91,19.41l2.89-13.58a1.19,1.19,0,0,0-2.32-.49l-3.46,16.26a1.18,1.18,0,0,0,1.76,1.27c.18-.11,18.23-10.76,29.63-21.1A33.71,33.71,0,0,0,155.17,115.22Z"/><path class="cls-4" d="M154.47,114.51a31.17,31.17,0,1,0-47.8,26.42,1.18,1.18,0,0,0,1.27-2,28.8,28.8,0,0,1,29.6-49.39,28.78,28.78,0,1,0,14.57,25.08v0a31.88,31.88,0,0,1-10.19,24c-8.8,8-21.68,16.19-26.91,19.41l2.89-13.58a1.19,1.19,0,0,0-2.32-.49l-3.46,16.26a1.18,1.18,0,0,0,1.76,1.27c.18-.11,18.23-10.76,29.63-21.1A33.71,33.71,0,0,0,154.47,114.51Z"/><path class="cls-4" d="M153.76,113.81A31.17,31.17,0,1,0,106,140.22a1.18,1.18,0,0,0,1.27-2,28.8,28.8,0,0,1,29.6-49.39,28.78,28.78,0,1,0,14.57,25.08v0a31.88,31.88,0,0,1-10.19,24c-8.8,8-21.68,16.19-26.91,19.41l2.89-13.58a1.19,1.19,0,0,0-2.32-.49l-3.46,16.26a1.18,1.18,0,0,0,1.76,1.27c.18-.11,18.23-10.76,29.63-21.1A33.71,33.71,0,0,0,153.76,113.81Z"/><path class="cls-4" d="M153.06,113.1a31.17,31.17,0,1,0-47.8,26.42,1.18,1.18,0,0,0,1.27-2,28.8,28.8,0,0,1,29.6-49.39,28.78,28.78,0,1,0,14.57,25.08v0a31.88,31.88,0,0,1-10.19,24c-8.8,8-21.68,16.19-26.91,19.41L116.49,143a1.19,1.19,0,0,0-2.32-.49l-3.46,16.26a1.18,1.18,0,0,0,1.76,1.27c.18-.11,18.23-10.76,29.63-21.1A33.71,33.71,0,0,0,153.06,113.1Z"/><path class="cls-4" d="M152.35,112.4a31.17,31.17,0,1,0-47.8,26.42,1.18,1.18,0,0,0,1.27-2,28.8,28.8,0,0,1,29.6-49.39A28.78,28.78,0,1,0,150,112.49v0a31.88,31.88,0,0,1-10.19,24c-8.8,8-21.68,16.19-26.91,19.41l2.89-13.58a1.19,1.19,0,0,0-2.32-.49L110,158.07a1.18,1.18,0,0,0,1.76,1.27c.18-.11,18.23-10.76,29.63-21.1A33.71,33.71,0,0,0,152.35,112.4Z"/><path class="cls-4" d="M151.65,111.69a31.17,31.17,0,1,0-47.8,26.42,1.18,1.18,0,0,0,1.27-2,28.8,28.8,0,0,1,29.6-49.39,28.78,28.78,0,1,0,14.57,25.08v0a31.88,31.88,0,0,1-10.19,24c-8.8,8-21.68,16.19-26.91,19.41l2.89-13.58a1.19,1.19,0,0,0-2.32-.49l-3.46,16.26a1.18,1.18,0,0,0,1.76,1.27c.18-.11,18.23-10.76,29.63-21.1A33.71,33.71,0,0,0,151.65,111.69Z"/><path class="cls-4" d="M150.94,111a31.17,31.17,0,1,0-47.8,26.42,1.18,1.18,0,0,0,1.27-2A28.8,28.8,0,0,1,134,86a28.78,28.78,0,1,0,14.57,25.08v0a31.88,31.88,0,0,1-10.19,24c-8.8,8-21.68,16.19-26.91,19.41l2.89-13.58a1.19,1.19,0,0,0-2.32-.49l-3.46,16.26a1.18,1.18,0,0,0,1.76,1.27c.18-.11,18.23-10.76,29.63-21.1A33.71,33.71,0,0,0,150.94,111Z"/><path class="cls-4" d="M150.24,110.28a31.17,31.17,0,1,0-47.8,26.42,1.18,1.18,0,0,0,1.27-2A28.8,28.8,0,0,1,133.3,85.3a28.78,28.78,0,1,0,14.57,25.08v0a31.88,31.88,0,0,1-10.19,24c-8.8,8-21.68,16.19-26.91,19.41l2.89-13.58a1.19,1.19,0,0,0-2.32-.49L107.89,156a1.18,1.18,0,0,0,1.76,1.27c.18-.11,18.23-10.76,29.63-21.1A33.71,33.71,0,0,0,150.24,110.28Z"/><path class="cls-4" d="M149.53,109.58A31.17,31.17,0,1,0,101.74,136a1.18,1.18,0,0,0,1.27-2A28.8,28.8,0,0,1,132.6,84.6a28.78,28.78,0,1,0,14.57,25.08v0a31.88,31.88,0,0,1-10.19,24c-8.8,8-21.68,16.19-26.91,19.41L113,139.48a1.19,1.19,0,0,0-2.32-.49l-3.46,16.26a1.18,1.18,0,0,0,1.76,1.27c.18-.11,18.23-10.76,29.63-21.1A33.71,33.71,0,0,0,149.53,109.58Z"/><path class="cls-4" d="M148.83,108.87A31.17,31.17,0,1,0,101,135.29a1.18,1.18,0,0,0,1.27-2,28.8,28.8,0,0,1,29.6-49.39A28.78,28.78,0,1,0,146.46,109v0a31.88,31.88,0,0,1-10.19,24c-8.8,8-21.68,16.19-26.91,19.41l2.89-13.58a1.19,1.19,0,0,0-2.32-.49l-3.46,16.26a1.18,1.18,0,0,0,1.76,1.27c.18-.11,18.23-10.76,29.63-21.1A33.71,33.71,0,0,0,148.83,108.87Z"/><path class="cls-4" d="M148.12,108.17a31.17,31.17,0,1,0-47.8,26.42,1.18,1.18,0,0,0,1.27-2,28.8,28.8,0,0,1,29.6-49.39,28.78,28.78,0,1,0,14.57,25.08v0a31.88,31.88,0,0,1-10.19,24c-8.8,8-21.68,16.19-26.91,19.41l2.89-13.58a1.19,1.19,0,0,0-2.32-.49l-3.46,16.26a1.18,1.18,0,0,0,1.76,1.27c.18-.11,18.23-10.76,29.63-21.1A33.71,33.71,0,0,0,148.12,108.17Z"/><path class="cls-4" d="M147.42,107.46a31.17,31.17,0,1,0-47.8,26.42,1.18,1.18,0,0,0,1.27-2,28.8,28.8,0,0,1,29.6-49.39,28.78,28.78,0,1,0,14.57,25.08v0a31.88,31.88,0,0,1-10.19,24c-8.8,8-21.68,16.19-26.91,19.41l2.89-13.58a1.19,1.19,0,0,0-2.32-.49l-3.46,16.26a1.18,1.18,0,0,0,1.76,1.27c.18-.11,18.23-10.76,29.63-21.1A33.71,33.71,0,0,0,147.42,107.46Z"/><path class="cls-4" d="M146.71,106.76a31.17,31.17,0,1,0-47.8,26.42,1.18,1.18,0,0,0,1.27-2,28.8,28.8,0,0,1,29.6-49.39,28.78,28.78,0,1,0,14.57,25.08v0a31.88,31.88,0,0,1-10.19,24c-8.8,8-21.68,16.19-26.91,19.41l2.89-13.58a1.19,1.19,0,0,0-2.32-.49l-3.46,16.26a1.18,1.18,0,0,0,1.76,1.27c.18-.11,18.23-10.76,29.63-21.1A33.71,33.71,0,0,0,146.71,106.76Z"/><path class="cls-4" d="M146,106.05a31.17,31.17,0,1,0-47.8,26.42,1.18,1.18,0,0,0,1.27-2,28.8,28.8,0,0,1,29.6-49.39,28.78,28.78,0,1,0,14.57,25.08v0a31.88,31.88,0,0,1-10.19,24c-8.8,8-21.68,16.19-26.91,19.41L109.44,136a1.19,1.19,0,0,0-2.32-.49l-3.46,16.26a1.18,1.18,0,0,0,1.76,1.27c.18-.11,18.23-10.76,29.63-21.1A33.71,33.71,0,0,0,146,106.05Z"/><path class="cls-4" d="M145.3,105.35a31.17,31.17,0,1,0-47.8,26.42,1.18,1.18,0,0,0,1.27-2,28.8,28.8,0,0,1,29.6-49.39,28.78,28.78,0,1,0,14.57,25.08v0a31.88,31.88,0,0,1-10.19,24c-8.8,8-21.68,16.19-26.91,19.41l2.89-13.58a1.19,1.19,0,0,0-2.32-.49L103,151a1.18,1.18,0,0,0,1.76,1.27c.18-.11,18.23-10.76,29.63-21.1A33.71,33.71,0,0,0,145.3,105.35Z"/><path class="cls-4" d="M144.6,104.64a31.17,31.17,0,1,0-47.8,26.42,1.18,1.18,0,0,0,1.27-2,28.8,28.8,0,0,1,29.6-49.39,28.78,28.78,0,1,0,14.57,25.08v0a31.88,31.88,0,0,1-10.19,24c-8.8,8-21.68,16.19-26.91,19.41L108,134.55a1.19,1.19,0,0,0-2.32-.49l-3.46,16.26a1.18,1.18,0,0,0,1.76,1.27c.18-.11,18.23-10.76,29.63-21.1A33.71,33.71,0,0,0,144.6,104.64Z"/><path class="cls-4" d="M143.89,103.94a31.17,31.17,0,1,0-47.8,26.42,1.18,1.18,0,0,0,1.27-2A28.8,28.8,0,0,1,127,79,28.78,28.78,0,1,0,141.53,104v0a31.88,31.88,0,0,1-10.19,24c-8.8,8-21.68,16.19-26.91,19.41l2.89-13.58a1.19,1.19,0,0,0-2.32-.49l-3.46,16.26a1.18,1.18,0,0,0,1.76,1.27c.18-.11,18.23-10.76,29.63-21.1A33.71,33.71,0,0,0,143.89,103.94Z"/><path class="cls-4" d="M143.19,103.23a31.17,31.17,0,1,0-47.8,26.42,1.18,1.18,0,0,0,1.27-2,28.8,28.8,0,0,1,29.6-49.39,28.78,28.78,0,1,0,14.57,25.08v0a31.88,31.88,0,0,1-10.19,24c-8.8,8-21.68,16.19-26.91,19.41l2.89-13.58a1.19,1.19,0,0,0-2.32-.49l-3.46,16.26a1.18,1.18,0,0,0,1.76,1.27c.18-.11,18.23-10.76,29.63-21.1A33.71,33.71,0,0,0,143.19,103.23Z"/><path class="cls-4" d="M142.48,102.53a31.17,31.17,0,1,0-47.8,26.42,1.18,1.18,0,0,0,1.27-2,28.8,28.8,0,0,1,29.6-49.39,28.78,28.78,0,1,0,14.57,25.08v0a31.88,31.88,0,0,1-10.19,24c-8.8,8-21.68,16.19-26.91,19.41l2.89-13.58a1.19,1.19,0,0,0-2.32-.49l-3.46,16.26a1.18,1.18,0,0,0,1.76,1.27c.18-.11,18.23-10.76,29.63-21.1A33.71,33.71,0,0,0,142.48,102.53Z"/><path class="cls-4" d="M141.78,101.82A31.17,31.17,0,1,0,94,128.24a1.18,1.18,0,0,0,1.27-2,28.8,28.8,0,0,1,29.6-49.39,28.78,28.78,0,1,0,14.57,25.08v0a31.88,31.88,0,0,1-10.19,24c-8.8,8-21.68,16.19-26.91,19.41l2.89-13.58a1.19,1.19,0,0,0-2.32-.49L99.43,147.5a1.18,1.18,0,0,0,1.76,1.27c.18-.11,18.23-10.76,29.63-21.1A33.71,33.71,0,0,0,141.78,101.82Z"/><path class="cls-4" d="M141.07,101.12a31.17,31.17,0,1,0-47.8,26.42,1.18,1.18,0,0,0,1.27-2,28.8,28.8,0,0,1,29.6-49.39,28.78,28.78,0,1,0,14.57,25.08v0a31.88,31.88,0,0,1-10.19,24c-8.8,8-21.68,16.19-26.91,19.41L104.51,131a1.19,1.19,0,0,0-2.32-.49l-3.46,16.26a1.18,1.18,0,0,0,1.76,1.27c.18-.11,18.23-10.76,29.63-21.1A33.71,33.71,0,0,0,141.07,101.12Z"/><path class="cls-4" d="M140.37,100.41a31.17,31.17,0,1,0-47.8,26.42,1.18,1.18,0,0,0,1.27-2,28.8,28.8,0,0,1,29.6-49.39A28.78,28.78,0,1,0,138,100.51v0a31.88,31.88,0,0,1-10.19,24c-8.8,8-21.68,16.19-26.91,19.41l2.89-13.58a1.19,1.19,0,0,0-2.32-.49L98,146.09a1.18,1.18,0,0,0,1.76,1.27c.18-.11,18.23-10.76,29.63-21.1A33.71,33.71,0,0,0,140.37,100.41Z"/><path class="cls-4" d="M139.66,99.71a31.17,31.17,0,1,0-47.8,26.42,1.18,1.18,0,0,0,1.27-2,28.8,28.8,0,0,1,29.6-49.39A28.78,28.78,0,1,0,137.3,99.8v0a31.88,31.88,0,0,1-10.19,24c-8.8,8-21.68,16.19-26.91,19.41l2.89-13.58a1.19,1.19,0,0,0-2.32-.49l-3.46,16.26a1.18,1.18,0,0,0,1.76,1.27c.18-.11,18.23-10.76,29.63-21.1A33.71,33.71,0,0,0,139.66,99.71Z"/><path class="cls-4" d="M139,99a31.17,31.17,0,1,0-47.8,26.42,1.18,1.18,0,0,0,1.27-2A28.8,28.8,0,0,1,122,74,28.78,28.78,0,1,0,136.59,99.1v0a31.88,31.88,0,0,1-10.19,24c-8.8,8-21.68,16.19-26.91,19.41l2.89-13.58a1.19,1.19,0,0,0-2.32-.49l-3.46,16.26a1.18,1.18,0,0,0,1.76,1.27c.18-.11,18.23-10.76,29.63-21.1A33.71,33.71,0,0,0,139,99Z"/><path class="cls-4" d="M138.25,98.3a31.17,31.17,0,1,0-47.8,26.42,1.18,1.18,0,0,0,1.27-2,28.8,28.8,0,0,1,29.6-49.39,28.78,28.78,0,1,0,14.57,25.08v0a31.88,31.88,0,0,1-10.19,24c-8.8,8-21.68,16.19-26.91,19.41l2.89-13.58a1.19,1.19,0,0,0-2.32-.49L95.91,144a1.18,1.18,0,0,0,1.76,1.27c.18-.11,18.23-10.76,29.63-21.1A33.71,33.71,0,0,0,138.25,98.3Z"/><path class="cls-4" d="M137.55,97.59A31.17,31.17,0,1,0,89.75,124,1.18,1.18,0,0,0,91,122a28.8,28.8,0,0,1,29.6-49.39,28.78,28.78,0,1,0,14.57,25.08v0a31.88,31.88,0,0,1-10.19,24c-8.8,8-21.68,16.19-26.91,19.41L101,127.5a1.19,1.19,0,0,0-2.32-.49L95.2,143.27A1.18,1.18,0,0,0,97,144.54c.18-.11,18.23-10.76,29.63-21.1A33.71,33.71,0,0,0,137.55,97.59Z"/><path class="cls-4" d="M136.84,96.89A31.17,31.17,0,1,0,89,123.31a1.18,1.18,0,0,0,1.27-2,28.8,28.8,0,0,1,29.6-49.39A28.78,28.78,0,1,0,134.48,97v0a31.88,31.88,0,0,1-10.19,24c-8.8,8-21.68,16.19-26.91,19.41l2.89-13.58A1.19,1.19,0,0,0,98,126.3L94.5,142.56a1.18,1.18,0,0,0,1.76,1.27c.18-.11,18.23-10.76,29.63-21.1A33.71,33.71,0,0,0,136.84,96.89Z"/><path class="cls-4" d="M136.14,96.18a31.17,31.17,0,1,0-47.8,26.42,1.18,1.18,0,0,0,1.27-2A28.8,28.8,0,0,1,119.2,71.2a28.78,28.78,0,1,0,14.57,25.08v0a31.88,31.88,0,0,1-10.19,24c-8.8,8-21.68,16.19-26.91,19.41l2.89-13.58a1.19,1.19,0,0,0-2.32-.49l-3.46,16.26a1.18,1.18,0,0,0,1.76,1.27c.18-.11,18.23-10.76,29.63-21.1A33.71,33.71,0,0,0,136.14,96.18Z"/><path class="cls-4" d="M135.43,95.48a31.17,31.17,0,1,0-47.8,26.42,1.18,1.18,0,0,0,1.27-2A28.8,28.8,0,0,1,118.5,70.5a28.78,28.78,0,1,0,14.57,25.08v0a31.88,31.88,0,0,1-10.19,24c-8.8,8-21.68,16.19-26.91,19.41l2.89-13.58a1.19,1.19,0,0,0-2.32-.49l-3.46,16.26a1.18,1.18,0,0,0,1.76,1.27c.18-.11,18.23-10.76,29.63-21.1A33.71,33.71,0,0,0,135.43,95.48Z"/><path class="cls-4" d="M134.73,94.77a31.17,31.17,0,1,0-47.8,26.42,1.18,1.18,0,0,0,1.27-2,28.8,28.8,0,0,1,29.6-49.39,28.78,28.78,0,1,0,14.57,25.08v0a31.88,31.88,0,0,1-10.19,24c-8.8,8-21.68,16.19-26.91,19.41l2.89-13.58a1.19,1.19,0,0,0-2.32-.49l-3.46,16.26a1.18,1.18,0,0,0,1.76,1.27c.18-.11,18.23-10.76,29.63-21.1A33.71,33.71,0,0,0,134.73,94.77Z"/><path class="cls-4" d="M134,94.07a31.17,31.17,0,1,0-47.8,26.42,1.18,1.18,0,0,0,1.27-2,28.8,28.8,0,0,1,29.6-49.39,28.78,28.78,0,1,0,14.57,25.08v0a31.88,31.88,0,0,1-10.19,24c-8.8,8-21.68,16.19-26.91,19.41L97.46,124a1.19,1.19,0,0,0-2.32-.49l-3.46,16.26A1.18,1.18,0,0,0,93.44,141c.18-.11,18.23-10.76,29.63-21.1A33.71,33.71,0,0,0,134,94.07Z"/><path class="cls-4" d="M133.32,93.36a31.17,31.17,0,1,0-47.8,26.42,1.18,1.18,0,0,0,1.27-2,28.8,28.8,0,0,1,29.6-49.39A28.78,28.78,0,1,0,131,93.46v0a31.88,31.88,0,0,1-10.19,24c-8.8,8-21.68,16.19-26.91,19.41l2.89-13.58a1.19,1.19,0,0,0-2.32-.49L91,139a1.18,1.18,0,0,0,1.76,1.27c.18-.11,18.23-10.76,29.63-21.1A33.71,33.71,0,0,0,133.32,93.36Z"/><path class="cls-4" d="M132.61,92.66a31.17,31.17,0,1,0-47.8,26.42,1.18,1.18,0,0,0,1.27-2,28.8,28.8,0,0,1,29.6-49.39,28.78,28.78,0,1,0,14.57,25.08v0a31.88,31.88,0,0,1-10.19,24c-8.8,8-21.68,16.19-26.91,19.41L96,122.57a1.19,1.19,0,0,0-2.32-.49l-3.46,16.26A1.18,1.18,0,0,0,92,139.6c.18-.11,18.23-10.76,29.63-21.1A33.71,33.71,0,0,0,132.61,92.66Z"/><path class="cls-4" d="M131.91,92a31.17,31.17,0,1,0-47.8,26.42,1.18,1.18,0,0,0,1.27-2A28.8,28.8,0,0,1,115,67,28.78,28.78,0,1,0,129.54,92v0a31.88,31.88,0,0,1-10.19,24c-8.8,8-21.68,16.19-26.91,19.41l2.89-13.58a1.19,1.19,0,0,0-2.32-.49l-3.46,16.26a1.18,1.18,0,0,0,1.76,1.27c.18-.11,18.23-10.76,29.63-21.1A33.71,33.71,0,0,0,131.91,92Z"/><path class="cls-4" d="M131.21,91.25a31.17,31.17,0,1,0-47.8,26.42,1.18,1.18,0,0,0,1.27-2,28.8,28.8,0,0,1,29.6-49.39,28.78,28.78,0,1,0,14.57,25.08v0a31.88,31.88,0,0,1-10.19,24c-8.8,8-21.68,16.19-26.91,19.41l2.89-13.58a1.19,1.19,0,0,0-2.32-.49l-3.46,16.26a1.18,1.18,0,0,0,1.76,1.27c.18-.11,18.23-10.76,29.63-21.1A33.71,33.71,0,0,0,131.21,91.25Z"/><path class="cls-4" d="M130.5,90.54A31.17,31.17,0,1,0,82.7,117,1.18,1.18,0,0,0,84,115a28.8,28.8,0,0,1,29.6-49.39,28.78,28.78,0,1,0,14.57,25.08v0a31.88,31.88,0,0,1-10.19,24c-8.8,8-21.68,16.19-26.91,19.41l2.89-13.58a1.19,1.19,0,0,0-2.32-.49l-3.46,16.26a1.18,1.18,0,0,0,1.76,1.27c.18-.11,18.23-10.76,29.63-21.1A33.71,33.71,0,0,0,130.5,90.54Z"/><path class="cls-4" d="M129.8,89.84A31.17,31.17,0,1,0,82,116.26a1.18,1.18,0,0,0,1.27-2,28.8,28.8,0,0,1,29.6-49.39,28.78,28.78,0,1,0,14.57,25.08v0a31.88,31.88,0,0,1-10.19,24c-8.8,8-21.68,16.19-26.91,19.41l2.89-13.58a1.19,1.19,0,0,0-2.32-.49l-3.46,16.26a1.18,1.18,0,0,0,1.76,1.27c.18-.11,18.23-10.76,29.63-21.1A33.71,33.71,0,0,0,129.8,89.84Z"/><path class="cls-4" d="M129.09,89.13a31.17,31.17,0,1,0-47.8,26.42,1.18,1.18,0,0,0,1.27-2,28.8,28.8,0,0,1,29.6-49.39,28.78,28.78,0,1,0,14.57,25.08v0a31.88,31.88,0,0,1-10.19,24c-8.8,8-21.68,16.19-26.91,19.41L92.52,119a1.19,1.19,0,0,0-2.32-.49l-3.46,16.26a1.18,1.18,0,0,0,1.76,1.27c.18-.11,18.23-10.76,29.63-21.1A33.71,33.71,0,0,0,129.09,89.13Z"/><path class="cls-4" d="M128.39,88.43a31.17,31.17,0,1,0-47.8,26.42,1.18,1.18,0,0,0,1.27-2,28.8,28.8,0,0,1,29.6-49.39A28.78,28.78,0,1,0,126,88.52v0a31.88,31.88,0,0,1-10.19,24c-8.8,8-21.68,16.19-26.91,19.41l2.89-13.58a1.19,1.19,0,0,0-2.32-.49L86,134.1a1.18,1.18,0,0,0,1.76,1.27c.18-.11,18.23-10.76,29.63-21.1A33.71,33.71,0,0,0,128.39,88.43Z"/><path class="cls-4" d="M127.68,87.72a31.17,31.17,0,1,0-47.8,26.42,1.18,1.18,0,0,0,1.27-2,28.8,28.8,0,0,1,29.6-49.39,28.78,28.78,0,1,0,14.57,25.08v0a31.88,31.88,0,0,1-10.19,24c-8.8,8-21.68,16.19-26.91,19.41l2.89-13.58a1.19,1.19,0,0,0-2.32-.49L85.33,133.4a1.18,1.18,0,0,0,1.76,1.27c.18-.11,18.23-10.76,29.63-21.1A33.71,33.71,0,0,0,127.68,87.72Z"/><path class="cls-4" d="M127,87a31.17,31.17,0,1,0-47.8,26.42,1.18,1.18,0,0,0,1.27-2A28.8,28.8,0,0,1,110,62a28.78,28.78,0,1,0,14.57,25.08v0a31.88,31.88,0,0,1-10.19,24c-8.8,8-21.68,16.19-26.91,19.41l2.89-13.58a1.19,1.19,0,0,0-2.32-.49l-3.46,16.26A1.18,1.18,0,0,0,86.39,134c.18-.11,18.23-10.76,29.63-21.1A33.71,33.71,0,0,0,127,87Z"/><path class="cls-4" d="M126.27,86.31a31.17,31.17,0,1,0-47.8,26.42,1.18,1.18,0,0,0,1.27-2,28.8,28.8,0,0,1,29.6-49.39A28.78,28.78,0,1,0,123.9,86.41v0a31.88,31.88,0,0,1-10.19,24c-8.8,8-21.68,16.19-26.91,19.41l2.89-13.58a1.19,1.19,0,0,0-2.32-.49L83.92,132a1.18,1.18,0,0,0,1.76,1.27c.18-.11,18.23-10.76,29.63-21.1A33.71,33.71,0,0,0,126.27,86.31Z"/><path class="cls-4" d="M125.57,85.61A31.17,31.17,0,1,0,77.77,112,1.18,1.18,0,0,0,79,110a28.8,28.8,0,0,1,29.6-49.39A28.78,28.78,0,1,0,123.2,85.7v0a31.88,31.88,0,0,1-10.19,24c-8.8,8-21.68,16.19-26.91,19.41L89,115.52a1.19,1.19,0,0,0-2.32-.49l-3.46,16.26A1.18,1.18,0,0,0,85,132.55c.18-.11,18.23-10.76,29.63-21.1A33.71,33.71,0,0,0,125.57,85.61Z"/><path class="cls-4" d="M124.86,84.9a31.17,31.17,0,1,0-47.8,26.42,1.18,1.18,0,0,0,1.27-2,28.8,28.8,0,0,1,29.6-49.39A28.78,28.78,0,1,0,122.49,85v0a31.88,31.88,0,0,1-10.19,24c-8.8,8-21.68,16.19-26.91,19.41l2.89-13.58a1.19,1.19,0,0,0-2.32-.49l-3.46,16.26a1.18,1.18,0,0,0,1.76,1.27c.18-.11,18.23-10.76,29.63-21.1A33.71,33.71,0,0,0,124.86,84.9Z"/><path class="cls-4" d="M124.16,84.2a31.17,31.17,0,1,0-47.8,26.42,1.18,1.18,0,0,0,1.27-2,28.8,28.8,0,0,1,29.6-49.39,28.78,28.78,0,1,0,14.57,25.08v0a31.88,31.88,0,0,1-10.19,24c-8.8,8-21.68,16.19-26.91,19.41l2.89-13.58a1.19,1.19,0,0,0-2.32-.49l-3.46,16.26a1.18,1.18,0,0,0,1.76,1.27c.18-.11,18.23-10.76,29.63-21.1A33.71,33.71,0,0,0,124.16,84.2Z"/><path class="cls-4" d="M123.45,83.49a31.17,31.17,0,1,0-47.8,26.42,1.18,1.18,0,0,0,1.27-2,28.8,28.8,0,0,1,29.6-49.39,28.78,28.78,0,1,0,14.57,25.08v0a31.88,31.88,0,0,1-10.19,24c-8.8,8-21.68,16.19-26.91,19.41l2.89-13.58a1.19,1.19,0,0,0-2.32-.49L81.1,129.17a1.18,1.18,0,0,0,1.76,1.27c.18-.11,18.23-10.76,29.63-21.1A33.71,33.71,0,0,0,123.45,83.49Z"/><path class="cls-4" d="M122.75,82.79a31.17,31.17,0,1,0-47.8,26.42,1.18,1.18,0,0,0,1.27-2,28.8,28.8,0,0,1,29.6-49.39,28.78,28.78,0,1,0,14.57,25.08v0a31.88,31.88,0,0,1-10.19,24c-8.8,8-21.68,16.19-26.91,19.41l2.89-13.58a1.19,1.19,0,0,0-2.32-.49L80.4,128.47a1.18,1.18,0,0,0,1.76,1.27c.18-.11,18.23-10.76,29.63-21.1A33.71,33.71,0,0,0,122.75,82.79Z"/><path class="cls-4" d="M122,82.08a31.17,31.17,0,1,0-47.8,26.42,1.18,1.18,0,0,0,1.27-2,28.8,28.8,0,0,1,29.6-49.39,28.78,28.78,0,1,0,14.57,25.08v0a31.88,31.88,0,0,1-10.19,24c-8.8,8-21.68,16.19-26.91,19.41L85.47,112a1.19,1.19,0,0,0-2.32-.49l-3.46,16.26A1.18,1.18,0,0,0,81.45,129c.18-.11,18.23-10.76,29.63-21.1A33.71,33.71,0,0,0,122,82.08Z"/><path class="cls-4" d="M121.34,81.38a31.17,31.17,0,1,0-47.8,26.42,1.18,1.18,0,0,0,1.27-2A28.8,28.8,0,0,1,104.4,56.4,28.78,28.78,0,1,0,119,81.47v0a31.88,31.88,0,0,1-10.19,24c-8.8,8-21.68,16.19-26.91,19.41l2.89-13.58a1.19,1.19,0,0,0-2.32-.49L79,127.06a1.18,1.18,0,0,0,1.76,1.27c.18-.11,18.23-10.76,29.63-21.1A33.71,33.71,0,0,0,121.34,81.38Z"/><path class="cls-4" d="M120.63,80.67a31.17,31.17,0,1,0-47.8,26.42,1.18,1.18,0,0,0,1.27-2,28.8,28.8,0,0,1,29.6-49.39,28.78,28.78,0,1,0,14.57,25.08v0a31.88,31.88,0,0,1-10.19,24c-8.8,8-21.68,16.19-26.91,19.41l2.89-13.58a1.19,1.19,0,0,0-2.32-.49l-3.46,16.26A1.18,1.18,0,0,0,80,127.62c.18-.11,18.23-10.76,29.63-21.1A33.71,33.71,0,0,0,120.63,80.67Z"/><path class="cls-4" d="M119.93,80a31.17,31.17,0,1,0-47.8,26.42,1.18,1.18,0,0,0,1.27-2A28.8,28.8,0,0,1,103,55a28.78,28.78,0,1,0,14.57,25.08v0a31.88,31.88,0,0,1-10.19,24c-8.8,8-21.68,16.19-26.91,19.41l2.89-13.58a1.19,1.19,0,0,0-2.32-.49l-3.46,16.26a1.18,1.18,0,0,0,1.76,1.27c.18-.11,18.23-10.76,29.63-21.1A33.71,33.71,0,0,0,119.93,80Z"/><path class="cls-4" d="M119.22,79.26a31.17,31.17,0,1,0-47.8,26.42,1.18,1.18,0,0,0,1.27-2,28.8,28.8,0,0,1,29.6-49.39,28.78,28.78,0,1,0,14.57,25.08v0a31.88,31.88,0,0,1-10.19,24c-8.8,8-21.68,16.19-26.91,19.41l2.89-13.58a1.19,1.19,0,0,0-2.32-.49l-3.46,16.26a1.18,1.18,0,0,0,1.76,1.27c.18-.11,18.23-10.76,29.63-21.1A33.71,33.71,0,0,0,119.22,79.26Z"/><path class="cls-4" d="M118.52,78.56A31.17,31.17,0,1,0,70.72,105,1.18,1.18,0,0,0,72,103a28.8,28.8,0,0,1,29.6-49.39,28.78,28.78,0,1,0,14.57,25.08v0a31.88,31.88,0,0,1-10.19,24c-8.8,8-21.68,16.19-26.91,19.41l2.89-13.58a1.19,1.19,0,0,0-2.32-.49l-3.46,16.26a1.18,1.18,0,0,0,1.76,1.27c.18-.11,18.23-10.76,29.63-21.1A33.71,33.71,0,0,0,118.52,78.56Z"/><path class="cls-4" d="M117.81,77.85A31.17,31.17,0,1,0,70,104.27a1.18,1.18,0,0,0,1.27-2,28.8,28.8,0,0,1,29.6-49.39A28.78,28.78,0,1,0,115.44,78v0a31.88,31.88,0,0,1-10.19,24c-8.8,8-21.68,16.19-26.91,19.41l2.89-13.58a1.19,1.19,0,0,0-2.32-.49l-3.46,16.26a1.18,1.18,0,0,0,1.76,1.27c.18-.11,18.23-10.76,29.63-21.1A33.71,33.71,0,0,0,117.81,77.85Z"/><path class="cls-4" d="M117.11,77.15a31.17,31.17,0,1,0-47.8,26.42,1.18,1.18,0,0,0,1.27-2,28.8,28.8,0,0,1,29.6-49.39,28.78,28.78,0,1,0,14.57,25.08v0a31.88,31.88,0,0,1-10.19,24c-8.8,8-21.68,16.19-26.91,19.41l2.89-13.58a1.19,1.19,0,0,0-2.32-.49l-3.46,16.26a1.18,1.18,0,0,0,1.76,1.27c.18-.11,18.23-10.76,29.63-21.1A33.71,33.71,0,0,0,117.11,77.15Z"/><path class="cls-4" d="M116.4,76.44a31.17,31.17,0,1,0-47.8,26.42,1.18,1.18,0,0,0,1.27-2,28.8,28.8,0,0,1,29.6-49.39A28.78,28.78,0,1,0,114,76.54v0a31.88,31.88,0,0,1-10.19,24c-8.8,8-21.68,16.19-26.91,19.41l2.89-13.58a1.19,1.19,0,0,0-2.32-.49l-3.46,16.26a1.18,1.18,0,0,0,1.76,1.27c.18-.11,18.23-10.76,29.63-21.1A33.71,33.71,0,0,0,116.4,76.44Z"/><path class="cls-4" d="M115.7,75.74a31.17,31.17,0,1,0-47.8,26.42,1.18,1.18,0,0,0,1.27-2,28.8,28.8,0,0,1,29.6-49.39,28.78,28.78,0,1,0,14.57,25.08v0a31.88,31.88,0,0,1-10.19,24c-8.8,8-21.68,16.19-26.91,19.41l2.89-13.58a1.19,1.19,0,0,0-2.32-.49l-3.46,16.26a1.18,1.18,0,0,0,1.76,1.27c.18-.11,18.23-10.76,29.63-21.1A33.71,33.71,0,0,0,115.7,75.74Z"/><path class="cls-4" d="M115,75a31.17,31.17,0,1,0-47.8,26.42,1.18,1.18,0,0,0,1.27-2,28.8,28.8,0,0,1,29.6-49.39,28.78,28.78,0,1,0,14.57,25.08v0a31.88,31.88,0,0,1-10.19,24c-8.8,8-21.68,16.19-26.91,19.41l2.89-13.58a1.19,1.19,0,0,0-2.32-.49l-3.46,16.26A1.18,1.18,0,0,0,74.4,122c.18-.11,18.23-10.76,29.63-21.1A33.71,33.71,0,0,0,115,75Z"/><path class="cls-4" d="M114.29,74.33a31.17,31.17,0,1,0-47.8,26.42,1.18,1.18,0,0,0,1.27-2,28.8,28.8,0,0,1,29.6-49.39,28.78,28.78,0,1,0,14.57,25.08v0a31.88,31.88,0,0,1-10.19,24c-8.8,8-21.68,16.19-26.91,19.41l2.89-13.58a1.19,1.19,0,0,0-2.32-.49L71.94,120a1.18,1.18,0,0,0,1.76,1.27c.18-.11,18.23-10.76,29.63-21.1A33.71,33.71,0,0,0,114.29,74.33Z"/><path class="cls-4" d="M113.58,73.63A31.17,31.17,0,1,0,65.79,100a1.18,1.18,0,0,0,1.27-2,28.8,28.8,0,0,1,29.6-49.39,28.78,28.78,0,1,0,14.57,25.08v0a31.88,31.88,0,0,1-10.19,24c-8.8,8-21.68,16.19-26.91,19.41L77,103.53A1.19,1.19,0,0,0,74.7,103L71.24,119.3A1.18,1.18,0,0,0,73,120.57c.18-.11,18.23-10.76,29.63-21.1A33.71,33.71,0,0,0,113.58,73.63Z"/><path class="cls-4" d="M112.88,72.92a31.17,31.17,0,1,0-47.8,26.42,1.18,1.18,0,0,0,1.27-2,28.8,28.8,0,0,1,29.6-49.39A28.78,28.78,0,1,0,110.51,73v0a31.88,31.88,0,0,1-10.19,24c-8.8,8-21.68,16.19-26.91,19.41l2.89-13.58a1.19,1.19,0,0,0-2.32-.49L70.53,118.6a1.18,1.18,0,0,0,1.76,1.27c.18-.11,18.23-10.76,29.63-21.1A33.71,33.71,0,0,0,112.88,72.92Z"/><path class="cls-4" d="M112.17,72.22a31.17,31.17,0,1,0-47.8,26.42,1.18,1.18,0,0,0,1.27-2,28.8,28.8,0,0,1,29.6-49.39A28.78,28.78,0,1,0,109.8,72.31v0a31.88,31.88,0,0,1-10.19,24c-8.8,8-21.68,16.19-26.91,19.41l2.89-13.58a1.19,1.19,0,0,0-2.32-.49l-3.46,16.26a1.18,1.18,0,0,0,1.76,1.27c.18-.11,18.23-10.76,29.63-21.1A33.71,33.71,0,0,0,112.17,72.22Z"/><path class="cls-4" d="M111.47,71.51a31.17,31.17,0,1,0-47.8,26.42,1.18,1.18,0,0,0,1.27-2,28.8,28.8,0,0,1,29.6-49.39A28.78,28.78,0,1,0,109.1,71.61v0a31.88,31.88,0,0,1-10.19,24c-8.8,8-21.68,16.19-26.91,19.41l2.89-13.58a1.19,1.19,0,0,0-2.32-.49l-3.46,16.26a1.18,1.18,0,0,0,1.76,1.27c.18-.11,18.23-10.76,29.63-21.1A33.71,33.71,0,0,0,111.47,71.51Z"/><path class="cls-4" d="M110.76,70.81A31.17,31.17,0,1,0,63,97.22a1.18,1.18,0,0,0,1.27-2,28.8,28.8,0,0,1,29.6-49.39A28.78,28.78,0,1,0,108.39,70.9v0a31.88,31.88,0,0,1-10.19,24c-8.8,8-21.68,16.19-26.91,19.41l2.89-13.58a1.19,1.19,0,0,0-2.32-.49l-3.46,16.26a1.18,1.18,0,0,0,1.76,1.27c.18-.11,18.23-10.76,29.63-21.1A33.71,33.71,0,0,0,110.76,70.81Z"/><path class="cls-4" d="M110.06,70.1a31.17,31.17,0,1,0-47.8,26.42,1.18,1.18,0,0,0,1.27-2,28.8,28.8,0,0,1,29.6-49.39A28.78,28.78,0,1,0,107.69,70.2v0a31.88,31.88,0,0,1-10.19,24c-8.8,8-21.68,16.19-26.91,19.41L73.49,100a1.19,1.19,0,0,0-2.32-.49l-3.46,16.26A1.18,1.18,0,0,0,69.47,117c.18-.11,18.23-10.76,29.63-21.1A33.71,33.71,0,0,0,110.06,70.1Z"/><path class="cls-4" d="M109.35,69.4a31.17,31.17,0,1,0-47.8,26.42,1.18,1.18,0,0,0,1.27-2,28.8,28.8,0,0,1,29.6-49.39A28.78,28.78,0,1,0,107,69.49v0a31.88,31.88,0,0,1-10.19,24c-8.8,8-21.68,16.19-26.91,19.41L72.79,99.3a1.19,1.19,0,0,0-2.32-.49L67,115.07a1.18,1.18,0,0,0,1.76,1.27c.18-.11,18.23-10.76,29.63-21.1A33.71,33.71,0,0,0,109.35,69.4Z"/><path class="cls-4" d="M108.65,68.69a31.17,31.17,0,1,0-47.8,26.42,1.18,1.18,0,0,0,1.27-2,28.8,28.8,0,0,1,29.6-49.39,28.78,28.78,0,1,0,14.57,25.08v0a31.88,31.88,0,0,1-10.19,24c-8.8,8-21.68,16.19-26.91,19.41L72.08,98.6a1.19,1.19,0,0,0-2.32-.49L66.3,114.37a1.18,1.18,0,0,0,1.76,1.27c.18-.11,18.23-10.76,29.63-21.1A33.71,33.71,0,0,0,108.65,68.69Z"/><path class="cls-4" d="M107.94,68A31.17,31.17,0,1,0,60.15,94.4a1.18,1.18,0,0,0,1.27-2A28.8,28.8,0,0,1,91,43a28.78,28.78,0,1,0,14.57,25.08v0a31.88,31.88,0,0,1-10.19,24c-8.8,8-21.68,16.19-26.91,19.41l2.89-13.58a1.19,1.19,0,0,0-2.32-.49L65.6,113.66a1.18,1.18,0,0,0,1.76,1.27c.18-.11,18.23-10.76,29.63-21.1A33.71,33.71,0,0,0,107.94,68Z"/><path class="cls-4" d="M107.24,67.28A31.17,31.17,0,1,0,59.44,93.7a1.18,1.18,0,0,0,1.27-2A28.8,28.8,0,0,1,90.3,42.3a28.78,28.78,0,1,0,14.57,25.08v0a31.88,31.88,0,0,1-10.19,24c-8.8,8-21.68,16.19-26.91,19.41l2.89-13.58a1.19,1.19,0,0,0-2.32-.49L64.89,113a1.18,1.18,0,0,0,1.76,1.27c.18-.11,18.23-10.76,29.63-21.1A33.71,33.71,0,0,0,107.24,67.28Z"/><path class="cls-4" d="M106.53,66.58A31.17,31.17,0,1,0,58.74,93,1.18,1.18,0,0,0,60,91,28.8,28.8,0,0,1,89.6,41.6a28.78,28.78,0,1,0,14.57,25.08v0A31.88,31.88,0,0,1,94,90.66c-8.8,8-21.68,16.19-26.91,19.41L70,96.48A1.19,1.19,0,0,0,67.65,96l-3.46,16.26a1.18,1.18,0,0,0,1.76,1.27c.18-.11,18.23-10.76,29.63-21.1A33.71,33.71,0,0,0,106.53,66.58Z"/><path class="cls-4" d="M105.83,65.87A31.17,31.17,0,1,0,58,92.29a1.18,1.18,0,0,0,1.27-2,28.8,28.8,0,0,1,29.6-49.39A28.78,28.78,0,1,0,103.46,66v0A31.88,31.88,0,0,1,93.27,90c-8.8,8-21.68,16.19-26.91,19.41l2.89-13.58a1.19,1.19,0,0,0-2.32-.49l-3.46,16.26a1.18,1.18,0,0,0,1.76,1.27c.18-.11,18.23-10.76,29.63-21.1A33.71,33.71,0,0,0,105.83,65.87Z"/><path class="cls-4" d="M105.12,65.17a31.17,31.17,0,1,0-47.8,26.42,1.18,1.18,0,0,0,1.27-2,28.8,28.8,0,0,1,29.6-49.39,28.78,28.78,0,1,0,14.57,25.08v0a31.88,31.88,0,0,1-10.19,24c-8.8,8-21.68,16.19-26.91,19.41l2.89-13.58a1.19,1.19,0,0,0-2.32-.49l-3.46,16.26a1.18,1.18,0,0,0,1.76,1.27c.18-.11,18.23-10.76,29.63-21.1A33.71,33.71,0,0,0,105.12,65.17Z"/><path class="cls-4" d="M104.42,64.46a31.17,31.17,0,1,0-47.8,26.42,1.18,1.18,0,0,0,1.27-2,28.8,28.8,0,0,1,29.6-49.39,28.78,28.78,0,1,0,14.57,25.08v0a31.88,31.88,0,0,1-10.19,24c-8.8,8-21.68,16.19-26.91,19.41l2.89-13.58a1.19,1.19,0,0,0-2.32-.49l-3.46,16.26a1.18,1.18,0,0,0,1.76,1.27c.18-.11,18.23-10.76,29.63-21.1A33.71,33.71,0,0,0,104.42,64.46Z"/><path class="cls-4" d="M103.71,63.76a31.17,31.17,0,1,0-47.8,26.42,1.18,1.18,0,0,0,1.27-2,28.8,28.8,0,0,1,29.6-49.39,28.78,28.78,0,1,0,14.57,25.08v0a31.88,31.88,0,0,1-10.19,24c-8.8,8-21.68,16.19-26.91,19.41l2.89-13.58a1.19,1.19,0,0,0-2.32-.49l-3.46,16.26a1.18,1.18,0,0,0,1.76,1.27c.18-.11,18.23-10.76,29.63-21.1A33.71,33.71,0,0,0,103.71,63.76Z"/><path class="cls-4" d="M103,63.05a31.17,31.17,0,1,0-47.8,26.42,1.18,1.18,0,0,0,1.27-2,28.8,28.8,0,0,1,29.6-49.39,28.78,28.78,0,1,0,14.57,25.08v0a31.88,31.88,0,0,1-10.19,24c-8.8,8-21.68,16.19-26.91,19.41L66.44,93a1.19,1.19,0,0,0-2.32-.49l-3.46,16.26A1.18,1.18,0,0,0,62.42,110c.18-.11,18.23-10.76,29.63-21.1A33.71,33.71,0,0,0,103,63.05Z"/><path class="cls-4" d="M102.3,62.35a31.17,31.17,0,1,0-47.8,26.42,1.18,1.18,0,0,0,1.27-2,28.8,28.8,0,0,1,29.6-49.39A28.78,28.78,0,1,0,99.94,62.44v0a31.88,31.88,0,0,1-10.19,24c-8.8,8-21.68,16.19-26.91,19.41l2.89-13.58a1.19,1.19,0,0,0-2.32-.49L60,108a1.18,1.18,0,0,0,1.76,1.27c.18-.11,18.23-10.76,29.63-21.1A33.71,33.71,0,0,0,102.3,62.35Z"/><path class="cls-4" d="M101.6,61.64A31.17,31.17,0,1,0,53.8,88.06a1.18,1.18,0,0,0,1.27-2,28.8,28.8,0,0,1,29.6-49.39A28.78,28.78,0,1,0,99.23,61.74v0A31.88,31.88,0,0,1,89,85.73c-8.8,8-21.68,16.19-26.91,19.41L65,91.55a1.19,1.19,0,0,0-2.32-.49l-3.46,16.26A1.18,1.18,0,0,0,61,108.59c.18-.11,18.23-10.76,29.63-21.1A33.71,33.71,0,0,0,101.6,61.64Z"/><path class="cls-4" d="M100.89,60.94A31.17,31.17,0,1,0,53.1,87.36a1.18,1.18,0,0,0,1.27-2A28.8,28.8,0,0,1,84,36,28.78,28.78,0,1,0,98.53,61v0A31.88,31.88,0,0,1,88.34,85c-8.8,8-21.68,16.19-26.91,19.41l2.89-13.58A1.19,1.19,0,0,0,62,90.35l-3.46,16.26a1.18,1.18,0,0,0,1.76,1.27c.18-.11,18.23-10.76,29.63-21.1A33.71,33.71,0,0,0,100.89,60.94Z"/><path class="cls-4" d="M100.19,60.23a31.17,31.17,0,1,0-47.8,26.42,1.18,1.18,0,0,0,1.27-2,28.8,28.8,0,0,1,29.6-49.39A28.78,28.78,0,1,0,97.82,60.33v0a31.88,31.88,0,0,1-10.19,24c-8.8,8-21.68,16.19-26.91,19.41l2.89-13.58a1.19,1.19,0,0,0-2.32-.49l-3.46,16.26a1.18,1.18,0,0,0,1.76,1.27c.18-.11,18.23-10.76,29.63-21.1A33.71,33.71,0,0,0,100.19,60.23Z"/><path class="cls-4" d="M99.48,59.53a31.17,31.17,0,1,0-47.8,26.42,1.18,1.18,0,0,0,1.27-2,28.8,28.8,0,0,1,29.6-49.39A28.78,28.78,0,1,0,97.12,59.62v0a31.88,31.88,0,0,1-10.19,24C78.13,91.6,65.25,99.81,60,103l2.89-13.58a1.19,1.19,0,0,0-2.32-.49L57.14,105.2a1.18,1.18,0,0,0,1.76,1.27c.18-.11,18.23-10.76,29.63-21.1A33.71,33.71,0,0,0,99.48,59.53Z"/><path class="cls-4" d="M98.78,58.82A31.17,31.17,0,1,0,51,85.24a1.18,1.18,0,0,0,1.27-2,28.8,28.8,0,0,1,29.6-49.39A28.78,28.78,0,1,0,96.41,58.92v0a31.88,31.88,0,0,1-10.19,24c-8.8,8-21.68,16.19-26.91,19.41l2.89-13.58a1.19,1.19,0,0,0-2.32-.49L56.43,104.5a1.18,1.18,0,0,0,1.76,1.27c.18-.11,18.23-10.76,29.63-21.1A33.71,33.71,0,0,0,98.78,58.82Z"/><path class="cls-4" d="M98.07,58.12a31.17,31.17,0,1,0-47.8,26.42,1.18,1.18,0,0,0,1.27-2,28.8,28.8,0,0,1,29.6-49.39A28.78,28.78,0,1,0,95.71,58.21v0a31.88,31.88,0,0,1-10.19,24c-8.8,8-21.68,16.19-26.91,19.41L61.51,88a1.19,1.19,0,0,0-2.32-.49l-3.46,16.26a1.18,1.18,0,0,0,1.76,1.27C57.67,105,75.72,94.31,87.11,84A33.71,33.71,0,0,0,98.07,58.12Z"/><path class="cls-4" d="M97.37,57.41a31.17,31.17,0,1,0-47.8,26.42,1.18,1.18,0,0,0,1.27-2,28.8,28.8,0,0,1,29.6-49.39A28.78,28.78,0,1,0,95,57.51v0a31.88,31.88,0,0,1-10.19,24c-8.8,8-21.68,16.19-26.91,19.41L60.8,87.32a1.19,1.19,0,0,0-2.32-.49L55,103.09a1.18,1.18,0,0,0,1.76,1.27C57,104.25,75,93.6,86.41,83.25A33.71,33.71,0,0,0,97.37,57.41Z"/><path class="cls-4" d="M96.66,56.71a31.17,31.17,0,1,0-47.8,26.42,1.18,1.18,0,0,0,1.27-2,28.8,28.8,0,0,1,29.6-49.39A28.78,28.78,0,1,0,94.3,56.8v0a31.88,31.88,0,0,1-10.19,24c-8.8,8-21.68,16.19-26.91,19.41L60.1,86.62a1.19,1.19,0,0,0-2.32-.49l-3.46,16.26a1.18,1.18,0,0,0,1.76,1.27c.18-.11,18.23-10.76,29.63-21.1A33.71,33.71,0,0,0,96.66,56.71Z"/><path class="cls-4" d="M96,56a31.17,31.17,0,1,0-47.8,26.42,1.18,1.18,0,0,0,1.27-2A28.8,28.8,0,0,1,79,31,28.78,28.78,0,1,0,93.59,56.1v0a31.88,31.88,0,0,1-10.19,24c-8.8,8-21.68,16.19-26.91,19.41l2.89-13.58a1.19,1.19,0,0,0-2.32-.49l-3.46,16.26a1.18,1.18,0,0,0,1.76,1.27c.18-.11,18.23-10.76,29.63-21.1A33.71,33.71,0,0,0,96,56Z"/><path class="cls-4" d="M95.25,55.3a31.17,31.17,0,1,0-47.8,26.42,1.18,1.18,0,0,0,1.27-2,28.8,28.8,0,0,1,29.6-49.39A28.78,28.78,0,1,0,92.89,55.39v0a31.88,31.88,0,0,1-10.19,24c-8.8,8-21.68,16.19-26.91,19.41l2.89-13.58a1.19,1.19,0,0,0-2.32-.49L52.91,101a1.18,1.18,0,0,0,1.76,1.27c.18-.11,18.23-10.76,29.63-21.1A33.71,33.71,0,0,0,95.25,55.3Z"/><path class="cls-4" d="M94.55,54.59A31.17,31.17,0,1,0,46.75,81,1.18,1.18,0,0,0,48,79a28.8,28.8,0,0,1,29.6-49.39A28.78,28.78,0,1,0,92.18,54.69v0A31.88,31.88,0,0,1,82,78.68c-8.8,8-21.68,16.19-26.91,19.41L58,84.5A1.19,1.19,0,0,0,55.66,84L52.2,100.27A1.18,1.18,0,0,0,54,101.54c.18-.11,18.23-10.76,29.63-21.1A33.71,33.71,0,0,0,94.55,54.59Z"/><path class="cls-4" d="M93.84,53.89A31.17,31.17,0,1,0,46,80.31a1.18,1.18,0,0,0,1.27-2,28.8,28.8,0,0,1,29.6-49.39A28.78,28.78,0,1,0,91.48,54v0A31.88,31.88,0,0,1,81.29,78c-8.8,8-21.68,16.19-26.91,19.41L57.28,83.8A1.19,1.19,0,0,0,55,83.3L51.5,99.56a1.18,1.18,0,0,0,1.76,1.27c.18-.11,18.23-10.76,29.63-21.1A33.71,33.71,0,0,0,93.84,53.89Z"/><path class="cls-4" d="M93.14,53.18A31.17,31.17,0,1,0,45.34,79.6a1.18,1.18,0,0,0,1.27-2A28.8,28.8,0,0,1,76.2,28.2,28.78,28.78,0,1,0,90.77,53.28v0a31.88,31.88,0,0,1-10.19,24c-8.8,8-21.68,16.19-26.91,19.41l2.89-13.58a1.19,1.19,0,0,0-2.32-.49L50.79,98.86a1.18,1.18,0,0,0,1.76,1.27C52.73,100,70.78,89.37,82.18,79A33.71,33.71,0,0,0,93.14,53.18Z"/><path class="cls-4" d="M92.43,52.48A31.17,31.17,0,1,0,44.64,78.9a1.18,1.18,0,0,0,1.27-2A28.8,28.8,0,0,1,75.5,27.5,28.78,28.78,0,1,0,90.07,52.57v0a31.88,31.88,0,0,1-10.19,24C71.08,84.55,58.2,92.76,53,96l2.89-13.58a1.19,1.19,0,0,0-2.32-.49L50.09,98.15a1.18,1.18,0,0,0,1.76,1.27c.18-.11,18.23-10.76,29.63-21.1A33.71,33.71,0,0,0,92.43,52.48Z"/><path class="cls-4" d="M91.73,51.77a31.17,31.17,0,1,0-47.8,26.42,1.18,1.18,0,0,0,1.27-2,28.8,28.8,0,0,1,29.6-49.39A28.78,28.78,0,1,0,89.36,51.87v0a31.88,31.88,0,0,1-10.19,24c-8.8,8-21.68,16.19-26.91,19.41l2.89-13.58a1.19,1.19,0,0,0-2.32-.49L49.38,97.45a1.18,1.18,0,0,0,1.76,1.27c.18-.11,18.23-10.76,29.63-21.1A33.71,33.71,0,0,0,91.73,51.77Z"/><path class="cls-4" d="M91,51.07a31.17,31.17,0,1,0-47.8,26.42,1.18,1.18,0,0,0,1.27-2,28.8,28.8,0,0,1,29.6-49.39A28.78,28.78,0,1,0,88.66,51.16v0a31.88,31.88,0,0,1-10.19,24c-8.8,8-21.68,16.19-26.91,19.41L54.46,81a1.19,1.19,0,0,0-2.32-.49L48.68,96.74A1.18,1.18,0,0,0,50.44,98c.18-.11,18.23-10.76,29.63-21.1A33.71,33.71,0,0,0,91,51.07Z"/><path class="cls-4" d="M90.32,50.36a31.17,31.17,0,1,0-47.8,26.42,1.18,1.18,0,0,0,1.27-2,28.8,28.8,0,0,1,29.6-49.39A28.78,28.78,0,1,0,88,50.46v0a31.88,31.88,0,0,1-10.19,24c-8.8,8-21.68,16.19-26.91,19.41l2.89-13.58a1.19,1.19,0,0,0-2.32-.49L48,96a1.18,1.18,0,0,0,1.76,1.27C49.91,97.2,68,86.55,79.36,76.2A33.71,33.71,0,0,0,90.32,50.36Z"/><path class="cls-4" d="M89.61,49.66a31.17,31.17,0,1,0-47.8,26.42,1.18,1.18,0,0,0,1.27-2,28.8,28.8,0,0,1,29.6-49.39A28.78,28.78,0,1,0,87.25,49.75v0a31.88,31.88,0,0,1-10.19,24c-8.8,8-21.68,16.19-26.91,19.41L53,79.57a1.19,1.19,0,0,0-2.32-.49L47.27,95.33A1.18,1.18,0,0,0,49,96.6c.18-.11,18.23-10.76,29.63-21.1A33.71,33.71,0,0,0,89.61,49.66Z"/><path class="cls-4" d="M88.91,49a31.17,31.17,0,1,0-47.8,26.42,1.18,1.18,0,0,0,1.27-2A28.8,28.8,0,0,1,72,24,28.78,28.78,0,1,0,86.54,49v0A31.88,31.88,0,0,1,76.36,73c-8.8,8-21.68,16.19-26.91,19.41l2.89-13.58A1.19,1.19,0,0,0,50,78.37L46.56,94.63a1.18,1.18,0,0,0,1.76,1.27c.18-.11,18.23-10.76,29.63-21.1A33.71,33.71,0,0,0,88.91,49Z"/><path class="cls-4" d="M88.21,48.25a31.17,31.17,0,1,0-47.8,26.42,1.18,1.18,0,0,0,1.27-2,28.8,28.8,0,0,1,29.6-49.39A28.78,28.78,0,1,0,85.84,48.34v0a31.88,31.88,0,0,1-10.19,24c-8.8,8-21.68,16.19-26.91,19.41l2.89-13.58a1.19,1.19,0,0,0-2.32-.49L45.86,93.92a1.18,1.18,0,0,0,1.76,1.27c.18-.11,18.23-10.76,29.63-21.1A33.71,33.71,0,0,0,88.21,48.25Z"/><path class="cls-4" d="M87.5,47.54A31.17,31.17,0,1,0,39.7,74,1.18,1.18,0,0,0,41,72a28.8,28.8,0,0,1,29.6-49.39A28.78,28.78,0,1,0,85.13,47.64v0a31.88,31.88,0,0,1-10.19,24C66.15,79.62,53.27,87.82,48,91l2.89-13.58A1.19,1.19,0,0,0,48.61,77L45.15,93.22a1.18,1.18,0,0,0,1.76,1.27c.18-.11,18.23-10.76,29.63-21.1A33.71,33.71,0,0,0,87.5,47.54Z"/><path class="cls-4" d="M86.8,46.84A31.17,31.17,0,1,0,39,73.26a1.18,1.18,0,0,0,1.27-2,28.8,28.8,0,0,1,29.6-49.39A28.78,28.78,0,1,0,84.43,46.93v0a31.88,31.88,0,0,1-10.19,24c-8.8,8-21.68,16.19-26.91,19.41l2.89-13.58a1.19,1.19,0,0,0-2.32-.49L44.45,92.51a1.18,1.18,0,0,0,1.76,1.27c.18-.11,18.23-10.76,29.63-21.1A33.71,33.71,0,0,0,86.8,46.84Z"/><path class="cls-4" d="M86.09,46.13a31.17,31.17,0,1,0-47.8,26.42,1.18,1.18,0,0,0,1.27-2,28.8,28.8,0,0,1,29.6-49.39A28.78,28.78,0,1,0,83.72,46.23v0a31.88,31.88,0,0,1-10.19,24c-8.8,8-21.68,16.19-26.91,19.41L49.52,76a1.19,1.19,0,0,0-2.32-.49L43.74,91.81a1.18,1.18,0,0,0,1.76,1.27C45.68,93,63.73,82.32,75.13,72A33.71,33.71,0,0,0,86.09,46.13Z"/><path class="cls-4" d="M85.39,45.43a31.17,31.17,0,1,0-47.8,26.42,1.18,1.18,0,0,0,1.27-2,28.8,28.8,0,0,1,29.6-49.39A28.78,28.78,0,1,0,83,45.52v0a31.88,31.88,0,0,1-10.19,24c-8.8,8-21.68,16.19-26.91,19.41l2.89-13.58a1.19,1.19,0,0,0-2.32-.49L43,91.1a1.18,1.18,0,0,0,1.76,1.27C45,92.27,63,81.62,74.42,71.27A33.71,33.71,0,0,0,85.39,45.43Z"/><path class="cls-4" d="M84.68,44.72a31.17,31.17,0,1,0-47.8,26.42,1.18,1.18,0,0,0,1.27-2,28.8,28.8,0,0,1,29.6-49.39A28.78,28.78,0,1,0,82.31,44.82v0a31.88,31.88,0,0,1-10.19,24c-8.8,8-21.68,16.19-26.91,19.41l2.89-13.58a1.19,1.19,0,0,0-2.32-.49L42.33,90.4a1.18,1.18,0,0,0,1.76,1.27c.18-.11,18.23-10.76,29.63-21.1A33.71,33.71,0,0,0,84.68,44.72Z"/><path class="cls-4" d="M84,44a31.17,31.17,0,1,0-47.8,26.42,1.18,1.18,0,0,0,1.27-2A28.8,28.8,0,0,1,67,19,28.78,28.78,0,1,0,81.61,44.11v0a31.88,31.88,0,0,1-10.19,24c-8.8,8-21.68,16.19-26.91,19.41l2.89-13.58a1.19,1.19,0,0,0-2.32-.49L41.63,89.69A1.18,1.18,0,0,0,43.39,91c.18-.11,18.23-10.76,29.63-21.1A33.71,33.71,0,0,0,84,44Z"/><path class="cls-4" d="M83.27,43.31a31.17,31.17,0,1,0-47.8,26.42,1.18,1.18,0,0,0,1.27-2,28.8,28.8,0,0,1,29.6-49.39A28.78,28.78,0,1,0,80.9,43.41v0a31.88,31.88,0,0,1-10.19,24c-8.8,8-21.68,16.19-26.91,19.41L46.7,73.22a1.19,1.19,0,0,0-2.32-.49L40.92,89a1.18,1.18,0,0,0,1.76,1.27c.18-.11,18.23-10.76,29.63-21.1A33.71,33.71,0,0,0,83.27,43.31Z"/><path class="cls-4" d="M82.57,42.61A31.17,31.17,0,1,0,34.77,69,1.18,1.18,0,0,0,36,67a28.8,28.8,0,0,1,29.6-49.39A28.78,28.78,0,1,0,80.2,42.7v0A31.88,31.88,0,0,1,70,66.69c-8.8,8-21.68,16.19-26.91,19.41L46,72.52A1.19,1.19,0,0,0,43.68,72L40.22,88.28A1.18,1.18,0,0,0,42,89.55c.18-.11,18.23-10.76,29.63-21.1A33.71,33.71,0,0,0,82.57,42.61Z"/><path class="cls-4" d="M81.86,41.9a31.17,31.17,0,1,0-47.8,26.42,1.18,1.18,0,0,0,1.27-2,28.8,28.8,0,0,1,29.6-49.39A28.78,28.78,0,1,0,79.49,42v0A31.88,31.88,0,0,1,69.31,66C60.51,74,47.63,82.18,42.4,85.4l2.89-13.58A1.19,1.19,0,0,0,43,71.32L39.51,87.58a1.18,1.18,0,0,0,1.76,1.27c.18-.11,18.23-10.76,29.63-21.1A33.71,33.71,0,0,0,81.86,41.9Z"/><path class="cls-4" d="M81.16,41.2a31.17,31.17,0,1,0-47.8,26.42,1.18,1.18,0,0,0,1.27-2,28.8,28.8,0,0,1,29.6-49.39A28.78,28.78,0,1,0,78.79,41.29v0a31.87,31.87,0,0,1-10.19,24c-8.8,8-21.68,16.19-26.91,19.41l2.89-13.58a1.19,1.19,0,0,0-2.32-.49L38.81,86.88a1.18,1.18,0,0,0,1.76,1.27C40.75,88,58.8,77.39,70.19,67A33.71,33.71,0,0,0,81.16,41.2Z"/></g></g><path class="cls-5" d="M78.81,41.16c0,9.43-3.73,18.44-8.12,22.16a17.11,17.11,0,0,0-4.44,5.63,26.5,26.5,0,0,0-6.81,4.63c-1.12,1.81-16.29,11.9-18.12,10.88,0,0,4.53-14.7,2.61-14.26-4.49,1-22.91-11-22.88-29,0-15.1,12.6-28.88,28.88-28.88A28.88,28.88,0,0,1,78.81,41.16Z"/><path class="cls-4" d="M81.16,41.2a31.17,31.17,0,1,0-47.8,26.42,1.18,1.18,0,0,0,1.27-2A28.8,28.8,0,1,1,78.79,41.24s0,.06,0,.09a31.87,31.87,0,0,1-10.19,24c-8.8,8-21.68,16.19-26.91,19.41l2.89-13.58a1.19,1.19,0,0,0-2.32-.49L38.81,86.88a1.18,1.18,0,0,0,1.76,1.27C40.75,88,58.8,77.39,70.19,67A33.71,33.71,0,0,0,81.16,41.2Z"/><path class="cls-4" d="M49.16,51.77a1.71,1.71,0,0,0,1.25.49,1.69,1.69,0,0,0,1.36-.62L63.24,39.29l2.65,2.61a1.84,1.84,0,0,0,1.27.46,2.24,2.24,0,0,0,.81-.15,1.93,1.93,0,0,0,1.19-1.85V29.47a2.12,2.12,0,0,0-2.07-2.2H56l-.21,0A2.06,2.06,0,0,0,54,29a1.8,1.8,0,0,0,.46,1.58l3.08,3.08-7.67,8.56L45,37.73a1.75,1.75,0,0,0-1.25-.51,2.17,2.17,0,0,0-1.11.32,1.18,1.18,0,0,0-.23.2L31.85,49.11a1.74,1.74,0,0,0-.51,1.34,1.68,1.68,0,0,0,.57,1.12l3.19,3.15a1.66,1.66,0,0,0,1.18.49,2,2,0,0,0,1.14-.39l.15-.14,6.76-7.38Zm-5.77-6.94-7.09,7.74L34,50.29l9.74-10.51,5.46,5a1.18,1.18,0,0,0,1.68-.09l9.21-10.29a1.18,1.18,0,0,0,0-1.63l-3.11-3.11h9.87v9.84L64,36.75a1.17,1.17,0,0,0-.86-.34,1.19,1.19,0,0,0-.84.38l-12,12.88-5.3-4.91a1.16,1.16,0,0,0-.85-.31A1.19,1.19,0,0,0,43.39,44.83Z"/></svg>