<svg id="Ebene_1" data-name="Ebene 1" xmlns="http://www.w3.org/2000/svg" viewBox="0 0 100 100"><defs><style>.cls-1{fill:none;}.cls-2{fill:#149cd6;}</style></defs><title>icon-graowth</title><path class="cls-1" d="M20.62,33.69c.2,4.1,1.4,7.1,3.7,9.1,2.7,2.4,6.4,2.8,8.5,2.8.4-3.4-.2-6.2-1.9-8.1C28.12,34.49,23.42,33.89,20.62,33.69Z"/><path class="cls-1" d="M23.62,72.19c1.8,1.3,4.6,2.9,7.3,2.6a6.8,6.8,0,0,0,4.6-2.7,8,8,0,0,0-4.4-2.3Q27.67,69.34,23.62,72.19Z"/><path class="cls-1" d="M64.82,56.39a8.21,8.21,0,0,0,6.9-.3c3.7-1.9,6.1-6.8,7.3-10.3-3,.1-8,.7-11.1,3.6A10.14,10.14,0,0,0,64.82,56.39Z"/><path class="cls-1" d="M55.52,23.69c1-6.2-3.6-12.9-6.1-16.1-2.5,2.9-7,8.9-6.4,14.8.4,3.6,2.6,6.7,6.6,9.4C53,29.69,55,27,55.52,23.69Z"/><path class="cls-2" d="M83.72,42.39a2.36,2.36,0,0,0-1.6-.9c-.5,0-11.1-1.1-17.4,4.7a14.07,14.07,0,0,0-4.5,10.6L51.72,63V35.79c4.7-2.9,7.5-6.8,8.2-11.4,1.7-10.6-8.4-21.2-8.8-21.7a2.33,2.33,0,0,0-3.2-.1c-.4.4-10.6,9.8-9.5,20.3.5,5,3.5,9.3,8.8,12.8v21.4l-10.1-10c.8-5.2-.2-9.4-2.9-12.5-5.4-6.1-15.6-5.4-16.1-5.4a2.36,2.36,0,0,0-2.1,2.2c-.2,6.6,1.5,11.6,5.2,14.9,4.4,3.9,10.1,4.1,12.6,3.9l13.4,13.4v6.3h-7.7a12.63,12.63,0,0,0-7.6-4.4c-4.2-.7-8.7,1-13.4,5a2.09,2.09,0,0,0-.8,1.6,2.72,2.72,0,0,0,.6,1.7c.2.2,5.6,5.7,11.9,5.7h1a11.39,11.39,0,0,0,8.2-5h7.7v14.7a5.1,5.1,0,1,0,4.4,0V68.69l11.1-8.1c4,1.5,7.6,1.4,10.9-.3,7.8-4,10.3-15.5,10.4-16A1.8,1.8,0,0,0,83.72,42.39Zm-50.9,3.3c-2.1,0-5.8-.4-8.5-2.8-2.2-2-3.4-5.1-3.7-9.1,2.8.1,7.5.8,10.2,3.9C32.52,39.49,33.22,42.29,32.82,45.69Zm-1.9,29.1c-2.8.3-5.5-1.3-7.3-2.6,2.7-1.9,5.3-2.7,7.6-2.3a8,8,0,0,1,4.4,2.3,7,7,0,0,1-4.7,2.6ZM43,22.49c-.6-6,3.9-12,6.4-14.8,2.5,3.2,7,9.9,6.1,16.1-.5,3.2-2.4,5.9-5.9,8.1C45.52,29.19,43.32,26,43,22.49Zm28.7,33.7a9,9,0,0,1-6.9.3,10,10,0,0,1,3-6.9c3.2-2.9,8.1-3.5,11.1-3.6C77.82,49.29,75.42,54.19,71.72,56.19Z"/></svg>