<svg id="Ebene_1" data-name="Ebene 1" xmlns="http://www.w3.org/2000/svg" viewBox="0 0 100 100"><defs><style>.cls-1{fill:#149cd6;}</style></defs><title>ex-1-3</title><path class="cls-1" d="M83.4,27.37H64.71V17a6.28,6.28,0,0,0-6.26-6.26H41.34A6.28,6.28,0,0,0,35.08,17v10.4H16.39a6.28,6.28,0,0,0-6.26,6.26V82.92a6.28,6.28,0,0,0,6.26,6.26H83.31a6.28,6.28,0,0,0,6.26-6.26V33.63A6.15,6.15,0,0,0,83.4,27.37ZM39.84,17a1.58,1.58,0,0,1,1.59-1.59h17.1A1.58,1.58,0,0,1,60.12,17v10.4H39.84ZM16.57,32H83.48a1.58,1.58,0,0,1,1.59,1.59v15L58.53,54.44V50.38a2.33,2.33,0,0,0-2.29-2.29H43.81a2.33,2.33,0,0,0-2.29,2.29v4.06L15,48.53v-15A1.58,1.58,0,0,1,16.57,32ZM53.86,52.76v7.85H46V52.76ZM83.4,84.5H16.48a1.58,1.58,0,0,1-1.59-1.59V53.29L41.43,59.2v3.7a2.33,2.33,0,0,0,2.29,2.29H56.15a2.33,2.33,0,0,0,2.29-2.29V59.2L85,53.29V82.92A1.53,1.53,0,0,1,83.4,84.5Z"/></svg>