<?xml version="1.0" encoding="utf-8"?>
<!-- Generator: Adobe Illustrator 20.0.0, SVG Export Plug-In . SVG Version: 6.00 Build 0)  -->
<svg version="1.1" id="Ebene_1" xmlns="http://www.w3.org/2000/svg" xmlns:xlink="http://www.w3.org/1999/xlink" x="0px" y="0px"
	 viewBox="0 0 100 100" style="enable-background:new 0 0 100 100;" xml:space="preserve">
<style type="text/css">
	.st0{fill:#149CD6;}
</style>
<g>
	<path class="st0" d="M86.7,46H13.3c-2.1,0-3.8,1.7-3.8,3.8v25.3c0,2.1,1.7,3.8,3.8,3.8h73.4c2.1,0,3.8-1.7,3.8-3.8V49.8
		C90.5,47.7,88.8,46,86.7,46z M88,75.1c0,0.7-0.6,1.3-1.3,1.3H13.3c-0.7,0-1.3-0.6-1.3-1.3V49.8c0-0.7,0.6-1.3,1.3-1.3h73.4
		c0.7,0,1.3,0.6,1.3,1.3V75.1z"/>
	<polygon class="st0" points="67.7,66.3 65.2,66.3 65.2,68.8 70.3,68.8 70.3,61.2 67.7,61.2 	"/>
	<rect x="62.7" y="71.3" class="st0" width="7.6" height="2.5"/>
	<rect x="19.7" y="61.2" class="st0" width="45.5" height="2.5"/>
	<rect x="14.6" y="61.2" class="st0" width="2.5" height="2.5"/>
	<rect x="14.6" y="51.1" class="st0" width="2.5" height="2.5"/>
	<rect x="14.6" y="66.3" class="st0" width="5.1" height="2.5"/>
	<rect x="14.6" y="71.3" class="st0" width="7.6" height="2.5"/>
	<rect x="24.7" y="71.3" class="st0" width="35.4" height="2.5"/>
	<rect x="22.2" y="66.3" class="st0" width="40.5" height="2.5"/>
	<rect x="14.6" y="56.1" class="st0" width="55.7" height="2.5"/>
	<rect x="72.8" y="56.1" class="st0" width="12.7" height="2.5"/>
	<rect x="19.7" y="51.1" class="st0" width="50.6" height="2.5"/>
	<rect x="72.8" y="61.2" class="st0" width="12.7" height="2.5"/>
	<polygon class="st0" points="80.4,68.8 77.9,68.8 77.9,71.3 75.3,71.3 75.3,73.9 82.9,73.9 82.9,71.3 80.4,71.3 	"/>
	<path class="st0" d="M43.7,41h11.4c4.9,0,8.9-4,8.9-8.9s-4-8.9-8.9-8.9H43.7c-4.9,0-8.9,4-8.9,8.9S38.8,41,43.7,41z M61.4,32.1
		c0,3.5-2.8,6.3-6.3,6.3H50V25.8h5.1C58.6,25.8,61.4,28.6,61.4,32.1z M43.7,25.8h3.8v12.7h-3.8c-3.5,0-6.3-2.8-6.3-6.3
		S40.2,25.8,43.7,25.8z"/>
	<rect x="39.9" y="30.8" class="st0" width="5.1" height="2.5"/>
</g>
</svg>
