<svg id="Ebene_1" data-name="Ebene 1" xmlns="http://www.w3.org/2000/svg" viewBox="0 0 100 100"><defs><style>.cls-1{fill:#149cd6;}.cls-2{fill:#fff;}</style></defs><title>ex-1-1</title><rect class="cls-1" x="47.35" y="74.67" width="5.6" height="9"/><polygon class="cls-2" points="66.02 30.49 66.02 17.42 61.35 17.42 30.51 17.42 21.38 23.95 30.54 30.49 61.35 30.49 66.02 30.49"/><polygon class="cls-2" points="38.94 47.3 34.27 47.3 34.27 60.37 38.94 60.37 69.75 60.37 78.92 53.83 69.78 47.3 38.94 47.3"/><path class="cls-1" d="M47.35,81.25h-8.7a2.81,2.81,0,0,0,.29,5.6H61.35a2.8,2.8,0,0,0,.08-5.6H52.95V74.67h-5.6Z"/><path class="cls-1" d="M86.07,52.21a2.8,2.8,0,0,0-.68-.68L72.32,42.19a2.8,2.8,0,0,0-1.63-.5H52.95v-5.6H68.82a2.8,2.8,0,0,0,2.8-2.8V14.62a2.8,2.8,0,0,0-2.8-2.8H29.31a2.8,2.8,0,0,0-1.34.5L14.9,21.65a2.8,2.8,0,0,0,0,4.58L28,35.57a2.8,2.8,0,0,0,1.63.53H47.35v5.6H31.18a2.8,2.8,0,0,0-2.51,2.8V63.17a2.8,2.8,0,0,0,2.8,2.8H47.35v8.69h5.6V66H70.69a2.8,2.8,0,0,0,1.63-.53L85.4,56.11A2.8,2.8,0,0,0,86.07,52.21ZM30.54,30.49,21.38,24l9.13-6.54H66V30.49H30.54ZM69.76,60.37H34.27V47.3H69.78l9.13,6.54Z"/></svg>