<svg id="Ebene_1" data-name="Ebene 1" xmlns="http://www.w3.org/2000/svg" viewBox="0 0 100 100"><defs><style>.cls-1{fill:#149cd6;}.cls-2{fill:#fff;}</style></defs><title>ex-2-1</title><rect class="cls-1" x="21.33" y="24.41" width="25.7" height="3.21"/><path class="cls-1" d="M42.18,66.54a19.71,19.71,0,0,0-8-1.52,19.71,19.71,0,0,0-8,1.52,9.92,9.92,0,0,0-2.75,1.69,1.61,1.61,0,0,0,2.22,2.33,7.06,7.06,0,0,1,1.84-1.08,16.53,16.53,0,0,1,6.7-1.25,16.53,16.53,0,0,1,6.7,1.25,7.06,7.06,0,0,1,1.84,1.08,1.61,1.61,0,0,0,2.22-2.33A9.92,9.92,0,0,0,42.18,66.54Z"/><path class="cls-1" d="M38.79,76.6a8.17,8.17,0,0,0-9.21,0A6.08,6.08,0,0,0,28,78.15a1.61,1.61,0,1,0,2.7,1.75,3.11,3.11,0,0,1,.73-.69,5,5,0,0,1,5.47,0,3.11,3.11,0,0,1,.73.69,1.61,1.61,0,1,0,2.7-1.75A6.08,6.08,0,0,0,38.79,76.6Z"/><path class="cls-1" d="M43.82,19.57V68.87L34.19,84.09,24.55,68.86V19.57a4.8,4.8,0,0,1,4.84-4.8H39A4.81,4.81,0,0,1,43.82,19.57Zm-14.44-8a8,8,0,0,0-8.05,8V69.34a1.61,1.61,0,0,0,.25.86L32.82,87.92a1.61,1.61,0,0,0,2.71,0L46.79,70.19a1.61,1.61,0,0,0,.25-.86V19.57a8,8,0,0,0-8.05-8Z"/><rect class="cls-1" x="27.76" y="24.41" width="3.21" height="41.77"/><rect class="cls-1" x="37.4" y="24.41" width="3.21" height="41.77"/><path class="cls-1" d="M56.67,11.56H76a3.16,3.16,0,0,1,3.2,3.07v71A3.15,3.15,0,0,1,76,88.67H56.67a3.16,3.16,0,0,1-3.2-3.07v-71A3.15,3.15,0,0,1,56.67,11.56ZM76,14.77V85.45H56.68V14.77Z"/><rect class="cls-2" x="56.7" y="14.72" width="19.15" height="70.63"/><rect class="cls-1" x="69.53" y="24.41" width="9.64" height="3.21"/><rect class="cls-1" x="63.1" y="34.05" width="16.06" height="3.21"/><rect class="cls-1" x="69.53" y="43.69" width="9.64" height="3.21"/><rect class="cls-1" x="63.1" y="53.32" width="16.06" height="3.21"/><rect class="cls-1" x="69.53" y="62.96" width="9.64" height="3.21"/><rect class="cls-1" x="63.1" y="72.6" width="16.06" height="3.21"/></svg>