<svg xmlns="http://www.w3.org/2000/svg" xmlns:xlink="http://www.w3.org/1999/xlink" viewBox="0 0 100 100"><defs><style>.cls-1{fill:none;}.cls-2{isolation:isolate;}.cls-3{clip-path:url(#clip-path);}.cls-4{opacity:0.15;mix-blend-mode:multiply;}.cls-5{fill:#149cd6;}.cls-6{fill:#fff;}</style><clipPath id="clip-path"><rect class="cls-1" width="100" height="100"/></clipPath></defs><title>home-4</title><g class="cls-2"><g id="Ebene_1" data-name="Ebene 1"><g class="cls-3"><g class="cls-4"><path class="cls-5" d="M150.39,124.18a14.15,14.15,0,1,0-21.29-18.31,15.09,15.09,0,0,0-12.52,9.61,11.77,11.77,0,0,0-1.72-.19h0a11.94,11.94,0,0,0-11.64,10,10.2,10.2,0,0,0-2.47-.45h0a10.53,10.53,0,0,0,0,21.07c.23,0,.41,0,.55,0-.12,0-.09,0,.23,0h42.36a7.31,7.31,0,0,0,2.5-.48,12.13,12.13,0,0,0,4-21.21Z"/><path class="cls-5" d="M149.68,123.48a14.15,14.15,0,1,0-21.29-18.31,15.09,15.09,0,0,0-12.52,9.61,11.77,11.77,0,0,0-1.72-.19h0a11.94,11.94,0,0,0-11.64,10,10.2,10.2,0,0,0-2.47-.45h0a10.53,10.53,0,0,0,0,21.07c.23,0,.41,0,.55,0-.12,0-.09,0,.23,0h42.36a7.31,7.31,0,0,0,2.5-.48,12.13,12.13,0,0,0,4-21.21Z"/><path class="cls-5" d="M149,122.77a14.15,14.15,0,1,0-21.29-18.31,15.09,15.09,0,0,0-12.52,9.61,11.77,11.77,0,0,0-1.72-.19h0a11.94,11.94,0,0,0-11.64,10,10.2,10.2,0,0,0-2.47-.45h0a10.53,10.53,0,0,0,0,21.07c.23,0,.41,0,.55,0-.12,0-.09,0,.23,0h42.36A7.31,7.31,0,0,0,145,144a12.13,12.13,0,0,0,4-21.21Z"/><path class="cls-5" d="M148.27,122.06A14.15,14.15,0,1,0,127,103.75a15.09,15.09,0,0,0-12.52,9.61,11.77,11.77,0,0,0-1.72-.19h0a11.94,11.94,0,0,0-11.64,10,10.2,10.2,0,0,0-2.47-.45h0a10.53,10.53,0,0,0,0,21.07c.23,0,.41,0,.55,0-.12,0-.09,0,.23,0h42.36a7.31,7.31,0,0,0,2.5-.48,12.13,12.13,0,0,0,4-21.21Z"/><path class="cls-5" d="M147.56,121.36A14.15,14.15,0,1,0,126.27,103a15.09,15.09,0,0,0-12.52,9.61,11.77,11.77,0,0,0-1.72-.19h0a11.94,11.94,0,0,0-11.64,10,10.2,10.2,0,0,0-2.47-.45h0a10.53,10.53,0,0,0,0,21.07c.23,0,.41,0,.55,0-.12,0-.09,0,.23,0H141a7.31,7.31,0,0,0,2.5-.48,12.13,12.13,0,0,0,4-21.21Z"/><path class="cls-5" d="M146.86,120.65a14.15,14.15,0,1,0-21.29-18.31A15.09,15.09,0,0,0,113,112a11.77,11.77,0,0,0-1.72-.19h0a11.94,11.94,0,0,0-11.64,10,10.2,10.2,0,0,0-2.47-.45h0a10.53,10.53,0,0,0,0,21.07c.23,0,.41,0,.55,0-.12,0-.09,0,.23,0h42.36a7.31,7.31,0,0,0,2.5-.48,12.13,12.13,0,0,0,4-21.21Z"/><path class="cls-5" d="M146.15,119.95a14.15,14.15,0,1,0-21.29-18.31,15.09,15.09,0,0,0-12.52,9.61,11.77,11.77,0,0,0-1.72-.19h0A11.94,11.94,0,0,0,99,121a10.2,10.2,0,0,0-2.47-.45h0a10.53,10.53,0,0,0,0,21.07c.23,0,.41,0,.55,0-.12,0-.09,0,.23,0h42.36a7.31,7.31,0,0,0,2.5-.48,12.13,12.13,0,0,0,4-21.21Z"/><path class="cls-5" d="M145.45,119.24a14.15,14.15,0,1,0-21.29-18.31,15.09,15.09,0,0,0-12.52,9.61,11.77,11.77,0,0,0-1.72-.19h0a11.94,11.94,0,0,0-11.64,10,10.2,10.2,0,0,0-2.47-.45h0a10.53,10.53,0,0,0,0,21.07c.23,0,.41,0,.55,0-.12,0-.09,0,.23,0h42.36a7.31,7.31,0,0,0,2.5-.48,12.13,12.13,0,0,0,4-21.21Z"/><path class="cls-5" d="M144.74,118.53a14.15,14.15,0,1,0-21.29-18.31,15.09,15.09,0,0,0-12.52,9.61,11.77,11.77,0,0,0-1.72-.19h0a11.94,11.94,0,0,0-11.64,10,10.2,10.2,0,0,0-2.47-.45h0a10.53,10.53,0,0,0,0,21.07c.23,0,.41,0,.55,0-.12,0-.09,0,.23,0h42.36a7.31,7.31,0,0,0,2.5-.48,12.13,12.13,0,0,0,4-21.21Z"/><path class="cls-5" d="M144,117.83a14.15,14.15,0,1,0-21.29-18.31,15.09,15.09,0,0,0-12.52,9.61,11.77,11.77,0,0,0-1.72-.19h0a11.94,11.94,0,0,0-11.64,10,10.2,10.2,0,0,0-2.47-.45h0a10.53,10.53,0,0,0,0,21.07c.23,0,.41,0,.55,0-.12,0-.09,0,.23,0h42.36A7.31,7.31,0,0,0,140,139a12.13,12.13,0,0,0,4-21.21Z"/><path class="cls-5" d="M143.33,117.12A14.15,14.15,0,1,0,122,98.81a15.09,15.09,0,0,0-12.52,9.61,11.77,11.77,0,0,0-1.72-.19h0a11.94,11.94,0,0,0-11.64,10,10.2,10.2,0,0,0-2.47-.45h0a10.53,10.53,0,0,0,0,21.07c.23,0,.41,0,.55,0-.12,0-.09,0,.23,0h42.36a7.31,7.31,0,0,0,2.5-.48,12.13,12.13,0,0,0,4-21.21Z"/><path class="cls-5" d="M142.62,116.42a14.15,14.15,0,1,0-21.29-18.31,15.09,15.09,0,0,0-12.52,9.61,11.77,11.77,0,0,0-1.72-.19h0a11.94,11.94,0,0,0-11.64,10A10.2,10.2,0,0,0,93,117h0a10.53,10.53,0,0,0,0,21.07c.23,0,.41,0,.55,0-.12,0-.09,0,.23,0h42.36a7.31,7.31,0,0,0,2.5-.48,12.13,12.13,0,0,0,4-21.21Z"/><path class="cls-5" d="M141.92,115.71A14.15,14.15,0,1,0,120.63,97.4,15.09,15.09,0,0,0,108.11,107a11.77,11.77,0,0,0-1.72-.19h0a11.94,11.94,0,0,0-11.64,10,10.2,10.2,0,0,0-2.47-.45h0a10.53,10.53,0,0,0,0,21.07c.23,0,.41,0,.55,0-.12,0-.09,0,.23,0H135.4a7.31,7.31,0,0,0,2.5-.48,12.13,12.13,0,0,0,4-21.21Z"/><path class="cls-5" d="M141.21,115a14.15,14.15,0,1,0-21.29-18.31,15.09,15.09,0,0,0-12.52,9.61,11.77,11.77,0,0,0-1.72-.19h0a11.94,11.94,0,0,0-11.64,10,10.2,10.2,0,0,0-2.47-.45h0a10.53,10.53,0,0,0,0,21.07c.23,0,.41,0,.55,0-.12,0-.09,0,.23,0H134.7a7.31,7.31,0,0,0,2.5-.48,12.13,12.13,0,0,0,4-21.21Z"/><path class="cls-5" d="M140.51,114.3A14.15,14.15,0,1,0,119.22,96a15.09,15.09,0,0,0-12.52,9.61,11.77,11.77,0,0,0-1.72-.19h0a11.94,11.94,0,0,0-11.64,10,10.2,10.2,0,0,0-2.47-.45h0a10.53,10.53,0,0,0,0,21.07c.23,0,.41,0,.55,0-.12,0-.09,0,.23,0H134a7.31,7.31,0,0,0,2.5-.48,12.13,12.13,0,0,0,4-21.21Z"/><path class="cls-5" d="M139.8,113.59a14.15,14.15,0,1,0-21.29-18.31A15.09,15.09,0,0,0,106,104.9a11.77,11.77,0,0,0-1.72-.19h0a11.94,11.94,0,0,0-11.64,10,10.2,10.2,0,0,0-2.47-.45h0a10.53,10.53,0,0,0,0,21.07c.23,0,.41,0,.55,0-.12,0-.09,0,.23,0h42.36a7.31,7.31,0,0,0,2.5-.48,12.13,12.13,0,0,0,4-21.21Z"/><path class="cls-5" d="M139.09,112.89A14.15,14.15,0,1,0,117.8,94.58a15.09,15.09,0,0,0-12.52,9.61,11.77,11.77,0,0,0-1.72-.19h0a11.94,11.94,0,0,0-11.64,10,10.2,10.2,0,0,0-2.47-.45h0a10.53,10.53,0,0,0,0,21.07c.23,0,.41,0,.55,0-.12,0-.09,0,.23,0h42.36a7.31,7.31,0,0,0,2.5-.48,12.13,12.13,0,0,0,4-21.21Z"/><path class="cls-5" d="M138.39,112.18A14.15,14.15,0,1,0,117.1,93.87a15.09,15.09,0,0,0-12.52,9.61,11.77,11.77,0,0,0-1.72-.19h0a11.94,11.94,0,0,0-11.64,10,10.2,10.2,0,0,0-2.47-.45h0a10.53,10.53,0,0,0,0,21.07c.23,0,.41,0,.55,0-.12,0-.09,0,.23,0h42.36a7.31,7.31,0,0,0,2.5-.48,12.13,12.13,0,0,0,4-21.21Z"/><path class="cls-5" d="M137.68,111.48a14.15,14.15,0,1,0-21.29-18.31,15.09,15.09,0,0,0-12.52,9.61,11.77,11.77,0,0,0-1.72-.19h0a11.94,11.94,0,0,0-11.64,10A10.2,10.2,0,0,0,88,112.1h0a10.53,10.53,0,0,0,0,21.07c.23,0,.41,0,.55,0-.12,0-.09,0,.23,0h42.36a7.31,7.31,0,0,0,2.5-.48,12.13,12.13,0,0,0,4-21.21Z"/><path class="cls-5" d="M137,110.77a14.15,14.15,0,1,0-21.29-18.31,15.09,15.09,0,0,0-12.52,9.61,11.77,11.77,0,0,0-1.72-.19h0a11.94,11.94,0,0,0-11.64,10,10.2,10.2,0,0,0-2.47-.45h0a10.53,10.53,0,0,0,0,21.07c.23,0,.41,0,.55,0-.12,0-.09,0,.23,0h42.36A7.31,7.31,0,0,0,133,132a12.13,12.13,0,0,0,4-21.21Z"/><path class="cls-5" d="M136.27,110.07A14.15,14.15,0,1,0,115,91.75a15.09,15.09,0,0,0-12.52,9.61,11.77,11.77,0,0,0-1.72-.19h0a11.94,11.94,0,0,0-11.64,10,10.2,10.2,0,0,0-2.47-.45h0a10.53,10.53,0,0,0,0,21.07c.23,0,.41,0,.55,0-.12,0-.09,0,.23,0h42.36a7.31,7.31,0,0,0,2.5-.48,12.13,12.13,0,0,0,4-21.21Z"/><path class="cls-5" d="M135.56,109.36A14.15,14.15,0,1,0,114.28,91a15.09,15.09,0,0,0-12.52,9.61,11.77,11.77,0,0,0-1.72-.19h0a11.94,11.94,0,0,0-11.64,10,10.2,10.2,0,0,0-2.47-.45h0a10.53,10.53,0,0,0,0,21.07c.23,0,.41,0,.55,0-.12,0-.09,0,.23,0H129a7.31,7.31,0,0,0,2.5-.48,12.13,12.13,0,0,0,4-21.21Z"/><path class="cls-5" d="M134.86,108.65a14.15,14.15,0,1,0-21.29-18.31A15.09,15.09,0,0,0,101.05,100a11.77,11.77,0,0,0-1.72-.19h0a11.94,11.94,0,0,0-11.64,10,10.2,10.2,0,0,0-2.47-.45h0a10.53,10.53,0,0,0,0,21.07c.23,0,.41,0,.55,0-.12,0-.09,0,.23,0h42.36a7.31,7.31,0,0,0,2.5-.48,12.13,12.13,0,0,0,4-21.21Z"/><path class="cls-5" d="M134.15,107.95a14.15,14.15,0,1,0-21.29-18.31,15.09,15.09,0,0,0-12.52,9.61,11.77,11.77,0,0,0-1.72-.19h0A11.94,11.94,0,0,0,87,109a10.2,10.2,0,0,0-2.47-.45h0a10.53,10.53,0,0,0,0,21.07c.23,0,.41,0,.55,0-.12,0-.09,0,.23,0h42.36a7.31,7.31,0,0,0,2.5-.48,12.13,12.13,0,0,0,4-21.21Z"/><path class="cls-5" d="M133.45,107.24a14.15,14.15,0,1,0-21.29-18.31,15.09,15.09,0,0,0-12.52,9.61,11.77,11.77,0,0,0-1.72-.19h0a11.94,11.94,0,0,0-11.64,10,10.2,10.2,0,0,0-2.47-.45h0a10.53,10.53,0,0,0,0,21.07c.23,0,.41,0,.55,0-.12,0-.09,0,.23,0h42.36a7.31,7.31,0,0,0,2.5-.48,12.13,12.13,0,0,0,4-21.21Z"/><path class="cls-5" d="M132.74,106.54a14.15,14.15,0,1,0-21.29-18.31,15.09,15.09,0,0,0-12.52,9.61,11.77,11.77,0,0,0-1.72-.19h0a11.94,11.94,0,0,0-11.64,10,10.2,10.2,0,0,0-2.47-.45h0a10.53,10.53,0,0,0,0,21.07c.23,0,.41,0,.55,0-.12,0-.09,0,.23,0h42.36a7.31,7.31,0,0,0,2.5-.48,12.13,12.13,0,0,0,4-21.21Z"/><path class="cls-5" d="M132,105.83a14.15,14.15,0,1,0-21.29-18.31,15.09,15.09,0,0,0-12.52,9.61,11.77,11.77,0,0,0-1.72-.19h0a11.94,11.94,0,0,0-11.64,10,10.2,10.2,0,0,0-2.47-.45h0a10.53,10.53,0,0,0,0,21.07c.23,0,.41,0,.55,0-.12,0-.09,0,.23,0h42.36A7.31,7.31,0,0,0,128,127a12.13,12.13,0,0,0,4-21.21Z"/><path class="cls-5" d="M131.33,105.13A14.15,14.15,0,1,0,110,86.81a15.09,15.09,0,0,0-12.52,9.61,11.77,11.77,0,0,0-1.72-.19h0a11.94,11.94,0,0,0-11.64,10,10.2,10.2,0,0,0-2.47-.45h0a10.53,10.53,0,0,0,0,21.07c.23,0,.41,0,.55,0-.12,0-.09,0,.23,0h42.36a7.31,7.31,0,0,0,2.5-.48,12.13,12.13,0,0,0,4-21.21Z"/><path class="cls-5" d="M130.62,104.42a14.15,14.15,0,1,0-21.29-18.31,15.09,15.09,0,0,0-12.52,9.61,11.77,11.77,0,0,0-1.72-.19h0a11.94,11.94,0,0,0-11.64,10A10.2,10.2,0,0,0,81,105h0a10.53,10.53,0,0,0,0,21.07c.23,0,.41,0,.55,0-.12,0-.09,0,.23,0h42.36a7.31,7.31,0,0,0,2.5-.48,12.13,12.13,0,0,0,4-21.21Z"/><path class="cls-5" d="M129.92,103.71A14.15,14.15,0,1,0,108.63,85.4,15.09,15.09,0,0,0,96.11,95a11.77,11.77,0,0,0-1.72-.19h0a11.94,11.94,0,0,0-11.64,10,10.2,10.2,0,0,0-2.47-.45h0a10.53,10.53,0,0,0,0,21.07c.23,0,.41,0,.55,0-.12,0-.09,0,.23,0H123.4a7.31,7.31,0,0,0,2.5-.48,12.13,12.13,0,0,0,4-21.21Z"/><path class="cls-5" d="M129.21,103A14.15,14.15,0,1,0,107.92,84.7,15.09,15.09,0,0,0,95.4,94.31a11.77,11.77,0,0,0-1.72-.19h0a11.94,11.94,0,0,0-11.64,10,10.2,10.2,0,0,0-2.47-.45h0a10.53,10.53,0,0,0,0,21.07c.23,0,.41,0,.55,0-.12,0-.09,0,.23,0H122.7a7.31,7.31,0,0,0,2.5-.48,12.13,12.13,0,0,0,4-21.21Z"/><path class="cls-5" d="M128.51,102.3A14.15,14.15,0,1,0,107.22,84,15.09,15.09,0,0,0,94.7,93.61,11.77,11.77,0,0,0,93,93.41h0a11.94,11.94,0,0,0-11.64,10,10.2,10.2,0,0,0-2.47-.45h0a10.53,10.53,0,0,0,0,21.07c.23,0,.41,0,.55,0-.12,0-.09,0,.23,0H122a7.31,7.31,0,0,0,2.5-.48,12.13,12.13,0,0,0,4-21.21Z"/><path class="cls-5" d="M127.8,101.6a14.15,14.15,0,1,0-21.29-18.31A15.09,15.09,0,0,0,94,92.9a11.77,11.77,0,0,0-1.72-.19h0a11.94,11.94,0,0,0-11.64,10,10.2,10.2,0,0,0-2.47-.45h0a10.53,10.53,0,0,0,0,21.07c.23,0,.41,0,.55,0-.12,0-.09,0,.23,0h42.36a7.31,7.31,0,0,0,2.5-.48,12.13,12.13,0,0,0,4-21.21Z"/><path class="cls-5" d="M127.1,100.89a14.15,14.15,0,1,0-21.29-18.31,15.09,15.09,0,0,0-12.52,9.61A11.77,11.77,0,0,0,91.56,92h0a11.94,11.94,0,0,0-11.64,10,10.2,10.2,0,0,0-2.47-.45h0a10.53,10.53,0,0,0,0,21.07c.23,0,.41,0,.55,0-.12,0-.09,0,.23,0h42.36a7.31,7.31,0,0,0,2.5-.48,12.13,12.13,0,0,0,4-21.21Z"/><path class="cls-5" d="M126.39,100.19A14.15,14.15,0,1,0,105.1,81.87a15.09,15.09,0,0,0-12.52,9.61,11.77,11.77,0,0,0-1.72-.19h0a11.94,11.94,0,0,0-11.64,10,10.2,10.2,0,0,0-2.47-.45h0a10.53,10.53,0,0,0,0,21.07c.23,0,.41,0,.55,0-.12,0-.09,0,.23,0h42.36a7.31,7.31,0,0,0,2.5-.48,12.13,12.13,0,0,0,4-21.21Z"/><path class="cls-5" d="M125.68,99.48A14.15,14.15,0,1,0,104.4,81.17a15.09,15.09,0,0,0-12.52,9.61,11.77,11.77,0,0,0-1.72-.19h0a11.94,11.94,0,0,0-11.64,10A10.2,10.2,0,0,0,76,100.1h0a10.53,10.53,0,0,0,0,21.07c.23,0,.41,0,.55,0-.12,0-.09,0,.23,0h42.36a7.31,7.31,0,0,0,2.5-.48,12.13,12.13,0,0,0,4-21.21Z"/><path class="cls-5" d="M125,98.77a14.15,14.15,0,1,0-21.29-18.31,15.09,15.09,0,0,0-12.52,9.61,11.77,11.77,0,0,0-1.72-.19h0a11.94,11.94,0,0,0-11.64,10,10.2,10.2,0,0,0-2.47-.45h0a10.53,10.53,0,0,0,0,21.07c.23,0,.41,0,.55,0-.12,0-.09,0,.23,0h42.36A7.31,7.31,0,0,0,121,120a12.13,12.13,0,0,0,4-21.21Z"/><path class="cls-5" d="M124.27,98.07A14.15,14.15,0,1,0,103,79.76a15.09,15.09,0,0,0-12.52,9.61,11.77,11.77,0,0,0-1.72-.19h0a11.94,11.94,0,0,0-11.64,10,10.2,10.2,0,0,0-2.47-.45h0a10.53,10.53,0,0,0,0,21.07c.23,0,.41,0,.55,0-.12,0-.09,0,.23,0h42.36a7.31,7.31,0,0,0,2.5-.48,12.13,12.13,0,0,0,4-21.21Z"/><path class="cls-5" d="M123.57,97.36a14.15,14.15,0,1,0-21.29-18.31,15.09,15.09,0,0,0-12.52,9.61A11.77,11.77,0,0,0,88,88.47h0a11.94,11.94,0,0,0-11.64,10A10.2,10.2,0,0,0,73.92,98h0a10.53,10.53,0,0,0,0,21.07c.23,0,.41,0,.55,0-.12,0-.09,0,.23,0h42.36a7.31,7.31,0,0,0,2.5-.48,12.13,12.13,0,0,0,4-21.21Z"/><path class="cls-5" d="M122.86,96.66a14.15,14.15,0,1,0-21.29-18.31A15.09,15.09,0,0,0,89.05,88a11.77,11.77,0,0,0-1.72-.19h0a11.94,11.94,0,0,0-11.64,10,10.2,10.2,0,0,0-2.47-.45h0a10.53,10.53,0,0,0,0,21.07c.23,0,.41,0,.55,0-.12,0-.09,0,.23,0h42.36a7.31,7.31,0,0,0,2.5-.48,12.13,12.13,0,0,0,4-21.21Z"/><path class="cls-5" d="M122.16,96a14.15,14.15,0,1,0-21.29-18.31,15.09,15.09,0,0,0-12.52,9.61,11.77,11.77,0,0,0-1.72-.19h0A11.94,11.94,0,0,0,75,97a10.2,10.2,0,0,0-2.47-.45h0a10.53,10.53,0,0,0,0,21.07c.23,0,.41,0,.55,0-.12,0-.09,0,.23,0h42.36a7.31,7.31,0,0,0,2.5-.48,12.13,12.13,0,0,0,4-21.21Z"/><path class="cls-5" d="M121.45,95.25a14.15,14.15,0,1,0-21.29-18.31,15.09,15.09,0,0,0-12.52,9.61,11.77,11.77,0,0,0-1.72-.19h0a11.94,11.94,0,0,0-11.64,10,10.2,10.2,0,0,0-2.47-.45h0a10.53,10.53,0,0,0,0,21.07c.23,0,.41,0,.55,0-.12,0-.09,0,.23,0h42.36a7.31,7.31,0,0,0,2.5-.48,12.13,12.13,0,0,0,4-21.21Z"/><path class="cls-5" d="M120.74,94.54A14.15,14.15,0,1,0,99.46,76.23a15.09,15.09,0,0,0-12.52,9.61,11.77,11.77,0,0,0-1.72-.19h0a11.94,11.94,0,0,0-11.64,10,10.2,10.2,0,0,0-2.47-.45h0a10.53,10.53,0,0,0,0,21.07c.23,0,.41,0,.55,0-.12,0-.09,0,.23,0h42.36a7.31,7.31,0,0,0,2.5-.48,12.13,12.13,0,0,0,4-21.21Z"/><path class="cls-5" d="M120,93.83A14.15,14.15,0,1,0,98.75,75.52a15.09,15.09,0,0,0-12.52,9.61,11.77,11.77,0,0,0-1.72-.19h0a11.94,11.94,0,0,0-11.64,10,10.2,10.2,0,0,0-2.47-.45h0a10.53,10.53,0,0,0,0,21.07c.23,0,.41,0,.55,0-.12,0-.09,0,.23,0h42.36A7.31,7.31,0,0,0,116,115a12.13,12.13,0,0,0,4-21.21Z"/><path class="cls-5" d="M119.33,93.13A14.15,14.15,0,1,0,98,74.82a15.09,15.09,0,0,0-12.52,9.61,11.77,11.77,0,0,0-1.72-.19h0a11.94,11.94,0,0,0-11.64,10,10.2,10.2,0,0,0-2.47-.45h0a10.53,10.53,0,0,0,0,21.07c.23,0,.41,0,.55,0-.12,0-.09,0,.23,0h42.36a7.31,7.31,0,0,0,2.5-.48,12.13,12.13,0,0,0,4-21.21Z"/><path class="cls-5" d="M118.63,92.42A14.15,14.15,0,1,0,97.34,74.11a15.09,15.09,0,0,0-12.52,9.61,11.77,11.77,0,0,0-1.72-.19h0a11.94,11.94,0,0,0-11.64,10A10.2,10.2,0,0,0,69,93h0a10.53,10.53,0,0,0,0,21.07c.23,0,.41,0,.55,0-.12,0-.09,0,.23,0h42.36a7.31,7.31,0,0,0,2.5-.48,12.13,12.13,0,0,0,4-21.21Z"/><path class="cls-5" d="M117.92,91.72A14.15,14.15,0,1,0,96.63,73.4,15.09,15.09,0,0,0,84.11,83a11.77,11.77,0,0,0-1.72-.19h0a11.94,11.94,0,0,0-11.64,10,10.2,10.2,0,0,0-2.47-.45h0a10.53,10.53,0,0,0,0,21.07c.23,0,.41,0,.55,0-.12,0-.09,0,.23,0h42.36a7.31,7.31,0,0,0,2.5-.48,12.13,12.13,0,0,0,4-21.21Z"/><path class="cls-5" d="M117.22,91A14.15,14.15,0,1,0,95.93,72.7a15.09,15.09,0,0,0-12.52,9.61,11.77,11.77,0,0,0-1.72-.19h0A11.94,11.94,0,0,0,70,92.08a10.2,10.2,0,0,0-2.47-.45h0a10.53,10.53,0,0,0,0,21.07c.23,0,.41,0,.55,0-.12,0-.09,0,.23,0H110.7a7.31,7.31,0,0,0,2.5-.48,12.13,12.13,0,0,0,4-21.21Z"/><path class="cls-5" d="M116.51,90.3A14.15,14.15,0,1,0,95.22,72,15.09,15.09,0,0,0,82.7,81.61,11.77,11.77,0,0,0,81,81.41h0a11.94,11.94,0,0,0-11.64,10,10.2,10.2,0,0,0-2.47-.45h0a10.53,10.53,0,0,0,0,21.07c.23,0,.41,0,.55,0-.12,0-.09,0,.23,0H110a7.31,7.31,0,0,0,2.5-.48,12.13,12.13,0,0,0,4-21.21Z"/><path class="cls-5" d="M115.8,89.6A14.15,14.15,0,1,0,94.52,71.29,15.09,15.09,0,0,0,82,80.9a11.77,11.77,0,0,0-1.72-.19h0a11.94,11.94,0,0,0-11.64,10,10.2,10.2,0,0,0-2.47-.45h0a10.53,10.53,0,0,0,0,21.07c.23,0,.41,0,.55,0-.12,0-.09,0,.23,0h42.36a7.31,7.31,0,0,0,2.5-.48,12.13,12.13,0,0,0,4-21.21Z"/><path class="cls-5" d="M115.1,88.89A14.15,14.15,0,1,0,93.81,70.58,15.09,15.09,0,0,0,81.29,80.2,11.77,11.77,0,0,0,79.57,80h0A11.94,11.94,0,0,0,67.92,90a10.2,10.2,0,0,0-2.47-.45h0a10.53,10.53,0,0,0,0,21.07c.23,0,.41,0,.55,0-.12,0-.09,0,.23,0h42.36a7.31,7.31,0,0,0,2.5-.48,12.13,12.13,0,0,0,4-21.21Z"/><path class="cls-5" d="M114.39,88.19A14.15,14.15,0,1,0,93.1,69.88a15.09,15.09,0,0,0-12.52,9.61,11.77,11.77,0,0,0-1.72-.19h0a11.94,11.94,0,0,0-11.64,10,10.2,10.2,0,0,0-2.47-.45h0a10.53,10.53,0,0,0,0,21.07c.23,0,.41,0,.55,0-.12,0-.09,0,.23,0h42.36a7.31,7.31,0,0,0,2.5-.48,12.13,12.13,0,0,0,4-21.21Z"/><path class="cls-5" d="M113.69,87.48A14.15,14.15,0,1,0,92.4,69.17a15.09,15.09,0,0,0-12.52,9.61,11.77,11.77,0,0,0-1.72-.19h0a11.94,11.94,0,0,0-11.64,10A10.2,10.2,0,0,0,64,88.11h0a10.53,10.53,0,0,0,0,21.07c.23,0,.41,0,.55,0-.12,0-.09,0,.23,0h42.36a7.31,7.31,0,0,0,2.5-.48,12.13,12.13,0,0,0,4-21.21Z"/><path class="cls-5" d="M113,86.78A14.15,14.15,0,1,0,91.69,68.46a15.09,15.09,0,0,0-12.52,9.61,11.77,11.77,0,0,0-1.72-.19h0a11.94,11.94,0,0,0-11.64,10,10.2,10.2,0,0,0-2.47-.45h0a10.53,10.53,0,0,0,0,21.07c.23,0,.41,0,.55,0-.12,0-.09,0,.23,0h42.36A7.31,7.31,0,0,0,109,108a12.13,12.13,0,0,0,4-21.21Z"/><path class="cls-5" d="M112.27,86.07A14.15,14.15,0,1,0,91,67.76a15.09,15.09,0,0,0-12.52,9.61,11.77,11.77,0,0,0-1.72-.19h0a11.94,11.94,0,0,0-11.64,10,10.2,10.2,0,0,0-2.47-.45h0a10.53,10.53,0,0,0,0,21.07c.23,0,.41,0,.55,0-.12,0-.09,0,.23,0h42.36a7.31,7.31,0,0,0,2.5-.48,12.13,12.13,0,0,0,4-21.21Z"/><path class="cls-5" d="M111.57,85.36A14.15,14.15,0,1,0,90.28,67.05a15.09,15.09,0,0,0-12.52,9.61A11.77,11.77,0,0,0,76,76.47h0a11.94,11.94,0,0,0-11.64,10A10.2,10.2,0,0,0,61.92,86h0a10.53,10.53,0,0,0,0,21.07c.23,0,.41,0,.55,0-.12,0-.09,0,.23,0h42.36a7.31,7.31,0,0,0,2.5-.48,12.13,12.13,0,0,0,4-21.21Z"/><path class="cls-5" d="M110.86,84.66A14.15,14.15,0,1,0,89.57,66.35,15.09,15.09,0,0,0,77.05,76a11.77,11.77,0,0,0-1.72-.19h0a11.94,11.94,0,0,0-11.64,10,10.2,10.2,0,0,0-2.47-.45h0a10.53,10.53,0,0,0,0,21.07c.23,0,.41,0,.55,0-.12,0-.09,0,.23,0h42.36a7.31,7.31,0,0,0,2.5-.48,12.13,12.13,0,0,0,4-21.21Z"/><path class="cls-5" d="M110.16,84A14.15,14.15,0,1,0,88.87,65.64a15.09,15.09,0,0,0-12.52,9.61,11.77,11.77,0,0,0-1.72-.19h0A11.94,11.94,0,0,0,63,85a10.2,10.2,0,0,0-2.47-.45h0a10.53,10.53,0,0,0,0,21.07c.23,0,.41,0,.55,0-.12,0-.09,0,.23,0h42.36a7.31,7.31,0,0,0,2.5-.48,12.13,12.13,0,0,0,4-21.21Z"/><path class="cls-5" d="M109.45,83.25A14.15,14.15,0,1,0,88.16,64.94a15.09,15.09,0,0,0-12.52,9.61,11.77,11.77,0,0,0-1.72-.19h0a11.94,11.94,0,0,0-11.64,10,10.2,10.2,0,0,0-2.47-.45h0a10.53,10.53,0,0,0,0,21.07c.23,0,.41,0,.55,0-.12,0-.09,0,.23,0h42.36a7.31,7.31,0,0,0,2.5-.48,12.13,12.13,0,0,0,4-21.21Z"/><path class="cls-5" d="M108.75,82.54A14.15,14.15,0,1,0,87.46,64.23a15.09,15.09,0,0,0-12.52,9.61,11.77,11.77,0,0,0-1.72-.19h0a11.94,11.94,0,0,0-11.64,10,10.2,10.2,0,0,0-2.47-.45h0a10.53,10.53,0,0,0,0,21.07c.23,0,.41,0,.55,0-.12,0-.09,0,.23,0h42.36a7.31,7.31,0,0,0,2.5-.48,12.13,12.13,0,0,0,4-21.21Z"/><path class="cls-5" d="M108,81.84A14.15,14.15,0,1,0,86.75,63.52a15.09,15.09,0,0,0-12.52,9.61,11.77,11.77,0,0,0-1.72-.19h0a11.94,11.94,0,0,0-11.64,10,10.2,10.2,0,0,0-2.47-.45h0a10.53,10.53,0,0,0,0,21.07c.23,0,.41,0,.55,0-.12,0-.09,0,.23,0h42.36A7.31,7.31,0,0,0,104,103a12.13,12.13,0,0,0,4-21.21Z"/><path class="cls-5" d="M107.33,81.13A14.15,14.15,0,1,0,86,62.82a15.09,15.09,0,0,0-12.52,9.61,11.77,11.77,0,0,0-1.72-.19h0a11.94,11.94,0,0,0-11.64,10,10.2,10.2,0,0,0-2.47-.45h0a10.53,10.53,0,0,0,0,21.07c.23,0,.41,0,.55,0-.12,0-.09,0,.23,0h42.36a7.31,7.31,0,0,0,2.5-.48,12.13,12.13,0,0,0,4-21.21Z"/><path class="cls-5" d="M106.63,80.42A14.15,14.15,0,1,0,85.34,62.11a15.09,15.09,0,0,0-12.52,9.61,11.77,11.77,0,0,0-1.72-.19h0a11.94,11.94,0,0,0-11.64,10A10.2,10.2,0,0,0,57,81h0a10.53,10.53,0,0,0,0,21.07c.23,0,.41,0,.55,0-.12,0-.09,0,.23,0h42.36a7.31,7.31,0,0,0,2.5-.48,12.13,12.13,0,0,0,4-21.21Z"/><path class="cls-5" d="M105.92,79.72A14.15,14.15,0,1,0,84.63,61.41,15.09,15.09,0,0,0,72.11,71a11.77,11.77,0,0,0-1.72-.19h0a11.94,11.94,0,0,0-11.64,10,10.2,10.2,0,0,0-2.47-.45h0a10.53,10.53,0,0,0,0,21.07c.23,0,.41,0,.55,0-.12,0-.09,0,.23,0H99.41a7.31,7.31,0,0,0,2.5-.48,12.13,12.13,0,0,0,4-21.21Z"/><path class="cls-5" d="M105.22,79A14.15,14.15,0,1,0,83.93,60.7a15.09,15.09,0,0,0-12.52,9.61,11.77,11.77,0,0,0-1.72-.19h0A11.94,11.94,0,0,0,58,80.08a10.2,10.2,0,0,0-2.47-.45h0a10.53,10.53,0,0,0,0,21.07c.23,0,.41,0,.55,0-.12,0-.09,0,.23,0H98.7a7.31,7.31,0,0,0,2.5-.48,12.13,12.13,0,0,0,4-21.21Z"/><path class="cls-5" d="M104.51,78.31A14.15,14.15,0,1,0,83.22,60,15.09,15.09,0,0,0,70.7,69.61,11.77,11.77,0,0,0,69,69.42h0a11.94,11.94,0,0,0-11.64,10,10.2,10.2,0,0,0-2.47-.45h0a10.53,10.53,0,0,0,0,21.07c.23,0,.41,0,.55,0-.12,0-.09,0,.23,0H98a7.31,7.31,0,0,0,2.5-.48,12.13,12.13,0,0,0,4-21.21Z"/><path class="cls-5" d="M103.81,77.6A14.15,14.15,0,1,0,82.52,59.29,15.09,15.09,0,0,0,70,68.9a11.77,11.77,0,0,0-1.72-.19h0a11.94,11.94,0,0,0-11.64,10,10.2,10.2,0,0,0-2.47-.45h0a10.53,10.53,0,0,0,0,21.07c.23,0,.41,0,.55,0-.12,0-.09,0,.23,0H97.29a7.31,7.31,0,0,0,2.5-.48,12.13,12.13,0,0,0,4-21.21Z"/><path class="cls-5" d="M103.1,76.9A14.15,14.15,0,1,0,81.81,58.58,15.09,15.09,0,0,0,69.29,68.2,11.77,11.77,0,0,0,67.57,68h0A11.94,11.94,0,0,0,55.92,78a10.2,10.2,0,0,0-2.47-.45h0a10.53,10.53,0,0,0,0,21.07c.23,0,.41,0,.55,0-.12,0-.09,0,.23,0H96.59a7.31,7.31,0,0,0,2.5-.48,12.13,12.13,0,0,0,4-21.21Z"/><path class="cls-5" d="M102.39,76.19A14.15,14.15,0,1,0,81.11,57.88a15.09,15.09,0,0,0-12.52,9.61,11.77,11.77,0,0,0-1.72-.19h0a11.94,11.94,0,0,0-11.64,10,10.2,10.2,0,0,0-2.47-.45h0a10.53,10.53,0,0,0,0,21.07c.23,0,.41,0,.55,0-.12,0-.09,0,.23,0H95.88a7.31,7.31,0,0,0,2.5-.48,12.13,12.13,0,0,0,4-21.21Z"/><path class="cls-5" d="M101.69,75.48A14.15,14.15,0,1,0,80.4,57.17a15.09,15.09,0,0,0-12.52,9.61,11.77,11.77,0,0,0-1.72-.19h0a11.94,11.94,0,0,0-11.64,10A10.2,10.2,0,0,0,52,76.11h0a10.53,10.53,0,0,0,0,21.07c.23,0,.41,0,.55,0-.12,0-.09,0,.23,0H95.17a7.31,7.31,0,0,0,2.5-.48,12.13,12.13,0,0,0,4-21.21Z"/><path class="cls-5" d="M101,74.78A14.15,14.15,0,1,0,79.69,56.47a15.09,15.09,0,0,0-12.52,9.61,11.77,11.77,0,0,0-1.72-.19h0a11.94,11.94,0,0,0-11.64,10,10.2,10.2,0,0,0-2.47-.45h0a10.53,10.53,0,0,0,0,21.07c.23,0,.41,0,.55,0-.12,0-.09,0,.23,0H94.47A7.31,7.31,0,0,0,97,96a12.13,12.13,0,0,0,4-21.21Z"/><path class="cls-5" d="M100.28,74.07A14.15,14.15,0,1,0,79,55.76a15.09,15.09,0,0,0-12.52,9.61,11.77,11.77,0,0,0-1.72-.19h0a11.94,11.94,0,0,0-11.64,10,10.2,10.2,0,0,0-2.47-.45h0a10.53,10.53,0,0,0,0,21.07c.23,0,.41,0,.55,0-.12,0-.09,0,.23,0H93.76a7.31,7.31,0,0,0,2.5-.48,12.13,12.13,0,0,0,4-21.21Z"/><path class="cls-5" d="M99.57,73.37A14.15,14.15,0,1,0,78.28,55.05a15.09,15.09,0,0,0-12.52,9.61A11.77,11.77,0,0,0,64,64.48h0a11.94,11.94,0,0,0-11.64,10A10.2,10.2,0,0,0,49.92,74h0a10.53,10.53,0,0,0,0,21.07c.23,0,.41,0,.55,0-.12,0-.09,0,.23,0H93.06a7.31,7.31,0,0,0,2.5-.48,12.13,12.13,0,0,0,4-21.21Z"/><path class="cls-5" d="M98.87,72.66A14.15,14.15,0,1,0,77.58,54.35,15.09,15.09,0,0,0,65.06,64a11.77,11.77,0,0,0-1.72-.19h0a11.94,11.94,0,0,0-11.64,10,10.2,10.2,0,0,0-2.47-.45h0a10.53,10.53,0,0,0,0,21.07c.23,0,.41,0,.55,0-.12,0-.09,0,.23,0H92.35a7.31,7.31,0,0,0,2.5-.48,12.13,12.13,0,0,0,4-21.21Z"/><path class="cls-5" d="M98.16,72A14.15,14.15,0,1,0,76.87,53.64a15.09,15.09,0,0,0-12.52,9.61,11.77,11.77,0,0,0-1.72-.19h0A11.94,11.94,0,0,0,51,73a10.2,10.2,0,0,0-2.47-.45h0a10.53,10.53,0,0,0,0,21.07c.23,0,.41,0,.55,0-.12,0-.09,0,.23,0H91.64a7.31,7.31,0,0,0,2.5-.48,12.13,12.13,0,0,0,4-21.21Z"/><path class="cls-5" d="M97.45,71.25A14.15,14.15,0,1,0,76.17,52.94a15.09,15.09,0,0,0-12.52,9.61,11.77,11.77,0,0,0-1.72-.19h0a11.94,11.94,0,0,0-11.64,10,10.2,10.2,0,0,0-2.47-.45h0a10.53,10.53,0,0,0,0,21.07c.23,0,.41,0,.55,0-.12,0-.09,0,.23,0H90.94a7.31,7.31,0,0,0,2.5-.48,12.13,12.13,0,0,0,4-21.21Z"/><path class="cls-5" d="M96.75,70.54A14.15,14.15,0,1,0,75.46,52.23a15.09,15.09,0,0,0-12.52,9.61,11.77,11.77,0,0,0-1.72-.19h0a11.94,11.94,0,0,0-11.64,10,10.2,10.2,0,0,0-2.47-.45h0a10.53,10.53,0,0,0,0,21.07c.23,0,.41,0,.55,0-.12,0-.09,0,.23,0H90.23a7.31,7.31,0,0,0,2.5-.48,12.13,12.13,0,0,0,4-21.21Z"/><path class="cls-5" d="M96,69.84A14.15,14.15,0,1,0,74.75,51.53a15.09,15.09,0,0,0-12.52,9.61,11.77,11.77,0,0,0-1.72-.19h0a11.94,11.94,0,0,0-11.64,10,10.2,10.2,0,0,0-2.47-.45h0a10.53,10.53,0,0,0,0,21.07c.23,0,.41,0,.55,0-.12,0-.09,0,.23,0H89.53a7.31,7.31,0,0,0,2.5-.48,12.13,12.13,0,0,0,4-21.21Z"/><path class="cls-5" d="M95.34,69.13A14.15,14.15,0,1,0,74,50.82a15.09,15.09,0,0,0-12.52,9.61,11.77,11.77,0,0,0-1.72-.19h0a11.94,11.94,0,0,0-11.64,10,10.2,10.2,0,0,0-2.47-.45h0a10.53,10.53,0,0,0,0,21.07c.23,0,.41,0,.55,0-.12,0-.09,0,.23,0H88.82a7.31,7.31,0,0,0,2.5-.48,12.13,12.13,0,0,0,4-21.21Z"/><path class="cls-5" d="M94.63,68.43A14.15,14.15,0,1,0,73.34,50.11a15.09,15.09,0,0,0-12.52,9.61,11.77,11.77,0,0,0-1.72-.19h0a11.94,11.94,0,0,0-11.64,10A10.2,10.2,0,0,0,45,69.05h0a10.53,10.53,0,0,0,0,21.07c.23,0,.41,0,.55,0-.12,0-.09,0,.23,0H88.12a7.31,7.31,0,0,0,2.5-.48,12.13,12.13,0,0,0,4-21.21Z"/><path class="cls-5" d="M93.93,67.72A14.15,14.15,0,1,0,72.64,49.41,15.09,15.09,0,0,0,60.12,59a11.77,11.77,0,0,0-1.72-.19h0a11.94,11.94,0,0,0-11.64,10,10.2,10.2,0,0,0-2.47-.45h0a10.53,10.53,0,0,0,0,21.07c.23,0,.41,0,.55,0-.12,0-.09,0,.23,0H87.41a7.31,7.31,0,0,0,2.5-.48,12.13,12.13,0,0,0,4-21.21Z"/><path class="cls-5" d="M93.22,67A14.15,14.15,0,1,0,71.93,48.7a15.09,15.09,0,0,0-12.52,9.61,11.77,11.77,0,0,0-1.72-.19h0A11.94,11.94,0,0,0,46,68.09a10.2,10.2,0,0,0-2.47-.45h0a10.53,10.53,0,0,0,0,21.07c.23,0,.41,0,.55,0-.12,0-.09,0,.23,0H86.7a7.31,7.31,0,0,0,2.5-.48,12.13,12.13,0,0,0,4-21.21Z"/><path class="cls-5" d="M92.51,66.31A14.15,14.15,0,1,0,71.23,48a15.09,15.09,0,0,0-12.52,9.61A11.77,11.77,0,0,0,57,57.42h0a11.94,11.94,0,0,0-11.64,10,10.2,10.2,0,0,0-2.47-.45h0a10.53,10.53,0,0,0,0,21.07c.23,0,.41,0,.55,0-.12,0-.09,0,.23,0H86a7.31,7.31,0,0,0,2.5-.48,12.13,12.13,0,0,0,4-21.21Z"/><path class="cls-5" d="M91.81,65.6A14.15,14.15,0,1,0,70.52,47.29,15.09,15.09,0,0,0,58,56.91a11.77,11.77,0,0,0-1.72-.19h0a11.94,11.94,0,0,0-11.64,10,10.2,10.2,0,0,0-2.47-.45h0a10.53,10.53,0,0,0,0,21.07c.23,0,.41,0,.55,0-.12,0-.09,0,.23,0H85.29a7.31,7.31,0,0,0,2.5-.48,12.13,12.13,0,0,0,4-21.21Z"/><path class="cls-5" d="M91.1,64.9A14.15,14.15,0,1,0,69.81,46.59,15.09,15.09,0,0,0,57.29,56.2,11.77,11.77,0,0,0,55.57,56h0A11.94,11.94,0,0,0,43.92,66a10.2,10.2,0,0,0-2.47-.45h0a10.53,10.53,0,0,0,0,21.07c.23,0,.41,0,.55,0-.12,0-.09,0,.23,0H84.59a7.31,7.31,0,0,0,2.5-.48,12.13,12.13,0,0,0,4-21.21Z"/><path class="cls-5" d="M90.4,64.19A14.15,14.15,0,1,0,69.11,45.88a15.09,15.09,0,0,0-12.52,9.61,11.77,11.77,0,0,0-1.72-.19h0a11.94,11.94,0,0,0-11.64,10,10.2,10.2,0,0,0-2.47-.45h0a10.53,10.53,0,0,0,0,21.07c.23,0,.41,0,.55,0-.12,0-.09,0,.23,0H83.88a7.31,7.31,0,0,0,2.5-.48,12.13,12.13,0,0,0,4-21.21Z"/><path class="cls-5" d="M89.69,63.49A14.15,14.15,0,1,0,68.4,45.17a15.09,15.09,0,0,0-12.52,9.61,11.77,11.77,0,0,0-1.72-.19h0a11.94,11.94,0,0,0-11.64,10A10.2,10.2,0,0,0,40,64.11h0a10.53,10.53,0,0,0,0,21.07c.23,0,.41,0,.55,0-.12,0-.09,0,.23,0H83.18a7.31,7.31,0,0,0,2.5-.48,12.13,12.13,0,0,0,4-21.21Z"/><path class="cls-5" d="M89,62.78A14.15,14.15,0,1,0,67.7,44.47a15.09,15.09,0,0,0-12.52,9.61,11.77,11.77,0,0,0-1.72-.19h0a11.94,11.94,0,0,0-11.64,10,10.2,10.2,0,0,0-2.47-.45h0a10.53,10.53,0,0,0,0,21.07c.23,0,.41,0,.55,0-.12,0-.09,0,.23,0H82.47A7.31,7.31,0,0,0,85,84a12.13,12.13,0,0,0,4-21.21Z"/><path class="cls-5" d="M88.28,62.07A14.15,14.15,0,1,0,67,43.76a15.09,15.09,0,0,0-12.52,9.61,11.77,11.77,0,0,0-1.72-.19h0a11.94,11.94,0,0,0-11.64,10,10.2,10.2,0,0,0-2.47-.45h0a10.53,10.53,0,0,0,0,21.07c.23,0,.41,0,.55,0-.12,0-.09,0,.23,0H81.76a7.31,7.31,0,0,0,2.5-.48,12.13,12.13,0,0,0,4-21.21Z"/><path class="cls-5" d="M87.57,61.37A14.15,14.15,0,1,0,66.28,43.06a15.09,15.09,0,0,0-12.52,9.61A11.77,11.77,0,0,0,52,52.48h0a11.94,11.94,0,0,0-11.64,10A10.2,10.2,0,0,0,37.92,62h0a10.53,10.53,0,0,0,0,21.07c.23,0,.41,0,.55,0-.12,0-.09,0,.23,0H81.06a7.31,7.31,0,0,0,2.5-.48,12.13,12.13,0,0,0,4-21.21Z"/><path class="cls-5" d="M86.87,60.66A14.15,14.15,0,1,0,65.58,42.35,15.09,15.09,0,0,0,53.06,52a11.77,11.77,0,0,0-1.72-.19h0a11.94,11.94,0,0,0-11.64,10,10.2,10.2,0,0,0-2.47-.45h0a10.53,10.53,0,0,0,0,21.07c.23,0,.41,0,.55,0-.12,0-.09,0,.23,0H80.35a7.31,7.31,0,0,0,2.5-.48,12.13,12.13,0,0,0,4-21.21Z"/><path class="cls-5" d="M86.16,60A14.15,14.15,0,1,0,64.87,41.65a15.09,15.09,0,0,0-12.52,9.61,11.77,11.77,0,0,0-1.72-.19h0A11.94,11.94,0,0,0,39,61a10.2,10.2,0,0,0-2.47-.45h0a10.53,10.53,0,0,0,0,21.07c.23,0,.41,0,.55,0-.12,0-.09,0,.23,0H79.65a7.31,7.31,0,0,0,2.5-.48,12.13,12.13,0,0,0,4-21.21Z"/><path class="cls-5" d="M85.46,59.25A14.15,14.15,0,1,0,64.17,40.94a15.09,15.09,0,0,0-12.52,9.61,11.77,11.77,0,0,0-1.72-.19h0a11.94,11.94,0,0,0-11.64,10,10.2,10.2,0,0,0-2.47-.45h0a10.53,10.53,0,0,0,0,21.07c.23,0,.41,0,.55,0-.12,0-.09,0,.23,0H78.94a7.31,7.31,0,0,0,2.5-.48,12.13,12.13,0,0,0,4-21.21Z"/><path class="cls-5" d="M84.75,58.55A14.15,14.15,0,1,0,63.46,40.23a15.09,15.09,0,0,0-12.52,9.61,11.77,11.77,0,0,0-1.72-.19h0a11.94,11.94,0,0,0-11.64,10,10.2,10.2,0,0,0-2.47-.45h0a10.53,10.53,0,0,0,0,21.07c.23,0,.41,0,.55,0-.12,0-.09,0,.23,0H78.24a7.31,7.31,0,0,0,2.5-.48,12.13,12.13,0,0,0,4-21.21Z"/><path class="cls-5" d="M84,57.84A14.15,14.15,0,1,0,62.76,39.53a15.09,15.09,0,0,0-12.52,9.61,11.77,11.77,0,0,0-1.72-.19h0a11.94,11.94,0,0,0-11.64,10,10.2,10.2,0,0,0-2.47-.45h0a10.53,10.53,0,0,0,0,21.07c.23,0,.41,0,.55,0-.12,0-.09,0,.23,0H77.53a7.31,7.31,0,0,0,2.5-.48,12.13,12.13,0,0,0,4-21.21Z"/><path class="cls-5" d="M83.34,57.13A14.15,14.15,0,1,0,62.05,38.82a15.09,15.09,0,0,0-12.52,9.61,11.77,11.77,0,0,0-1.72-.19h0a11.94,11.94,0,0,0-11.64,10,10.2,10.2,0,0,0-2.47-.45h0a10.53,10.53,0,0,0,0,21.07c.23,0,.41,0,.55,0-.12,0-.09,0,.23,0H76.82a7.31,7.31,0,0,0,2.5-.48,12.13,12.13,0,0,0,4-21.21Z"/><path class="cls-5" d="M82.63,56.43A14.15,14.15,0,1,0,61.34,38.12a15.09,15.09,0,0,0-12.52,9.61,11.77,11.77,0,0,0-1.72-.19h0a11.94,11.94,0,0,0-11.64,10A10.2,10.2,0,0,0,33,57.05h0a10.53,10.53,0,0,0,0,21.07c.23,0,.41,0,.55,0-.12,0-.09,0,.23,0H76.12a7.31,7.31,0,0,0,2.5-.48,12.13,12.13,0,0,0,4-21.21Z"/><path class="cls-5" d="M81.93,55.72A14.15,14.15,0,1,0,60.64,37.41,15.09,15.09,0,0,0,48.12,47a11.77,11.77,0,0,0-1.72-.19h0a11.94,11.94,0,0,0-11.64,10,10.2,10.2,0,0,0-2.47-.45h0a10.53,10.53,0,0,0,0,21.07c.23,0,.41,0,.55,0-.12,0-.09,0,.23,0H75.41a7.31,7.31,0,0,0,2.5-.48,12.13,12.13,0,0,0,4-21.21Z"/><path class="cls-5" d="M81.22,55A14.15,14.15,0,1,0,59.93,36.71a15.09,15.09,0,0,0-12.52,9.61,11.77,11.77,0,0,0-1.72-.19h0A11.94,11.94,0,0,0,34,56.09a10.2,10.2,0,0,0-2.47-.45h0a10.53,10.53,0,0,0,0,21.07c.23,0,.41,0,.55,0-.12,0-.09,0,.23,0H74.71a7.31,7.31,0,0,0,2.5-.48,12.13,12.13,0,0,0,4-21.21Z"/><path class="cls-5" d="M80.52,54.31A14.15,14.15,0,1,0,59.23,36a15.09,15.09,0,0,0-12.52,9.61A11.77,11.77,0,0,0,45,45.42h0a11.94,11.94,0,0,0-11.64,10,10.2,10.2,0,0,0-2.47-.45h0a10.53,10.53,0,0,0,0,21.07c.23,0,.41,0,.55,0-.12,0-.09,0,.23,0H74a7.31,7.31,0,0,0,2.5-.48,12.13,12.13,0,0,0,4-21.21Z"/><path class="cls-5" d="M79.81,53.61A14.15,14.15,0,1,0,58.52,35.29,15.09,15.09,0,0,0,46,44.91a11.77,11.77,0,0,0-1.72-.19h0a11.94,11.94,0,0,0-11.64,10,10.2,10.2,0,0,0-2.47-.45h0a10.53,10.53,0,0,0,0,21.07c.23,0,.41,0,.55,0-.12,0-.09,0,.23,0H73.3a7.31,7.31,0,0,0,2.5-.48,12.13,12.13,0,0,0,4-21.21Z"/><path class="cls-5" d="M79.1,52.9A14.15,14.15,0,1,0,57.82,34.59,15.09,15.09,0,0,0,45.3,44.2,11.77,11.77,0,0,0,43.57,44h0A11.94,11.94,0,0,0,31.93,54a10.2,10.2,0,0,0-2.47-.45h0a10.53,10.53,0,0,0,0,21.07c.23,0,.41,0,.55,0-.12,0-.09,0,.23,0H72.59a7.31,7.31,0,0,0,2.5-.48,12.13,12.13,0,0,0,4-21.21Z"/><path class="cls-5" d="M78.4,52.19A14.15,14.15,0,1,0,57.11,33.88,15.09,15.09,0,0,0,44.59,43.5a11.77,11.77,0,0,0-1.72-.19h0a11.94,11.94,0,0,0-11.64,10,10.2,10.2,0,0,0-2.47-.45h0a10.53,10.53,0,0,0,0,21.07c.23,0,.41,0,.55,0-.12,0-.09,0,.23,0H71.88a7.31,7.31,0,0,0,2.5-.48,12.13,12.13,0,0,0,4-21.21Z"/><path class="cls-5" d="M77.69,51.49A14.15,14.15,0,1,0,56.4,33.18a15.09,15.09,0,0,0-12.52,9.61,11.77,11.77,0,0,0-1.72-.19h0a11.94,11.94,0,0,0-11.64,10A10.28,10.28,0,0,0,28,52.11h0a10.53,10.53,0,0,0,0,21.07c.23,0,.41,0,.55,0-.12,0-.09,0,.23,0H71.18a7.31,7.31,0,0,0,2.5-.48,12.13,12.13,0,0,0,4-21.21Z"/></g></g><path class="cls-1" d="M68.22,53.13A12.14,12.14,0,1,0,56.07,41,12.13,12.13,0,0,0,68.22,53.13ZM61.87,39.21a1,1,0,0,1,1.42.18L66,42.85l8-6.4A1,1,0,1,1,75.25,38l-8.8,7h0A1,1,0,0,1,65,44.9l-3.33-4.27A1,1,0,0,1,61.87,39.21Z"/><path class="cls-6" d="M76,52.79A14.16,14.16,0,0,1,55.2,35.39a13.15,13.15,0,0,0-9.78,8.79,1,1,0,0,1-1.18.67,9.92,9.92,0,0,0-12,8.94,1,1,0,0,1-1.36.86A8.2,8.2,0,0,0,28,54.15a8.51,8.51,0,0,0,0,17l.46,0h.07c.34,0,.42,0,.25,0H71.18A5.33,5.33,0,0,0,73,70.8l.07,0a10.11,10.11,0,0,0,2.95-18Z"/><path class="cls-5" d="M77.69,51.49A14.15,14.15,0,1,0,56.4,33.18a15.09,15.09,0,0,0-12.52,9.61,11.77,11.77,0,0,0-1.72-.19h0a11.94,11.94,0,0,0-11.64,10A10.28,10.28,0,0,0,28,52.11h0a10.53,10.53,0,0,0,0,21.07c.23,0,.41,0,.55,0-.12,0-.09,0,.23,0H71.18a7.31,7.31,0,0,0,2.5-.48,12.13,12.13,0,0,0,4-21.21ZM68.22,28.84A12.14,12.14,0,1,1,56.07,41,12.13,12.13,0,0,1,68.22,28.84ZM73.1,70.77l-.07,0a5.33,5.33,0,0,1-1.85.36H28.82c.17,0,.09,0-.25,0H28.5l-.46,0a8.51,8.51,0,0,1,0-17,8.2,8.2,0,0,1,2.84.51,1,1,0,0,0,1.36-.86,9.92,9.92,0,0,1,12-8.94,1,1,0,0,0,1.18-.67,13.15,13.15,0,0,1,9.78-8.79A14.16,14.16,0,0,0,76,52.79a10.11,10.11,0,0,1-2.95,18Z"/><circle class="cls-6" cx="68.37" cy="41.14" r="12.14"/><path class="cls-5" d="M65,44.9a1,1,0,0,0,1.42.17h0l8.8-7A1,1,0,1,0,74,36.45l-8,6.4-2.7-3.46a1,1,0,0,0-1.6,1.25Z"/></g></g></svg>