<svg xmlns="http://www.w3.org/2000/svg" xmlns:xlink="http://www.w3.org/1999/xlink" viewBox="0 0 100 100"><defs><style>.cls-1{fill:none;}.cls-2{isolation:isolate;}.cls-3{clip-path:url(#clip-path);}.cls-4{opacity:0.15;mix-blend-mode:multiply;}.cls-5{fill:#149cd6;}.cls-6{fill:#fff;}</style><clipPath id="clip-path"><rect class="cls-1" width="99.55" height="99.55"/></clipPath></defs><title>home-2</title><g class="cls-2"><g id="Ebene_1" data-name="Ebene 1"><g class="cls-3"><g class="cls-4"><path class="cls-5" d="M137.69,99.43a38.15,38.15,0,1,0,38.15,38.15A38.19,38.19,0,0,0,137.69,99.43Z"/><path class="cls-5" d="M137,98.73a38.15,38.15,0,1,0,38.15,38.15A38.19,38.19,0,0,0,137,98.73Z"/><path class="cls-5" d="M136.28,98a38.15,38.15,0,1,0,38.15,38.15A38.19,38.19,0,0,0,136.28,98Z"/><path class="cls-5" d="M135.57,97.31a38.15,38.15,0,1,0,38.15,38.15A38.19,38.19,0,0,0,135.57,97.31Z"/><path class="cls-5" d="M134.86,96.6A38.15,38.15,0,1,0,173,134.75,38.19,38.19,0,0,0,134.86,96.6Z"/><path class="cls-5" d="M134.16,95.9A38.15,38.15,0,1,0,172.31,134,38.19,38.19,0,0,0,134.16,95.9Z"/><path class="cls-5" d="M133.45,95.19a38.15,38.15,0,1,0,38.15,38.15A38.19,38.19,0,0,0,133.45,95.19Z"/><path class="cls-5" d="M132.74,94.48a38.15,38.15,0,1,0,38.15,38.15A38.19,38.19,0,0,0,132.74,94.48Z"/><path class="cls-5" d="M132,93.77a38.15,38.15,0,1,0,38.15,38.15A38.19,38.19,0,0,0,132,93.77Z"/><path class="cls-5" d="M131.33,93.07a38.15,38.15,0,1,0,38.15,38.15A38.19,38.19,0,0,0,131.33,93.07Z"/><path class="cls-5" d="M130.62,92.36a38.15,38.15,0,1,0,38.15,38.15A38.19,38.19,0,0,0,130.62,92.36Z"/><path class="cls-5" d="M129.91,91.65a38.15,38.15,0,1,0,38.15,38.15A38.19,38.19,0,0,0,129.91,91.65Z"/><path class="cls-5" d="M129.2,90.94a38.15,38.15,0,1,0,38.15,38.15A38.19,38.19,0,0,0,129.2,90.94Z"/><path class="cls-5" d="M128.5,90.24a38.15,38.15,0,1,0,38.15,38.15A38.19,38.19,0,0,0,128.5,90.24Z"/><path class="cls-5" d="M127.79,89.53a38.15,38.15,0,1,0,38.15,38.15A38.19,38.19,0,0,0,127.79,89.53Z"/><path class="cls-5" d="M127.08,88.82A38.15,38.15,0,1,0,165.23,127,38.19,38.19,0,0,0,127.08,88.82Z"/><path class="cls-5" d="M126.37,88.11a38.15,38.15,0,1,0,38.15,38.15A38.19,38.19,0,0,0,126.37,88.11Z"/><path class="cls-5" d="M125.67,87.41a38.15,38.15,0,1,0,38.15,38.15A38.19,38.19,0,0,0,125.67,87.41Z"/><path class="cls-5" d="M125,86.7a38.15,38.15,0,1,0,38.15,38.15A38.19,38.19,0,0,0,125,86.7Z"/><path class="cls-5" d="M124.25,86a38.15,38.15,0,1,0,38.15,38.15A38.19,38.19,0,0,0,124.25,86Z"/><path class="cls-5" d="M123.54,85.28a38.15,38.15,0,1,0,38.15,38.15A38.19,38.19,0,0,0,123.54,85.28Z"/><path class="cls-5" d="M122.84,84.58A38.15,38.15,0,1,0,161,122.73,38.19,38.19,0,0,0,122.84,84.58Z"/><path class="cls-5" d="M122.13,83.87A38.15,38.15,0,1,0,160.28,122,38.19,38.19,0,0,0,122.13,83.87Z"/><path class="cls-5" d="M121.42,83.16a38.15,38.15,0,1,0,38.15,38.15A38.19,38.19,0,0,0,121.42,83.16Z"/><path class="cls-5" d="M120.71,82.45a38.15,38.15,0,1,0,38.15,38.15A38.19,38.19,0,0,0,120.71,82.45Z"/><path class="cls-5" d="M120,81.75a38.15,38.15,0,1,0,38.15,38.15A38.19,38.19,0,0,0,120,81.75Z"/><path class="cls-5" d="M119.3,81a38.15,38.15,0,1,0,38.15,38.15A38.19,38.19,0,0,0,119.3,81Z"/><path class="cls-5" d="M118.59,80.33a38.15,38.15,0,1,0,38.15,38.15A38.19,38.19,0,0,0,118.59,80.33Z"/><path class="cls-5" d="M117.88,79.62A38.15,38.15,0,1,0,156,117.77,38.19,38.19,0,0,0,117.88,79.62Z"/><path class="cls-5" d="M117.18,78.92a38.15,38.15,0,1,0,38.15,38.15A38.19,38.19,0,0,0,117.18,78.92Z"/><path class="cls-5" d="M116.47,78.21a38.15,38.15,0,1,0,38.15,38.15A38.19,38.19,0,0,0,116.47,78.21Z"/><path class="cls-5" d="M115.76,77.5a38.15,38.15,0,1,0,38.15,38.15A38.19,38.19,0,0,0,115.76,77.5Z"/><path class="cls-5" d="M115.05,76.79a38.15,38.15,0,1,0,38.15,38.15A38.19,38.19,0,0,0,115.05,76.79Z"/><path class="cls-5" d="M114.35,76.09a38.15,38.15,0,1,0,38.15,38.15A38.19,38.19,0,0,0,114.35,76.09Z"/><path class="cls-5" d="M113.64,75.38a38.15,38.15,0,1,0,38.15,38.15A38.19,38.19,0,0,0,113.64,75.38Z"/><path class="cls-5" d="M112.93,74.67a38.15,38.15,0,1,0,38.15,38.15A38.19,38.19,0,0,0,112.93,74.67Z"/><path class="cls-5" d="M112.22,74a38.15,38.15,0,1,0,38.15,38.15A38.19,38.19,0,0,0,112.22,74Z"/><path class="cls-5" d="M111.52,73.26a38.15,38.15,0,1,0,38.15,38.15A38.19,38.19,0,0,0,111.52,73.26Z"/><path class="cls-5" d="M110.81,72.55A38.15,38.15,0,1,0,149,110.7,38.19,38.19,0,0,0,110.81,72.55Z"/><path class="cls-5" d="M110.1,71.84A38.15,38.15,0,1,0,148.25,110,38.19,38.19,0,0,0,110.1,71.84Z"/><path class="cls-5" d="M109.39,71.13a38.15,38.15,0,1,0,38.15,38.15A38.19,38.19,0,0,0,109.39,71.13Z"/><path class="cls-5" d="M108.69,70.43a38.15,38.15,0,1,0,38.15,38.15A38.19,38.19,0,0,0,108.69,70.43Z"/><path class="cls-5" d="M108,69.72a38.15,38.15,0,1,0,38.15,38.15A38.19,38.19,0,0,0,108,69.72Z"/><path class="cls-5" d="M107.27,69a38.15,38.15,0,1,0,38.15,38.15A38.19,38.19,0,0,0,107.27,69Z"/><path class="cls-5" d="M106.56,68.3a38.15,38.15,0,1,0,38.15,38.15A38.19,38.19,0,0,0,106.56,68.3Z"/><path class="cls-5" d="M105.86,67.6A38.15,38.15,0,1,0,144,105.75,38.19,38.19,0,0,0,105.86,67.6Z"/><path class="cls-5" d="M105.15,66.89A38.15,38.15,0,1,0,143.3,105,38.19,38.19,0,0,0,105.15,66.89Z"/><path class="cls-5" d="M104.44,66.18a38.15,38.15,0,1,0,38.15,38.15A38.19,38.19,0,0,0,104.44,66.18Z"/><path class="cls-5" d="M103.73,65.47a38.15,38.15,0,1,0,38.15,38.15A38.19,38.19,0,0,0,103.73,65.47Z"/><path class="cls-5" d="M103,64.77a38.15,38.15,0,1,0,38.15,38.15A38.19,38.19,0,0,0,103,64.77Z"/><path class="cls-5" d="M102.32,64.06a38.15,38.15,0,1,0,38.15,38.15A38.19,38.19,0,0,0,102.32,64.06Z"/><path class="cls-5" d="M101.61,63.35a38.15,38.15,0,1,0,38.15,38.15A38.19,38.19,0,0,0,101.61,63.35Z"/><path class="cls-5" d="M100.9,62.64a38.15,38.15,0,1,0,38.15,38.15A38.19,38.19,0,0,0,100.9,62.64Z"/><path class="cls-5" d="M100.2,61.94a38.15,38.15,0,1,0,38.15,38.15A38.19,38.19,0,0,0,100.2,61.94Z"/><path class="cls-5" d="M99.49,61.23a38.15,38.15,0,1,0,38.15,38.15A38.19,38.19,0,0,0,99.49,61.23Z"/><path class="cls-5" d="M98.78,60.52a38.15,38.15,0,1,0,38.15,38.15A38.19,38.19,0,0,0,98.78,60.52Z"/><path class="cls-5" d="M98.07,59.81A38.15,38.15,0,1,0,136.22,98,38.19,38.19,0,0,0,98.07,59.81Z"/><path class="cls-5" d="M97.37,59.11a38.15,38.15,0,1,0,38.15,38.15A38.19,38.19,0,0,0,97.37,59.11Z"/><path class="cls-5" d="M96.66,58.4a38.15,38.15,0,1,0,38.15,38.15A38.19,38.19,0,0,0,96.66,58.4Z"/><path class="cls-5" d="M96,57.69A38.15,38.15,0,1,0,134.1,95.84,38.19,38.19,0,0,0,96,57.69Z"/><path class="cls-5" d="M95.24,57a38.15,38.15,0,1,0,38.15,38.15A38.19,38.19,0,0,0,95.24,57Z"/><path class="cls-5" d="M94.54,56.28a38.15,38.15,0,1,0,38.15,38.15A38.19,38.19,0,0,0,94.54,56.28Z"/><path class="cls-5" d="M93.83,55.57A38.15,38.15,0,1,0,132,93.72,38.19,38.19,0,0,0,93.83,55.57Z"/><path class="cls-5" d="M93.12,54.86A38.15,38.15,0,1,0,131.27,93,38.19,38.19,0,0,0,93.12,54.86Z"/><path class="cls-5" d="M92.41,54.15A38.15,38.15,0,1,0,130.56,92.3,38.19,38.19,0,0,0,92.41,54.15Z"/><path class="cls-5" d="M91.71,53.45A38.15,38.15,0,1,0,129.85,91.6,38.19,38.19,0,0,0,91.71,53.45Z"/><path class="cls-5" d="M91,52.74a38.15,38.15,0,1,0,38.15,38.15A38.19,38.19,0,0,0,91,52.74Z"/><path class="cls-5" d="M90.29,52a38.15,38.15,0,1,0,38.15,38.15A38.19,38.19,0,0,0,90.29,52Z"/><path class="cls-5" d="M89.58,51.32a38.15,38.15,0,1,0,38.15,38.15A38.19,38.19,0,0,0,89.58,51.32Z"/><path class="cls-5" d="M88.88,50.62A38.15,38.15,0,1,0,127,88.77,38.19,38.19,0,0,0,88.88,50.62Z"/><path class="cls-5" d="M88.17,49.91a38.15,38.15,0,1,0,38.15,38.15A38.19,38.19,0,0,0,88.17,49.91Z"/><path class="cls-5" d="M87.46,49.2a38.15,38.15,0,1,0,38.15,38.15A38.19,38.19,0,0,0,87.46,49.2Z"/><path class="cls-5" d="M86.75,48.49A38.15,38.15,0,1,0,124.9,86.64,38.19,38.19,0,0,0,86.75,48.49Z"/><path class="cls-5" d="M86,47.79a38.15,38.15,0,1,0,38.15,38.15A38.19,38.19,0,0,0,86,47.79Z"/><path class="cls-5" d="M85.34,47.08a38.15,38.15,0,1,0,38.15,38.15A38.19,38.19,0,0,0,85.34,47.08Z"/><path class="cls-5" d="M84.63,46.37a38.15,38.15,0,1,0,38.15,38.15A38.19,38.19,0,0,0,84.63,46.37Z"/><path class="cls-5" d="M83.92,45.66a38.15,38.15,0,1,0,38.15,38.15A38.19,38.19,0,0,0,83.92,45.66Z"/><path class="cls-5" d="M83.22,45a38.15,38.15,0,1,0,38.15,38.15A38.19,38.19,0,0,0,83.22,45Z"/><path class="cls-5" d="M82.51,44.25A38.15,38.15,0,1,0,120.66,82.4,38.19,38.19,0,0,0,82.51,44.25Z"/><path class="cls-5" d="M81.8,43.54a38.15,38.15,0,1,0,38.15,38.15A38.19,38.19,0,0,0,81.8,43.54Z"/><path class="cls-5" d="M81.09,42.83A38.15,38.15,0,1,0,119.24,81,38.19,38.19,0,0,0,81.09,42.83Z"/><path class="cls-5" d="M80.39,42.13a38.15,38.15,0,1,0,38.15,38.15A38.19,38.19,0,0,0,80.39,42.13Z"/><path class="cls-5" d="M79.68,41.42a38.15,38.15,0,1,0,38.15,38.15A38.19,38.19,0,0,0,79.68,41.42Z"/><path class="cls-5" d="M79,40.71a38.15,38.15,0,1,0,38.15,38.15A38.19,38.19,0,0,0,79,40.71Z"/><path class="cls-5" d="M78.26,40a38.15,38.15,0,1,0,38.15,38.15A38.19,38.19,0,0,0,78.26,40Z"/><path class="cls-5" d="M77.56,39.3A38.15,38.15,0,1,0,115.7,77.45,38.19,38.19,0,0,0,77.56,39.3Z"/><path class="cls-5" d="M76.85,38.59A38.15,38.15,0,1,0,115,76.74,38.19,38.19,0,0,0,76.85,38.59Z"/><path class="cls-5" d="M76.14,37.88A38.15,38.15,0,1,0,114.29,76,38.19,38.19,0,0,0,76.14,37.88Z"/><path class="cls-5" d="M75.43,37.17a38.15,38.15,0,1,0,38.15,38.15A38.19,38.19,0,0,0,75.43,37.17Z"/><path class="cls-5" d="M74.73,36.47a38.15,38.15,0,1,0,38.15,38.15A38.19,38.19,0,0,0,74.73,36.47Z"/><path class="cls-5" d="M74,35.76a38.15,38.15,0,1,0,38.15,38.15A38.19,38.19,0,0,0,74,35.76Z"/><path class="cls-5" d="M73.31,35.05A38.15,38.15,0,1,0,111.46,73.2,38.19,38.19,0,0,0,73.31,35.05Z"/><path class="cls-5" d="M72.6,34.34a38.15,38.15,0,1,0,38.15,38.15A38.19,38.19,0,0,0,72.6,34.34Z"/><path class="cls-5" d="M71.9,33.64A38.15,38.15,0,1,0,110,71.78,38.19,38.19,0,0,0,71.9,33.64Z"/><path class="cls-5" d="M71.19,32.93a38.15,38.15,0,1,0,38.15,38.15A38.19,38.19,0,0,0,71.19,32.93Z"/><path class="cls-5" d="M70.48,32.22a38.15,38.15,0,1,0,38.15,38.15A38.19,38.19,0,0,0,70.48,32.22Z"/><path class="cls-5" d="M69.77,31.51a38.15,38.15,0,1,0,38.15,38.15A38.19,38.19,0,0,0,69.77,31.51Z"/><path class="cls-5" d="M69.06,30.81A38.15,38.15,0,1,0,107.21,69,38.19,38.19,0,0,0,69.06,30.81Z"/><path class="cls-5" d="M68.36,30.1a38.15,38.15,0,1,0,38.15,38.15A38.19,38.19,0,0,0,68.36,30.1Z"/><path class="cls-5" d="M67.65,29.39A38.15,38.15,0,1,0,105.8,67.54,38.19,38.19,0,0,0,67.65,29.39Z"/><path class="cls-5" d="M66.94,28.68a38.15,38.15,0,1,0,38.15,38.15A38.19,38.19,0,0,0,66.94,28.68Z"/><path class="cls-5" d="M66.23,28a38.15,38.15,0,1,0,38.15,38.15A38.19,38.19,0,0,0,66.23,28Z"/><path class="cls-5" d="M65.53,27.27a38.15,38.15,0,1,0,38.15,38.15A38.19,38.19,0,0,0,65.53,27.27Z"/><path class="cls-5" d="M64.82,26.56A38.15,38.15,0,1,0,103,64.71,38.19,38.19,0,0,0,64.82,26.56Z"/><path class="cls-5" d="M64.11,25.85A38.15,38.15,0,1,0,102.26,64,38.19,38.19,0,0,0,64.11,25.85Z"/><path class="cls-5" d="M63.4,25.15a38.15,38.15,0,1,0,38.15,38.15A38.19,38.19,0,0,0,63.4,25.15Z"/><path class="cls-5" d="M62.7,24.44a38.15,38.15,0,1,0,38.15,38.15A38.19,38.19,0,0,0,62.7,24.44Z"/><path class="cls-5" d="M62,23.73a38.15,38.15,0,1,0,38.15,38.15A38.19,38.19,0,0,0,62,23.73Z"/><path class="cls-5" d="M61.28,23A38.15,38.15,0,1,0,99.43,61.17,38.19,38.19,0,0,0,61.28,23Z"/><path class="cls-5" d="M60.57,22.32A38.15,38.15,0,1,0,98.72,60.46,38.19,38.19,0,0,0,60.57,22.32Z"/><path class="cls-5" d="M59.87,21.61A38.15,38.15,0,1,0,98,59.76,38.19,38.19,0,0,0,59.87,21.61Z"/><path class="cls-5" d="M59.16,20.9A38.15,38.15,0,1,0,97.31,59,38.19,38.19,0,0,0,59.16,20.9Z"/><path class="cls-5" d="M58.45,20.19A38.15,38.15,0,1,0,96.6,58.34,38.19,38.19,0,0,0,58.45,20.19Z"/><path class="cls-5" d="M57.74,19.49A38.15,38.15,0,1,0,95.89,57.63,38.19,38.19,0,0,0,57.74,19.49Z"/><path class="cls-5" d="M57,18.78A38.15,38.15,0,1,0,95.19,56.93,38.19,38.19,0,0,0,57,18.78Z"/><path class="cls-5" d="M56.33,18.07A38.15,38.15,0,1,0,94.48,56.22,38.19,38.19,0,0,0,56.33,18.07Z"/><path class="cls-5" d="M55.62,17.36A38.15,38.15,0,1,0,93.77,55.51,38.19,38.19,0,0,0,55.62,17.36Z"/><path class="cls-5" d="M54.91,16.66A38.15,38.15,0,1,0,93.06,54.8,38.19,38.19,0,0,0,54.91,16.66Z"/><path class="cls-5" d="M54.21,15.95A38.15,38.15,0,1,0,92.36,54.1,38.19,38.19,0,0,0,54.21,15.95Z"/><path class="cls-5" d="M53.5,15.24A38.15,38.15,0,1,0,91.65,53.39,38.19,38.19,0,0,0,53.5,15.24Z"/><path class="cls-5" d="M52.79,14.53A38.15,38.15,0,1,0,90.94,52.68,38.19,38.19,0,0,0,52.79,14.53Z"/><path class="cls-5" d="M52.08,13.83A38.15,38.15,0,1,0,90.23,52,38.19,38.19,0,0,0,52.08,13.83Z"/><path class="cls-5" d="M51.38,13.12A38.15,38.15,0,1,0,89.53,51.27,38.19,38.19,0,0,0,51.38,13.12Z"/><path class="cls-5" d="M50.67,12.41A38.15,38.15,0,1,0,88.82,50.56,38.19,38.19,0,0,0,50.67,12.41Z"/><path class="cls-5" d="M50,11.7A38.15,38.15,0,1,0,88.11,49.85,38.19,38.19,0,0,0,50,11.7Z"/></g></g><circle class="cls-6" cx="49.96" cy="49.85" r="34.54"/><path class="cls-5" d="M50,88A38.15,38.15,0,1,1,88.11,49.85,38.19,38.19,0,0,1,50,88Zm0-72.69A34.54,34.54,0,1,0,84.51,49.85,34.58,34.58,0,0,0,50,15.31Z"/><path class="cls-5" d="M40.85,67a2,2,0,0,1-.75-.15,1.4,1.4,0,0,1-.94-1.26V34.15a1.4,1.4,0,0,1,.94-1.26,2,2,0,0,1,1.78.14L66.93,48.78a1.26,1.26,0,0,1,0,2.23L41.87,66.76A1.94,1.94,0,0,1,40.85,67ZM42.54,37V62.81L63.1,49.89Z"/></g></g></svg>