<?xml version="1.0" encoding="utf-8"?>
<!-- Generator: Adobe Illustrator 20.0.0, SVG Export Plug-In . SVG Version: 6.00 Build 0)  -->
<svg version="1.1" id="Ebene_1" xmlns="http://www.w3.org/2000/svg" xmlns:xlink="http://www.w3.org/1999/xlink" x="0px" y="0px"
	 viewBox="0 0 100 100" style="enable-background:new 0 0 100 100;" xml:space="preserve">
<style type="text/css">
	.st0{fill:#149CD6;}
	.st1{clip-path:url(#SVGID_2_);}
	.st2{opacity:0.15;}
	.st3{fill:#FFFFFF;}
</style>
<title>home-1-01</title>
<g>
	<g id="Ebene_1_1_">
		<path class="st0" d="M83.5,19.5H18.9c-2,0-3.6,1.6-3.6,3.6l0,0v46.6c0,2,1.6,3.6,3.6,3.6h20.3c0.7,0,1.2,0.5,1.2,1.2v2.4h21.5
			v-2.4c0-0.7,0.5-1.2,1.2-1.2h20.3c2,0,3.6-1.6,3.6-3.6V23.1C87.1,21.1,85.5,19.5,83.5,19.5z M18.9,69.7V23.1h64.6v46.6H18.9z"/>
		<rect x="35.6" y="78.1" class="st0" width="31.1" height="2.4"/>
		<g>
			<defs>
				<rect id="SVGID_1_" width="100" height="100"/>
			</defs>
			<clipPath id="SVGID_2_">
				<use xlink:href="#SVGID_1_"  style="overflow:visible;"/>
			</clipPath>
			<g class="st1">
				<g class="st2">
					<path class="st0" d="M163.6,99.4H98.8c-2,0-3.6,1.6-3.6,3.6v46.8c0,2,1.6,3.6,3.6,3.6c0,0,0,0,0,0h20.4c0.7,0,1.2,0.5,1.2,1.2
						v2.4H142v-2.4c0-0.7,0.5-1.2,1.2-1.2h20.4c2,0,3.6-1.6,3.6-3.6v0V103C167.2,101,165.6,99.4,163.6,99.4
						C163.6,99.4,163.6,99.4,163.6,99.4z"/>
					<path class="st0" d="M162.9,98.7H98c-2,0-3.6,1.6-3.6,3.6v46.8c0,2,1.6,3.6,3.6,3.6c0,0,0,0,0,0h20.4c0.7,0,1.2,0.5,1.2,1.2
						v2.4h21.7v-2.4c0-0.7,0.5-1.2,1.2-1.2h20.4c2,0,3.6-1.6,3.6-3.6v0v-46.8C166.5,100.3,164.9,98.7,162.9,98.7L162.9,98.7z"/>
					<path class="st0" d="M162.2,98H97.3c-2,0-3.6,1.6-3.6,3.6v46.8c0,2,1.6,3.6,3.6,3.6c0,0,0,0,0,0h20.4c0.7,0,1.2,0.5,1.2,1.2
						v2.4h21.6v-2.4c0-0.7,0.5-1.2,1.2-1.2h20.4c2,0,3.6-1.6,3.6-3.6v0v-46.9C165.8,99.6,164.2,98,162.2,98z"/>
					<path class="st0" d="M161.5,97.3H96.6c-2,0-3.6,1.6-3.6,3.6v46.8c0,2,1.6,3.6,3.6,3.6c0,0,0,0,0,0h20.4c0.7,0,1.2,0.5,1.2,1.2
						v2.4h21.6v-2.4c0-0.7,0.5-1.2,1.2-1.2h20.4c2,0,3.6-1.6,3.6-3.6v0v-46.8C165.1,98.9,163.5,97.3,161.5,97.3z"/>
					<path class="st0" d="M160.8,96.6H95.9c-2,0-3.6,1.6-3.6,3.6V147c0,2,1.6,3.6,3.6,3.6c0,0,0,0,0,0h20.4c0.7,0,1.2,0.5,1.2,1.2
						v2.4h21.6v-2.4c0-0.7,0.5-1.2,1.2-1.2h20.4c2,0,3.6-1.6,3.6-3.6v0v-46.8C164.4,98.2,162.8,96.6,160.8,96.6
						C160.8,96.6,160.8,96.6,160.8,96.6z"/>
					<path class="st0" d="M160.1,95.8H95.2c-2,0-3.6,1.6-3.6,3.6v46.9c0,2,1.6,3.6,3.6,3.6c0,0,0,0,0,0h20.4c0.7,0,1.2,0.5,1.2,1.2
						v2.4h21.6v-2.4c0-0.7,0.5-1.2,1.2-1.2h20.4c2,0,3.6-1.6,3.6-3.6v0V99.4C163.7,97.5,162.1,95.9,160.1,95.8z"/>
					<path class="st0" d="M159.4,95.1H94.5c-2,0-3.6,1.6-3.6,3.6v46.8c0,2,1.6,3.6,3.6,3.6c0,0,0,0,0,0h20.4c0.7,0,1.2,0.5,1.2,1.2
						v2.4h21.6v-2.4c0-0.7,0.5-1.2,1.2-1.2h20.4c2,0,3.6-1.6,3.6-3.6v0V98.7C163,96.8,161.4,95.1,159.4,95.1z"/>
					<path class="st0" d="M158.7,94.4H93.8c-2,0-3.6,1.6-3.6,3.6v46.9c0,2,1.6,3.6,3.6,3.6c0,0,0,0,0,0h20.4c0.7,0,1.2,0.5,1.2,1.2
						v2.4H137v-2.4c0-0.7,0.5-1.2,1.2-1.2h20.4c2,0,3.6-1.6,3.6-3.6v0V98C162.3,96,160.7,94.4,158.7,94.4z"/>
					<path class="st0" d="M158,93.7H93.1c-2,0-3.6,1.6-3.6,3.6v46.8c0,2,1.6,3.6,3.6,3.6c0,0,0,0,0,0h20.4c0.7,0,1.2,0.5,1.2,1.2
						v2.4h21.6V149c0-0.7,0.5-1.2,1.2-1.2H158c2,0,3.6-1.6,3.6-3.6v0V97.3C161.6,95.3,160,93.7,158,93.7L158,93.7z"/>
					<path class="st0" d="M157.3,93H92.4c-2,0-3.6,1.6-3.6,3.6v46.8c0,2,1.6,3.6,3.6,3.6c0,0,0,0,0,0h20.4c0.7,0,1.2,0.5,1.2,1.2
						v2.4h21.6v-2.4c0-0.7,0.5-1.2,1.2-1.2h20.4c2,0,3.6-1.6,3.6-3.6v0V96.6C160.9,94.6,159.3,93,157.3,93
						C157.3,93,157.3,93,157.3,93z"/>
					<path class="st0" d="M156.6,92.3H91.7c-2,0-3.6,1.6-3.6,3.6v46.8c0,2,1.6,3.6,3.6,3.6c0,0,0,0,0,0h20.4c0.7,0,1.2,0.5,1.2,1.2
						v2.4h21.6v-2.4c0-0.7,0.5-1.2,1.2-1.2h20.4c2,0,3.6-1.6,3.6-3.6v0V95.9C160.2,93.9,158.5,92.3,156.6,92.3
						C156.6,92.3,156.6,92.3,156.6,92.3z"/>
					<path class="st0" d="M155.9,91.6H91c-2,0-3.6,1.6-3.6,3.6v46.8c0,2,1.6,3.6,3.6,3.6c0,0,0,0,0,0h20.4c0.7,0,1.2,0.5,1.2,1.2
						v2.4h21.6v-2.4c0-0.7,0.5-1.2,1.2-1.2h20.4c2,0,3.6-1.6,3.6-3.6v0V95.2C159.5,93.2,157.8,91.6,155.9,91.6z"/>
					<path class="st0" d="M155.1,90.9H90.3c-2,0-3.6,1.6-3.6,3.6v46.9c0,2,1.6,3.6,3.6,3.6c0,0,0,0,0,0h20.4c0.7,0,1.2,0.5,1.2,1.2
						v2.4h21.6v-2.4c0-0.7,0.5-1.2,1.2-1.2h20.4c2,0,3.6-1.6,3.6-3.6v0V94.5C158.7,92.5,157.1,90.9,155.1,90.9
						C155.2,90.9,155.2,90.9,155.1,90.9z"/>
					<path class="st0" d="M154.4,90.2H89.6c-2,0-3.6,1.6-3.6,3.6v46.8c0,2,1.6,3.6,3.6,3.6c0,0,0,0,0,0H110c0.7,0,1.2,0.5,1.2,1.2
						v2.4h21.6v-2.4c0-0.7,0.5-1.2,1.2-1.2h20.4c2,0,3.6-1.6,3.6-3.6v0V93.8C158,91.8,156.4,90.2,154.4,90.2z"/>
					<path class="st0" d="M153.7,89.5H88.9c-2,0-3.6,1.6-3.6,3.6v46.9c0,2,1.6,3.6,3.6,3.6c0,0,0,0,0,0h20.4c0.7,0,1.2,0.5,1.2,1.2
						v2.4h21.6v-2.4c0-0.7,0.5-1.2,1.2-1.2h20.4c2,0,3.6-1.6,3.6-3.6v0V93.1C157.3,91.1,155.7,89.5,153.7,89.5z"/>
					<path class="st0" d="M153,88.8H88.2c-2,0-3.6,1.6-3.6,3.6v46.8c0,2,1.6,3.6,3.6,3.6c0,0,0,0,0,0h20.4c0.7,0,1.2,0.5,1.2,1.2
						v2.4h21.6V144c0-0.7,0.5-1.2,1.2-1.2H153c2,0,3.6-1.6,3.6-3.6v0V92.4C156.6,90.4,155,88.8,153,88.8C153,88.8,153,88.8,153,88.8
						z"/>
					<path class="st0" d="M152.3,88.1H87.5c-2,0-3.6,1.6-3.6,3.6v46.8c0,2,1.6,3.6,3.6,3.6c0,0,0,0,0,0h20.4c0.7,0,1.2,0.5,1.2,1.2
						v2.4h21.6v-2.4c0-0.7,0.5-1.2,1.2-1.2h20.4c2,0,3.6-1.6,3.6-3.6v0V91.7C155.9,89.7,154.3,88.1,152.3,88.1z"/>
					<path class="st0" d="M151.6,87.4H86.8c-2,0-3.6,1.6-3.6,3.6v46.9c0,2,1.6,3.6,3.6,3.6c0,0,0,0,0,0h20.4c0.7,0,1.2,0.5,1.2,1.2
						v2.4H130v-2.4c0-0.7,0.5-1.2,1.2-1.2h20.4c2,0,3.6-1.6,3.6-3.6v0V91C155.2,89,153.6,87.4,151.6,87.4
						C151.6,87.4,151.6,87.4,151.6,87.4z"/>
					<path class="st0" d="M150.9,86.7H86c-2,0-3.6,1.6-3.6,3.6v46.8c0,2,1.6,3.6,3.6,3.6c0,0,0,0,0,0h20.4c0.7,0,1.2,0.5,1.2,1.2
						v2.4h21.6v-2.4c0-0.7,0.5-1.2,1.2-1.2h20.4c2,0,3.6-1.6,3.6-3.6v0V90.3C154.5,88.3,152.9,86.7,150.9,86.7z"/>
					<path class="st0" d="M150.2,86H85.3c-2,0-3.6,1.6-3.6,3.6v46.8c0,2,1.6,3.6,3.6,3.6c0,0,0,0,0,0h20.4c0.7,0,1.2,0.5,1.2,1.2
						v2.4h21.6v-2.4c0-0.7,0.5-1.2,1.2-1.2h20.4c2,0,3.6-1.6,3.6-3.6v0V89.6C153.8,87.6,152.2,86,150.2,86z"/>
					<path class="st0" d="M149.5,85.2H84.6c-2,0-3.6,1.6-3.6,3.6v46.8c0,2,1.6,3.6,3.6,3.6c0,0,0,0,0,0H105c0.7,0,1.2,0.5,1.2,1.2
						v2.4h21.6v-2.4c0-0.7,0.5-1.2,1.2-1.2h20.4c2,0,3.6-1.6,3.6-3.6v0V88.9C153.1,86.9,151.5,85.3,149.5,85.2
						C149.5,85.3,149.5,85.2,149.5,85.2z"/>
					<path class="st0" d="M148.8,84.6H83.9c-2,0-3.6,1.6-3.6,3.6V135c0,2,1.6,3.6,3.6,3.6c0,0,0,0,0,0h20.4c0.7,0,1.2,0.5,1.2,1.2
						v2.4h21.6v-2.4c0-0.7,0.5-1.2,1.2-1.2h20.4c2,0,3.6-1.6,3.6-3.6v0V88.2C152.4,86.2,150.8,84.6,148.8,84.6L148.8,84.6z"/>
					<path class="st0" d="M148.1,83.8H83.2c-2,0-3.6,1.6-3.6,3.6v46.9c0,2,1.6,3.6,3.6,3.6c0,0,0,0,0,0h20.4c0.7,0,1.2,0.5,1.2,1.2
						v2.4h21.6v-2.4c0-0.7,0.5-1.2,1.2-1.2h20.4c2,0,3.6-1.6,3.6-3.6v0V87.4C151.7,85.5,150.1,83.8,148.1,83.8
						C148.1,83.8,148.1,83.8,148.1,83.8z"/>
					<path class="st0" d="M147.4,83.1H82.5c-2,0-3.6,1.6-3.6,3.6v46.8c0,2,1.6,3.6,3.6,3.6c0,0,0,0,0,0h20.4c0.7,0,1.2,0.5,1.2,1.2
						v2.4h21.6v-2.4c0-0.7,0.5-1.2,1.2-1.2h20.4c2,0,3.6-1.6,3.6-3.6v0V86.7C151,84.8,149.4,83.1,147.4,83.1z"/>
					<path class="st0" d="M146.7,82.4H81.8c-2,0-3.6,1.6-3.6,3.6v46.9c0,2,1.6,3.6,3.6,3.6c0,0,0,0,0,0h20.4c0.7,0,1.2,0.5,1.2,1.2
						v2.4H125v-2.4c0-0.7,0.5-1.2,1.2-1.2h20.4c2,0,3.6-1.6,3.6-3.6v0V86C150.2,84,148.6,82.4,146.7,82.4z"/>
					<path class="st0" d="M146,81.7H81.1c-2,0-3.6,1.6-3.6,3.6v46.8c0,2,1.6,3.6,3.6,3.6c0,0,0,0,0,0h20.4c0.7,0,1.2,0.5,1.2,1.2
						v2.4h21.6V137c0-0.7,0.5-1.2,1.2-1.2H146c2,0,3.6-1.6,3.6-3.6v0V85.3C149.6,83.3,148,81.7,146,81.7C146,81.7,146,81.7,146,81.7
						z"/>
					<path class="st0" d="M145.3,81H80.4c-2,0-3.6,1.6-3.6,3.6v46.8c0,2,1.6,3.6,3.6,3.6c0,0,0,0,0,0h20.4c0.7,0,1.2,0.5,1.2,1.2
						v2.4h21.6v-2.4c0-0.7,0.5-1.2,1.2-1.2h20.4c2,0,3.6-1.6,3.6-3.6v0V84.6C148.9,82.6,147.3,81,145.3,81
						C145.3,81,145.3,81,145.3,81z"/>
					<path class="st0" d="M144.6,80.3H79.7c-2,0-3.6,1.6-3.6,3.6v46.8c0,2,1.6,3.6,3.6,3.6c0,0,0,0,0,0h20.4c0.7,0,1.2,0.5,1.2,1.2
						v2.4h21.6v-2.4c0-0.7,0.5-1.2,1.2-1.2h20.4c2,0,3.6-1.6,3.6-3.6v0V83.9C148.2,81.9,146.5,80.3,144.6,80.3
						C144.6,80.3,144.6,80.3,144.6,80.3z"/>
					<path class="st0" d="M143.9,79.6H79c-2,0-3.6,1.6-3.6,3.6v46.8c0,2,1.6,3.6,3.6,3.6c0,0,0,0,0,0h20.4c0.7,0,1.2,0.5,1.2,1.2
						v2.4h21.6v-2.4c0-0.7,0.5-1.2,1.2-1.2h20.4c2,0,3.6-1.6,3.6-3.6v0V83.2C147.5,81.2,145.8,79.6,143.9,79.6L143.9,79.6z"/>
					<path class="st0" d="M143.1,78.9H78.3c-2,0-3.6,1.6-3.6,3.6v46.9c0,2,1.6,3.6,3.6,3.6c0,0,0,0,0,0h20.4c0.7,0,1.2,0.5,1.2,1.2
						v2.4h21.6v-2.4c0-0.7,0.5-1.2,1.2-1.2h20.4c2,0,3.6-1.6,3.6-3.6v0V82.5C146.7,80.5,145.1,78.9,143.1,78.9z"/>
					<path class="st0" d="M142.4,78.2H77.6c-2,0-3.6,1.6-3.6,3.6v46.8c0,2,1.6,3.6,3.6,3.6c0,0,0,0,0,0H98c0.7,0,1.2,0.5,1.2,1.2
						v2.4h21.6v-2.4c0-0.7,0.5-1.2,1.2-1.2h20.4c2,0,3.6-1.6,3.6-3.6v0V81.8C146,79.8,144.4,78.2,142.4,78.2
						C142.4,78.2,142.4,78.2,142.4,78.2z"/>
					<path class="st0" d="M141.7,77.5H76.9c-2,0-3.6,1.6-3.6,3.6v46.8c0,2,1.6,3.6,3.6,3.6h20.4c0.7,0,1.2,0.5,1.2,1.2v2.4h21.6
						v-2.4c0-0.7,0.5-1.2,1.2-1.2h20.4c2,0,3.6-1.6,3.6-3.6c0,0,0,0,0,0V81.1C145.3,79.1,143.7,77.5,141.7,77.5z"/>
					<path class="st0" d="M141,76.8H76.2c-2,0-3.6,1.6-3.6,3.6v46.8c0,2,1.6,3.6,3.6,3.6c0,0,0,0,0,0h20.4c0.7,0,1.2,0.5,1.2,1.2
						v2.4h21.6V132c0-0.7,0.5-1.2,1.2-1.2H141c2,0,3.6-1.6,3.6-3.6c0,0,0,0,0,0V80.4C144.6,78.4,143,76.8,141,76.8L141,76.8z"/>
					<path class="st0" d="M140.3,76.1H75.4c-2,0-3.6,1.6-3.6,3.6v46.8c0,2,1.6,3.6,3.6,3.6h20.4c0.7,0,1.2,0.5,1.2,1.2v2.4h21.6
						v-2.4c0-0.7,0.5-1.2,1.2-1.2h20.4c2,0,3.6-1.6,3.6-3.6c0,0,0,0,0,0V79.7C143.9,77.7,142.3,76.1,140.3,76.1
						C140.3,76.1,140.3,76.1,140.3,76.1z"/>
					<path class="st0" d="M139.6,75.4H74.8c-2,0-3.6,1.6-3.6,3.6v46.8c0,2,1.6,3.6,3.6,3.6h20.4c0.7,0,1.2,0.5,1.2,1.2v2.4H118v-2.4
						c0-0.7,0.5-1.2,1.2-1.2h20.4c2,0,3.6-1.6,3.6-3.6c0,0,0,0,0,0V79C143.2,77,141.6,75.4,139.6,75.4
						C139.6,75.4,139.6,75.4,139.6,75.4z"/>
					<path class="st0" d="M138.9,74.7H74c-2,0-3.6,1.6-3.6,3.6v46.8c0,2,1.6,3.6,3.6,3.6c0,0,0,0,0,0h20.5c0.7,0,1.2,0.5,1.2,1.2
						v2.4h21.6v-2.4c0-0.7,0.5-1.2,1.2-1.2h20.4c2,0,3.6-1.6,3.6-3.6c0,0,0,0,0,0V78.3C142.5,76.3,140.9,74.7,138.9,74.7L138.9,74.7
						z"/>
					<path class="st0" d="M138.2,74H73.3c-2,0-3.6,1.6-3.6,3.6v46.8c0,2,1.6,3.6,3.6,3.6c0,0,0,0,0,0h20.4c0.7,0,1.2,0.5,1.2,1.2
						v2.4h21.6v-2.4c0-0.7,0.5-1.2,1.2-1.2h20.4c2,0,3.6-1.6,3.6-3.6c0,0,0,0,0,0V77.6C141.8,75.6,140.2,74,138.2,74z"/>
					<path class="st0" d="M137.5,73.2H72.6c-2,0-3.6,1.6-3.6,3.6v46.8c0,2,1.6,3.6,3.6,3.6h20.4c0.7,0,1.2,0.5,1.2,1.2l0,0v2.4h21.6
						v-2.4c0-0.7,0.5-1.2,1.2-1.2h20.4c2,0,3.6-1.6,3.6-3.6c0,0,0,0,0,0V76.8C141.1,74.9,139.5,73.2,137.5,73.2L137.5,73.2z"/>
					<path class="st0" d="M136.8,72.5H71.9c-2,0-3.6,1.6-3.6,3.6V123c0,2,1.6,3.6,3.6,3.6h20.4c0.7,0,1.2,0.5,1.2,1.2v2.4h21.6v-2.4
						c0-0.7,0.5-1.2,1.2-1.2h20.4c2,0,3.6-1.6,3.6-3.6c0,0,0,0,0,0V76.2C140.4,74.2,138.8,72.5,136.8,72.5
						C136.8,72.5,136.8,72.5,136.8,72.5z"/>
					<path class="st0" d="M136.1,71.8H71.2c-2,0-3.6,1.6-3.6,3.6v46.8c0,2,1.6,3.6,3.6,3.6h20.4c0.7,0,1.2,0.5,1.2,1.2v2.4h21.6
						v-2.4c0-0.7,0.5-1.2,1.2-1.2h20.4c2,0,3.6-1.6,3.6-3.6c0,0,0,0,0,0V75.4C139.7,73.5,138.1,71.8,136.1,71.8z"/>
					<path class="st0" d="M135.4,71.1H70.5c-2,0-3.6,1.6-3.6,3.6v46.8c0,2,1.6,3.6,3.6,3.6h20.4c0.7,0,1.2,0.5,1.2,1.2v2.4h21.6
						v-2.4c0-0.7,0.5-1.2,1.2-1.2h20.4c2,0,3.6-1.6,3.6-3.6c0,0,0,0,0,0V74.7C139,72.8,137.4,71.1,135.4,71.1
						C135.4,71.1,135.4,71.1,135.4,71.1z"/>
					<path class="st0" d="M134.7,70.4H69.8c-2,0-3.6,1.6-3.6,3.6v46.8c0,2,1.6,3.6,3.6,3.6h20.4c0.7,0,1.2,0.5,1.2,1.2v2.4h21.6
						v-2.4c0-0.7,0.5-1.2,1.2-1.2h20.4c2,0,3.6-1.6,3.6-3.6c0,0,0,0,0,0V74C138.3,72,136.7,70.4,134.7,70.4z"/>
					<path class="st0" d="M134,69.7H69.1c-2,0-3.6,1.6-3.6,3.6v46.8c0,2,1.6,3.6,3.6,3.6h20.4c0.7,0,1.2,0.5,1.2,1.2v2.4h21.6V125
						c0-0.7,0.5-1.2,1.2-1.2H134c2,0,3.6-1.6,3.6-3.6c0,0,0,0,0,0V73.3C137.6,71.3,136,69.7,134,69.7L134,69.7z"/>
					<path class="st0" d="M133.3,69H68.4c-2,0-3.6,1.6-3.6,3.6v46.8c0,2,1.6,3.6,3.6,3.6h20.4c0.7,0,1.2,0.5,1.2,1.2v2.4h21.6v-2.4
						c0-0.7,0.5-1.2,1.2-1.2h20.4c2,0,3.6-1.6,3.6-3.6c0,0,0,0,0,0V72.6C136.9,70.6,135.3,69,133.3,69C133.3,69,133.3,69,133.3,69z"
						/>
					<path class="st0" d="M132.6,68.3H67.7c-2,0-3.6,1.6-3.6,3.6v46.8c0,2,1.6,3.6,3.6,3.6h20.4c0.7,0,1.2,0.5,1.2,1.2v2.4h21.6
						v-2.4c0-0.7,0.5-1.2,1.2-1.2h20.4c2,0,3.6-1.6,3.6-3.6c0,0,0,0,0,0V71.9C136.2,69.9,134.5,68.3,132.6,68.3z"/>
					<path class="st0" d="M131.9,67.6H67c-2,0-3.6,1.6-3.6,3.6V118c0,2,1.6,3.6,3.6,3.6h20.4c0.7,0,1.2,0.5,1.2,1.2v2.4h21.6v-2.4
						c0-0.7,0.5-1.2,1.2-1.2h20.4c2,0,3.6-1.6,3.6-3.6c0,0,0,0,0,0V71.2C135.4,69.2,133.8,67.6,131.9,67.6
						C131.9,67.6,131.9,67.6,131.9,67.6z"/>
					<path class="st0" d="M131.1,66.9H66.3c-2,0-3.6,1.6-3.6,3.6v46.8c0,2,1.6,3.6,3.6,3.6h20.4c0.7,0,1.2,0.5,1.2,1.2v2.4h21.6
						v-2.4c0-0.7,0.5-1.2,1.2-1.2h20.4c2,0,3.6-1.6,3.6-3.6c0,0,0,0,0,0V70.5C134.7,68.5,133.1,66.9,131.1,66.9L131.1,66.9z"/>
					<path class="st0" d="M130.4,66.2H65.6c-2,0-3.6,1.6-3.6,3.6v46.8c0,2,1.6,3.6,3.6,3.6H86c0.7,0,1.2,0.5,1.2,1.2v2.4h21.6v-2.4
						c0-0.7,0.5-1.2,1.2-1.2h20.4c2,0,3.6-1.6,3.6-3.6c0,0,0,0,0,0V69.8C134,67.8,132.4,66.2,130.4,66.2L130.4,66.2z"/>
					<path class="st0" d="M129.7,65.5H64.9c-2,0-3.6,1.6-3.6,3.6v46.8c0,2,1.6,3.6,3.6,3.6h20.4c0.7,0,1.2,0.5,1.2,1.2v2.4h21.6
						v-2.4c0-0.7,0.5-1.2,1.2-1.2h20.4c2,0,3.6-1.6,3.6-3.6c0,0,0,0,0,0V69.1C133.3,67.1,131.7,65.5,129.7,65.5
						C129.7,65.5,129.7,65.5,129.7,65.5z"/>
					<path class="st0" d="M129,64.8H64.2c-2,0-3.6,1.6-3.6,3.6v46.8c0,2,1.6,3.6,3.6,3.6h20.4c0.7,0,1.2,0.5,1.2,1.2v2.4h21.6V120
						c0-0.7,0.5-1.2,1.2-1.2H129c2,0,3.6-1.6,3.6-3.6c0,0,0,0,0,0V68.4C132.6,66.4,131,64.8,129,64.8L129,64.8z"/>
					<path class="st0" d="M128.3,64.1H63.5c-2,0-3.6,1.6-3.6,3.6v46.8c0,2,1.6,3.6,3.6,3.6h20.4c0.7,0,1.2,0.5,1.2,1.2v2.4h21.6
						v-2.4c0-0.7,0.5-1.2,1.2-1.2h20.4c2,0,3.6-1.6,3.6-3.6c0,0,0,0,0,0V67.7C131.9,65.7,130.3,64.1,128.3,64.1z"/>
					<path class="st0" d="M127.6,63.4H62.7c-2,0-3.6,1.6-3.6,3.6v46.8c0,2,1.6,3.6,3.6,3.6h20.4c0.7,0,1.2,0.5,1.2,1.2v2.4H106v-2.4
						c0-0.7,0.5-1.2,1.2-1.2h20.4c2,0,3.6-1.6,3.6-3.6c0,0,0,0,0,0V67C131.2,65,129.6,63.4,127.6,63.4
						C127.6,63.4,127.6,63.4,127.6,63.4z"/>
					<path class="st0" d="M126.9,62.7H62c-2,0-3.6,1.6-3.6,3.6l0,0v46.8c0,2,1.6,3.6,3.6,3.6h20.5c0.7,0,1.2,0.5,1.2,1.2v2.4h21.6
						v-2.4c0-0.7,0.5-1.2,1.2-1.2h20.4c2,0,3.6-1.6,3.6-3.6c0,0,0,0,0,0V66.3C130.5,64.3,128.9,62.7,126.9,62.7z"/>
					<path class="st0" d="M126.2,62H61.3c-2,0-3.6,1.6-3.6,3.6v46.8c0,2,1.6,3.6,3.6,3.6h20.4c0.7,0,1.2,0.5,1.2,1.2v2.4h21.6v-2.4
						c0-0.7,0.5-1.2,1.2-1.2h20.4c2,0,3.6-1.6,3.6-3.6c0,0,0,0,0,0V65.6C129.8,63.6,128.2,62,126.2,62z"/>
					<path class="st0" d="M125.5,61.2H60.6c-2,0-3.6,1.6-3.6,3.6v46.8c0,2,1.6,3.6,3.6,3.6H81c0.7,0,1.2,0.5,1.2,1.2v2.4h21.6v-2.4
						c0-0.7,0.5-1.2,1.2-1.2h20.5c2,0,3.6-1.6,3.6-3.6c0,0,0,0,0,0V64.8C129.1,62.9,127.5,61.2,125.5,61.2
						C125.5,61.2,125.5,61.2,125.5,61.2z"/>
					<path class="st0" d="M124.8,60.5H59.9c-2,0-3.6,1.6-3.6,3.6V111c0,2,1.6,3.6,3.6,3.6h20.4c0.7,0,1.2,0.5,1.2,1.2v2.4h21.6v-2.4
						c0-0.7,0.5-1.2,1.2-1.2h20.4c2,0,3.6-1.6,3.6-3.6V64.1C128.4,62.2,126.8,60.5,124.8,60.5z"/>
					<path class="st0" d="M124.1,59.8H59.2c-2,0-3.6,1.6-3.6,3.6v46.8c0,2,1.6,3.6,3.6,3.6h20.4c0.7,0,1.2,0.5,1.2,1.2v2.4h21.6
						v-2.4c0-0.7,0.5-1.2,1.2-1.2h20.4c2,0,3.6-1.6,3.6-3.6V63.4C127.7,61.5,126.1,59.8,124.1,59.8
						C124.1,59.8,124.1,59.8,124.1,59.8z"/>
					<path class="st0" d="M123.4,59.1H58.5c-2,0-3.6,1.6-3.6,3.6v46.9c0,2,1.6,3.6,3.6,3.6h20.4c0.7,0,1.2,0.5,1.2,1.2v2.4h21.6
						v-2.4c0-0.7,0.5-1.2,1.2-1.2h20.4c2,0,3.6-1.6,3.6-3.6V62.7C127,60.7,125.4,59.1,123.4,59.1z"/>
					<path class="st0" d="M122.7,58.4H57.8c-2,0-3.6,1.6-3.6,3.6v46.8c0,2,1.6,3.6,3.6,3.6h20.4c0.7,0,1.2,0.5,1.2,1.2v2.4H101v-2.4
						c0-0.7,0.5-1.2,1.2-1.2h20.4c2,0,3.6-1.6,3.6-3.6V62C126.2,60,124.6,58.4,122.7,58.4z"/>
					<path class="st0" d="M122,57.7H57.1c-2,0-3.6,1.6-3.6,3.6v46.8c0,2,1.6,3.6,3.6,3.6h20.4c0.7,0,1.2,0.5,1.2,1.2v2.4h21.6V113
						c0-0.7,0.5-1.2,1.2-1.2H122c2,0,3.6-1.6,3.6-3.6V61.3C125.6,59.3,124,57.7,122,57.7z"/>
					<path class="st0" d="M121.3,57H56.4c-2,0-3.6,1.6-3.6,3.6v46.8c0,2,1.6,3.6,3.6,3.6h20.4c0.7,0,1.2,0.5,1.2,1.2v2.4h21.6v-2.4
						c0-0.7,0.5-1.2,1.2-1.2h20.4c2,0,3.6-1.6,3.6-3.6V60.6C124.9,58.6,123.3,57,121.3,57C121.3,57,121.3,57,121.3,57z"/>
					<path class="st0" d="M120.6,56.3H55.7c-2,0-3.6,1.6-3.6,3.6v46.9c0,2,1.6,3.6,3.6,3.6h20.4c0.7,0,1.2,0.5,1.2,1.2v2.5h21.6
						v-2.4c0-0.7,0.5-1.2,1.2-1.2h20.4c2,0,3.6-1.6,3.6-3.6V59.9C124.2,57.9,122.5,56.3,120.6,56.3
						C120.6,56.3,120.6,56.3,120.6,56.3z"/>
					<path class="st0" d="M119.8,55.6H55c-2,0-3.6,1.6-3.6,3.6V106c0,2,1.6,3.6,3.6,3.6h20.4c0.7,0,1.2,0.5,1.2,1.2v2.4h21.6v-2.4
						c0-0.7,0.5-1.2,1.2-1.2h20.4c2,0,3.6-1.6,3.6-3.6V59.2C123.4,57.2,121.8,55.6,119.8,55.6z"/>
					<path class="st0" d="M119.1,54.9H54.3c-2,0-3.6,1.6-3.6,3.6v46.8c0,2,1.6,3.6,3.6,3.6h20.4c0.7,0,1.2,0.5,1.2,1.2v2.4h21.6
						v-2.4c0-0.7,0.5-1.2,1.2-1.2h20.4c2,0,3.6-1.6,3.6-3.6V58.5C122.7,56.5,121.1,54.9,119.1,54.9
						C119.1,54.9,119.1,54.9,119.1,54.9z"/>
					<path class="st0" d="M118.4,54.2H53.6c-2,0-3.6,1.6-3.6,3.6v46.9c0,2,1.6,3.6,3.6,3.6H74c0.7,0,1.2,0.5,1.2,1.2v2.4h21.6v-2.4
						c0-0.7,0.5-1.2,1.2-1.2h20.4c2,0,3.6-1.6,3.6-3.6V57.8C122,55.8,120.4,54.2,118.4,54.2z"/>
					<path class="st0" d="M117.7,53.5H52.9c-2,0-3.6,1.6-3.6,3.6v46.8c0,2,1.6,3.6,3.6,3.6h20.4c0.7,0,1.2,0.5,1.2,1.2v2.4h21.6
						v-2.4c0-0.7,0.5-1.2,1.2-1.2h20.4c2,0,3.6-1.6,3.6-3.6V57.1C121.3,55.1,119.7,53.5,117.7,53.5z"/>
					<path class="st0" d="M117,52.8H52.2c-2,0-3.6,1.6-3.6,3.6v46.9c0,2,1.6,3.6,3.6,3.6h20.4c0.7,0,1.2,0.5,1.2,1.2v2.4h21.6V108
						c0-0.7,0.5-1.2,1.2-1.2H117c2,0,3.6-1.6,3.6-3.6V56.4C120.6,54.4,119,52.8,117,52.8C117,52.8,117,52.8,117,52.8z"/>
					<path class="st0" d="M116.3,52.1H51.5c-2,0-3.6,1.6-3.6,3.6v46.8c0,2,1.6,3.6,3.6,3.6h20.4c0.7,0,1.2,0.5,1.2,1.2v2.4h21.6
						v-2.4c0-0.7,0.5-1.2,1.2-1.2h20.4c2,0,3.6-1.6,3.6-3.6V55.7C119.9,53.7,118.3,52.1,116.3,52.1z"/>
					<path class="st0" d="M115.6,51.4H50.7c-2,0-3.6,1.6-3.6,3.6v46.8c0,2,1.6,3.6,3.6,3.6h20.4c0.7,0,1.2,0.5,1.2,1.2v2.4H94v-2.4
						c0-0.7,0.5-1.2,1.2-1.2h20.4c2,0,3.6-1.6,3.6-3.6V55C119.2,53,117.6,51.4,115.6,51.4C115.6,51.4,115.6,51.4,115.6,51.4z"/>
					<path class="st0" d="M114.9,50.7H50c-2,0-3.6,1.6-3.6,3.6v46.8c0,2,1.6,3.6,3.6,3.6h20.5c0.7,0,1.2,0.5,1.2,1.2v2.4h21.6v-2.4
						c0-0.7,0.5-1.2,1.2-1.2h20.4c2,0,3.6-1.6,3.6-3.6V54.3C118.5,52.3,116.9,50.7,114.9,50.7C114.9,50.7,114.9,50.7,114.9,50.7z"/>
					<path class="st0" d="M114.2,50H49.3c-2,0-3.6,1.6-3.6,3.6v46.9c0,2,1.6,3.6,3.6,3.6h20.4c0.7,0,1.2,0.5,1.2,1.2v2.4h21.6v-2.4
						c0-0.7,0.5-1.2,1.2-1.2h20.4c2,0,3.6-1.6,3.6-3.6V53.5C117.8,51.6,116.2,50,114.2,50z"/>
					<path class="st0" d="M113.5,49.2H48.6c-2,0-3.6,1.6-3.6,3.6v46.9c0,2,1.6,3.6,3.6,3.6H69c0.7,0,1.2,0.5,1.2,1.2v2.4h21.7v-2.4
						c0-0.7,0.5-1.2,1.2-1.2h20.4c2,0,3.6-1.6,3.6-3.6V52.8C117.1,50.9,115.5,49.2,113.5,49.2C113.5,49.2,113.5,49.2,113.5,49.2z"/>
					<path class="st0" d="M112.8,48.5H47.9c-2,0-3.6,1.6-3.6,3.6V99c0,2,1.6,3.6,3.6,3.6h20.4c0.7,0,1.2,0.5,1.2,1.2v2.4h21.6v-2.4
						c0-0.7,0.5-1.2,1.2-1.2h20.4c2,0,3.6-1.6,3.6-3.6V52.1C116.4,50.2,114.8,48.5,112.8,48.5z"/>
					<path class="st0" d="M112.1,47.8H47.2c-2,0-3.6,1.6-3.6,3.6v46.9c0,2,1.6,3.6,3.6,3.6h20.4c0.7,0,1.2,0.5,1.2,1.2v2.4h21.6
						v-2.4c0-0.7,0.5-1.2,1.2-1.2h20.4c2,0,3.6-1.6,3.6-3.6V51.4C115.7,49.4,114.1,47.8,112.1,47.8z"/>
					<path class="st0" d="M111.4,47.1H46.5c-2,0-3.6,1.6-3.6,3.6v46.9c0,2,1.6,3.6,3.6,3.6h20.4c0.7,0,1.2,0.5,1.2,1.2v2.4h21.6
						v-2.4c0-0.7,0.5-1.2,1.2-1.2h20.4c2,0,3.6-1.6,3.6-3.6V50.7C115,48.7,113.4,47.1,111.4,47.1C111.4,47.1,111.4,47.1,111.4,47.1z
						"/>
					<path class="st0" d="M110.7,46.4H45.8c-2,0-3.6,1.6-3.6,3.6v46.9c0,2,1.6,3.6,3.6,3.6h20.4c0.7,0,1.2,0.5,1.2,1.2v2.4H89v-2.4
						c0-0.7,0.5-1.2,1.2-1.2h20.4c2,0,3.6-1.6,3.6-3.6V50C114.2,48,112.6,46.4,110.7,46.4z"/>
					<path class="st0" d="M110,45.7H45.1c-2,0-3.6,1.6-3.6,3.6v46.9c0,2,1.6,3.6,3.6,3.6h20.4c0.7,0,1.2,0.5,1.2,1.2v2.4h21.6V101
						c0-0.7,0.5-1.2,1.2-1.2H110c2,0,3.6-1.6,3.6-3.6V49.3C113.6,47.3,112,45.7,110,45.7C110,45.7,110,45.7,110,45.7z"/>
					<path class="st0" d="M109.3,45H44.4c-2,0-3.6,1.6-3.6,3.6v46.9c0,2,1.6,3.6,3.6,3.6h20.4c0.7,0,1.2,0.5,1.2,1.2v2.4h21.6v-2.4
						c0-0.7,0.5-1.2,1.2-1.2h20.4c2,0,3.6-1.6,3.6-3.6V48.6C112.9,46.6,111.2,45,109.3,45C109.3,45,109.3,45,109.3,45z"/>
					<path class="st0" d="M108.6,44.3H43.7c-2,0-3.6,1.6-3.6,3.6v46.9c0,2,1.6,3.6,3.6,3.6h20.4c0.7,0,1.2,0.5,1.2,1.2v2.5h21.6
						v-2.4c0-0.7,0.5-1.2,1.2-1.2h20.4c2,0,3.6-1.6,3.6-3.6V47.9C112.1,45.9,110.5,44.3,108.6,44.3z"/>
					<path class="st0" d="M107.8,43.6H43c-2,0-3.6,1.6-3.6,3.6V94c0,2,1.6,3.6,3.6,3.6h20.4c0.7,0,1.2,0.5,1.2,1.2v2.4h21.6v-2.4
						c0-0.7,0.5-1.2,1.2-1.2h20.4c2,0,3.6-1.6,3.6-3.6V47.2C111.4,45.2,109.8,43.6,107.8,43.6C107.8,43.6,107.8,43.6,107.8,43.6z"/>
					<path class="st0" d="M107.1,42.9H42.3c-2,0-3.6,1.6-3.6,3.6v46.8c0,2,1.6,3.6,3.6,3.6h20.4c0.7,0,1.2,0.5,1.2,1.2v2.4h21.6
						v-2.4c0-0.7,0.5-1.2,1.2-1.2h20.4c2,0,3.6-1.6,3.6-3.6V46.5C110.7,44.5,109.1,42.9,107.1,42.9z"/>
					<path class="st0" d="M106.4,42.2H41.6c-2,0-3.6,1.6-3.6,3.6v46.9c0,2,1.6,3.6,3.6,3.6H62c0.7,0,1.2,0.5,1.2,1.2v2.4h21.6v-2.4
						c0-0.7,0.5-1.2,1.2-1.2h20.4c2,0,3.6-1.6,3.6-3.6V45.8C110,43.8,108.4,42.2,106.4,42.2C106.4,42.2,106.4,42.2,106.4,42.2z"/>
					<path class="st0" d="M105.7,41.5H40.8c-2,0-3.6,1.6-3.6,3.6v46.9c0,2,1.6,3.6,3.6,3.6h20.4c0.7,0,1.2,0.5,1.2,1.2v2.4h21.6
						v-2.4c0-0.7,0.5-1.2,1.2-1.2h20.4c2,0,3.6-1.6,3.6-3.6V45.1C109.3,43.1,107.7,41.5,105.7,41.5z"/>
					<path class="st0" d="M105,40.8H40.2c-2,0-3.6,1.6-3.6,3.6v46.9c0,2,1.6,3.6,3.6,3.6h20.4c0.7,0,1.2,0.5,1.2,1.2v2.4h21.6V96
						c0-0.7,0.5-1.2,1.2-1.2H105c2,0,3.6-1.6,3.6-3.6V44.4C108.6,42.4,107,40.8,105,40.8z"/>
					<rect x="57" y="99.6" class="st0" width="31.2" height="2.4"/>
					<path class="st0" d="M104.3,40.1H39.4c-2,0-3.6,1.6-3.6,3.6v46.9c0,2,1.6,3.6,3.6,3.6h20.4c0.7,0,1.2,0.5,1.2,1.2v2.4h21.6
						v-2.4c0-0.7,0.5-1.2,1.2-1.2h20.4c2,0,3.6-1.6,3.6-3.6V43.7C107.9,41.7,106.3,40.1,104.3,40.1
						C104.3,40.1,104.3,40.1,104.3,40.1z"/>
					<rect x="56.3" y="98.9" class="st0" width="31.2" height="2.4"/>
					<path class="st0" d="M103.6,39.4H38.7c-2,0-3.6,1.6-3.6,3.6v46.8c0,2,1.6,3.6,3.6,3.6h20.4c0.7,0,1.2,0.5,1.2,1.2V97H82v-2.4
						c0-0.7,0.5-1.2,1.2-1.2h20.4c2,0,3.6-1.6,3.6-3.6V43C107.2,41,105.6,39.4,103.6,39.4C103.6,39.4,103.6,39.4,103.6,39.4z"/>
					<rect x="55.5" y="98.2" class="st0" width="31.2" height="2.4"/>
					<path class="st0" d="M102.9,38.7H38c-2,0-3.6,1.6-3.6,3.6v46.9c0,2,1.6,3.6,3.6,3.6h20.5c0.7,0,1.2,0.5,1.2,1.2v2.4h21.6v-2.4
						c0-0.7,0.5-1.2,1.2-1.2h20.4c2,0,3.6-1.6,3.6-3.6V42.2C106.5,40.3,104.9,38.7,102.9,38.7z"/>
					<rect x="54.8" y="97.5" class="st0" width="31.2" height="2.4"/>
					<path class="st0" d="M102.2,37.9H37.3c-2,0-3.6,1.6-3.6,3.6v46.9c0,2,1.6,3.6,3.6,3.6h20.4c0.7,0,1.2,0.5,1.2,1.2v2.4h21.6
						v-2.4c0-0.7,0.5-1.2,1.2-1.2h20.4c2,0,3.6-1.6,3.6-3.6V41.5C105.8,39.6,104.2,37.9,102.2,37.9
						C102.2,37.9,102.2,37.9,102.2,37.9z"/>
					<rect x="54.1" y="96.8" class="st0" width="31.2" height="2.4"/>
					<path class="st0" d="M101.5,37.2H36.6c-2,0-3.6,1.6-3.6,3.6v46.9c0,2,1.6,3.6,3.6,3.6H57c0.7,0,1.2,0.5,1.2,1.2v2.4h21.7v-2.4
						c0-0.7,0.5-1.2,1.2-1.2h20.4c2,0,3.6-1.6,3.6-3.6V40.8C105.1,38.9,103.5,37.2,101.5,37.2z"/>
					<rect x="53.4" y="96.1" class="st0" width="31.2" height="2.4"/>
					<path class="st0" d="M100.8,36.5H35.9c-2,0-3.6,1.6-3.6,3.6V87c0,2,1.6,3.6,3.6,3.6h20.4c0.7,0,1.2,0.5,1.2,1.2v2.4h21.6v-2.4
						c0-0.7,0.5-1.2,1.2-1.2h20.4c2,0,3.6-1.6,3.6-3.6V40.1C104.4,38.2,102.8,36.5,100.8,36.5C100.8,36.5,100.8,36.5,100.8,36.5z"/>
					<rect x="52.7" y="95.4" class="st0" width="31.2" height="2.4"/>
					<path class="st0" d="M100.1,35.8H35.2c-2,0-3.6,1.6-3.6,3.6v46.8c0,2,1.6,3.6,3.6,3.6h20.4c0.7,0,1.2,0.5,1.2,1.2v2.4h21.6
						v-2.4c0-0.7,0.5-1.2,1.2-1.2h20.4c2,0,3.6-1.6,3.6-3.6V39.4C103.7,37.4,102.1,35.8,100.1,35.8z"/>
					<rect x="52" y="94.7" class="st0" width="31.2" height="2.4"/>
					<path class="st0" d="M99.4,35.1H34.5c-2,0-3.6,1.6-3.6,3.6v46.9c0,2,1.6,3.6,3.6,3.6h20.4c0.7,0,1.2,0.5,1.2,1.2v2.4h21.6v-2.4
						c0-0.7,0.5-1.2,1.2-1.2h20.4c2,0,3.6-1.6,3.6-3.6V38.7C103,36.7,101.4,35.1,99.4,35.1L99.4,35.1z"/>
					<rect x="51.3" y="94" class="st0" width="31.2" height="2.4"/>
					<path class="st0" d="M98.7,34.4H33.8c-2,0-3.6,1.6-3.6,3.6v46.9c0,2,1.6,3.6,3.6,3.6h20.4c0.7,0,1.2,0.5,1.2,1.2v2.4H77v-2.4
						c0-0.7,0.5-1.2,1.2-1.2h20.5c2,0,3.6-1.6,3.6-3.6V38C102.3,36,100.6,34.4,98.7,34.4z"/>
					<rect x="50.6" y="93.3" class="st0" width="31.2" height="2.4"/>
					<path class="st0" d="M98,33.7H33.1c-2,0-3.6,1.6-3.6,3.6v46.9c0,2,1.6,3.6,3.6,3.6h20.4c0.7,0,1.2,0.5,1.2,1.2v2.4h21.6V89
						c0-0.7,0.5-1.2,1.2-1.2H98c2,0,3.6-1.6,3.6-3.6V37.3C101.6,35.3,100,33.7,98,33.7L98,33.7z"/>
					<rect x="49.9" y="92.6" class="st0" width="31.2" height="2.4"/>
					<path class="st0" d="M97.2,33H32.4c-2,0-3.6,1.6-3.6,3.6v46.9c0,2,1.6,3.6,3.6,3.6h20.4c0.7,0,1.2,0.5,1.2,1.2v2.4h21.6v-2.4
						c0-0.7,0.5-1.2,1.2-1.2h20.4c2,0,3.6-1.6,3.6-3.6V36.6C100.9,34.6,99.2,33,97.2,33C97.3,33,97.3,33,97.2,33z"/>
					<rect x="49.2" y="91.9" class="st0" width="31.2" height="2.4"/>
					<path class="st0" d="M96.6,32.3H31.7c-2,0-3.6,1.6-3.6,3.6v46.9c0,2,1.6,3.6,3.6,3.6h20.4c0.7,0,1.2,0.5,1.2,1.2V90h21.6v-2.4
						c0-0.7,0.5-1.2,1.2-1.2h20.4c2,0,3.6-1.6,3.6-3.6V35.9C100.2,33.9,98.5,32.3,96.6,32.3L96.6,32.3z"/>
					<rect x="48.5" y="91.2" class="st0" width="31.2" height="2.4"/>
					<path class="st0" d="M95.8,31.6H31c-2,0-3.6,1.6-3.6,3.6V82c0,2,1.6,3.6,3.6,3.6h20.4c0.7,0,1.2,0.5,1.2,1.2v2.4h21.6v-2.4
						c0-0.7,0.5-1.2,1.2-1.2h20.4c2,0,3.6-1.6,3.6-3.6V35.2C99.4,33.2,97.8,31.6,95.8,31.6z"/>
					<rect x="47.8" y="90.4" class="st0" width="31.2" height="2.4"/>
					<path class="st0" d="M95.1,30.9H30.3c-2,0-3.6,1.6-3.6,3.6l0,0v46.9c0,2,1.6,3.6,3.6,3.6h20.4c0.7,0,1.2,0.5,1.2,1.2v2.4h21.6
						v-2.4c0-0.7,0.5-1.2,1.2-1.2h20.4c2,0,3.6-1.6,3.6-3.6V34.5C98.7,32.5,97.1,30.9,95.1,30.9C95.1,30.9,95.1,30.9,95.1,30.9z"/>
					<rect x="47.1" y="89.8" class="st0" width="31.2" height="2.4"/>
					<path class="st0" d="M94.4,30.2H29.6c-2,0-3.6,1.6-3.6,3.6v46.8c0,2,1.6,3.6,3.6,3.6H50c0.7,0,1.2,0.5,1.2,1.2v2.4h21.6v-2.4
						c0-0.7,0.5-1.2,1.2-1.2h20.4c2,0,3.6-1.6,3.6-3.6V33.8C98,31.8,96.4,30.2,94.4,30.2z"/>
					<rect x="46.4" y="89" class="st0" width="31.2" height="2.4"/>
					<path class="st0" d="M93.7,29.5H28.9c-2,0-3.6,1.6-3.6,3.6l0,0v46.9c0,2,1.6,3.6,3.6,3.6h20.4c0.7,0,1.2,0.5,1.2,1.2v2.4h21.6
						v-2.4c0-0.7,0.5-1.2,1.2-1.2h20.4c2,0,3.6-1.6,3.6-3.6V33.1C97.3,31.1,95.7,29.5,93.7,29.5C93.7,29.5,93.7,29.5,93.7,29.5z"/>
					<rect x="45.7" y="88.3" class="st0" width="31.2" height="2.4"/>
					<path class="st0" d="M93,28.8H28.1c-2,0-3.6,1.6-3.6,3.6v46.9c0,2,1.6,3.6,3.6,3.6h20.4c0.7,0,1.2,0.5,1.2,1.2v2.4h21.6V84
						c0-0.7,0.5-1.2,1.2-1.2H93c2,0,3.6-1.6,3.6-3.6V32.4C96.6,30.4,95,28.8,93,28.8z"/>
					<rect x="45" y="87.6" class="st0" width="31.2" height="2.4"/>
					<path class="st0" d="M92.3,28.1H27.4c-2,0-3.6,1.6-3.6,3.6l0,0v46.9c0,2,1.6,3.6,3.6,3.6h20.4c0.7,0,1.2,0.5,1.2,1.2v2.4h21.6
						v-2.4c0-0.7,0.5-1.2,1.2-1.2h20.4c2,0,3.6-1.6,3.6-3.6V31.7C95.9,29.7,94.3,28.1,92.3,28.1z"/>
					<rect x="44.3" y="86.9" class="st0" width="31.2" height="2.4"/>
					<path class="st0" d="M91.6,27.4H26.7c-2,0-3.6,1.6-3.6,3.6l0,0v46.9c0,2,1.6,3.6,3.6,3.6h20.4c0.7,0,1.2,0.5,1.2,1.2V85H70
						v-2.4c0-0.7,0.5-1.2,1.2-1.2h20.4c2,0,3.6-1.6,3.6-3.6V31C95.2,29,93.6,27.4,91.6,27.4C91.6,27.4,91.6,27.3,91.6,27.4z"/>
					<rect x="43.5" y="86.2" class="st0" width="31.2" height="2.4"/>
					<path class="st0" d="M90.9,26.6H26c-2,0-3.6,1.6-3.6,3.6l0,0v46.8c0,2,1.6,3.6,3.6,3.6h20.5c0.7,0,1.2,0.5,1.2,1.2v2.4h21.6
						v-2.4c0-0.7,0.5-1.2,1.2-1.2h20.4c2,0,3.6-1.6,3.6-3.6V30.2C94.5,28.3,92.9,26.6,90.9,26.6z"/>
					<rect x="42.8" y="85.5" class="st0" width="31.2" height="2.4"/>
					<path class="st0" d="M90.2,25.9H25.3c-2,0-3.6,1.6-3.6,3.6l0,0v46.9c0,2,1.6,3.6,3.6,3.6h20.4c0.7,0,1.2,0.5,1.2,1.2v2.4h21.6
						v-2.4c0-0.7,0.5-1.2,1.2-1.2h20.4c2,0,3.6-1.6,3.6-3.6V29.5C93.8,27.6,92.2,25.9,90.2,25.9C90.2,25.9,90.2,25.9,90.2,25.9z"/>
					<rect x="42.1" y="84.8" class="st0" width="31.2" height="2.4"/>
					<path class="st0" d="M89.5,25.2H24.6c-2,0-3.6,1.6-3.6,3.6l0,0v46.9c0,2,1.6,3.6,3.6,3.6H45c0.7,0,1.2,0.5,1.2,1.2v2.4h21.7
						v-2.4c0-0.7,0.5-1.2,1.2-1.2h20.4c2,0,3.6-1.6,3.6-3.6V28.8C93.1,26.9,91.5,25.2,89.5,25.2z"/>
					<rect x="41.4" y="84.1" class="st0" width="31.2" height="2.4"/>
					<path class="st0" d="M88.8,24.5H23.9c-2,0-3.6,1.6-3.6,3.6l0,0V75c0,2,1.6,3.6,3.6,3.6h20.4c0.7,0,1.2,0.5,1.2,1.2v2.4h21.6
						v-2.4c0-0.7,0.5-1.2,1.2-1.2h20.4c2,0,3.6-1.6,3.6-3.6V28.1C92.4,26.1,90.8,24.5,88.8,24.5z"/>
					<rect x="40.7" y="83.4" class="st0" width="31.2" height="2.4"/>
					<path class="st0" d="M88.1,23.8H23.2c-2,0-3.6,1.6-3.6,3.6l0,0v46.9c0,2,1.6,3.6,3.6,3.6h20.4c0.7,0,1.2,0.5,1.2,1.2v2.4h21.6
						v-2.4c0-0.7,0.5-1.2,1.2-1.2h20.4c2,0,3.6-1.6,3.6-3.6V27.4C91.7,25.4,90.1,23.8,88.1,23.8C88.1,23.8,88.1,23.8,88.1,23.8z"/>
					<rect x="40" y="82.7" class="st0" width="31.2" height="2.4"/>
					<path class="st0" d="M87.4,23.1H22.5c-2,0-3.6,1.6-3.6,3.6l0,0v46.8c0,2,1.6,3.6,3.6,3.6h20.4c0.7,0,1.2,0.5,1.2,1.2v2.4h21.6
						v-2.4c0-0.7,0.5-1.2,1.2-1.2h20.4c2,0,3.6-1.6,3.6-3.6V26.7C91,24.7,89.4,23.1,87.4,23.1z"/>
					<rect x="39.3" y="82" class="st0" width="31.2" height="2.4"/>
					<path class="st0" d="M86.7,22.4H21.8c-2,0-3.6,1.6-3.6,3.6l0,0v46.9c0,2,1.6,3.6,3.6,3.6h20.4c0.7,0,1.2,0.5,1.2,1.2v2.4H65
						v-2.4c0-0.7,0.5-1.2,1.2-1.2h20.5c2,0,3.6-1.6,3.6-3.6V26C90.3,24,88.6,22.4,86.7,22.4z"/>
					<rect x="38.6" y="81.3" class="st0" width="31.2" height="2.4"/>
					<path class="st0" d="M86,21.7H21.1c-2,0-3.6,1.6-3.6,3.6l0,0v46.9c0,2,1.6,3.6,3.6,3.6h20.4c0.7,0,1.2,0.5,1.2,1.2v2.4h21.6V77
						c0-0.7,0.5-1.2,1.2-1.2H86c2,0,3.6-1.6,3.6-3.6V25.3C89.6,23.3,88,21.7,86,21.7C86,21.7,86,21.7,86,21.7z"/>
					<rect x="37.9" y="80.6" class="st0" width="31.2" height="2.4"/>
					<path class="st0" d="M85.2,21H20.4c-2,0-3.6,1.6-3.6,3.6l0,0v46.8c0,2,1.6,3.6,3.6,3.6h20.4c0.7,0,1.2,0.5,1.2,1.2v2.4h21.6
						v-2.4c0-0.7,0.5-1.2,1.2-1.2h20.4c2,0,3.6-1.6,3.6-3.6V24.6C88.8,22.6,87.2,21,85.2,21z"/>
					<rect x="37.2" y="79.9" class="st0" width="31.2" height="2.4"/>
					<path class="st0" d="M84.5,20.3H19.7c-2,0-3.6,1.6-3.6,3.6l0,0v46.9c0,2,1.6,3.6,3.6,3.6h20.4c0.7,0,1.2,0.5,1.2,1.2V78h21.6
						v-2.4c0-0.7,0.5-1.2,1.2-1.2h20.4c2,0,3.6-1.6,3.6-3.6V23.9C88.1,21.9,86.5,20.3,84.5,20.3C84.5,20.3,84.5,20.3,84.5,20.3z"/>
					<rect x="36.5" y="79.2" class="st0" width="31.2" height="2.4"/>
					<path class="st0" d="M83.8,19.6H19c-2,0-3.6,1.6-3.6,3.6l0,0V70c0,2,1.6,3.6,3.6,3.6h20.4c0.7,0,1.2,0.5,1.2,1.2v2.4h21.6v-2.4
						c0-0.7,0.5-1.2,1.2-1.2h20.4c2,0,3.6-1.6,3.6-3.6V23.2C87.4,21.2,85.8,19.6,83.8,19.6z"/>
					<rect x="35.8" y="78.4" class="st0" width="31.2" height="2.4"/>
				</g>
			</g>
		</g>
		<rect x="18.8" y="23.1" class="st3" width="64.8" height="46.7"/>
	</g>
</g>
</svg>
