<svg id="Ebene_1" data-name="Ebene 1" xmlns="http://www.w3.org/2000/svg" xmlns:xlink="http://www.w3.org/1999/xlink" viewBox="0 0 100 100"><defs><style>.cls-1{fill:none;}.cls-2{clip-path:url(#clip-path);}.cls-3{opacity:0.15;}.cls-4{fill:#149cd6;}.cls-5{fill:#fff;}</style><clipPath id="clip-path"><rect class="cls-1" width="100" height="100"/></clipPath></defs><title>home-7</title><g class="cls-2"><g class="cls-3"><path class="cls-4" d="M135.62,88.43H106.95A7.57,7.57,0,0,0,99.38,96v8.25h0a8.37,8.37,0,0,0,1.3,4.45,13.93,13.93,0,0,0,2.77,3.16l.08.07,9.78,9.37-9.78,9.37-.08.07c-1.89,1.7-4.06,4.1-4.06,7.61h0v8.25a7.57,7.57,0,0,0,7.57,7.57h28.67a7.57,7.57,0,0,0,7.57-7.57v-8.25h0a8.37,8.37,0,0,0-1.3-4.45,14.74,14.74,0,0,0-2.77-3.16l-.08-.07-9.78-9.37,9.78-9.37.08-.07c1.89-1.7,4.06-4.1,4.06-7.61h0V96A7.58,7.58,0,0,0,135.62,88.43Z"/><path class="cls-4" d="M134.91,87.72H106.24a7.57,7.57,0,0,0-7.57,7.56v8.25h0A8.37,8.37,0,0,0,100,108a13.93,13.93,0,0,0,2.77,3.16l.08.07,9.78,9.37-9.78,9.37-.08.07c-1.89,1.7-4.06,4.1-4.06,7.61h0v8.25a7.57,7.57,0,0,0,7.57,7.57h28.67a7.57,7.57,0,0,0,7.57-7.57v-8.25h0a8.37,8.37,0,0,0-1.3-4.45,14.74,14.74,0,0,0-2.77-3.16l-.08-.07-9.78-9.37,9.78-9.37.08-.07c1.89-1.7,4.06-4.1,4.06-7.61h0V95.28A7.58,7.58,0,0,0,134.91,87.72Z"/><path class="cls-4" d="M134.2,87H105.53A7.57,7.57,0,0,0,98,94.57v8.25h0a8.37,8.37,0,0,0,1.3,4.45,13.93,13.93,0,0,0,2.77,3.16l.08.07,9.78,9.37-9.78,9.37-.08.07c-1.89,1.7-4.06,4.1-4.06,7.61h0v8.25a7.57,7.57,0,0,0,7.57,7.57H134.2a7.57,7.57,0,0,0,7.57-7.57v-8.25h0a8.37,8.37,0,0,0-1.3-4.45,14.74,14.74,0,0,0-2.77-3.16l-.08-.07-9.78-9.37,9.78-9.37.08-.07c1.89-1.7,4.06-4.1,4.06-7.61h0V94.57A7.58,7.58,0,0,0,134.2,87Z"/><path class="cls-4" d="M133.49,86.3H104.82a7.57,7.57,0,0,0-7.57,7.56v8.25h0a8.37,8.37,0,0,0,1.3,4.45,13.93,13.93,0,0,0,2.77,3.16l.08.07,9.78,9.37-9.78,9.37-.08.07c-1.89,1.7-4.06,4.1-4.06,7.61h0v8.25a7.57,7.57,0,0,0,7.57,7.57h28.67a7.57,7.57,0,0,0,7.57-7.57V136.2h0a8.37,8.37,0,0,0-1.3-4.45,14.74,14.74,0,0,0-2.77-3.16l-.08-.07-9.78-9.37,9.78-9.37.08-.07c1.89-1.7,4.06-4.1,4.06-7.61h0V93.86A7.58,7.58,0,0,0,133.49,86.3Z"/><path class="cls-4" d="M132.78,85.59H104.11a7.57,7.57,0,0,0-7.57,7.56v8.25h0a8.37,8.37,0,0,0,1.3,4.45,13.93,13.93,0,0,0,2.77,3.16l.08.07,9.78,9.37-9.78,9.37-.08.07c-1.89,1.7-4.06,4.1-4.06,7.61h0v8.25a7.57,7.57,0,0,0,7.57,7.57h28.67a7.57,7.57,0,0,0,7.57-7.57v-8.25h0A8.37,8.37,0,0,0,139,131a14.74,14.74,0,0,0-2.77-3.16l-.08-.07-9.78-9.37,9.78-9.37.08-.07c1.89-1.7,4.06-4.1,4.06-7.61h0V93.16A7.58,7.58,0,0,0,132.78,85.59Z"/><path class="cls-4" d="M132.07,84.88H103.4a7.57,7.57,0,0,0-7.57,7.56v8.25h0a8.37,8.37,0,0,0,1.3,4.45,13.93,13.93,0,0,0,2.77,3.16l.08.07,9.78,9.37L100,127.11l-.08.07c-1.89,1.7-4.06,4.1-4.06,7.61h0V143a7.57,7.57,0,0,0,7.57,7.57h28.67a7.57,7.57,0,0,0,7.57-7.57v-8.25h0a8.37,8.37,0,0,0-1.3-4.45,14.74,14.74,0,0,0-2.77-3.16l-.08-.07-9.78-9.37,9.78-9.37.08-.07c1.89-1.7,4.06-4.1,4.06-7.61h0V92.45A7.58,7.58,0,0,0,132.07,84.88Z"/><path class="cls-4" d="M131.36,84.17H102.69a7.57,7.57,0,0,0-7.57,7.56V100h0a8.37,8.37,0,0,0,1.3,4.45,13.93,13.93,0,0,0,2.77,3.16l.08.07,9.78,9.37-9.78,9.37-.08.07c-1.89,1.7-4.06,4.1-4.06,7.61h0v8.25a7.57,7.57,0,0,0,7.57,7.57h28.67a7.57,7.57,0,0,0,7.57-7.57v-8.25h0a8.37,8.37,0,0,0-1.3-4.45,14.74,14.74,0,0,0-2.77-3.16l-.08-.07L125,117l9.78-9.37.08-.07c1.89-1.7,4.06-4.1,4.06-7.61h0V91.74A7.58,7.58,0,0,0,131.36,84.17Z"/><path class="cls-4" d="M130.66,83.46H102A7.57,7.57,0,0,0,94.42,91v8.25h0a8.37,8.37,0,0,0,1.3,4.45,13.93,13.93,0,0,0,2.77,3.16l.08.07,9.78,9.37-9.78,9.37-.08.07c-1.89,1.7-4.06,4.1-4.06,7.61h0v8.25a7.57,7.57,0,0,0,7.57,7.57h28.67a7.57,7.57,0,0,0,7.57-7.57v-8.25h0a8.37,8.37,0,0,0-1.3-4.45,14.74,14.74,0,0,0-2.77-3.16l-.08-.07-9.78-9.37,9.78-9.37.08-.07c1.89-1.7,4.06-4.1,4.06-7.61h0V91A7.58,7.58,0,0,0,130.66,83.46Z"/><path class="cls-4" d="M129.95,82.76H101.28a7.57,7.57,0,0,0-7.57,7.56v8.25h0A8.37,8.37,0,0,0,95,103a13.93,13.93,0,0,0,2.77,3.16l.08.07,9.78,9.37L97.85,125l-.08.07c-1.89,1.7-4.06,4.1-4.06,7.61h0v8.25a7.57,7.57,0,0,0,7.57,7.57h28.67a7.57,7.57,0,0,0,7.57-7.57v-8.25h0a8.37,8.37,0,0,0-1.3-4.45,14.74,14.74,0,0,0-2.77-3.16l-.08-.07-9.78-9.37,9.78-9.37.08-.07c1.89-1.7,4.06-4.1,4.06-7.61h0V90.32A7.58,7.58,0,0,0,129.95,82.76Z"/><path class="cls-4" d="M129.24,82H100.57A7.57,7.57,0,0,0,93,89.61v8.25h0a8.37,8.37,0,0,0,1.3,4.45,13.93,13.93,0,0,0,2.77,3.16l.08.07,9.78,9.37-9.78,9.37-.08.07c-1.89,1.7-4.06,4.1-4.06,7.61h0v8.25a7.57,7.57,0,0,0,7.57,7.57h28.67a7.57,7.57,0,0,0,7.57-7.57v-8.25h0a8.37,8.37,0,0,0-1.3-4.45,14.74,14.74,0,0,0-2.77-3.16l-.08-.07-9.78-9.37,9.78-9.37.08-.07c1.89-1.7,4.06-4.1,4.06-7.61h0V89.61A7.58,7.58,0,0,0,129.24,82Z"/><path class="cls-4" d="M128.53,81.34H99.86a7.57,7.57,0,0,0-7.57,7.56v8.25h0a8.37,8.37,0,0,0,1.3,4.45,13.93,13.93,0,0,0,2.77,3.16l.08.07,9.78,9.37-9.78,9.37-.08.07c-1.89,1.7-4.06,4.1-4.06,7.61h0v8.25a7.57,7.57,0,0,0,7.57,7.57h28.67a7.57,7.57,0,0,0,7.57-7.57v-8.25h0a8.37,8.37,0,0,0-1.3-4.45,14.74,14.74,0,0,0-2.77-3.16l-.08-.07-9.78-9.37,9.78-9.37.08-.07c1.89-1.7,4.06-4.1,4.06-7.61h0V88.9A7.58,7.58,0,0,0,128.53,81.34Z"/><path class="cls-4" d="M127.82,80.63H99.15a7.57,7.57,0,0,0-7.57,7.56v8.25h0a8.37,8.37,0,0,0,1.3,4.45,13.93,13.93,0,0,0,2.77,3.16l.08.07,9.78,9.37-9.78,9.37-.08.07c-1.89,1.7-4.06,4.1-4.06,7.61h0v8.25a7.57,7.57,0,0,0,7.57,7.57h28.67a7.57,7.57,0,0,0,7.57-7.57v-8.25h0a8.37,8.37,0,0,0-1.3-4.45,14.74,14.74,0,0,0-2.77-3.16l-.08-.07-9.78-9.37,9.78-9.37.08-.07c1.89-1.7,4.06-4.1,4.06-7.61h0V88.19A7.58,7.58,0,0,0,127.82,80.63Z"/><path class="cls-4" d="M127.11,79.92H98.44a7.57,7.57,0,0,0-7.57,7.56v8.25h0a8.37,8.37,0,0,0,1.3,4.45,13.93,13.93,0,0,0,2.77,3.16l.08.07,9.78,9.37L95,122.14l-.08.07c-1.89,1.7-4.06,4.1-4.06,7.61h0v8.25a7.57,7.57,0,0,0,7.57,7.57h28.67a7.57,7.57,0,0,0,7.57-7.57v-8.25h0a8.37,8.37,0,0,0-1.3-4.45,14.74,14.74,0,0,0-2.77-3.16l-.08-.07-9.78-9.37,9.78-9.37.08-.07c1.89-1.7,4.06-4.1,4.06-7.61h0V87.49A7.58,7.58,0,0,0,127.11,79.92Z"/><path class="cls-4" d="M126.4,79.21H97.73a7.57,7.57,0,0,0-7.57,7.56V95h0a8.37,8.37,0,0,0,1.3,4.45,13.93,13.93,0,0,0,2.77,3.16l.08.07,9.78,9.37-9.78,9.37-.08.07c-1.89,1.7-4.06,4.1-4.06,7.61h0v8.25a7.57,7.57,0,0,0,7.57,7.57H126.4a7.57,7.57,0,0,0,7.57-7.57v-8.25h0a8.37,8.37,0,0,0-1.3-4.45,14.74,14.74,0,0,0-2.77-3.16l-.08-.07L120,112.07l9.78-9.37.08-.07c1.89-1.7,4.06-4.1,4.06-7.61h0V86.78A7.58,7.58,0,0,0,126.4,79.21Z"/><path class="cls-4" d="M125.69,78.5H97a7.57,7.57,0,0,0-7.57,7.56v8.25h0a8.37,8.37,0,0,0,1.3,4.45,13.93,13.93,0,0,0,2.77,3.16l.08.07,9.78,9.37-9.78,9.37-.08.07c-1.89,1.7-4.06,4.1-4.06,7.61h0v8.25A7.57,7.57,0,0,0,97,144.22h28.67a7.57,7.57,0,0,0,7.57-7.57V128.4h0A8.37,8.37,0,0,0,132,124a14.74,14.74,0,0,0-2.77-3.16l-.08-.07-9.78-9.37,9.78-9.37.08-.07c1.89-1.7,4.06-4.1,4.06-7.61h0V86.07A7.58,7.58,0,0,0,125.69,78.5Z"/><path class="cls-4" d="M125,77.8H96.32a7.57,7.57,0,0,0-7.57,7.56v8.25h0A8.37,8.37,0,0,0,90,98.06a13.93,13.93,0,0,0,2.77,3.16l.08.07,9.78,9.37L92.89,120l-.08.07c-1.89,1.7-4.06,4.1-4.06,7.61h0v8.25a7.57,7.57,0,0,0,7.57,7.57H125a7.57,7.57,0,0,0,7.57-7.57V127.7h0a8.37,8.37,0,0,0-1.3-4.45,14.74,14.74,0,0,0-2.77-3.16l-.08-.07-9.78-9.37,9.78-9.37.08-.07c1.89-1.7,4.06-4.1,4.06-7.61h0V85.36A7.58,7.58,0,0,0,125,77.8Z"/><path class="cls-4" d="M124.28,77.09H95.61A7.57,7.57,0,0,0,88,84.65V92.9h0a8.37,8.37,0,0,0,1.3,4.45,13.93,13.93,0,0,0,2.77,3.16l.08.07,9.78,9.37-9.78,9.37-.08.07c-1.89,1.7-4.06,4.1-4.06,7.61h0v8.25a7.57,7.57,0,0,0,7.57,7.57h28.67a7.57,7.57,0,0,0,7.57-7.57V127h0a8.37,8.37,0,0,0-1.3-4.45,14.74,14.74,0,0,0-2.77-3.16l-.08-.07-9.78-9.37,9.78-9.37.08-.07c1.89-1.7,4.06-4.1,4.06-7.61h0V84.65A7.58,7.58,0,0,0,124.28,77.09Z"/><path class="cls-4" d="M123.57,76.38H94.9a7.57,7.57,0,0,0-7.57,7.56v8.25h0a8.37,8.37,0,0,0,1.3,4.45A13.93,13.93,0,0,0,91.4,99.8l.08.07,9.78,9.37-9.78,9.37-.08.07c-1.89,1.7-4.06,4.1-4.06,7.61h0v8.25a7.57,7.57,0,0,0,7.57,7.57h28.67a7.57,7.57,0,0,0,7.57-7.57v-8.25h0a8.37,8.37,0,0,0-1.3-4.45,14.74,14.74,0,0,0-2.77-3.16l-.08-.07-9.78-9.37L127,99.87l.08-.07c1.89-1.7,4.06-4.1,4.06-7.61h0V83.94A7.58,7.58,0,0,0,123.57,76.38Z"/><path class="cls-4" d="M122.86,75.67H94.19a7.57,7.57,0,0,0-7.57,7.56v8.25h0a8.37,8.37,0,0,0,1.3,4.45,13.93,13.93,0,0,0,2.77,3.16l.08.07,9.78,9.37-9.78,9.37-.08.07c-1.89,1.7-4.06,4.1-4.06,7.61h0v8.25a7.57,7.57,0,0,0,7.57,7.57h28.67a7.57,7.57,0,0,0,7.57-7.57v-8.25h0a8.37,8.37,0,0,0-1.3-4.45,14.74,14.74,0,0,0-2.77-3.16l-.08-.07-9.78-9.37,9.78-9.37.08-.07c1.89-1.7,4.06-4.1,4.06-7.61h0V83.23A7.58,7.58,0,0,0,122.86,75.67Z"/><path class="cls-4" d="M122.15,75H93.48a7.57,7.57,0,0,0-7.57,7.56v8.25h0a8.37,8.37,0,0,0,1.3,4.45A13.93,13.93,0,0,0,90,98.38l.08.07,9.78,9.37-9.78,9.37-.08.07c-1.89,1.7-4.06,4.1-4.06,7.61h0v8.25a7.57,7.57,0,0,0,7.57,7.57h28.67a7.57,7.57,0,0,0,7.57-7.57v-8.25h0a8.37,8.37,0,0,0-1.3-4.45,14.74,14.74,0,0,0-2.77-3.16l-.08-.07-9.78-9.37,9.78-9.37.08-.07c1.89-1.7,4.06-4.1,4.06-7.61h0V82.53A7.58,7.58,0,0,0,122.15,75Z"/><path class="cls-4" d="M121.44,74.25H92.77a7.57,7.57,0,0,0-7.57,7.56v8.25h0a8.37,8.37,0,0,0,1.3,4.45,13.93,13.93,0,0,0,2.77,3.16l.08.07,9.78,9.37-9.78,9.37-.08.07c-1.89,1.7-4.06,4.1-4.06,7.61h0v8.25A7.57,7.57,0,0,0,92.77,140h28.67A7.57,7.57,0,0,0,129,132.4v-8.25h0a8.37,8.37,0,0,0-1.3-4.45,14.74,14.74,0,0,0-2.77-3.16l-.08-.07-9.78-9.37,9.78-9.37.08-.07c1.89-1.7,4.06-4.1,4.06-7.61h0V81.82A7.58,7.58,0,0,0,121.44,74.25Z"/><path class="cls-4" d="M120.73,73.54H92.06a7.57,7.57,0,0,0-7.57,7.56v8.25h0a8.37,8.37,0,0,0,1.3,4.45A13.93,13.93,0,0,0,88.56,97l.08.07,9.78,9.37-9.78,9.37-.08.07c-1.89,1.7-4.06,4.1-4.06,7.61h0v8.25a7.57,7.57,0,0,0,7.57,7.57h28.67a7.57,7.57,0,0,0,7.57-7.57v-8.25h0A8.37,8.37,0,0,0,127,119a14.74,14.74,0,0,0-2.77-3.16l-.08-.07-9.78-9.37L124.16,97l.08-.07c1.89-1.7,4.06-4.1,4.06-7.61h0V81.11A7.58,7.58,0,0,0,120.73,73.54Z"/><path class="cls-4" d="M120,72.84H91.36a7.57,7.57,0,0,0-7.57,7.56v8.25h0a8.37,8.37,0,0,0,1.3,4.45,13.93,13.93,0,0,0,2.77,3.16l.08.07,9.78,9.37-9.78,9.37-.08.07c-1.89,1.7-4.06,4.1-4.06,7.61h0V131a7.57,7.57,0,0,0,7.57,7.57H120a7.57,7.57,0,0,0,7.57-7.57v-8.25h0a8.37,8.37,0,0,0-1.3-4.45,14.74,14.74,0,0,0-2.77-3.16l-.08-.07-9.78-9.37,9.78-9.37.08-.07c1.89-1.7,4.06-4.1,4.06-7.61h0V80.4A7.58,7.58,0,0,0,120,72.84Z"/><path class="cls-4" d="M119.32,72.13H90.65a7.57,7.57,0,0,0-7.57,7.56v8.25h0a8.37,8.37,0,0,0,1.3,4.45,13.93,13.93,0,0,0,2.77,3.16l.08.07L97,105l-9.78,9.37-.08.07c-1.89,1.7-4.06,4.1-4.06,7.61h0v8.25a7.57,7.57,0,0,0,7.57,7.57h28.67a7.57,7.57,0,0,0,7.57-7.57V122h0a8.37,8.37,0,0,0-1.3-4.45,14.74,14.74,0,0,0-2.77-3.16l-.08-.07L113,105l9.78-9.37.08-.07c1.89-1.7,4.06-4.1,4.06-7.61h0V79.69A7.58,7.58,0,0,0,119.32,72.13Z"/><path class="cls-4" d="M118.61,71.42H89.94A7.57,7.57,0,0,0,82.37,79v8.25h0a8.37,8.37,0,0,0,1.3,4.45,13.93,13.93,0,0,0,2.77,3.16l.08.07,9.78,9.37-9.78,9.37-.08.07c-1.89,1.7-4.06,4.1-4.06,7.61h0v8.25a7.57,7.57,0,0,0,7.57,7.57h28.67a7.57,7.57,0,0,0,7.57-7.57v-8.25h0a8.37,8.37,0,0,0-1.3-4.45,14.74,14.74,0,0,0-2.77-3.16l-.08-.07-9.78-9.37L122,94.91l.08-.07c1.89-1.7,4.06-4.1,4.06-7.61h0V79A7.58,7.58,0,0,0,118.61,71.42Z"/><path class="cls-4" d="M117.9,70.71H89.23a7.57,7.57,0,0,0-7.57,7.56v8.25h0A8.37,8.37,0,0,0,83,91a13.93,13.93,0,0,0,2.77,3.16l.08.07,9.78,9.37-9.78,9.37-.08.07c-1.89,1.7-4.06,4.1-4.06,7.61h0v8.25a7.57,7.57,0,0,0,7.57,7.57H117.9a7.57,7.57,0,0,0,7.57-7.57v-8.25h0a8.37,8.37,0,0,0-1.3-4.45A14.74,14.74,0,0,0,121.4,113l-.08-.07-9.78-9.37,9.78-9.37.08-.07c1.89-1.7,4.06-4.1,4.06-7.61h0V78.27A7.58,7.58,0,0,0,117.9,70.71Z"/><path class="cls-4" d="M117.19,70H88.52A7.57,7.57,0,0,0,81,77.57v8.25h0a8.37,8.37,0,0,0,1.3,4.45A13.93,13.93,0,0,0,85,93.42l.08.07,9.78,9.37-9.78,9.37-.08.07C83.13,114,81,116.39,81,119.9h0v8.25a7.57,7.57,0,0,0,7.57,7.57h28.67a7.57,7.57,0,0,0,7.57-7.57V119.9h0a8.37,8.37,0,0,0-1.3-4.45,14.74,14.74,0,0,0-2.77-3.16l-.08-.07-9.78-9.37,9.78-9.37.08-.07c1.89-1.7,4.06-4.1,4.06-7.61h0V77.57A7.58,7.58,0,0,0,117.19,70Z"/><path class="cls-4" d="M116.48,69.29H87.81a7.57,7.57,0,0,0-7.57,7.56V85.1h0a8.37,8.37,0,0,0,1.3,4.45,13.93,13.93,0,0,0,2.77,3.16l.08.07,9.78,9.37-9.78,9.37-.08.07c-1.89,1.7-4.06,4.1-4.06,7.61h0v8.25A7.57,7.57,0,0,0,87.81,135h28.67a7.57,7.57,0,0,0,7.57-7.57v-8.25h0a8.37,8.37,0,0,0-1.3-4.45,14.74,14.74,0,0,0-2.77-3.16l-.08-.07-9.78-9.37,9.78-9.37.08-.07c1.89-1.7,4.06-4.1,4.06-7.61h0V76.86A7.58,7.58,0,0,0,116.48,69.29Z"/><path class="cls-4" d="M115.77,68.58H87.1a7.57,7.57,0,0,0-7.57,7.56V84.4h0a8.37,8.37,0,0,0,1.3,4.45A13.93,13.93,0,0,0,83.6,92l.08.07,9.78,9.37-9.78,9.37-.08.07c-1.89,1.7-4.06,4.1-4.06,7.61h0v8.25a7.57,7.57,0,0,0,7.57,7.57h28.67a7.57,7.57,0,0,0,7.57-7.57v-8.25h0A8.37,8.37,0,0,0,122,114a14.74,14.74,0,0,0-2.77-3.16l-.08-.07-9.78-9.37,9.78-9.37.08-.07c1.89-1.7,4.06-4.1,4.06-7.61h0V76.15A7.58,7.58,0,0,0,115.77,68.58Z"/><path class="cls-4" d="M115.07,67.87H86.4a7.57,7.57,0,0,0-7.57,7.56v8.25h0a8.37,8.37,0,0,0,1.3,4.45,13.93,13.93,0,0,0,2.77,3.16l.08.07,9.78,9.37L83,110.1l-.08.07c-1.89,1.7-4.06,4.1-4.06,7.61h0V126a7.57,7.57,0,0,0,7.57,7.57h28.67a7.57,7.57,0,0,0,7.57-7.57v-8.25h0a8.37,8.37,0,0,0-1.3-4.45,14.74,14.74,0,0,0-2.77-3.16l-.08-.07-9.78-9.37,9.78-9.37.08-.07c1.89-1.7,4.06-4.1,4.06-7.61h0V75.44A7.58,7.58,0,0,0,115.07,67.87Z"/><path class="cls-4" d="M114.36,67.17H85.69a7.57,7.57,0,0,0-7.57,7.56V83h0a8.37,8.37,0,0,0,1.3,4.45,13.93,13.93,0,0,0,2.77,3.16l.08.07L92,100l-9.78,9.37-.08.07c-1.89,1.7-4.06,4.1-4.06,7.61h0v8.25a7.57,7.57,0,0,0,7.57,7.57h28.67a7.57,7.57,0,0,0,7.57-7.57v-8.25h0a8.37,8.37,0,0,0-1.3-4.45,14.74,14.74,0,0,0-2.77-3.16l-.08-.07L108,100l9.78-9.37.08-.07c1.89-1.7,4.06-4.1,4.06-7.61h0V74.73A7.58,7.58,0,0,0,114.36,67.17Z"/><path class="cls-4" d="M113.65,66.46H85A7.57,7.57,0,0,0,77.41,74v8.25h0a8.37,8.37,0,0,0,1.3,4.45,13.93,13.93,0,0,0,2.77,3.16l.08.07,9.78,9.37-9.78,9.37-.08.07c-1.89,1.7-4.06,4.1-4.06,7.61h0v8.25A7.57,7.57,0,0,0,85,132.17h28.67a7.57,7.57,0,0,0,7.57-7.57v-8.25h0a8.37,8.37,0,0,0-1.3-4.45,14.74,14.74,0,0,0-2.77-3.16l-.08-.07-9.78-9.37,9.78-9.37.08-.07c1.89-1.7,4.06-4.1,4.06-7.61h0V74A7.58,7.58,0,0,0,113.65,66.46Z"/><path class="cls-4" d="M112.94,65.75H84.27a7.57,7.57,0,0,0-7.57,7.56v8.25h0A8.37,8.37,0,0,0,78,86a13.93,13.93,0,0,0,2.77,3.16l.08.07,9.78,9.37L80.85,108l-.08.07c-1.89,1.7-4.06,4.1-4.06,7.61h0v8.25a7.57,7.57,0,0,0,7.57,7.57h28.67a7.57,7.57,0,0,0,7.57-7.57v-8.25h0a8.37,8.37,0,0,0-1.3-4.45,14.74,14.74,0,0,0-2.77-3.16l-.08-.07-9.78-9.37,9.78-9.37.08-.07c1.89-1.7,4.06-4.1,4.06-7.61h0V73.31A7.58,7.58,0,0,0,112.94,65.75Z"/><path class="cls-4" d="M112.23,65H83.56A7.57,7.57,0,0,0,76,72.6v8.25h0a8.37,8.37,0,0,0,1.3,4.45,13.93,13.93,0,0,0,2.77,3.16l.08.07,9.78,9.37-9.78,9.37-.08.07c-1.89,1.7-4.06,4.1-4.06,7.61h0v8.25a7.57,7.57,0,0,0,7.57,7.57h28.67a7.57,7.57,0,0,0,7.57-7.57v-8.25h0a8.37,8.37,0,0,0-1.3-4.45,14.74,14.74,0,0,0-2.77-3.16l-.08-.07-9.78-9.37,9.78-9.37.08-.07c1.89-1.7,4.06-4.1,4.06-7.61h0V72.6A7.58,7.58,0,0,0,112.23,65Z"/><path class="cls-4" d="M111.52,64.33H82.85a7.57,7.57,0,0,0-7.57,7.56v8.25h0a8.37,8.37,0,0,0,1.3,4.45,13.93,13.93,0,0,0,2.77,3.16l.08.07,9.78,9.37-9.78,9.37-.08.07c-1.89,1.7-4.06,4.1-4.06,7.61h0v8.25A7.57,7.57,0,0,0,82.85,130h28.67a7.57,7.57,0,0,0,7.57-7.57v-8.25h0a8.37,8.37,0,0,0-1.3-4.45,14.74,14.74,0,0,0-2.77-3.16l-.08-.07-9.78-9.37,9.78-9.37.08-.07c1.89-1.7,4.06-4.1,4.06-7.61h0V71.9A7.58,7.58,0,0,0,111.52,64.33Z"/><path class="cls-4" d="M110.81,63.62H82.14a7.57,7.57,0,0,0-7.57,7.56v8.25h0a8.37,8.37,0,0,0,1.3,4.45A13.93,13.93,0,0,0,78.64,87l.08.07,9.78,9.37-9.78,9.37-.08.07c-1.89,1.7-4.06,4.1-4.06,7.61h0v8.25a7.57,7.57,0,0,0,7.57,7.57h28.67a7.57,7.57,0,0,0,7.57-7.57v-8.25h0a8.37,8.37,0,0,0-1.3-4.45,14.74,14.74,0,0,0-2.77-3.16l-.08-.07-9.78-9.37,9.78-9.37.08-.07c1.89-1.7,4.06-4.1,4.06-7.61h0V71.19A7.58,7.58,0,0,0,110.81,63.62Z"/><path class="cls-4" d="M110.1,62.91H81.44a7.57,7.57,0,0,0-7.57,7.56v8.25h0a8.37,8.37,0,0,0,1.3,4.45,13.93,13.93,0,0,0,2.77,3.16l.08.07,9.78,9.37L78,105.14l-.08.07c-1.89,1.7-4.06,4.1-4.06,7.61h0v8.25a7.57,7.57,0,0,0,7.57,7.57H110.1a7.57,7.57,0,0,0,7.57-7.57v-8.25h0a8.37,8.37,0,0,0-1.3-4.45,14.74,14.74,0,0,0-2.77-3.16l-.08-.07-9.78-9.37,9.78-9.37.08-.07c1.89-1.7,4.06-4.1,4.06-7.61h0V70.48A7.58,7.58,0,0,0,110.1,62.91Z"/><path class="cls-4" d="M109.4,62.21H80.73a7.57,7.57,0,0,0-7.57,7.56V78h0a8.37,8.37,0,0,0,1.3,4.45,13.93,13.93,0,0,0,2.77,3.16l.08.07,9.78,9.37-9.78,9.37-.08.07c-1.89,1.7-4.06,4.1-4.06,7.61h0v8.25a7.57,7.57,0,0,0,7.57,7.57H109.4a7.57,7.57,0,0,0,7.57-7.57v-8.25h0a8.37,8.37,0,0,0-1.3-4.45,14.74,14.74,0,0,0-2.77-3.16l-.08-.07L103,95.06l9.78-9.37.08-.07c1.89-1.7,4.06-4.1,4.06-7.61h0V69.77A7.58,7.58,0,0,0,109.4,62.21Z"/><path class="cls-4" d="M108.69,61.5H80a7.57,7.57,0,0,0-7.57,7.56v8.25h0a8.37,8.37,0,0,0,1.3,4.45,13.93,13.93,0,0,0,2.77,3.16l.08.07,9.78,9.37-9.78,9.37-.08.07c-1.89,1.7-4.06,4.1-4.06,7.61h0v8.25A7.57,7.57,0,0,0,80,127.21h28.67a7.57,7.57,0,0,0,7.57-7.57V111.4h0a8.37,8.37,0,0,0-1.3-4.45,14.74,14.74,0,0,0-2.77-3.16l-.08-.07-9.78-9.37L112.11,85l.08-.07c1.89-1.7,4.06-4.1,4.06-7.61h0V69.06A7.58,7.58,0,0,0,108.69,61.5Z"/><path class="cls-4" d="M108,60.79H79.31a7.57,7.57,0,0,0-7.57,7.56V76.6h0A8.37,8.37,0,0,0,73,81.05a13.93,13.93,0,0,0,2.77,3.16l.08.07,9.78,9.37L75.89,103l-.08.07c-1.89,1.7-4.06,4.1-4.06,7.61h0v8.25a7.57,7.57,0,0,0,7.57,7.57H108a7.57,7.57,0,0,0,7.57-7.57v-8.25h0a8.37,8.37,0,0,0-1.3-4.45,14.74,14.74,0,0,0-2.77-3.16l-.08-.07-9.78-9.37,9.78-9.37.08-.07c1.89-1.7,4.06-4.1,4.06-7.61h0V68.35A7.58,7.58,0,0,0,108,60.79Z"/><path class="cls-4" d="M107.27,60.08H78.6A7.57,7.57,0,0,0,71,67.64v8.25h0a8.37,8.37,0,0,0,1.3,4.45A13.93,13.93,0,0,0,75.1,83.5l.08.07L85,92.94l-9.78,9.37-.08.07c-1.89,1.7-4.06,4.1-4.06,7.61h0v8.25a7.57,7.57,0,0,0,7.57,7.57h28.67a7.57,7.57,0,0,0,7.57-7.57V110h0a8.37,8.37,0,0,0-1.3-4.45,14.74,14.74,0,0,0-2.77-3.16l-.08-.07-9.78-9.37,9.78-9.37.08-.07c1.89-1.7,4.06-4.1,4.06-7.61h0V67.64A7.58,7.58,0,0,0,107.27,60.08Z"/><path class="cls-4" d="M106.56,59.37H77.89a7.57,7.57,0,0,0-7.57,7.56v8.25h0a8.37,8.37,0,0,0,1.3,4.45,13.93,13.93,0,0,0,2.77,3.16l.08.07,9.78,9.37-9.78,9.37-.08.07c-1.89,1.7-4.06,4.1-4.06,7.61h0v8.25a7.57,7.57,0,0,0,7.57,7.57h28.67a7.57,7.57,0,0,0,7.57-7.57v-8.25h0a8.37,8.37,0,0,0-1.3-4.45,14.74,14.74,0,0,0-2.77-3.16l-.08-.07-9.78-9.37L110,82.86l.08-.07c1.89-1.7,4.06-4.1,4.06-7.61h0V66.94A7.58,7.58,0,0,0,106.56,59.37Z"/><path class="cls-4" d="M105.85,58.66H77.18a7.57,7.57,0,0,0-7.57,7.56v8.25h0a8.37,8.37,0,0,0,1.3,4.45,13.93,13.93,0,0,0,2.77,3.16l.08.07,9.78,9.37-9.78,9.37-.08.07c-1.89,1.7-4.06,4.1-4.06,7.61h0v8.25a7.57,7.57,0,0,0,7.57,7.57h28.67a7.57,7.57,0,0,0,7.57-7.57v-8.25h0a8.37,8.37,0,0,0-1.3-4.45,14.74,14.74,0,0,0-2.77-3.16l-.08-.07-9.78-9.37,9.78-9.37.08-.07c1.89-1.7,4.06-4.1,4.06-7.61h0V66.23A7.58,7.58,0,0,0,105.85,58.66Z"/><path class="cls-4" d="M105.14,58H76.47a7.57,7.57,0,0,0-7.57,7.56v8.25h0a8.37,8.37,0,0,0,1.3,4.45A13.93,13.93,0,0,0,73,81.37l.08.07,9.78,9.37-9.78,9.37-.08.07c-1.89,1.7-4.06,4.1-4.06,7.61h0v8.25a7.57,7.57,0,0,0,7.57,7.57h28.67a7.57,7.57,0,0,0,7.57-7.57v-8.25h0a8.37,8.37,0,0,0-1.3-4.45,14.74,14.74,0,0,0-2.77-3.16l-.08-.07-9.78-9.37,9.78-9.37.08-.07c1.89-1.7,4.06-4.1,4.06-7.61h0V65.52A7.58,7.58,0,0,0,105.14,58Z"/><path class="cls-4" d="M104.44,57.25H75.77a7.57,7.57,0,0,0-7.57,7.56v8.25h0a8.37,8.37,0,0,0,1.3,4.45,13.93,13.93,0,0,0,2.77,3.16l.08.07,9.78,9.37-9.78,9.37-.08.07c-1.89,1.7-4.06,4.1-4.06,7.61h0v8.25A7.57,7.57,0,0,0,75.77,123h28.67a7.57,7.57,0,0,0,7.57-7.57v-8.25h0a8.37,8.37,0,0,0-1.3-4.45,14.74,14.74,0,0,0-2.77-3.16l-.08-.07L98.08,90.1l9.78-9.37.08-.07c1.89-1.7,4.06-4.1,4.06-7.61h0V64.81A7.58,7.58,0,0,0,104.44,57.25Z"/><path class="cls-4" d="M103.73,56.54H75.06a7.57,7.57,0,0,0-7.57,7.56v8.25h0a8.37,8.37,0,0,0,1.3,4.45A13.93,13.93,0,0,0,71.55,80l.08.07,9.78,9.37-9.78,9.37-.08.07c-1.89,1.7-4.06,4.1-4.06,7.61h0v8.25a7.57,7.57,0,0,0,7.57,7.57h28.67a7.57,7.57,0,0,0,7.57-7.57v-8.25h0A8.37,8.37,0,0,0,110,102a14.74,14.74,0,0,0-2.77-3.16l-.08-.07-9.78-9.37L107.15,80l.08-.07c1.89-1.7,4.06-4.1,4.06-7.61h0V64.1A7.58,7.58,0,0,0,103.73,56.54Z"/><path class="cls-4" d="M103,55.83H74.35a7.57,7.57,0,0,0-7.57,7.56v8.25h0a8.37,8.37,0,0,0,1.3,4.45,13.93,13.93,0,0,0,2.77,3.16l.08.07,9.78,9.37-9.78,9.37-.08.07c-1.89,1.7-4.06,4.1-4.06,7.61h0V114a7.57,7.57,0,0,0,7.57,7.57H103a7.57,7.57,0,0,0,7.57-7.57v-8.25h0a8.37,8.37,0,0,0-1.3-4.45,14.74,14.74,0,0,0-2.77-3.16l-.08-.07-9.78-9.37,9.78-9.37.08-.07c1.89-1.7,4.06-4.1,4.06-7.61h0V63.39A7.58,7.58,0,0,0,103,55.83Z"/><path class="cls-4" d="M102.31,55.12H73.64a7.57,7.57,0,0,0-7.57,7.56v8.25h0a8.37,8.37,0,0,0,1.3,4.45,13.93,13.93,0,0,0,2.77,3.16l.08.07L80,88l-9.78,9.37-.08.07c-1.89,1.7-4.06,4.1-4.06,7.61h0v8.25a7.57,7.57,0,0,0,7.57,7.57h28.67a7.57,7.57,0,0,0,7.57-7.57V105h0a8.37,8.37,0,0,0-1.3-4.45,14.74,14.74,0,0,0-2.77-3.16l-.08-.07L96,88l9.78-9.37.08-.07c1.89-1.7,4.06-4.1,4.06-7.61h0V62.68A7.58,7.58,0,0,0,102.31,55.12Z"/><path class="cls-4" d="M101.6,54.41H72.93A7.57,7.57,0,0,0,65.37,62v8.25h0a8.37,8.37,0,0,0,1.3,4.45,13.93,13.93,0,0,0,2.77,3.16l.08.07,9.78,9.37-9.78,9.37-.08.07c-1.89,1.7-4.06,4.1-4.06,7.61h0v8.25a7.57,7.57,0,0,0,7.57,7.57H101.6a7.57,7.57,0,0,0,7.57-7.57v-8.25h0a8.37,8.37,0,0,0-1.3-4.45,14.74,14.74,0,0,0-2.77-3.16l-.08-.07-9.78-9.37L105,77.9l.08-.07c1.89-1.7,4.06-4.1,4.06-7.61h0V62A7.58,7.58,0,0,0,101.6,54.41Z"/><path class="cls-4" d="M100.89,53.7H72.22a7.57,7.57,0,0,0-7.57,7.56v8.25h0A8.37,8.37,0,0,0,66,74a13.93,13.93,0,0,0,2.77,3.16l.08.07,9.78,9.37L68.8,95.93l-.08.07c-1.89,1.7-4.06,4.1-4.06,7.61h0v8.25a7.57,7.57,0,0,0,7.57,7.57h28.67a7.57,7.57,0,0,0,7.57-7.57V103.6h0a8.37,8.37,0,0,0-1.3-4.45A14.74,14.74,0,0,0,104.39,96l-.08-.07-9.78-9.37,9.78-9.37.08-.07c1.89-1.7,4.06-4.1,4.06-7.61h0V61.27A7.58,7.58,0,0,0,100.89,53.7Z"/><path class="cls-4" d="M100.18,53H71.51a7.57,7.57,0,0,0-7.57,7.56v8.25h0a8.37,8.37,0,0,0,1.3,4.45A13.93,13.93,0,0,0,68,76.41l.08.07,9.78,9.37-9.78,9.37-.08.07c-1.89,1.7-4.06,4.1-4.06,7.61h0v8.25a7.57,7.57,0,0,0,7.57,7.57h28.67a7.57,7.57,0,0,0,7.57-7.57v-8.25h0a8.37,8.37,0,0,0-1.3-4.45,14.74,14.74,0,0,0-2.77-3.16l-.08-.07-9.78-9.37,9.78-9.37.08-.07c1.89-1.7,4.06-4.1,4.06-7.61h0V60.56A7.58,7.58,0,0,0,100.18,53Z"/><path class="cls-4" d="M99.48,52.28H70.81a7.57,7.57,0,0,0-7.57,7.56V68.1h0a8.37,8.37,0,0,0,1.3,4.45,13.93,13.93,0,0,0,2.77,3.16l.08.07,9.78,9.37-9.78,9.37-.08.07c-1.89,1.7-4.06,4.1-4.06,7.61h0v8.25A7.57,7.57,0,0,0,70.81,118H99.48a7.57,7.57,0,0,0,7.57-7.57v-8.25h0a8.37,8.37,0,0,0-1.3-4.45A14.74,14.74,0,0,0,103,94.58l-.08-.07-9.78-9.37,9.78-9.37.08-.07C104.87,74,107,71.6,107,68.1h0V59.85A7.58,7.58,0,0,0,99.48,52.28Z"/><path class="cls-4" d="M98.77,51.58H70.1a7.57,7.57,0,0,0-7.57,7.56v8.25h0a8.37,8.37,0,0,0,1.3,4.45A13.93,13.93,0,0,0,66.59,75l.08.07,9.78,9.37L66.67,93.8l-.08.07c-1.89,1.7-4.06,4.1-4.06,7.61h0v8.25a7.57,7.57,0,0,0,7.57,7.57H98.77a7.57,7.57,0,0,0,7.57-7.57v-8.25h0A8.37,8.37,0,0,0,105,97a14.74,14.74,0,0,0-2.77-3.16l-.08-.07-9.78-9.37,9.78-9.37.08-.07c1.89-1.7,4.06-4.1,4.06-7.61h0V59.14A7.58,7.58,0,0,0,98.77,51.58Z"/><path class="cls-4" d="M98.06,50.87H69.39a7.57,7.57,0,0,0-7.57,7.56v8.25h0a8.37,8.37,0,0,0,1.3,4.45,13.93,13.93,0,0,0,2.77,3.16l.08.07,9.78,9.37L66,93.09l-.08.07c-1.89,1.7-4.06,4.1-4.06,7.61h0V109a7.57,7.57,0,0,0,7.57,7.57H98.06a7.57,7.57,0,0,0,7.57-7.57v-8.25h0a8.37,8.37,0,0,0-1.3-4.45,14.74,14.74,0,0,0-2.77-3.16l-.08-.07L91.7,83.72l9.78-9.37.08-.07c1.89-1.7,4.06-4.1,4.06-7.61h0V58.43A7.58,7.58,0,0,0,98.06,50.87Z"/><path class="cls-4" d="M97.35,50.16H68.68a7.57,7.57,0,0,0-7.57,7.56V66h0a8.37,8.37,0,0,0,1.3,4.45,13.93,13.93,0,0,0,2.77,3.16l.08.07L75,83l-9.78,9.37-.08.07c-1.89,1.7-4.06,4.1-4.06,7.61h0v8.25a7.57,7.57,0,0,0,7.57,7.57H97.35a7.57,7.57,0,0,0,7.57-7.57v-8.25h0a8.37,8.37,0,0,0-1.3-4.45,14.74,14.74,0,0,0-2.77-3.16l-.08-.07L91,83l9.78-9.37.08-.07c1.89-1.7,4.06-4.1,4.06-7.61h0V57.72A7.58,7.58,0,0,0,97.35,50.16Z"/><path class="cls-4" d="M96.64,49.45H68A7.57,7.57,0,0,0,60.41,57v8.25h0a8.37,8.37,0,0,0,1.3,4.45,13.93,13.93,0,0,0,2.77,3.16l.08.07,9.78,9.37-9.78,9.37-.08.07c-1.89,1.7-4.06,4.1-4.06,7.61h0v8.25A7.57,7.57,0,0,0,68,115.16H96.64a7.57,7.57,0,0,0,7.57-7.57V99.35h0a8.37,8.37,0,0,0-1.3-4.45,14.74,14.74,0,0,0-2.77-3.16l-.08-.07-9.78-9.37,9.78-9.37.08-.07c1.89-1.7,4.06-4.1,4.06-7.61h0V57A7.58,7.58,0,0,0,96.64,49.45Z"/><path class="cls-4" d="M95.93,48.74H67.26a7.57,7.57,0,0,0-7.57,7.56v8.25h0A8.37,8.37,0,0,0,61,69a13.93,13.93,0,0,0,2.77,3.16l.08.07,9.78,9.37L63.84,91l-.08.07c-1.89,1.7-4.06,4.1-4.06,7.61h0v8.25a7.57,7.57,0,0,0,7.57,7.57H95.93a7.57,7.57,0,0,0,7.57-7.57V98.64h0a8.37,8.37,0,0,0-1.3-4.45A14.74,14.74,0,0,0,99.43,91L99.35,91,89.57,81.6l9.78-9.37.08-.07c1.89-1.7,4.06-4.1,4.06-7.61h0V56.31A7.58,7.58,0,0,0,95.93,48.74Z"/><path class="cls-4" d="M95.22,48H66.55A7.57,7.57,0,0,0,59,55.6v8.25h0a8.37,8.37,0,0,0,1.3,4.45,13.93,13.93,0,0,0,2.77,3.16l.08.07,9.78,9.37-9.78,9.37-.08.07C61.16,92,59,94.43,59,97.93h0v8.25a7.57,7.57,0,0,0,7.57,7.57H95.22a7.57,7.57,0,0,0,7.57-7.57V97.93h0a8.37,8.37,0,0,0-1.3-4.45,14.74,14.74,0,0,0-2.77-3.16l-.08-.07-9.78-9.37,9.78-9.37.08-.07c1.89-1.7,4.06-4.1,4.06-7.61h0V55.6A7.58,7.58,0,0,0,95.22,48Z"/><path class="cls-4" d="M94.51,47.32H65.85a7.57,7.57,0,0,0-7.57,7.56v8.25h0a8.37,8.37,0,0,0,1.3,4.45,13.93,13.93,0,0,0,2.77,3.16l.08.07,9.78,9.37-9.78,9.37-.08.07c-1.89,1.7-4.06,4.1-4.06,7.61h0v8.25A7.57,7.57,0,0,0,65.85,113H94.51a7.57,7.57,0,0,0,7.57-7.57V97.22h0a8.37,8.37,0,0,0-1.3-4.45A14.74,14.74,0,0,0,98,89.61l-.08-.07-9.78-9.37,9.78-9.37.08-.07c1.89-1.7,4.06-4.1,4.06-7.61h0V54.89A7.58,7.58,0,0,0,94.51,47.32Z"/><path class="cls-4" d="M93.81,46.62H65.14a7.57,7.57,0,0,0-7.57,7.56v8.25h0a8.37,8.37,0,0,0,1.3,4.45A13.93,13.93,0,0,0,61.63,70l.08.07,9.78,9.37-9.78,9.37-.08.07c-1.89,1.7-4.06,4.1-4.06,7.61h0v8.25a7.57,7.57,0,0,0,7.57,7.57H93.81a7.57,7.57,0,0,0,7.57-7.57V96.52h0a8.37,8.37,0,0,0-1.3-4.45,14.74,14.74,0,0,0-2.77-3.16l-.08-.07-9.78-9.37,9.78-9.37.08-.07c1.89-1.7,4.06-4.1,4.06-7.61h0V54.18A7.58,7.58,0,0,0,93.81,46.62Z"/><path class="cls-4" d="M93.1,45.91H64.43a7.57,7.57,0,0,0-7.57,7.56v8.25h0a8.37,8.37,0,0,0,1.3,4.45,13.93,13.93,0,0,0,2.77,3.16l.08.07,9.78,9.37L61,88.13l-.08.07c-1.89,1.7-4.06,4.1-4.06,7.61h0v8.25a7.57,7.57,0,0,0,7.57,7.57H93.1a7.57,7.57,0,0,0,7.57-7.57V95.81h0a8.37,8.37,0,0,0-1.3-4.45A14.74,14.74,0,0,0,96.6,88.2l-.08-.07-9.78-9.37,9.78-9.37.08-.07c1.89-1.7,4.06-4.1,4.06-7.61h0V53.47A7.58,7.58,0,0,0,93.1,45.91Z"/><path class="cls-4" d="M92.39,45.2H63.72a7.57,7.57,0,0,0-7.57,7.56V61h0a8.37,8.37,0,0,0,1.3,4.45,13.93,13.93,0,0,0,2.77,3.16l.08.07,9.78,9.37L60.3,87.42l-.08.07c-1.89,1.7-4.06,4.1-4.06,7.61h0v8.25a7.57,7.57,0,0,0,7.57,7.57H92.39a7.57,7.57,0,0,0,7.57-7.57V95.1h0a8.37,8.37,0,0,0-1.3-4.45,14.74,14.74,0,0,0-2.77-3.16l-.08-.07L86,78.05l9.78-9.37.08-.07c1.89-1.7,4.06-4.1,4.06-7.61h0V52.76A7.58,7.58,0,0,0,92.39,45.2Z"/><path class="cls-4" d="M91.68,44.49H63a7.57,7.57,0,0,0-7.57,7.56V60.3h0a8.37,8.37,0,0,0,1.3,4.45,13.93,13.93,0,0,0,2.77,3.16l.08.07,9.78,9.37-9.78,9.37-.08.07c-1.89,1.7-4.06,4.1-4.06,7.61h0v8.25A7.57,7.57,0,0,0,63,110.2H91.68a7.57,7.57,0,0,0,7.57-7.57V94.39h0a8.37,8.37,0,0,0-1.3-4.45,14.74,14.74,0,0,0-2.77-3.16l-.08-.07-9.78-9.37L95.1,68l.08-.07c1.89-1.7,4.06-4.1,4.06-7.61h0V52.05A7.58,7.58,0,0,0,91.68,44.49Z"/><path class="cls-4" d="M91,43.78H62.3a7.57,7.57,0,0,0-7.57,7.56v8.25h0A8.37,8.37,0,0,0,56,64,13.93,13.93,0,0,0,58.8,67.2l.08.07,9.78,9.37L58.88,86l-.08.07c-1.89,1.7-4.06,4.1-4.06,7.61h0v8.25a7.57,7.57,0,0,0,7.57,7.57H91a7.57,7.57,0,0,0,7.57-7.57V93.68h0a8.37,8.37,0,0,0-1.3-4.45,14.74,14.74,0,0,0-2.77-3.16L94.39,86l-9.78-9.37,9.78-9.37.08-.07c1.89-1.7,4.06-4.1,4.06-7.61h0V51.35A7.58,7.58,0,0,0,91,43.78Z"/><path class="cls-4" d="M90.26,43.07H61.59A7.57,7.57,0,0,0,54,50.64v8.25h0a8.37,8.37,0,0,0,1.3,4.45,13.93,13.93,0,0,0,2.77,3.16l.08.07L68,75.93,58.17,85.3l-.08.07C56.2,87.06,54,89.46,54,93h0v8.25a7.57,7.57,0,0,0,7.57,7.57H90.26a7.57,7.57,0,0,0,7.57-7.57V93h0a8.37,8.37,0,0,0-1.3-4.45,14.74,14.74,0,0,0-2.77-3.16l-.08-.07L83.9,75.93l9.78-9.37.08-.07c1.89-1.7,4.06-4.1,4.06-7.61h0V50.64A7.58,7.58,0,0,0,90.26,43.07Z"/><path class="cls-4" d="M89.55,42.36H60.88a7.57,7.57,0,0,0-7.57,7.56v8.25h0a8.37,8.37,0,0,0,1.3,4.45,13.93,13.93,0,0,0,2.77,3.16l.08.07,9.78,9.37-9.78,9.37-.08.07c-1.89,1.7-4.06,4.1-4.06,7.61h0v8.25a7.57,7.57,0,0,0,7.57,7.57H89.55a7.57,7.57,0,0,0,7.57-7.57V92.26h0a8.37,8.37,0,0,0-1.3-4.45,14.74,14.74,0,0,0-2.77-3.16L93,84.59,83.2,75.22,93,65.85l.08-.07c1.89-1.7,4.06-4.1,4.06-7.61h0V49.93A7.58,7.58,0,0,0,89.55,42.36Z"/><path class="cls-4" d="M88.85,41.66H60.18a7.57,7.57,0,0,0-7.57,7.56v8.25h0a8.37,8.37,0,0,0,1.3,4.45,13.93,13.93,0,0,0,2.77,3.16l.08.07,9.78,9.37-9.78,9.37-.08.07c-1.89,1.7-4.06,4.1-4.06,7.61h0V99.8a7.57,7.57,0,0,0,7.57,7.57H88.85a7.57,7.57,0,0,0,7.57-7.57V91.56h0a8.37,8.37,0,0,0-1.3-4.45,14.74,14.74,0,0,0-2.77-3.16l-.08-.07-9.78-9.37,9.78-9.37.08-.07c1.89-1.7,4.06-4.1,4.06-7.61h0V49.22A7.58,7.58,0,0,0,88.85,41.66Z"/><path class="cls-4" d="M88.14,40.95H59.47a7.57,7.57,0,0,0-7.57,7.56v8.25h0a8.37,8.37,0,0,0,1.3,4.45A13.93,13.93,0,0,0,56,64.37l.08.07,9.78,9.37L56,83.17l-.08.07c-1.89,1.7-4.06,4.1-4.06,7.61h0v8.25a7.57,7.57,0,0,0,7.57,7.57H88.14a7.57,7.57,0,0,0,7.57-7.57V90.85h0a8.37,8.37,0,0,0-1.3-4.45,14.74,14.74,0,0,0-2.77-3.16l-.08-.07L81.78,73.8l9.78-9.37.08-.07c1.89-1.7,4.06-4.1,4.06-7.61h0V48.51A7.58,7.58,0,0,0,88.14,40.95Z"/><path class="cls-4" d="M87.43,40.24H58.76a7.57,7.57,0,0,0-7.57,7.56v8.25h0a8.37,8.37,0,0,0,1.3,4.45,13.93,13.93,0,0,0,2.77,3.16l.08.07,9.78,9.37-9.78,9.37-.08.07c-1.89,1.7-4.06,4.1-4.06,7.61h0v8.25A7.57,7.57,0,0,0,58.76,106H87.43A7.57,7.57,0,0,0,95,98.38V90.14h0a8.37,8.37,0,0,0-1.3-4.45,14.74,14.74,0,0,0-2.77-3.16l-.08-.07-9.78-9.37,9.78-9.37.08-.07C92.82,62,95,59.56,95,56.05h0V47.8A7.58,7.58,0,0,0,87.43,40.24Z"/><path class="cls-4" d="M86.72,39.53H58.05a7.57,7.57,0,0,0-7.57,7.56v8.25h0a8.37,8.37,0,0,0,1.3,4.45A13.93,13.93,0,0,0,54.55,63l.08.07,9.78,9.37-9.78,9.37-.08.07c-1.89,1.7-4.06,4.1-4.06,7.61h0v8.25a7.57,7.57,0,0,0,7.57,7.57H86.72a7.57,7.57,0,0,0,7.57-7.57V89.43h0A8.37,8.37,0,0,0,93,85a14.74,14.74,0,0,0-2.77-3.16l-.08-.07-9.78-9.37L90.14,63l.08-.07c1.89-1.7,4.06-4.1,4.06-7.61h0V47.09A7.58,7.58,0,0,0,86.72,39.53Z"/><path class="cls-4" d="M86,38.82H57.34a7.57,7.57,0,0,0-7.57,7.56v8.25h0a8.37,8.37,0,0,0,1.3,4.45,13.93,13.93,0,0,0,2.77,3.16l.08.07,9.78,9.37L53.92,81l-.08.07c-1.89,1.7-4.06,4.1-4.06,7.61h0V97a7.57,7.57,0,0,0,7.57,7.57H86A7.57,7.57,0,0,0,93.58,97V88.72h0a8.37,8.37,0,0,0-1.3-4.45,14.74,14.74,0,0,0-2.77-3.16L89.43,81l-9.78-9.37,9.78-9.37.08-.07c1.89-1.7,4.06-4.1,4.06-7.61h0V46.39A7.58,7.58,0,0,0,86,38.82Z"/><path class="cls-4" d="M85.3,38.11H56.63a7.57,7.57,0,0,0-7.57,7.56v8.25h0a8.37,8.37,0,0,0,1.3,4.45,13.93,13.93,0,0,0,2.77,3.16l.08.07L63,71l-9.78,9.37-.08.07c-1.89,1.7-4.06,4.1-4.06,7.61h0v8.25a7.57,7.57,0,0,0,7.57,7.57H85.3a7.57,7.57,0,0,0,7.57-7.57V88h0a8.37,8.37,0,0,0-1.3-4.45A14.74,14.74,0,0,0,88.8,80.4l-.08-.07L78.94,71l9.78-9.37.08-.07c1.89-1.7,4.06-4.1,4.06-7.61h0V45.68A7.58,7.58,0,0,0,85.3,38.11Z"/><path class="cls-4" d="M84.59,37.4H55.92A7.57,7.57,0,0,0,48.36,45v8.25h0a8.37,8.37,0,0,0,1.3,4.45,13.93,13.93,0,0,0,2.77,3.16l.08.07,9.78,9.37L52.5,79.63l-.08.07c-1.89,1.7-4.06,4.1-4.06,7.61h0v8.25a7.57,7.57,0,0,0,7.57,7.57H84.59a7.57,7.57,0,0,0,7.57-7.57V87.3h0a8.37,8.37,0,0,0-1.3-4.45,14.74,14.74,0,0,0-2.77-3.16L88,79.63l-9.78-9.37L88,60.89l.08-.07c1.89-1.7,4.06-4.1,4.06-7.61h0V45A7.58,7.58,0,0,0,84.59,37.4Z"/><path class="cls-4" d="M83.89,36.69H55.22a7.57,7.57,0,0,0-7.57,7.56v8.25h0A8.37,8.37,0,0,0,48.95,57a13.93,13.93,0,0,0,2.77,3.16l.08.07,9.78,9.37-9.78,9.37-.08.07c-1.89,1.7-4.06,4.1-4.06,7.61h0v8.25a7.57,7.57,0,0,0,7.57,7.57H83.89a7.57,7.57,0,0,0,7.57-7.57V86.59h0a8.37,8.37,0,0,0-1.3-4.45A14.74,14.74,0,0,0,87.39,79l-.08-.07-9.78-9.37,9.78-9.37.08-.07c1.89-1.7,4.06-4.1,4.06-7.61h0V44.26A7.58,7.58,0,0,0,83.89,36.69Z"/><path class="cls-4" d="M83.18,36H54.51a7.57,7.57,0,0,0-7.57,7.56V51.8h0a8.37,8.37,0,0,0,1.3,4.45A13.93,13.93,0,0,0,51,59.41l.08.07,9.78,9.37-9.78,9.37-.08.07c-1.89,1.7-4.06,4.1-4.06,7.61h0v8.25a7.57,7.57,0,0,0,7.57,7.57H83.18a7.57,7.57,0,0,0,7.57-7.57V85.89h0a8.37,8.37,0,0,0-1.3-4.45,14.74,14.74,0,0,0-2.77-3.16l-.08-.07-9.78-9.37,9.78-9.37.08-.07c1.89-1.7,4.06-4.1,4.06-7.61h0V43.55A7.58,7.58,0,0,0,83.18,36Z"/><path class="cls-4" d="M82.47,35.28H53.8a7.57,7.57,0,0,0-7.57,7.56v8.25h0a8.37,8.37,0,0,0,1.3,4.45A13.93,13.93,0,0,0,50.3,58.7l.08.07,9.78,9.37L50.38,77.5l-.08.07c-1.89,1.7-4.06,4.1-4.06,7.61h0v8.25A7.57,7.57,0,0,0,53.8,101H82.47A7.57,7.57,0,0,0,90,93.42V85.18h0a8.37,8.37,0,0,0-1.3-4.45A14.74,14.74,0,0,0,86,77.57l-.08-.07-9.78-9.37,9.78-9.37L86,58.7C87.86,57,90,54.6,90,51.09h0V42.84A7.58,7.58,0,0,0,82.47,35.28Z"/><path class="cls-4" d="M81.76,34.57H53.09a7.57,7.57,0,0,0-7.57,7.56v8.25h0a8.37,8.37,0,0,0,1.3,4.45A13.93,13.93,0,0,0,49.59,58l.08.07,9.78,9.37-9.78,9.37-.08.07c-1.89,1.7-4.06,4.1-4.06,7.61h0v8.25a7.57,7.57,0,0,0,7.57,7.57H81.76a7.57,7.57,0,0,0,7.57-7.57V84.47h0A8.37,8.37,0,0,0,88,80a14.74,14.74,0,0,0-2.77-3.16l-.08-.07L75.4,67.42l9.78-9.37.08-.07c1.89-1.7,4.06-4.1,4.06-7.61h0V42.13A7.58,7.58,0,0,0,81.76,34.57Z"/><path class="cls-4" d="M81.05,33.86H52.38a7.57,7.57,0,0,0-7.57,7.56v8.25h0a8.37,8.37,0,0,0,1.3,4.45,13.93,13.93,0,0,0,2.77,3.16l.08.07,9.78,9.37L49,76.08l-.08.07c-1.89,1.7-4.06,4.1-4.06,7.61h0V92a7.57,7.57,0,0,0,7.57,7.57H81.05A7.57,7.57,0,0,0,88.62,92V83.76h0a8.37,8.37,0,0,0-1.3-4.45,14.74,14.74,0,0,0-2.77-3.16l-.08-.07-9.78-9.37,9.78-9.37.08-.07c1.89-1.7,4.06-4.1,4.06-7.61h0V41.42A7.58,7.58,0,0,0,81.05,33.86Z"/><path class="cls-4" d="M80.34,33.15H51.67a7.57,7.57,0,0,0-7.57,7.56V49h0a8.37,8.37,0,0,0,1.3,4.45,13.93,13.93,0,0,0,2.77,3.16l.08.07L58,66l-9.78,9.37-.08.07c-1.89,1.7-4.06,4.1-4.06,7.61h0V91.3a7.57,7.57,0,0,0,7.57,7.57H80.34a7.57,7.57,0,0,0,7.57-7.57V83.05h0a8.37,8.37,0,0,0-1.3-4.45,14.74,14.74,0,0,0-2.77-3.16l-.08-.07L74,66l9.78-9.37.08-.07c1.89-1.7,4.06-4.1,4.06-7.61h0V40.72A7.58,7.58,0,0,0,80.34,33.15Z"/><path class="cls-4" d="M79.63,32.44H51A7.57,7.57,0,0,0,43.4,40v8.25h0a8.37,8.37,0,0,0,1.3,4.45,13.93,13.93,0,0,0,2.77,3.16l.08.07,9.78,9.37-9.78,9.37-.08.07c-1.89,1.7-4.06,4.1-4.06,7.61h0v8.25A7.57,7.57,0,0,0,51,98.16H79.63a7.57,7.57,0,0,0,7.57-7.57V82.34h0a8.37,8.37,0,0,0-1.3-4.45,14.74,14.74,0,0,0-2.77-3.16l-.08-.07L73.27,65.3l9.78-9.37.08-.07c1.89-1.7,4.06-4.1,4.06-7.61h0V40A7.58,7.58,0,0,0,79.63,32.44Z"/><path class="cls-4" d="M78.93,31.73H50.26a7.57,7.57,0,0,0-7.57,7.56v8.25h0A8.37,8.37,0,0,0,44,52a13.93,13.93,0,0,0,2.77,3.16l.08.07,9.78,9.37L46.83,74l-.08.07c-1.89,1.7-4.06,4.1-4.06,7.61h0v8.25a7.57,7.57,0,0,0,7.57,7.57H78.93a7.57,7.57,0,0,0,7.57-7.57V81.63h0a8.37,8.37,0,0,0-1.3-4.45A14.74,14.74,0,0,0,82.43,74L82.35,74l-9.78-9.37,9.78-9.37.08-.07c1.89-1.7,4.06-4.1,4.06-7.61h0V39.3A7.58,7.58,0,0,0,78.93,31.73Z"/><path class="cls-4" d="M78.22,31H49.55A7.57,7.57,0,0,0,42,38.59v8.25h0a8.37,8.37,0,0,0,1.3,4.45A13.93,13.93,0,0,0,46,54.45l.08.07,9.78,9.37-9.78,9.37-.08.07C44.15,75,42,77.42,42,80.92h0v8.25a7.57,7.57,0,0,0,7.57,7.57H78.22a7.57,7.57,0,0,0,7.57-7.57V80.93h0a8.37,8.37,0,0,0-1.3-4.45,14.74,14.74,0,0,0-2.77-3.16l-.08-.07-9.78-9.37,9.78-9.37.08-.07c1.89-1.7,4.06-4.1,4.06-7.61h0V38.59A7.58,7.58,0,0,0,78.22,31Z"/><path class="cls-4" d="M77.51,30.32H48.84a7.57,7.57,0,0,0-7.57,7.56v8.25h0a8.37,8.37,0,0,0,1.3,4.45,13.93,13.93,0,0,0,2.77,3.16l.08.07,9.78,9.37-9.78,9.37-.08.07c-1.89,1.7-4.06,4.1-4.06,7.61h0v8.25A7.57,7.57,0,0,0,48.84,96H77.51a7.57,7.57,0,0,0,7.57-7.57V80.22h0a8.37,8.37,0,0,0-1.3-4.45A14.74,14.74,0,0,0,81,72.61l-.08-.07-9.78-9.37,9.78-9.37.08-.07c1.89-1.7,4.06-4.1,4.06-7.61h0V37.88A7.58,7.58,0,0,0,77.51,30.32Z"/><path class="cls-4" d="M76.8,29.61H48.13a7.57,7.57,0,0,0-7.57,7.56v8.25h0a8.37,8.37,0,0,0,1.3,4.45A13.93,13.93,0,0,0,44.63,53l.08.07,9.78,9.37-9.78,9.37-.08.07c-1.89,1.7-4.06,4.1-4.06,7.61h0v8.25a7.57,7.57,0,0,0,7.57,7.57H76.8a7.57,7.57,0,0,0,7.57-7.57V79.51h0a8.37,8.37,0,0,0-1.3-4.45A14.74,14.74,0,0,0,80.3,71.9l-.08-.07-9.78-9.37,9.78-9.37L80.3,53c1.89-1.7,4.06-4.1,4.06-7.61h0V37.17A7.58,7.58,0,0,0,76.8,29.61Z"/><path class="cls-4" d="M76.09,28.9H47.42a7.57,7.57,0,0,0-7.57,7.56v8.25h0a8.37,8.37,0,0,0,1.3,4.45,13.93,13.93,0,0,0,2.77,3.16l.08.07,9.78,9.37L44,71.12l-.08.07c-1.89,1.7-4.06,4.1-4.06,7.61h0V87a7.57,7.57,0,0,0,7.57,7.57H76.09A7.57,7.57,0,0,0,83.66,87V78.8h0a8.37,8.37,0,0,0-1.3-4.45,14.74,14.74,0,0,0-2.77-3.16l-.08-.07-9.78-9.37,9.78-9.37.08-.07c1.89-1.7,4.06-4.1,4.06-7.61h0V36.46A7.58,7.58,0,0,0,76.09,28.9Z"/><path class="cls-4" d="M75.38,28.19H46.71a7.57,7.57,0,0,0-7.57,7.56V44h0a8.37,8.37,0,0,0,1.3,4.45,13.93,13.93,0,0,0,2.77,3.16l.08.07L53.07,61l-9.78,9.37-.08.07c-1.89,1.7-4.06,4.1-4.06,7.61h0v8.25a7.57,7.57,0,0,0,7.57,7.57H75.38a7.57,7.57,0,0,0,7.57-7.57V78.09h0a8.37,8.37,0,0,0-1.3-4.45,14.74,14.74,0,0,0-2.77-3.16l-.08-.07L69,61l9.78-9.37.08-.07c1.89-1.7,4.06-4.1,4.06-7.61h0V35.76A7.58,7.58,0,0,0,75.38,28.19Z"/><path class="cls-4" d="M74.67,27.48H46A7.57,7.57,0,0,0,38.44,35v8.25h0a8.37,8.37,0,0,0,1.3,4.45A13.93,13.93,0,0,0,42.5,50.9l.08.07,9.78,9.37-9.78,9.37-.08.07c-1.89,1.7-4.06,4.1-4.06,7.61h0v8.25A7.57,7.57,0,0,0,46,93.19H74.67a7.57,7.57,0,0,0,7.57-7.57V77.38h0a8.37,8.37,0,0,0-1.3-4.45,14.74,14.74,0,0,0-2.77-3.16l-.08-.07-9.78-9.37L78.1,51l.08-.07c1.89-1.7,4.06-4.1,4.06-7.61h0V35A7.58,7.58,0,0,0,74.67,27.48Z"/><path class="cls-4" d="M74,26.77H45.29a7.57,7.57,0,0,0-7.57,7.56v8.25h0A8.37,8.37,0,0,0,39,47a13.93,13.93,0,0,0,2.77,3.16l.08.07,9.78,9.37L41.87,69l-.08.07c-1.89,1.7-4.06,4.1-4.06,7.61h0v8.25a7.57,7.57,0,0,0,7.57,7.57H74a7.57,7.57,0,0,0,7.57-7.57V76.67h0a8.37,8.37,0,0,0-1.3-4.45,14.74,14.74,0,0,0-2.77-3.16L77.39,69l-9.78-9.37,9.78-9.37.08-.07c1.89-1.7,4.06-4.1,4.06-7.61h0V34.34A7.58,7.58,0,0,0,74,26.77Z"/><path class="cls-4" d="M73.26,26.07H44.59A7.57,7.57,0,0,0,37,33.63v8.25h0a8.37,8.37,0,0,0,1.3,4.45,13.93,13.93,0,0,0,2.77,3.16l.08.07,9.78,9.37-9.78,9.37-.08.07C39.19,70.06,37,72.46,37,76h0v8.25a7.57,7.57,0,0,0,7.57,7.57H73.26a7.57,7.57,0,0,0,7.57-7.57V76h0a8.37,8.37,0,0,0-1.3-4.45,14.74,14.74,0,0,0-2.77-3.16l-.08-.07L66.9,58.92l9.78-9.37.08-.07c1.89-1.7,4.06-4.1,4.06-7.61h0V33.63A7.58,7.58,0,0,0,73.26,26.07Z"/><path class="cls-4" d="M72.55,25.36H43.88a7.57,7.57,0,0,0-7.57,7.56v8.25h0a8.37,8.37,0,0,0,1.3,4.45,13.93,13.93,0,0,0,2.77,3.16l.08.07,9.78,9.37-9.78,9.37-.08.07c-1.89,1.7-4.06,4.1-4.06,7.61h0V83.5a7.57,7.57,0,0,0,7.57,7.57H72.55a7.57,7.57,0,0,0,7.57-7.57V75.26h0a8.37,8.37,0,0,0-1.3-4.45A14.74,14.74,0,0,0,76,67.65L76,67.58l-9.78-9.37L76,48.84l.08-.07c1.89-1.7,4.06-4.1,4.06-7.61h0V32.92A7.58,7.58,0,0,0,72.55,25.36Z"/><path class="cls-4" d="M71.84,24.65H43.17a7.57,7.57,0,0,0-7.57,7.56v8.25h0a8.37,8.37,0,0,0,1.3,4.45,13.93,13.93,0,0,0,2.77,3.16l.08.07,9.78,9.37-9.78,9.37-.08.07c-1.89,1.7-4.06,4.1-4.06,7.61h0v8.25a7.57,7.57,0,0,0,7.57,7.57H71.84a7.57,7.57,0,0,0,7.57-7.57V74.55h0a8.37,8.37,0,0,0-1.3-4.45,14.74,14.74,0,0,0-2.77-3.16l-.08-.07L65.48,57.5l9.78-9.37.08-.07c1.89-1.7,4.06-4.1,4.06-7.61h0V32.21A7.58,7.58,0,0,0,71.84,24.65Z"/><path class="cls-4" d="M71.13,23.94H42.46a7.57,7.57,0,0,0-7.57,7.56v8.25h0a8.37,8.37,0,0,0,1.3,4.45A13.93,13.93,0,0,0,39,47.36l.08.07,9.78,9.37L39,66.16l-.08.07c-1.89,1.7-4.06,4.1-4.06,7.61h0v8.25a7.57,7.57,0,0,0,7.57,7.57H71.13a7.57,7.57,0,0,0,7.57-7.57V73.84h0a8.37,8.37,0,0,0-1.3-4.45,14.74,14.74,0,0,0-2.77-3.16l-.08-.07L64.77,56.8l9.78-9.37.08-.07c1.89-1.7,4.06-4.1,4.06-7.61h0V31.5A7.58,7.58,0,0,0,71.13,23.94Z"/><path class="cls-4" d="M70.42,23.23H41.75a7.57,7.57,0,0,0-7.57,7.56V39h0a8.37,8.37,0,0,0,1.3,4.45,13.93,13.93,0,0,0,2.77,3.16l.08.07,9.78,9.37-9.78,9.37-.08.07c-1.89,1.7-4.06,4.1-4.06,7.61h0v8.25a7.57,7.57,0,0,0,7.57,7.57H70.42A7.57,7.57,0,0,0,78,81.38V73.13h0a8.37,8.37,0,0,0-1.3-4.45,14.74,14.74,0,0,0-2.77-3.16l-.08-.07-9.78-9.37,9.78-9.37.08-.07C75.82,45,78,42.55,78,39h0V30.8A7.58,7.58,0,0,0,70.42,23.23Z"/><path class="cls-4" d="M69.71,22.52H41a7.57,7.57,0,0,0-7.57,7.56v8.25h0a8.37,8.37,0,0,0,1.3,4.45,13.93,13.93,0,0,0,2.77,3.16l.08.07,9.78,9.37-9.78,9.37-.08.07c-1.89,1.7-4.06,4.1-4.06,7.61h0v8.25A7.57,7.57,0,0,0,41,88.23H69.71a7.57,7.57,0,0,0,7.57-7.57V72.42h0A8.37,8.37,0,0,0,76,68a14.74,14.74,0,0,0-2.77-3.16l-.08-.07-9.78-9.37L73.14,46l.08-.07c1.89-1.7,4.06-4.1,4.06-7.61h0V30.09A7.58,7.58,0,0,0,69.71,22.52Z"/><path class="cls-4" d="M69,21.81H40.33a7.57,7.57,0,0,0-7.57,7.56v8.25h0a8.37,8.37,0,0,0,1.3,4.45,13.93,13.93,0,0,0,2.77,3.16l.08.07,9.78,9.37L36.91,64l-.08.07c-1.89,1.7-4.06,4.1-4.06,7.61h0V80a7.57,7.57,0,0,0,7.57,7.57H69A7.57,7.57,0,0,0,76.57,80V71.71h0a8.37,8.37,0,0,0-1.3-4.45,14.74,14.74,0,0,0-2.77-3.16L72.43,64l-9.78-9.37,9.78-9.37.08-.07c1.89-1.7,4.06-4.1,4.06-7.61h0V29.38A7.58,7.58,0,0,0,69,21.81Z"/><path class="cls-4" d="M68.3,21.1H39.63a7.57,7.57,0,0,0-7.57,7.56v8.25h0a8.37,8.37,0,0,0,1.3,4.45,13.93,13.93,0,0,0,2.77,3.16l.08.07L46,54,36.2,63.33l-.08.07c-1.89,1.7-4.06,4.1-4.06,7.61h0v8.25a7.57,7.57,0,0,0,7.57,7.57H68.3a7.57,7.57,0,0,0,7.57-7.57V71h0a8.37,8.37,0,0,0-1.3-4.45A14.74,14.74,0,0,0,71.8,63.4l-.08-.07L61.94,54l9.78-9.37.08-.07c1.89-1.7,4.06-4.1,4.06-7.61h0V28.67A7.58,7.58,0,0,0,68.3,21.1Z"/><path class="cls-4" d="M67.59,20.4H38.92A7.57,7.57,0,0,0,31.35,28v8.25h0a8.37,8.37,0,0,0,1.3,4.45,13.93,13.93,0,0,0,2.77,3.16l.08.07,9.78,9.37-9.78,9.37-.08.07c-1.89,1.7-4.06,4.1-4.06,7.61h0v8.25a7.57,7.57,0,0,0,7.57,7.57H67.59a7.57,7.57,0,0,0,7.57-7.57V70.3h0a8.37,8.37,0,0,0-1.3-4.45,14.74,14.74,0,0,0-2.77-3.16L71,62.62l-9.78-9.37L71,43.88l.08-.07c1.89-1.7,4.06-4.1,4.06-7.61h0V28A7.58,7.58,0,0,0,67.59,20.4Z"/><path class="cls-4" d="M66.88,19.69H38.21a7.57,7.57,0,0,0-7.57,7.56V35.5h0a8.37,8.37,0,0,0,1.3,4.45,13.93,13.93,0,0,0,2.77,3.16l.08.07,9.78,9.37-9.78,9.37-.08.07c-1.89,1.7-4.06,4.1-4.06,7.61h0v8.25a7.57,7.57,0,0,0,7.57,7.57H66.88a7.57,7.57,0,0,0,7.57-7.57V69.59h0a8.37,8.37,0,0,0-1.3-4.45A14.74,14.74,0,0,0,70.38,62l-.08-.07-9.78-9.37,9.78-9.37.08-.07c1.89-1.7,4.06-4.1,4.06-7.61h0V27.25A7.58,7.58,0,0,0,66.88,19.69Z"/><path class="cls-4" d="M66.17,19H37.5a7.57,7.57,0,0,0-7.57,7.56v8.25h0a8.37,8.37,0,0,0,1.3,4.45A13.93,13.93,0,0,0,34,42.4l.08.07,9.78,9.37L34.08,61.2l-.08.07c-1.89,1.7-4.06,4.1-4.06,7.61h0v8.25a7.57,7.57,0,0,0,7.57,7.57H66.17a7.57,7.57,0,0,0,7.57-7.57V68.88h0a8.37,8.37,0,0,0-1.3-4.45,14.74,14.74,0,0,0-2.77-3.16l-.08-.07-9.78-9.37,9.78-9.37.08-.07c1.89-1.7,4.06-4.1,4.06-7.61h0V26.54A7.58,7.58,0,0,0,66.17,19Z"/><path class="cls-4" d="M65.46,18.27H36.79a7.57,7.57,0,0,0-7.57,7.56v8.25h0a8.37,8.37,0,0,0,1.3,4.45,13.93,13.93,0,0,0,2.77,3.16l.08.07,9.78,9.37-9.78,9.37-.08.07c-1.89,1.7-4.06,4.1-4.06,7.61h0v8.25A7.57,7.57,0,0,0,36.79,84H65.46A7.57,7.57,0,0,0,73,76.42V68.17h0a8.37,8.37,0,0,0-1.3-4.45A14.74,14.74,0,0,0,69,60.56l-.08-.07L59.1,51.13l9.78-9.37.08-.07C70.85,40,73,37.59,73,34.08h0V25.84A7.58,7.58,0,0,0,65.46,18.27Z"/><path class="cls-4" d="M64.75,17.56H36.08a7.57,7.57,0,0,0-7.57,7.56v8.25h0a8.37,8.37,0,0,0,1.3,4.45A13.93,13.93,0,0,0,32.58,41l.08.07,9.78,9.37-9.78,9.37-.08.07c-1.89,1.7-4.06,4.1-4.06,7.61h0v8.25a7.57,7.57,0,0,0,7.57,7.57H64.75a7.57,7.57,0,0,0,7.57-7.57V67.46h0A8.37,8.37,0,0,0,71,63a14.74,14.74,0,0,0-2.77-3.16l-.08-.07-9.78-9.37L68.18,41l.08-.07c1.89-1.7,4.06-4.1,4.06-7.61h0V25.13A7.58,7.58,0,0,0,64.75,17.56Z"/><path class="cls-4" d="M64,16.85H35.37a7.57,7.57,0,0,0-7.57,7.56v8.25h0a8.37,8.37,0,0,0,1.3,4.45,13.93,13.93,0,0,0,2.77,3.16l.08.07,9.78,9.37L32,59.08l-.08.07c-1.89,1.7-4.06,4.1-4.06,7.61h0V75a7.57,7.57,0,0,0,7.57,7.57H64A7.57,7.57,0,0,0,71.61,75V66.75h0a8.37,8.37,0,0,0-1.3-4.45,14.74,14.74,0,0,0-2.77-3.16l-.08-.07-9.78-9.37,9.78-9.37.08-.07c1.89-1.7,4.06-4.1,4.06-7.61h0V24.42A7.58,7.58,0,0,0,64,16.85Z"/><path class="cls-4" d="M63.34,16.14H34.67a7.57,7.57,0,0,0-7.57,7.56V32h0a8.37,8.37,0,0,0,1.3,4.45,14.73,14.73,0,0,0,2.77,3.16l.08.07L41,49l-9.78,9.37-.08.07c-1.89,1.7-4.06,4.1-4.06,7.61h0v8.25a7.57,7.57,0,0,0,7.57,7.57H63.34a7.57,7.57,0,0,0,7.57-7.57V66h0a8.37,8.37,0,0,0-1.3-4.45,14.74,14.74,0,0,0-2.77-3.16l-.08-.07L57,49l9.78-9.37.08-.07c1.89-1.7,4.06-4.1,4.06-7.61h0V23.71A7.58,7.58,0,0,0,63.34,16.14Z"/></g></g><path class="cls-5" d="M63.34,16.14H34.67a7.57,7.57,0,0,0-7.57,7.56V32h0a8.37,8.37,0,0,0,1.3,4.45,14.73,14.73,0,0,0,2.77,3.16l.08.07L41,49l-9.78,9.37-.08.07c-1.89,1.7-4.06,4.1-4.06,7.61h0v8.25a7.57,7.57,0,0,0,7.57,7.57H63.34a7.57,7.57,0,0,0,7.57-7.57V66h0a8.37,8.37,0,0,0-1.3-4.45,14.74,14.74,0,0,0-2.77-3.16l-.08-.07L57,49l9.78-9.37.08-.07c1.89-1.7,4.06-4.1,4.06-7.61h0V23.71A7.58,7.58,0,0,0,63.34,16.14Z"/><path class="cls-4" d="M58,37.6H40a1,1,0,0,0-.7,1.78v0l7.25,6.89.06.06.06.06h0l.08.09,0,.05.08.1,0,0,.08.11,0,0,.07.11,0,.05.06.1,0,.06,0,.09,0,.07,0,.09,0,.08,0,.08,0,.09,0,.07,0,.11,0,.06,0,.11v.06l0,.12v.06l0,.12v.06l0,.11s0,0,0,.07v.11s0,.05,0,.08V59.22A3.27,3.27,0,0,1,45,62.77c-2.54.73-9.7,2.11-10.66,2.3l-.09,0h0a1.8,1.8,0,0,0-1.38,1.75v7.45a1.8,1.8,0,0,0,1.8,1.8H63.34a1.8,1.8,0,0,0,1.8-1.8V66.84a1.8,1.8,0,0,0-1.38-1.75h0l-.09,0c-.95-.18-8.12-1.57-10.66-2.3a3.27,3.27,0,0,1-2.68-3.54V48.81s0-.05,0-.08,0-.07,0-.11v-.07l0-.11v-.06l0-.12V48.2l0-.12V48l0-.11,0-.06,0-.11,0-.07,0-.09,0-.08,0-.08,0-.09,0-.07.05-.09,0-.06.06-.1,0-.05.07-.11,0,0,.08-.11,0,0,.08-.1,0-.05.08-.09h0l.06-.06.06-.06,7.24-6.89v0a1,1,0,0,0,.33-.75A1,1,0,0,0,58,37.6Z"/><path class="cls-4" d="M63.34,16.14H34.67a7.57,7.57,0,0,0-7.57,7.56V32h0a8.37,8.37,0,0,0,1.3,4.45,14.73,14.73,0,0,0,2.77,3.16l.08.07L41,49l-9.78,9.37-.08.07c-1.89,1.7-4.06,4.1-4.06,7.61h0v8.25a7.57,7.57,0,0,0,7.57,7.57H63.34a7.57,7.57,0,0,0,7.57-7.57V66h0a8.37,8.37,0,0,0-1.3-4.45,14.74,14.74,0,0,0-2.77-3.16l-.08-.07L57,49l9.78-9.37.08-.07c1.89-1.7,4.06-4.1,4.06-7.61h0V23.71A7.58,7.58,0,0,0,63.34,16.14Zm.92,20.31-.17.15L52.66,47.54l0,0,0,0,0,0-.07.08-.06.08-.06.09-.05.08,0,.09,0,.09,0,.09,0,.09,0,.09,0,.1,0,.09,0,.1v.09s0,.07,0,.1,0,.07,0,.1,0,.06,0,.1,0,.07,0,.1v.09l0,.1,0,.09,0,.1,0,.09,0,.09,0,.09,0,.09.05.09.05.08.06.09.06.08.07.08,0,0,0,0,0,0L64.09,61.4l.17.15c1.87,1.71,2.61,3,2.61,4.5v8.24a3.53,3.53,0,0,1-3.53,3.53H34.67a3.53,3.53,0,0,1-3.53-3.53V66c0-1.52.73-2.79,2.61-4.5l.17-.15L45.34,50.46l0,0,0,0,0,0,.07-.08.06-.08.06-.09.05-.08.05-.09,0-.09,0-.09,0-.09,0-.09,0-.1,0-.09,0-.1V49.1s0-.07,0-.1,0-.06,0-.1,0-.07,0-.1v-.09l0-.1,0-.09,0-.1,0-.09,0-.09,0-.09,0-.09L45.68,48l-.05-.08-.06-.09-.06-.08-.07-.08,0,0,0,0,0,0L33.91,36.6l-.17-.14c-1.88-1.71-2.61-3-2.61-4.5V23.71a3.53,3.53,0,0,1,3.53-3.53H63.34a3.53,3.53,0,0,1,3.53,3.53V32h0C66.87,33.48,66.13,34.75,64.26,36.46Z"/></svg>