<svg id="Ebene_1" data-name="Ebene 1" xmlns="http://www.w3.org/2000/svg" xmlns:xlink="http://www.w3.org/1999/xlink" viewBox="0 0 100 100"><defs><style>.cls-1{fill:none;}.cls-2{clip-path:url(#clip-path);}.cls-3{opacity:0.15;}.cls-4{fill:#149cd6;}.cls-5{fill:#fff;}</style><clipPath id="clip-path"><rect class="cls-1" width="100" height="100"/></clipPath></defs><title>home-5</title><g class="cls-2"><g class="cls-3"><rect class="cls-4" x="99.72" y="99.62" width="65.25" height="65.17"/><rect class="cls-4" x="99.02" y="98.91" width="65.25" height="65.17"/><rect class="cls-4" x="98.31" y="98.2" width="65.25" height="65.17"/><rect class="cls-4" x="97.6" y="97.49" width="65.25" height="65.17"/><rect class="cls-4" x="96.89" y="96.78" width="65.25" height="65.17"/><rect class="cls-4" x="96.18" y="96.07" width="65.25" height="65.17"/><rect class="cls-4" x="95.47" y="95.36" width="65.25" height="65.17"/><rect class="cls-4" x="94.76" y="94.65" width="65.25" height="65.17"/><rect class="cls-4" x="94.05" y="93.94" width="65.25" height="65.17"/><rect class="cls-4" x="93.34" y="93.23" width="65.25" height="65.17"/><rect class="cls-4" x="92.63" y="92.52" width="65.25" height="65.17"/><rect class="cls-4" x="91.92" y="91.81" width="65.25" height="65.17"/><rect class="cls-4" x="91.21" y="91.1" width="65.25" height="65.17"/><rect class="cls-4" x="90.5" y="90.39" width="65.25" height="65.17"/><rect class="cls-4" x="89.79" y="89.68" width="65.25" height="65.17"/><rect class="cls-4" x="89.08" y="88.97" width="65.25" height="65.17"/><rect class="cls-4" x="88.37" y="88.27" width="65.25" height="65.17"/><rect class="cls-4" x="87.66" y="87.56" width="65.25" height="65.17"/><rect class="cls-4" x="86.95" y="86.85" width="65.25" height="65.17"/><rect class="cls-4" x="86.24" y="86.14" width="65.25" height="65.17"/><rect class="cls-4" x="85.53" y="85.43" width="65.25" height="65.17"/><rect class="cls-4" x="84.83" y="84.72" width="65.25" height="65.17"/><rect class="cls-4" x="84.12" y="84.01" width="65.25" height="65.17"/><rect class="cls-4" x="83.41" y="83.3" width="65.25" height="65.17"/><rect class="cls-4" x="82.7" y="82.59" width="65.25" height="65.17"/><rect class="cls-4" x="81.99" y="81.88" width="65.25" height="65.17"/><rect class="cls-4" x="81.28" y="81.17" width="65.25" height="65.17"/><rect class="cls-4" x="80.57" y="80.46" width="65.25" height="65.17"/><rect class="cls-4" x="79.86" y="79.75" width="65.25" height="65.17"/><rect class="cls-4" x="79.15" y="79.04" width="65.25" height="65.17"/><rect class="cls-4" x="78.44" y="78.33" width="65.25" height="65.17"/><rect class="cls-4" x="77.73" y="77.62" width="65.25" height="65.17"/><rect class="cls-4" x="77.02" y="76.91" width="65.25" height="65.17"/><rect class="cls-4" x="76.31" y="76.2" width="65.25" height="65.17"/><rect class="cls-4" x="75.6" y="75.49" width="65.25" height="65.17"/><rect class="cls-4" x="74.89" y="74.78" width="65.25" height="65.17"/><rect class="cls-4" x="74.18" y="74.08" width="65.25" height="65.17"/><rect class="cls-4" x="73.47" y="73.37" width="65.25" height="65.17"/><rect class="cls-4" x="72.76" y="72.66" width="65.25" height="65.17"/><rect class="cls-4" x="72.05" y="71.95" width="65.25" height="65.17"/><rect class="cls-4" x="71.35" y="71.24" width="65.25" height="65.17"/><rect class="cls-4" x="70.64" y="70.53" width="65.25" height="65.17"/><rect class="cls-4" x="69.93" y="69.82" width="65.25" height="65.17"/><rect class="cls-4" x="69.22" y="69.11" width="65.25" height="65.17"/><rect class="cls-4" x="68.51" y="68.4" width="65.25" height="65.17"/><rect class="cls-4" x="67.8" y="67.69" width="65.25" height="65.17"/><rect class="cls-4" x="67.09" y="66.98" width="65.25" height="65.17"/><rect class="cls-4" x="66.38" y="66.27" width="65.25" height="65.17"/><rect class="cls-4" x="65.67" y="65.56" width="65.25" height="65.17"/><rect class="cls-4" x="64.96" y="64.85" width="65.25" height="65.17"/><rect class="cls-4" x="64.25" y="64.14" width="65.25" height="65.17"/><rect class="cls-4" x="63.54" y="63.43" width="65.25" height="65.17"/><rect class="cls-4" x="62.83" y="62.72" width="65.25" height="65.17"/><rect class="cls-4" x="62.12" y="62.01" width="65.25" height="65.17"/><rect class="cls-4" x="61.41" y="61.3" width="65.25" height="65.17"/><rect class="cls-4" x="60.7" y="60.6" width="65.25" height="65.17"/><rect class="cls-4" x="59.99" y="59.89" width="65.25" height="65.17"/><rect class="cls-4" x="59.28" y="59.18" width="65.25" height="65.17"/><rect class="cls-4" x="58.57" y="58.47" width="65.25" height="65.17"/><rect class="cls-4" x="57.86" y="57.76" width="65.25" height="65.17"/><rect class="cls-4" x="57.16" y="57.05" width="65.25" height="65.17"/><rect class="cls-4" x="56.45" y="56.34" width="65.25" height="65.17"/><rect class="cls-4" x="55.74" y="55.63" width="65.25" height="65.17"/><rect class="cls-4" x="55.03" y="54.92" width="65.25" height="65.17"/><rect class="cls-4" x="54.32" y="54.21" width="65.25" height="65.17"/><rect class="cls-4" x="53.61" y="53.5" width="65.25" height="65.17"/><rect class="cls-4" x="52.9" y="52.79" width="65.25" height="65.17"/><rect class="cls-4" x="52.19" y="52.08" width="65.25" height="65.17"/><rect class="cls-4" x="51.48" y="51.37" width="65.25" height="65.17"/><rect class="cls-4" x="50.77" y="50.66" width="65.25" height="65.17"/><rect class="cls-4" x="50.06" y="49.95" width="65.25" height="65.17"/><rect class="cls-4" x="49.35" y="49.24" width="65.25" height="65.17"/><rect class="cls-4" x="48.64" y="48.53" width="65.25" height="65.17"/><rect class="cls-4" x="47.93" y="47.82" width="65.25" height="65.17"/><rect class="cls-4" x="47.22" y="47.11" width="65.25" height="65.17"/><rect class="cls-4" x="46.51" y="46.41" width="65.25" height="65.17"/><rect class="cls-4" x="45.8" y="45.7" width="65.25" height="65.17"/><rect class="cls-4" x="45.09" y="44.99" width="65.25" height="65.17"/><rect class="cls-4" x="44.38" y="44.28" width="65.25" height="65.17"/><rect class="cls-4" x="43.67" y="43.57" width="65.25" height="65.17"/><rect class="cls-4" x="42.97" y="42.86" width="65.25" height="65.17"/><rect class="cls-4" x="42.26" y="42.15" width="65.25" height="65.17"/><rect class="cls-4" x="41.55" y="41.44" width="65.25" height="65.17"/><rect class="cls-4" x="40.84" y="40.73" width="65.25" height="65.17"/><rect class="cls-4" x="40.13" y="40.02" width="65.25" height="65.17"/><rect class="cls-4" x="39.42" y="39.31" width="65.25" height="65.17"/><rect class="cls-4" x="38.71" y="38.6" width="65.25" height="65.17"/><rect class="cls-4" x="38" y="37.89" width="65.25" height="65.17"/><rect class="cls-4" x="37.29" y="37.18" width="65.25" height="65.17"/><rect class="cls-4" x="36.58" y="36.47" width="65.25" height="65.17"/><rect class="cls-4" x="35.87" y="35.76" width="65.25" height="65.17"/><rect class="cls-4" x="35.16" y="35.05" width="65.25" height="65.17"/><rect class="cls-4" x="34.45" y="34.34" width="65.25" height="65.17"/><rect class="cls-4" x="33.74" y="33.63" width="65.25" height="65.17"/><rect class="cls-4" x="33.03" y="32.92" width="65.25" height="65.17"/><rect class="cls-4" x="32.32" y="32.22" width="65.25" height="65.17"/><rect class="cls-4" x="31.61" y="31.51" width="65.25" height="65.17"/><rect class="cls-4" x="30.9" y="30.8" width="65.25" height="65.17"/><rect class="cls-4" x="30.19" y="30.09" width="65.25" height="65.17"/><rect class="cls-4" x="29.49" y="29.38" width="65.25" height="65.17"/><rect class="cls-4" x="28.78" y="28.67" width="65.25" height="65.17"/><rect class="cls-4" x="28.07" y="27.96" width="65.25" height="65.17"/><rect class="cls-4" x="27.36" y="27.25" width="65.25" height="65.17"/><rect class="cls-4" x="26.65" y="26.54" width="65.25" height="65.17"/><rect class="cls-4" x="25.94" y="25.83" width="65.25" height="65.17"/><rect class="cls-4" x="25.23" y="25.12" width="65.25" height="65.17"/><rect class="cls-4" x="24.52" y="24.41" width="65.25" height="65.17"/><rect class="cls-4" x="23.81" y="23.7" width="65.25" height="65.17"/><rect class="cls-4" x="23.1" y="22.99" width="65.25" height="65.17"/><rect class="cls-4" x="22.39" y="22.28" width="65.25" height="65.17"/><rect class="cls-4" x="21.68" y="21.57" width="65.25" height="65.17"/><rect class="cls-4" x="20.97" y="20.86" width="65.25" height="65.17"/><rect class="cls-4" x="20.26" y="20.15" width="65.25" height="65.17"/><rect class="cls-4" x="19.55" y="19.44" width="65.25" height="65.17"/><rect class="cls-4" x="18.84" y="18.74" width="65.25" height="65.17"/><rect class="cls-4" x="18.13" y="18.03" width="65.25" height="65.17"/><rect class="cls-4" x="17.42" y="17.32" width="65.25" height="65.17"/></g></g><rect class="cls-5" x="19.12" y="19.01" width="61.78" height="61.78"/><path class="cls-4" d="M17.42,17.32V82.48H82.68V17.32ZM80.9,38.9H61V19H81V38.9Zm-41,21.16v-.42l9.39-12.53a2.58,2.58,0,0,0,3.64-.85l7.36,4.82v9H39.85Zm20.31.85V80.79H39.85V60.9Zm0-21.16V50.07l-7-4.57c0-.17.08-.34.08-.51a2.54,2.54,0,1,0-5.08,0,2.36,2.36,0,0,0,.51,1.52l-8.8,11.68V39.74ZM39.85,38.9V19H60.16V38.9ZM39,59.29l-.51.76h-9L27.24,54.3a2.61,2.61,0,0,0,1.18-2.12,2.54,2.54,0,1,0-2.54,2.54,1.65,1.65,0,0,0,.59-.08l2.2,5.42H19.2V39.74H39.09V59.29Zm-5.16,6.94a2.36,2.36,0,0,0-1.52-.51,1.07,1.07,0,0,0-.51.08L29.86,61h8ZM61,51.59,64.65,54v.25a2.54,2.54,0,1,0,5.08,0,2.34,2.34,0,0,0-.42-1.35L74,48.21a2.36,2.36,0,0,0,1.52.51,2.54,2.54,0,1,0-2.54-2.54,2.34,2.34,0,0,0,.42,1.35l-4.65,4.65a2.36,2.36,0,0,0-1.52-.51,2.55,2.55,0,0,0-2.29,1.44L61,50.58V39.74H81V60.06H61ZM39,19V38.9H19.12V19ZM19.12,60.9h9.82L31,66.06a2.41,2.41,0,0,0-1.18,2.12,2.54,2.54,0,1,0,5.08,0,2.34,2.34,0,0,0-.42-1.35l4.4-5.92H39V80.79H19.12V60.9ZM61,80.79V60.9H81V80.79Z"/></svg>