<svg xmlns="http://www.w3.org/2000/svg" xmlns:xlink="http://www.w3.org/1999/xlink" viewBox="0 0 100 100"><defs><style>.cls-1{fill:none;}.cls-2{isolation:isolate;}.cls-3{clip-path:url(#clip-path);}.cls-4{opacity:0.15;mix-blend-mode:multiply;}.cls-5{fill:#149cd6;}.cls-6{fill:#fff;}</style><clipPath id="clip-path"><rect class="cls-1" width="100" height="100"/></clipPath></defs><title>home-3</title><g class="cls-2"><g id="Ebene_1" data-name="Ebene 1"><g class="cls-3"><g class="cls-4"><rect class="cls-5" x="99.97" y="95.85" width="61.77" height="61.77" rx="5.66" ry="5.66"/><rect class="cls-5" x="99.25" y="95.16" width="61.77" height="61.77" rx="5.66" ry="5.66"/><rect class="cls-5" x="98.53" y="94.47" width="61.77" height="61.77" rx="5.66" ry="5.66"/><rect class="cls-5" x="97.81" y="93.78" width="61.77" height="61.77" rx="5.66" ry="5.66"/><rect class="cls-5" x="97.08" y="93.09" width="61.77" height="61.77" rx="5.66" ry="5.66"/><rect class="cls-5" x="96.36" y="92.4" width="61.77" height="61.77" rx="5.66" ry="5.66"/><rect class="cls-5" x="95.64" y="91.7" width="61.77" height="61.77" rx="5.66" ry="5.66"/><rect class="cls-5" x="94.92" y="91.01" width="61.77" height="61.77" rx="5.66" ry="5.66"/><rect class="cls-5" x="94.2" y="90.32" width="61.77" height="61.77" rx="5.66" ry="5.66"/><rect class="cls-5" x="93.48" y="89.63" width="61.77" height="61.77" rx="5.66" ry="5.66"/><rect class="cls-5" x="92.76" y="88.94" width="61.77" height="61.77" rx="5.66" ry="5.66"/><rect class="cls-5" x="92.04" y="88.25" width="61.77" height="61.77" rx="5.66" ry="5.66"/><rect class="cls-5" x="91.32" y="87.56" width="61.77" height="61.77" rx="5.66" ry="5.66"/><rect class="cls-5" x="90.59" y="86.87" width="61.77" height="61.77" rx="5.66" ry="5.66"/><rect class="cls-5" x="89.87" y="86.17" width="61.77" height="61.77" rx="5.66" ry="5.66"/><rect class="cls-5" x="89.15" y="85.48" width="61.77" height="61.77" rx="5.66" ry="5.66"/><rect class="cls-5" x="88.43" y="84.79" width="61.77" height="61.77" rx="5.66" ry="5.66"/><rect class="cls-5" x="87.71" y="84.1" width="61.77" height="61.77" rx="5.66" ry="5.66"/><rect class="cls-5" x="86.99" y="83.41" width="61.77" height="61.77" rx="5.66" ry="5.66"/><rect class="cls-5" x="86.27" y="82.72" width="61.77" height="61.77" rx="5.66" ry="5.66"/><rect class="cls-5" x="85.55" y="82.03" width="61.77" height="61.77" rx="5.66" ry="5.66"/><rect class="cls-5" x="84.83" y="81.33" width="61.77" height="61.77" rx="5.66" ry="5.66"/><rect class="cls-5" x="84.1" y="80.64" width="61.77" height="61.77" rx="5.66" ry="5.66"/><rect class="cls-5" x="83.38" y="79.95" width="61.77" height="61.77" rx="5.66" ry="5.66"/><rect class="cls-5" x="82.66" y="79.26" width="61.77" height="61.77" rx="5.66" ry="5.66"/><rect class="cls-5" x="81.94" y="78.57" width="61.77" height="61.77" rx="5.66" ry="5.66"/><rect class="cls-5" x="81.22" y="77.88" width="61.77" height="61.77" rx="5.66" ry="5.66"/><rect class="cls-5" x="80.5" y="77.19" width="61.77" height="61.77" rx="5.66" ry="5.66"/><rect class="cls-5" x="79.78" y="76.5" width="61.77" height="61.77" rx="5.66" ry="5.66"/><rect class="cls-5" x="79.06" y="75.8" width="61.77" height="61.77" rx="5.66" ry="5.66"/><rect class="cls-5" x="78.33" y="75.11" width="61.77" height="61.77" rx="5.66" ry="5.66"/><rect class="cls-5" x="77.61" y="74.42" width="61.77" height="61.77" rx="5.66" ry="5.66"/><rect class="cls-5" x="76.89" y="73.73" width="61.77" height="61.77" rx="5.66" ry="5.66"/><rect class="cls-5" x="76.17" y="73.04" width="61.77" height="61.77" rx="5.66" ry="5.66"/><rect class="cls-5" x="75.45" y="72.35" width="61.77" height="61.77" rx="5.66" ry="5.66"/><rect class="cls-5" x="74.73" y="71.66" width="61.77" height="61.77" rx="5.66" ry="5.66"/><rect class="cls-5" x="74.01" y="70.96" width="61.77" height="61.77" rx="5.66" ry="5.66"/><rect class="cls-5" x="73.29" y="70.27" width="61.77" height="61.77" rx="5.66" ry="5.66"/><rect class="cls-5" x="72.57" y="69.58" width="61.77" height="61.77" rx="5.66" ry="5.66"/><rect class="cls-5" x="71.84" y="68.89" width="61.77" height="61.77" rx="5.66" ry="5.66"/><rect class="cls-5" x="71.12" y="68.2" width="61.77" height="61.77" rx="5.66" ry="5.66"/><rect class="cls-5" x="70.4" y="67.51" width="61.77" height="61.77" rx="5.66" ry="5.66"/><rect class="cls-5" x="69.68" y="66.82" width="61.77" height="61.77" rx="5.66" ry="5.66"/><rect class="cls-5" x="68.96" y="66.13" width="61.77" height="61.77" rx="5.66" ry="5.66"/><rect class="cls-5" x="68.24" y="65.43" width="61.77" height="61.77" rx="5.66" ry="5.66"/><rect class="cls-5" x="67.52" y="64.74" width="61.77" height="61.77" rx="5.66" ry="5.66"/><rect class="cls-5" x="66.8" y="64.05" width="61.77" height="61.77" rx="5.66" ry="5.66"/><rect class="cls-5" x="66.08" y="63.36" width="61.77" height="61.77" rx="5.66" ry="5.66"/><rect class="cls-5" x="65.35" y="62.67" width="61.77" height="61.77" rx="5.66" ry="5.66"/><rect class="cls-5" x="64.63" y="61.98" width="61.77" height="61.77" rx="5.66" ry="5.66"/><rect class="cls-5" x="63.91" y="61.29" width="61.77" height="61.77" rx="5.66" ry="5.66"/><rect class="cls-5" x="63.19" y="60.6" width="61.77" height="61.77" rx="5.66" ry="5.66"/><rect class="cls-5" x="62.47" y="59.9" width="61.77" height="61.77" rx="5.66" ry="5.66"/><rect class="cls-5" x="61.75" y="59.21" width="61.77" height="61.77" rx="5.66" ry="5.66"/><rect class="cls-5" x="61.03" y="58.52" width="61.77" height="61.77" rx="5.66" ry="5.66"/><rect class="cls-5" x="60.31" y="57.83" width="61.77" height="61.77" rx="5.66" ry="5.66"/><rect class="cls-5" x="59.58" y="57.14" width="61.77" height="61.77" rx="5.66" ry="5.66"/><rect class="cls-5" x="58.86" y="56.45" width="61.77" height="61.77" rx="5.66" ry="5.66"/><rect class="cls-5" x="58.14" y="55.76" width="61.77" height="61.77" rx="5.66" ry="5.66"/><rect class="cls-5" x="57.42" y="55.06" width="61.77" height="61.77" rx="5.66" ry="5.66"/><rect class="cls-5" x="56.7" y="54.37" width="61.77" height="61.77" rx="5.66" ry="5.66"/><rect class="cls-5" x="55.98" y="53.68" width="61.77" height="61.77" rx="5.66" ry="5.66"/><rect class="cls-5" x="55.26" y="52.99" width="61.77" height="61.77" rx="5.66" ry="5.66"/><rect class="cls-5" x="54.54" y="52.3" width="61.77" height="61.77" rx="5.66" ry="5.66"/><rect class="cls-5" x="53.82" y="51.61" width="61.77" height="61.77" rx="5.66" ry="5.66"/><rect class="cls-5" x="53.09" y="50.92" width="61.77" height="61.77" rx="5.66" ry="5.66"/><rect class="cls-5" x="52.37" y="50.23" width="61.77" height="61.77" rx="5.66" ry="5.66"/><rect class="cls-5" x="51.65" y="49.53" width="61.77" height="61.77" rx="5.66" ry="5.66"/><rect class="cls-5" x="50.93" y="48.84" width="61.77" height="61.77" rx="5.66" ry="5.66"/><rect class="cls-5" x="50.21" y="48.15" width="61.77" height="61.77" rx="5.66" ry="5.66"/><rect class="cls-5" x="49.49" y="47.46" width="61.77" height="61.77" rx="5.66" ry="5.66"/><rect class="cls-5" x="48.77" y="46.77" width="61.77" height="61.77" rx="5.66" ry="5.66"/><rect class="cls-5" x="48.05" y="46.08" width="61.77" height="61.77" rx="5.66" ry="5.66"/><rect class="cls-5" x="47.33" y="45.39" width="61.77" height="61.77" rx="5.66" ry="5.66"/><rect class="cls-5" x="46.6" y="44.69" width="61.77" height="61.77" rx="5.66" ry="5.66"/><rect class="cls-5" x="45.88" y="44" width="61.77" height="61.77" rx="5.66" ry="5.66"/><rect class="cls-5" x="45.16" y="43.31" width="61.77" height="61.77" rx="5.66" ry="5.66"/><rect class="cls-5" x="44.44" y="42.62" width="61.77" height="61.77" rx="5.66" ry="5.66"/><rect class="cls-5" x="43.72" y="41.93" width="61.77" height="61.77" rx="5.66" ry="5.66"/><rect class="cls-5" x="43" y="41.24" width="61.77" height="61.77" rx="5.66" ry="5.66"/><rect class="cls-5" x="42.28" y="40.55" width="61.77" height="61.77" rx="5.66" ry="5.66"/><rect class="cls-5" x="41.56" y="39.86" width="61.77" height="61.77" rx="5.66" ry="5.66"/><rect class="cls-5" x="40.83" y="39.16" width="61.77" height="61.77" rx="5.66" ry="5.66"/><rect class="cls-5" x="40.11" y="38.47" width="61.77" height="61.77" rx="5.66" ry="5.66"/><rect class="cls-5" x="39.39" y="37.78" width="61.77" height="61.77" rx="5.66" ry="5.66"/><rect class="cls-5" x="38.67" y="37.09" width="61.77" height="61.77" rx="5.66" ry="5.66"/><rect class="cls-5" x="37.95" y="36.4" width="61.77" height="61.77" rx="5.66" ry="5.66"/><rect class="cls-5" x="37.23" y="35.71" width="61.77" height="61.77" rx="5.66" ry="5.66"/><rect class="cls-5" x="36.51" y="35.02" width="61.77" height="61.77" rx="5.66" ry="5.66"/><rect class="cls-5" x="35.79" y="34.33" width="61.77" height="61.77" rx="5.66" ry="5.66"/><rect class="cls-5" x="35.07" y="33.63" width="61.77" height="61.77" rx="5.66" ry="5.66"/><rect class="cls-5" x="34.34" y="32.94" width="61.77" height="61.77" rx="5.66" ry="5.66"/><rect class="cls-5" x="33.62" y="32.25" width="61.77" height="61.77" rx="5.66" ry="5.66"/><rect class="cls-5" x="32.9" y="31.56" width="61.77" height="61.77" rx="5.66" ry="5.66"/><rect class="cls-5" x="32.18" y="30.87" width="61.77" height="61.77" rx="5.66" ry="5.66"/><rect class="cls-5" x="31.46" y="30.18" width="61.77" height="61.77" rx="5.66" ry="5.66"/><rect class="cls-5" x="30.74" y="29.49" width="61.77" height="61.77" rx="5.66" ry="5.66"/><rect class="cls-5" x="30.02" y="28.79" width="61.77" height="61.77" rx="5.66" ry="5.66"/><rect class="cls-5" x="29.3" y="28.1" width="61.77" height="61.77" rx="5.66" ry="5.66"/><rect class="cls-5" x="28.58" y="27.41" width="61.77" height="61.77" rx="5.66" ry="5.66"/><rect class="cls-5" x="27.85" y="26.72" width="61.77" height="61.77" rx="5.66" ry="5.66"/><rect class="cls-5" x="27.13" y="26.03" width="61.77" height="61.77" rx="5.66" ry="5.66"/><rect class="cls-5" x="26.41" y="25.34" width="61.77" height="61.77" rx="5.66" ry="5.66"/><rect class="cls-5" x="25.69" y="24.65" width="61.77" height="61.77" rx="5.66" ry="5.66"/><rect class="cls-5" x="24.97" y="23.96" width="61.77" height="61.77" rx="5.66" ry="5.66"/><rect class="cls-5" x="24.25" y="23.26" width="61.77" height="61.77" rx="5.66" ry="5.66"/><rect class="cls-5" x="23.53" y="22.57" width="61.77" height="61.77" rx="5.66" ry="5.66"/><rect class="cls-5" x="22.81" y="21.88" width="61.77" height="61.77" rx="5.66" ry="5.66"/><rect class="cls-5" x="22.08" y="21.19" width="61.77" height="61.77" rx="5.66" ry="5.66"/><rect class="cls-5" x="21.36" y="20.5" width="61.77" height="61.77" rx="5.66" ry="5.66"/><rect class="cls-5" x="20.64" y="19.81" width="61.77" height="61.77" rx="5.66" ry="5.66"/><rect class="cls-5" x="19.92" y="19.12" width="61.77" height="61.77" rx="5.66" ry="5.66"/></g></g><path class="cls-5" d="M76,21a3.78,3.78,0,0,1,3.77,3.77V75.23A3.78,3.78,0,0,1,76,79H25.58a3.78,3.78,0,0,1-3.77-3.77V24.77A3.78,3.78,0,0,1,25.58,21H76m0-1.89H25.58a5.66,5.66,0,0,0-5.66,5.66V75.23a5.66,5.66,0,0,0,5.66,5.66H76a5.66,5.66,0,0,0,5.66-5.66V24.77A5.66,5.66,0,0,0,76,19.12Z"/><rect class="cls-6" x="21.81" y="21" width="57.99" height="57.99" rx="4.02" ry="4.02"/><path class="cls-5" d="M44.87,57.64,33.35,51.3V49.23l11.52-7.18v3.47l-7.94,4.59,7.94,4.07Z"/><path class="cls-5" d="M55.6,39.42,49.27,60.58H46.06l6.32-21.17H55.6Z"/><path class="cls-5" d="M56.73,54.18l7.94-4.07-7.94-4.59V42.05l11.52,7.18V51.3L56.73,57.64Z"/></g></g></svg>