<svg id="Ebene_1" data-name="Ebene 1" xmlns="http://www.w3.org/2000/svg" viewBox="0 0 100 100"><defs><style>.cls-1{fill:#149cd6;}</style></defs><title>icon-social</title><path class="cls-1" d="M98.74,38.42a10.51,10.51,0,0,0-12.42-6.86A43,43,0,0,0,63,13.32l-2.85-.78a10.35,10.35,0,1,0-20.7,0A43.85,43.85,0,0,0,13.35,31.3a10.13,10.13,0,0,0-7,.91,10.49,10.49,0,0,0-5.18,6.08A10.35,10.35,0,0,0,6.88,50.84,43.22,43.22,0,0,0,17,82.15a10.26,10.26,0,0,0,8.8,15.66,8,8,0,0,0,1.68-.13,10.35,10.35,0,0,0,6.21-3.49c.91.39,1.81.65,2.72,1A43.32,43.32,0,0,0,66.65,93.8a10.4,10.4,0,0,0,13.59,1.29,10.35,10.35,0,0,0,2.85-13.72,42.29,42.29,0,0,0,7.5-13.84A41.62,41.62,0,0,0,92.53,51.1a10,10,0,0,0,6.22-12.64ZM49.83,6.59a6.47,6.47,0,1,1-6.47,6.47A6.47,6.47,0,0,1,49.83,6.59ZM4.93,39.45A6.21,6.21,0,0,1,8.17,35.7a5.9,5.9,0,0,1,3-.65,12.94,12.94,0,0,1,2.07.26h0A6.21,6.21,0,0,1,17,38.55a6.47,6.47,0,0,1,.39,4.92,6.21,6.21,0,0,1-3.23,3.75,6.47,6.47,0,0,1-4.92.39,6.21,6.21,0,0,1-3.75-3.23A6,6,0,0,1,4.93,39.45ZM26.8,93.93A6.38,6.38,0,0,1,22,92.76a6.47,6.47,0,1,1,9.06-1.42,6.21,6.21,0,0,1-4.27,2.59Zm51.37-2.07a6.47,6.47,0,1,1,1.42-9.06,6.56,6.56,0,0,1-1.42,9.06Zm10.09-25.1a42,42,0,0,1-6.73,12.55A10.35,10.35,0,0,0,65.23,91.6a40,40,0,0,1-27.95,1c-.78-.26-1.42-.52-2.07-.78A10.35,10.35,0,0,0,32,78.92a10.55,10.55,0,0,0-13.33.91A40.62,40.62,0,0,1,9.46,51.36a7.38,7.38,0,0,0,1.68.13,9.94,9.94,0,0,0,4.66-1.16A10.49,10.49,0,0,0,21,44.24a9.9,9.9,0,0,0-.65-7.89,10.92,10.92,0,0,0-4.53-4.53A40.59,40.59,0,0,1,39.61,14.74,10.35,10.35,0,0,0,49.7,23,10.17,10.17,0,0,0,59.8,14.74c.78.26,1.55.39,2.33.65A40.23,40.23,0,0,1,83.73,32.08a9.74,9.74,0,0,0-4.14,4.4,10.47,10.47,0,0,0-.65,7.89,10.25,10.25,0,0,0,9.83,7.12,4.85,4.85,0,0,0,1.29-.13,40.36,40.36,0,0,1-1.81,15.4Zm2.72-19a6.47,6.47,0,0,1-7.76-9.06A6.21,6.21,0,0,1,87,35.44a5,5,0,0,1,1.94-.26A6.47,6.47,0,0,1,91,47.73Z"/></svg>