<?xml version="1.0" encoding="utf-8"?>
<!-- Generator: Adobe Illustrator 20.0.0, SVG Export Plug-In . SVG Version: 6.00 Build 0)  -->
<svg version="1.1" id="Ebene_1" xmlns="http://www.w3.org/2000/svg" xmlns:xlink="http://www.w3.org/1999/xlink" x="0px" y="0px"
	 viewBox="0 0 100 100" style="enable-background:new 0 0 100 100;" xml:space="preserve">
<style type="text/css">
	.st0{fill:#149CD6;}
</style>
<path class="st0" d="M50,0.9C22.9,0.9,0.9,22.9,0.9,50s22,49.1,49.1,49.1s49.1-22,49.1-49.1S77.1,0.9,50,0.9z M50,5.4
	c24.7,0,44.6,20,44.6,44.6S74.7,94.6,50,94.6S5.4,74.7,5.4,50S25.3,5.4,50,5.4z M75.7,22.1h-0.2c-0.3,0-0.6,0.1-0.8,0.3L46.7,38
	c-0.2,0.1-0.3,0.2-0.5,0.3c-3.7,1.2-6.6,4.1-7.9,7.8c-0.1,0.1-0.3,0.3-0.3,0.5L22.4,74.5c-0.6,1.1-0.3,2.4,0.8,3.1
	c0.7,0.4,1.6,0.4,2.2,0L53.3,62c0.2-0.1,0.4-0.2,0.6-0.3c3.7-1.2,6.6-4.2,7.8-7.9c0.1-0.1,0.2-0.3,0.3-0.4l15.6-27.9
	c0.6-1.1,0.2-2.4-0.9-3C76.5,22.2,76.1,22.1,75.7,22.1z M69.9,30.2l-8.5,15.2c-1.2-3-3.7-5.4-6.7-6.7L69.9,30.2z M50,42.2
	c4.3,0,7.8,3.5,7.8,7.8s-3.5,7.8-7.8,7.8s-7.8-3.5-7.8-7.8S45.7,42.2,50,42.2z M38.7,54.7c1.2,3,3.7,5.4,6.7,6.7l-15.2,8.5
	L38.7,54.7z"/>
</svg>
