<svg id="Ebene_1" data-name="Ebene 1" xmlns="http://www.w3.org/2000/svg" viewBox="0 0 102 100"><defs><style>.cls-1{fill:#149cd6;}</style></defs><title>icon-graphic</title><path class="cls-1" d="M134,138.4a35,35,0,0,1-46.59-.56L95.18,130a24,24,0,0,0,31,.55Zm2.86-2.8A35,35,0,0,0,87.4,86.16L95.19,94a24,24,0,0,1,33.87,33.87ZM84.6,89a35,35,0,0,0,0,46l7.81-7.81a24,24,0,0,1,0-30.35ZM109,73V62a50,50,0,0,0-48,48H72A39,39,0,0,1,109,73Zm4,0V62h0a50,50,0,1,1,0,100h0V151a39,39,0,0,0,0-77.9Zm-4,77.9v11a50,50,0,0,1-48-48H72a39,39,0,0,0,37,37.05Z" transform="translate(-61 -62)"/></svg>